<?xml version="1.0" encoding="utf-8"?>
<!-- Generator: Adobe Illustrator 18.1.1, SVG Export Plug-In . SVG Version: 6.00 Build 0)  -->
<svg version="1.1" baseProfile="tiny" xmlns="http://www.w3.org/2000/svg" xmlns:xlink="http://www.w3.org/1999/xlink" x="0px"
	 y="0px" viewBox="37 649 45.8 144.2" xml:space="preserve">
<g id="girl">
	<path id="body" fill="#808285" d="M53.5,679.5c-0.2,0.2-8.3,1.8-8.3,1.8c-3.1,0.6-4.6,3-5.2,5.7v38.6c-0.1,0.2-0.1,0.4-0.1,0.7v4.1
		c0,1.5,1.5,2.8,2.9,2.8h0.2c1.5,0,2.7-1.2,2.7-2.7v-4.1c0-0.3-0.1-0.7-0.2-0.9l1.3-28c0,0,2.4,13,2.2,16.1
		c-0.2,4.1-4.1,9.9-4.7,16.5c-0.1,3.5,0.9,15.5,0.9,15.5c-0.1,2.1,0,2.6,1.7,2.6h1.3l1.7,31.4c0,0.7-0.2,2.2-0.9,4.7
		c-0.1,0.2-0.1,0.3-0.1,0.6c0,0.1,0,0.1-0.1,0.1c-0.3,1.3-0.9,3.9-1,4.1s-0.1,0.3-0.1,0.4c0-0.1,0-0.1,0-0.1c0,0.1,0,0.1,0,0.2
		c0,0.1,0,0.2,0,0.3c0,0.1,0,0.2,0,0.3c0,0.1,0,0.2,0.1,0.2c0,0.1,0.1,0.1,0.1,0.1c0.3,0.8,1.1,1,1.8,1h1.9l0,0H57
		c0.4,0,0.6-0.2,0.6-0.7v-5.6l0,0v-1.1l0,0v-0.6V781c0,0,0-1.1-0.1-2l1.8-30.7h1.3l1.8,30.6v0.1c-0.2,1-0.2,2.1-0.2,2.1v2.7v0.6v1.1
		l0,0v5.4c0,0.8,0.1,1,0.4,1h4.9l0,0H70c0.6,0,1.2-0.1,1.6-0.7c0,0,0-0.1,0.1-0.1c0.1-0.1,0.1-0.1,0.1-0.2c0.1-0.1,0.1-0.1,0.1-0.2
		s0-0.1,0-0.1c0-0.1,0-0.2,0-0.3s0-0.1,0-0.2c0-0.1,0-0.1,0-0.2c0,0,0,0,0,0.1c0-0.1-0.1-0.3-0.1-0.6c-0.1-0.2-0.7-2.7-0.9-4.1
		c0,0,0-0.1-0.1-0.1c0-0.2-0.1-0.3-0.1-0.6c-0.7-2.6-0.8-3.9-0.9-4.5l1.7-31.6h1.3c1.8,0,1.8-0.4,1.8-2.6c0,0,0.4-12,0.2-15.5
		c-0.4-5.9-4-13.1-4.3-16c-0.2-3.9,1.7-16.6,1.7-16.6v-0.1l1.8,27.6c-0.2,0.3-0.3,0.8-0.3,1.2v4.1c0,1.5,1.2,2.7,2.7,2.7h0.3
		c1.5,0,3-1.2,3-2.7v-4.1c0-0.2-0.1-0.6-0.1-0.8v-38.8c-0.6-2.9-2.1-5.2-5.4-5.7h-0.1c0,0-8-1.5-8.2-1.6l-6.3,8.7L53.5,679.5z"/>
	<g id="head">
		<g>
			<path fill="#808285" d="M70.2,666.6c0.1,4,0,8.3,1,9.3c-3.5,2.2-9.7,2.2-11.3,2.2c-3.2,0.1-8.7-0.2-11.5-2.2
				c2.5-1.3-3-29.1,13.9-22.5C66.4,652.3,70.1,659.5,70.2,666.6z"/>
		</g>
	</g>
</g>
<g id="boy" display="none">
	<g id="head_1_" display="inline">
		<g>
			<path fill="#808285" d="M68.7,662.8c0.8,0.8,0.7,2,0.6,3c-0.2,1.1-0.6,2.7-1.6,3.5c0,0.8-0.1,1.7-0.3,2.5c-0.3,1.2-1.2,2.2-2.5,3
				c-0.8,0.6-1.6,1.3-2.5,1.9c-1.1,0.7-2.2,0.8-3.5,0.8c-1.2,0.1-2.4-0.1-3.5-0.8c-0.9-0.6-1.7-1.3-2.5-1.9c-1.1-0.8-2-1.7-2.5-3
				c-0.2-0.8-0.2-1.7-0.3-2.5c-0.9-0.8-1.3-2.2-1.6-3.5c-0.2-1-0.2-2.1,0.6-3c-0.2-4.6,0.2-7.4,2.6-9.4c2.7-2.4,7.6-2.9,10.5-1.3
				C68.7,651.1,68.8,659.4,68.7,662.8z"/>
		</g>
	</g>
	<path id="body_1_" display="inline" fill="#808285" d="M80.5,685.8c-0.3-3.5-2.8-5.2-6.3-5.8c-0.1,0-5.2-0.7-6.8-0.8l-4.6,13.7
		l-1.6-9l0.9-2l-0.6-2.8h-4.4l-0.8,2.8l1.1,1.8l-1.7,9.2L51.5,679c-1.7,0.1-6.9,0.9-6.9,0.9c-3.6,0.6-5.9,2.5-6.3,5.8v40.5
		c0.3,0,0.7,0.1,1,0.1v4c0,1.6,1.2,2.8,2.8,2.8h2.2c0.3,0,0.7-0.1,0.9-0.2v52.8h1.2v4.5c0,0.7,0.6,1.2,1.2,1.2h9.6
		c0.7,0,1.2-0.6,1.2-1.2v-4.5h1v-50.5h0.9v50.5h1v4.5c0,0.7,0.6,1.2,1.2,1.2h9.6c0.7,0,1.2-0.6,1.2-1.2v-4.5h0.8
		c0.3-12.5,0.2-39.7,0.1-53.5c0.6,0.6,1.2,0.8,2,0.8h1.1c1.6,0,2.8-1.2,2.8-2.8v-4.1c0.2,0,0.6-0.1,0.8-0.1L80.5,685.8z"/>
</g>
</svg>
