<?xml version="1.0" encoding="utf-8"?>
<!-- Generator: Adobe Illustrator 18.1.1, SVG Export Plug-In . SVG Version: 6.00 Build 0)  -->
<svg version="1.1" id="Layer_1" xmlns="http://www.w3.org/2000/svg" xmlns:xlink="http://www.w3.org/1999/xlink" x="0px" y="0px"
	 viewBox="0 0 229.5 49.5" enable-background="new 0 0 229.5 49.5" xml:space="preserve">
<g>
	<g>
		<g>
			<path fill="#BCBEC0" d="M4.2,8.5v6c1.4,2.2,4,2.2,7.5,2.2c2,0,4.3,0,5.7-0.1c-0.1,0.3-0.3,0.8-0.4,1.2c-1.2,0-3.2,0.1-5,0.1
				c-4,0-6.5,0-8.3-2.3c-1,0.8-2,1.6-2.8,2.3c0,0.2,0,0.2-0.2,0.3L0,16.7c0.9-0.6,2-1.4,3-2.2V9.6H0.2V8.5H4.2z M1.4,1.6
				c1.2,0.8,2.6,2.1,3.1,3L3.6,5.4C3.1,4.5,1.7,3.2,0.5,2.3L1.4,1.6z M11.7,5.8c-1.1-0.6-2.6-1.2-3.7-1.6l0.8-0.7
				c0.8,0.3,1.7,0.7,2.6,1.1c1-0.4,2-1,2.8-1.6h-8v-1h9.2l0.2-0.1l0.9,0.6c-0.1,0.1-0.2,0.1-0.3,0.1c-0.9,0.8-2.3,1.7-3.7,2.4
				c0.6,0.3,1.1,0.5,1.5,0.8h2.4v8.3c0,1.2-0.4,1.3-3.1,1.3c-0.1-0.3-0.2-0.7-0.3-1c0.5,0,1,0,1.4,0c0.8,0,0.9,0,0.9-0.3v-1.9h-3.4
				v3.1h-1.1v-3.1H7.3v3.2H6.2V5.8H11.7z M10.6,6.8H7.3v1.7h3.3V6.8z M7.3,11.3h3.3V9.5H7.3V11.3z M15.2,8.5V6.8h-3.4v1.7H15.2z
				 M11.7,11.3h3.4V9.5h-3.4V11.3z"/>
			<path fill="#BCBEC0" d="M34,2.5v13.9c0,1.7-0.8,1.7-4.2,1.7c-0.1-0.3-0.3-0.9-0.4-1.2c0.7,0,1.3,0,1.9,0c1.5,0,1.6,0,1.6-0.5v-4
				h-5.3v5.5h-1.2v-5.5h-4.8c-0.3,2.1-0.9,4.2-2.3,5.8c-0.2-0.2-0.7-0.7-0.9-0.8c2-2.3,2.2-5.6,2.2-8.2V2.5H34z M21.8,9.2
				c0,0.6,0,1.3-0.1,2h4.7V8h-4.6V9.2z M26.4,3.6h-4.6v3.2h4.6V3.6z M32.8,6.9V3.6h-5.3v3.2H32.8z M27.6,11.2h5.3V8h-5.3V11.2z"/>
			<path fill="#BCBEC0" d="M37.3,6.3c1.2,0.5,2.7,1.3,3.4,1.9l-0.7,1c-0.7-0.6-2.2-1.5-3.4-2L37.3,6.3z M37.2,17
				c0.9-1.4,2.3-3.9,3.3-6l0.9,0.8c-0.9,2-2.1,4.2-3,5.7c0.1,0.1,0.1,0.2,0.1,0.3c0,0.1,0,0.1-0.1,0.2L37.2,17z M38.3,1.3
				c1.2,0.5,2.6,1.3,3.3,2l-0.7,1c-0.7-0.7-2.1-1.6-3.3-2.1L38.3,1.3z M53.6,4.5h-9.1c-0.6,1.3-1.4,2.5-2.2,3.4
				c-0.2-0.2-0.6-0.6-0.9-0.8c1.3-1.3,2.5-3.6,3.2-5.9l1.5,0.4c0,0.1-0.2,0.2-0.4,0.2c-0.2,0.5-0.4,1.1-0.6,1.6h8.6V4.5z M42.1,8.8
				h9.4c0,4.6,0.1,8.2,1.1,8.2c0.3,0,0.4-1.1,0.4-2.6c0.2,0.3,0.6,0.5,0.8,0.7c-0.1,2.2-0.3,3-1.3,3c-1.9,0-2.1-3.3-2.2-8.3h-8.2
				V8.8z M52,7.1h-8.3v-1H52V7.1z"/>
		</g>
	</g>
	<g>
		<text transform="matrix(1 0 0 1 75.8726 16.0493)" fill="#BCBEC0" font-family="'OpenSans-CondensedBold'" font-size="19.1747">HOLA!</text>
	</g>
	<g>
		<text transform="matrix(1 0 0 1 127.7549 44.7031)" fill="#BCBEC0" font-family="'OpenSans-CondensedBold'" font-size="19.1747">BONJOUR!</text>
	</g>
	<g>
		<g>
			<path fill="#BCBEC0" d="M12.8,37.7c-1.3-0.5-2.1-0.6-3.2-0.6c-0.7,0-1.1,0.2-1.5,0.6l0.2,1L8,39.5l-0.1,0l-0.7-1.8
				c0.1-1.3,1.1-2.1,2.5-2.1c0.8,0,2,0.3,3.8,1c0.5,0.2,1.1,0.4,2,0.4l1,0l0,0l-0.7,1.2c-0.8,0.1-2.5,0.6-3.1,0.8
				c-2.5,0.9-4.3,2.3-4.3,3.8c0,2.4,2.5,3.8,5.7,3.8c1,0,2-0.1,3-0.3l0,0.1c-0.6,0.5-1.2,1-1.9,1.4c-0.6,0.1-1.4,0.2-2.2,0.2
				c-3,0-5.5-1.5-5.5-4.7C7.6,40.5,9.9,38.4,12.8,37.7L12.8,37.7z M12.6,41.4c0.5,0.3,0.9,0.8,1.4,1.2c-0.3,0.4-0.6,0.8-1,1.1
				c-0.4-0.4-0.9-0.8-1.4-1.2C12,42.2,12.3,41.8,12.6,41.4z"/>
			<path fill="#BCBEC0" d="M25.3,34.8c0.8,1.5,1.2,3,1.2,4.7c0,1.1-0.4,2.4-0.8,2.9c-1,1-2.5,1.7-3.8,1.7c-2.2,0-3.5-1.4-3.5-3.5
				c0-1.5,0.5-2.5,1-3.3l0.4,0.2c-0.4,0.7-0.6,1.6-0.6,2.2c0,1,0.3,1.6,0.8,2c0.5,0.5,1.3,0.8,2.2,0.8c0.9,0,2.1-0.4,2.8-1
				c0.5-0.4,0.8-0.7,0.8-1c0-0.8-0.2-1.5-0.4-2c-0.3-0.9-0.6-1.7-1-2.3C24.6,35.7,24.9,35.3,25.3,34.8L25.3,34.8z M22.2,31
				c0.5,0.3,0.9,0.8,1.4,1.2c-0.3,0.4-0.6,0.8-1,1.1c-0.4-0.4-0.9-0.8-1.4-1.2C21.6,31.8,21.9,31.4,22.2,31z"/>
			<path fill="#BCBEC0" d="M32.5,35.5l0.8,1.6c0.3,0.6,0.6,1.2,0.6,2.2v1.3c0,1-0.6,2.1-1.4,3.2c-0.7,0.7-1.3,1-1.9,1
				c-0.9,0-1.8-0.3-3-0.9l0.1-0.4c0.4,0.1,0.8,0.2,1.3,0.2c1.6,0,3.3-1.4,4-3.1c0.1-0.2,0.1-0.4,0.1-0.5c0-0.2-0.1-0.4-0.2-0.6
				c-0.4-0.9-0.9-1.8-1.4-2.5C31.8,36.4,32.1,35.9,32.5,35.5L32.5,35.5z"/>
			<path fill="#BCBEC0" d="M36,41.6c0.1-0.7,0.1-1.5,0.1-2.3v-1.1c0-2.1-0.2-5.2-0.4-7.2c0.3-0.4,0.8-0.9,1.1-1.2l0.1,0
				c0.2,2.5,0.3,5.4,0.3,8.1c0,0.7,0,1.4-0.1,1.9c0,0.6-0.3,1.1-1,1.9L36,41.6z"/>
			<path fill="#BCBEC0" d="M46.7,29.6c0,0.8,0.4,1.7,1,2.7c-0.2,0.2-0.5,0.4-0.8,0.6c0.1,1.5,0.1,3.3,0.1,4.8c0,0.8,0,1.7-0.6,3.4
				c-0.4,0.6-0.8,1-1.3,1.3c-0.7,0.5-1.6,0.7-2.4,0.7c-1,0-1.8-0.3-2.4-1c-0.5-0.6-0.8-1.5-0.8-2.6c0-1,0.3-1.9,0.8-2.9l0.4,0.2
				c-0.3,0.7-0.5,1.3-0.5,2c0,0.7,0.2,1.3,0.6,1.8c0.5,0.6,1.2,0.9,2,0.9c0.8,0,1.4-0.2,2-0.6c0.6-0.3,1-0.7,1.3-1.1
				c0-0.2,0-0.5,0-0.7c0-1.7-0.1-3.9-0.3-6.4c0-0.5-0.1-1-0.1-1.5c0-0.3,0-0.6,0.2-0.9C46.1,30.1,46.3,29.8,46.7,29.6L46.7,29.6z"/>
			<path fill="#BCBEC0" d="M57.1,39.4c-1.3,0-1.9,0.5-1.9,0.9c0,1.2,0.8,3.4,1.5,5.8c0.1,0.3,0.1,0.7,0.1,1c0,0.6-0.1,1.1-0.3,1.7
				l-0.3,0c0-1.4-0.9-3.7-1.7-6.1c-0.1-0.4-0.2-1-0.2-1.3c0-0.5,0.1-1,0.3-1.5c0.2-0.6,0.6-1.2,1-1.5c-0.1-0.5-0.2-1.1-0.2-1.5
				c0-0.5,0.3-1.1,0.6-1.4s0.7-0.5,1.1-0.5c0.5,0,1,0.1,1.4,0.5c0.7,0.6,1.3,1.3,1.8,2.2c0.1,0.2,0.1,0.5,0.1,0.7
				c0,0.4-0.2,0.9-0.4,1.2C59.2,39.6,58.1,39.4,57.1,39.4z M59.4,38.1c-0.7-0.9-1.4-1.7-2.4-1.7c-0.2,0-0.5,0-0.7,0.1l0,0.6
				c-0.1,0.4-0.2,0.8-0.3,1.1c0.4-0.1,1-0.2,1.6-0.2c0.4,0,1.1,0.1,1.8,0.2L59.4,38.1z"/>
			<path fill="#BCBEC0" d="M66.4,40.2c-1.3,0-2.5-0.6-2.5-2.2c0-0.8,0.3-1.4,0.7-2c0.5-0.6,1.1-1,1.6-1c0.7,0,1.3,0.5,1.7,1.3
				c0.4,0.8,0.7,1.9,0.7,3.2c0,1.1-0.3,2.1-0.9,3c-1,1.6-2,2.2-3,2.2c-1.1,0-2.2-0.3-3.3-1.1l0.2-0.4c0.6,0.3,1.1,0.4,1.7,0.4
				c1.2,0,2.3-0.6,3.4-1.8c0.5-0.6,1-1.2,1.1-1.9C67.4,40.1,66.9,40.2,66.4,40.2z M65.9,36.6c-0.5,0-1.3,0.6-1.3,1
				c0,0.7,1,1.2,2,1.2c0.4,0,0.9,0,1.3-0.1C67.5,37.5,66.8,36.6,65.9,36.6z"/>
			<path fill="#BCBEC0" d="M76.4,41.9c-3.2,0-5.6-1.2-5.6-4c0-0.9,0.2-1.9,0.7-2.8l0.5,0.2c-0.2,0.7-0.3,1.2-0.3,1.7
				c0,2.3,2.3,3.3,5.2,3.3c1.3,0,2.7-0.2,3.9-0.5c0.5-0.1,1-0.3,1.5-0.5c0.1,0,0.1-0.1,0.1-0.1c0-0.5-0.6-1.7-1.1-2.8
				c0.3-0.5,0.6-0.9,0.9-1.3h0.1c0.5,0.9,1.1,2.4,1.1,3.5c0,0.9-0.3,1.4-0.6,1.9C81.6,41.1,78.7,41.9,76.4,41.9z M75.9,34.2
				c-0.5-0.4-0.9-0.8-1.3-1.2c0.3-0.4,0.6-0.8,0.9-1.1c0.5,0.4,0.9,0.7,1.3,1.2C76.5,33.6,76.2,33.9,75.9,34.2z M78.1,34.1
				c-0.5-0.4-0.9-0.8-1.3-1.2c0.3-0.4,0.6-0.8,0.9-1.1c0.5,0.4,0.9,0.7,1.3,1.2C78.7,33.5,78.5,33.8,78.1,34.1z"/>
			<path fill="#BCBEC0" d="M89,40.2c-1.3,0-2.5-0.6-2.5-2.2c0-0.8,0.3-1.4,0.7-2c0.5-0.6,1.1-1,1.6-1c0.7,0,1.3,0.5,1.7,1.3
				c0.4,0.8,0.7,1.9,0.7,3.2c0,1.1-0.3,2.1-0.9,3c-1,1.6-2,2.2-3,2.2c-1.1,0-2.2-0.3-3.3-1.1l0.2-0.4c0.6,0.3,1.1,0.4,1.7,0.4
				c1.2,0,2.3-0.6,3.4-1.8c0.5-0.6,1-1.2,1.1-1.9C90,40.1,89.5,40.2,89,40.2z M88.4,36.6c-0.5,0-1.3,0.6-1.3,1c0,0.7,1,1.2,2,1.2
				c0.4,0,0.9,0,1.3-0.1C90.1,37.5,89.4,36.6,88.4,36.6z"/>
			<path fill="#BCBEC0" d="M97.1,35.5l0.8,1.6c0.3,0.6,0.6,1.2,0.6,2.2v1.3c0,1-0.6,2.1-1.4,3.2c-0.7,0.7-1.3,1-1.9,1
				c-0.9,0-1.8-0.3-3-0.9l0.1-0.4c0.4,0.1,0.8,0.2,1.3,0.2c1.6,0,3.3-1.4,4-3.1c0.1-0.2,0.1-0.4,0.1-0.5c0-0.2-0.1-0.4-0.2-0.6
				c-0.4-0.9-0.9-1.8-1.4-2.5C96.5,36.4,96.7,35.9,97.1,35.5L97.1,35.5z"/>
			<path fill="#BCBEC0" d="M104.4,35.5l0.8,1.6c0.3,0.6,0.6,1.2,0.6,2.2v1.3c0,1-0.6,2.1-1.4,3.2c-0.7,0.7-1.3,1-1.9,1
				c-0.9,0-1.8-0.3-3-0.9l0.1-0.4c0.4,0.1,0.8,0.2,1.3,0.2c1.6,0,3.3-1.4,4-3.1c0.1-0.2,0.1-0.4,0.1-0.5c0-0.2-0.1-0.4-0.2-0.6
				c-0.4-0.9-0.9-1.8-1.4-2.5C103.7,36.4,104,35.9,104.4,35.5L104.4,35.5z M103.3,31.5c0.5,0.3,0.9,0.8,1.4,1.2
				c-0.3,0.4-0.6,0.8-1,1.1c-0.4-0.4-0.9-0.8-1.4-1.2C102.7,32.3,103,31.9,103.3,31.5z"/>
		</g>
	</g>
	<g>
		<g>
			<path fill="#BCBEC0" d="M142.2,10.6c0.2-1.6-0.4-2.2-1.4-2.5l0.3-1.5c1.3,0.2,2.1,1,2.2,2.3c0.4-1,1.3-2.3,3.1-2.3
				c2.5,0,3.1,2.3,3.1,5.4v2.1c0,0.1-0.2,1.2-0.2,1.4h-3.2c-0.6,0-1.5,0-1.8,0l0.3-1.4c0.3-0.1,1.1-0.1,2-0.1h1.7c0-0.7,0-1.3,0-2
				c0-2-0.3-4-2.1-4c-1.8,0-2.4,1.8-2.7,2.9c-0.3,1.1-0.6,3-0.9,4.6h-1.3C141.6,13.8,142,11.8,142.2,10.6z"/>
			<path fill="#BCBEC0" d="M151.1,14.1c0.4,0,0.9-0.1,2-0.1h1.1v-3.6c0-1.4-0.2-1.8-1.6-2.1c-0.6-0.1-1.1-0.3-1.4-0.4l0.3-1.4
				c0.2,0.1,0.7,0.2,1.4,0.3c1.9,0.4,2.6,0.9,2.6,3.3v3.9l-0.3,1.4h-2.2c-0.7,0-1.8,0-2.1,0L151.1,14.1z"/>
			<path fill="#BCBEC0" d="M159.5,10.5c0-1.4-0.2-1.9-1.4-2.2c-0.6-0.1-0.9-0.2-1.1-0.3l0.3-1.4c0.2,0.1,0.5,0.2,1.1,0.3
				c1.8,0.4,2.4,1,2.4,3.4v5.3h-1.3V10.5z"/>
			<path fill="#BCBEC0" d="M165.5,14c-0.5-1.8-2.2-5.5-3.4-7.2l1.7-0.1c0.9,1.6,2.3,4.8,2.8,7c1.2-0.5,1.8-1.5,1.8-3.5
				c0-0.9-0.2-2.3-0.7-3.3l1.6-0.2c0.2,0.5,0.4,1.7,0.4,3.1c0,2.4-0.6,4.2-3.2,5.4c-1.2,0.5-3.1,1-4.6,1.1l0.3-1.6
				C163.3,14.6,164.7,14.3,165.5,14z"/>
			<path fill="#BCBEC0" d="M171.7,11.7c0.7-1,1-1.8,1-2.5c0-0.5-0.3-0.7-1-0.9c-0.4-0.1-0.7-0.2-1-0.3l0.3-1.4
				c0.2,0.1,0.5,0.2,1,0.3c1.5,0.3,2.1,0.8,2.1,2c0,1-0.5,2.1-1.3,3.3L171.7,11.7z"/>
			<path fill="#BCBEC0" d="M183.7,10.2v3.9c0,0.1-0.2,1-0.3,1.5h-7.3V9.7c0-0.7,0-1.2,0.1-1.5c-0.4,0-1,0-1.2-0.1l0.3-1.4
				c0.4,0.1,1.3,0.1,2.2,0.1h3.3C183.3,6.7,183.7,7.4,183.7,10.2z M180.8,8.2h-3.4V14h5.1v-3.5C182.5,9,182.3,8.2,180.8,8.2z"/>
			<path fill="#BCBEC0" d="M188.8,14.1c0.3,0,1.2,0,2.2,0h3.1c0.2-0.8,0.3-2,0.3-3c0-2.2-0.5-2.9-2.2-2.9h-1.5c-1,0-1.6,0-1.9-0.1
				l0.3-1.4c0.3,0.1,1.1,0.1,2,0.1h1.3c2.7,0,3.2,1.2,3.2,4.2c0,1.7-0.3,3.4-0.5,4.6h-4.4c-0.7,0-1.7,0-2.1,0L188.8,14.1z"/>
			<path fill="#BCBEC0" d="M198.5,14c2.1-0.6,3.8-2.3,3.8-4.6c0-1-0.4-1.2-1.3-1.2h-3.8V5.9c0-1,0-2.2-0.2-2.6l1.3-0.2
				c0.1,0.2,0.2,1.3,0.2,2.5v1.1h3.1c1.6,0,2,0.8,2,2.3c0,3.6-2.9,6.1-5.4,6.7L198.5,14z"/>
			<path fill="#BCBEC0" d="M206.2,14c2.1-0.6,3.8-2.3,3.8-4.6c0-1-0.4-1.2-1.3-1.2h-3.8V5.9c0-1,0-2.2-0.2-2.6l1.3-0.2
				c0.1,0.2,0.2,1.3,0.2,2.5v1.1h3.1c1.6,0,2,0.8,2,2.3c0,3.6-2.9,6.1-5.4,6.7L206.2,14z"/>
			<path fill="#BCBEC0" d="M213.5,11.7c0.7-1,1-1.8,1-2.5c0-0.5-0.3-0.7-1-0.9c-0.4-0.1-0.7-0.2-1-0.3l0.3-1.4
				c0.2,0.1,0.5,0.2,1,0.3c1.5,0.3,2.1,0.8,2.1,2c0,1-0.5,2.1-1.3,3.3L213.5,11.7z"/>
			<path fill="#BCBEC0" d="M217.5,11.7c0.7-1,1-1.8,1-2.5c0-0.5-0.3-0.7-1-0.9c-0.4-0.1-0.7-0.2-1-0.3l0.3-1.4
				c0.2,0.1,0.5,0.2,1,0.3c1.5,0.3,2.1,0.8,2.1,2c0,1-0.5,2.1-1.3,3.3L217.5,11.7z"/>
			<path fill="#BCBEC0" d="M229.5,10.2v3.9c0,0.1-0.2,1-0.3,1.5H222V9.7c0-0.7,0-1.2,0.1-1.5c-0.4,0-1,0-1.2-0.1l0.3-1.4
				c0.4,0.1,1.3,0.1,2.2,0.1h3.3C229.1,6.7,229.5,7.4,229.5,10.2z M226.6,8.2h-3.4V14h5.1v-3.5C228.3,9,228.1,8.2,226.6,8.2z"/>
		</g>
	</g>
</g>
</svg>
