<?xml version="1.0" encoding="utf-8"?>
<!-- Generator: Adobe Illustrator 18.1.1, SVG Export Plug-In . SVG Version: 6.00 Build 0)  -->
<svg version="1.1" id="Layer_1" xmlns="http://www.w3.org/2000/svg" xmlns:xlink="http://www.w3.org/1999/xlink" x="0px" y="0px"
	 viewBox="-61.9 29.5 374 191" enable-background="new -61.9 29.5 374 191" xml:space="preserve">
<g>
	<g>
		<path fill="#E6E7E8" d="M55.4,88.1v-2.2h-0.3v-2l-9.8-10.6v-1.2l2.5-8.1v-0.7L31.6,48.9V48h0.9v-0.6h2.3l10.5-15.7v-0.3L12.2,35
			c0,0-1,0.7-0.6,2s2.9,10.3-0.1,10.6c-2.9,0.3-11.4,0.3-23.2-2.2c-1.5,0.4-15.9,14.5-15.9,14.5s-13.3-2.5-21.6-2.6
			s-10.7,3.5-10.7,3.5l4.4,5.9l-4.4,5.1l9.1,7.3l9.1-6.7l11.4,3.5c0,0,5.8-0.1,8,3.8c2.3,3.8,1.9,4.8,1.9,4.8l2.5,1.7l-2,2.8
			l4.4,6.7v9.4c0,0,6.1,9.4,7,10.9c0.9,1.5,3.5,5.2,4.2,5.4c0.7,0.1,2.2,0.4,2.2,0.4s-1.3-3.6-1.5-5.5c0.1,0.7,7.3,8.4,7.3,8.4
			l0.3,2.6c0,0,1.2,2.2,4.5,2.8c3.5,0.6,4.8,1.3,5,1.6c0.1,0.3,3.5,2.2,4.8,2.8c1.3,0.6,3.1,1,3.5,1.5c0.4,0.4,2.8,2.8,2.8,3
			s8.8,2.8,8.8,2.8s-6.3-3.3-6.4-3.6c0-0.3,0-2,0-2h0.9v-1.7h-4.1c0,0,0.1-0.6,0-0.7s-0.6,0-0.6,0v-7.7h-3.2l-4.5,3.2h-0.7v-0.9
			c0,0-3.1-3.9-3.1-7.5c0-3.6,3.2-4.2,3.2-4.2h5.4l2.2-1.6l1.6,1.2h2.3c0,0,0.6-1.2,1,0.1c0.4,1.3,1.5,4.6,1.5,4.6h0.7v-7.3h-0.6
			v-1.2l4.4-2.5c0,0,4.1-7.8,4.1-8v-0.6l5.7-4.6h0.9l1.8,1.2h1l3.5-2.5l-6-4.4v-0.7h1.3v-0.4h2.8v-0.4h2.8v1.3l0.9,2h5.1V92
			L55.4,88.1z M30.5,82.7v5.1H30l-3.8-6.7L13.8,75l8.9-7.3l11.8,9.9L30.5,82.7z"/>
		<path fill="#E6E7E8" d="M27.7,122.5v2h1.9c0,0,1.6,1.3,1.8,1.9c0.3,0.4,0.3,2.2,0.3,2.2h2v0.4h3.2v0.4h1.3v-0.7c0,0,1.6-0.4,1.6-1
			c0-0.6-2.8-2.5-5-2.5c0,0,0-0.6,0-0.7s0.4,0,0.4,0v-0.6h0.4v-2.5h-0.4v-0.6h-0.4v-0.4h-0.4V120H34l-0.7,1v3.2h-0.9v-0.4l-2-1.2
			L27.7,122.5z"/>
		<path fill="#E6E7E8" d="M41,136.1c-0.1,0-4.8,1.9-5.3,2.6c-0.6,0.7-1.3,7.4-1.3,7.4s-4.4,5.5-4.7,5.9c-0.3,0.4,0,6.2,0,6.2
			s3.9,9.3,5.8,10.3c1.9,1,3.8,0.9,3.8,0.9s0.9,3.6,0.9,5.4c0,1.7-1.2,9.3-1.3,10.2c-0.1,0.7-2.8,13.8-2.8,14.5s0.3,1.6,0.3,2.2
			c0,0.4,0.3,0.3,0.3,0.3v3.6h-0.4v4.4h0.3c0,0,0.9,4.6,2.5,6.5c1.6,1.9,3.2,2,3.2,2h2.3v-0.4h-0.7v-0.4h-0.1v-0.4v-8.1v-0.6h0.4
			c0,0,3.9-6.8,5-8.1c1-1.3,4.8-4.6,7.4-6.7c2.6-2.2,3.8-4.4,4.4-5.5c0.6-1.2,1.2-2,1.5-2.8s0-2.6,0-2.6H62v-1.2c0,0,3.4-2.2,6-3.8
			c2.6-1.6,3.8-2.2,3.8-2.2v-6.5h0.9c0,0,1.5-1.5,2.8-2.8c1.3-1.5,1.5-3,1.6-3.8s0.4-1,0.4-1v-1.2h-0.4c0,0-1-2.6-1.5-3.2
			s-0.9-1.3-0.9-1.3H73v-0.4h-1.5c0,0-7-3.5-7.4-3.9c-0.4-0.4-0.7-1.2-0.7-1.2v-0.7l-0.3-0.3v-1h-0.6v-1v-2.5c0,0-0.7,0.1-0.7,0
			s-5.7-2.6-7.4-4.4c-1.8-1.7-3.2-2.6-3.2-2.6L41,136.1z"/>
		<path fill="#E6E7E8" d="M157.7,63.3l-16.1-6.7l-11.4,3.3l-4.2,9l-5.4,3.3v5.5h4.2l0.6-0.6l-0.3,1.2c0,0-0.6,1.2-0.4,1.5
			c0.1,0.1,0,0.7,1.2,0.7c1.2,0,5.3-1.2,5.3-1.2l0.3-2.8l2.5-2.2l-1.8-2.8v-2.3l5.5-3.6l1.3,1.9l-3.1,3.2l1.9,3.2l3.2,0.7l-4.4,5.8
			H134l-4.2,2.3h-3.9l-1.8,1.7h-3.5l-1,4.2h-1.6l-1-0.7l-1.8,1.9h-3.1l-0.4,0.7v1.6l1.3,5.9l-7-0.4l-0.7,8.7h7.9l2.8-7.7l6.7-2.5
			l5.8,4.1l3.8-1.9l6.1,4.1l2-1.2l3.2-0.1l1.5-4.6l5.5-0.6l1-3l-5.4-4.2l9.8-7.7L157.7,63.3z"/>
		<path fill="#E6E7E8" d="M110.5,76.6c-0.3,0-2.3,1.2-2.3,1.2l2.3,5.1l-1.2,5.4v0.6h1.2l1.5-1.5h2l1.3-2.2L110.5,76.6z"/>
		<path fill="#E6E7E8" d="M99.5,64.9c-0.3-0.1-6.9-0.3-7-0.3c-0.1,0-3.8,3-3.8,3l1.9,3.2h6.1l4.4-2.3L99.5,64.9z"/>
		<path fill="#E6E7E8" d="M125.2,39.3c0,0.3-0.6,5.4-0.6,5.4s7.6,0.3,7.6,0c0-0.3,6-1.9,6-1.9v-4.5L125.2,39.3z"/>
		<path fill="#E6E7E8" d="M108.2,81.8c-0.3,0-1.6,0-1.6,0l-0.7,3l0.9,1.5l1.5-1.2V81.8z"/>
		<path fill="#E6E7E8" d="M122.5,106.4l-16.2,3.2c0,0-10.1,15.1-10.1,15.2c0,0.1,1.6,12.8,1.6,12.8l11.5,9c0,0,8-3.2,8.3-3
			c0.3,0.1,2.9,0.1,2.9,0.1s2.2,3.2,2,3.3c-0.1,0.1,1,5.8,1,5.8l2.3,6.7v1.7l-2,6.1l6.9,21.3l8.3,0.6l3.8-2l9.3-10.7v-7.3
			c0,0,5.3-7.1,5.3-7.4s-2.8-6.1-2.8-6.1l0.1-2.8l9.6-8.1l2.6-9.7h-10.5c0,0-9.5-17.3-9.5-17.6s-0.3-2.9-0.3-2.9l-1.8-2.6l-8-0.7
			h-3.4h-6L122.5,106.4z"/>
		<path fill="#E6E7E8" d="M186.3,52.4l-5.8,5.2l-22.8,5.7c0,0-0.9,17.8-0.9,17.6c0-0.3-9.1,7.1-9.1,7.1l7.3,5.9l1.5,7l-14.2,1.5v3.5
			l8.6,2c0,0,0.3,8.4,0.3,8.7c0,0.3,9.1,17.7,9.1,17.7l13.6-6.1l2.6-7.5l6.6-0.3l5.8,4.8l4.5,14.9c0,0,4.8-1.6,4.8-2
			c0-0.3,0-5.2,0-5.2l10.5-11c0,0,3.7,9,3.9,9c0.3,0,5.4,4.9,5.4,4.9l7,2.9v-11.3c0,0,17.1-11.5,17.1-11.9c0-0.3,1-6.4,1-6.8
			c-0.1-0.3-3.9-5.5-3.9-5.5l5.1,2.2l3.9,3.9l-0.6-5.8l8.9-5.8l2.8-6.4l5.5-1.7l-3.9-6.2l-4.2-1.7c0,0,5.5-5.5,5.4-5.5s12,0,12,0
			l9.6-3.9l-6.4,8.4l1.3,6.2l11-12.8l20.4-10.4v-1.3l-60.4-9.7H227l5-5.1L221.9,44l-23.8,9L186.3,52.4z"/>
		<path fill="#E6E7E8" d="M262.2,162.4l-12.4,2.6l-2.6,4.2l-15.3,8l2,12.9l8-0.7c0,0,9.2-3.6,9.6-3.5c0.4,0.1,3.8,2.6,3.8,2.6
			l3.1,7.1l7.2,0.7l5.5-2.2l3.9-11.9l-7.3-11l-1-5.4L262.2,162.4z"/>
		<path fill="#E6E7E8" d="M98.4,32.4l-43.7-0.9c0,0-15.9,16.2-15.2,15.8s12.6,0,12.6,0l5.1,12.3l3.5-0.9l-0.6,4.6l1,2.8l0.7,3.3
			l4.4,4.1l5.4-7.1c0,0,18.5-8,18.5-8.7s1.3-13.3,2-14.1c0.7-0.6,7.3-7.8,7.3-7.8L98.4,32.4z"/>
	</g>
</g>
</svg>
