<?xml version="1.0" encoding="utf-8"?>
<!-- Generator: Adobe Illustrator 18.1.1, SVG Export Plug-In . SVG Version: 6.00 Build 0)  -->
<svg version="1.1" id="Layer_1" xmlns="http://www.w3.org/2000/svg" xmlns:xlink="http://www.w3.org/1999/xlink" x="0px" y="0px"
	 viewBox="0 61.4 250.2 127.3" enable-background="new 0 61.4 250.2 127.3" xml:space="preserve">
<g>
	<g>
		<path fill="#E6E7E8" d="M78,99.9v-1.5h-0.2V97l-6.6-7.2V89l1.7-5.5V83l-11-9.8v-0.6h0.6v-0.4h1.6l7.1-10.7v-0.2l-22.4,2.4
			c0,0-0.7,0.5-0.4,1.4c0.3,0.9,2,7-0.1,7.2c-2,0.2-7.7,0.2-15.7-1.5c-1,0.3-10.8,9.9-10.8,9.9s-9-1.7-14.6-1.8
			C1.6,78.8,0,81.3,0,81.3l3,4l-3,3.5l6.1,4.9l6.1-4.5l7.7,2.4c0,0,3.9-0.1,5.4,2.6c1.6,2.6,1.3,3.3,1.3,3.3l1.7,1.2l-1.4,1.9l3,4.5
			v6.4c0,0,4.1,6.4,4.7,7.4c0.6,1,2.4,3.6,2.9,3.7c0.5,0.1,1.5,0.3,1.5,0.3s-0.9-2.5-1-3.8c0.1,0.5,4.9,5.7,4.9,5.7l0.2,1.8
			c0,0,0.8,1.5,3.1,1.9c2.4,0.4,3.3,0.9,3.4,1.1c0.1,0.2,2.4,1.5,3.3,1.9s2.1,0.7,2.4,1c0.3,0.3,1.9,1.9,1.9,2.1
			c0,0.2,5.9,1.9,5.9,1.9s-4.2-2.3-4.3-2.5c0-0.2,0-1.4,0-1.4h0.6v-1.2h-2.8c0,0,0.1-0.4,0-0.5c-0.1-0.1-0.4,0-0.4,0v-5.2h-2.2
			l-3.1,2.2h-0.5v-0.6c0,0-2.1-2.7-2.1-5.1s2.2-2.9,2.2-2.9h3.7l1.5-1.1l1.1,0.8h1.6c0,0,0.4-0.8,0.7,0.1s1,3.2,1,3.2h0.5v-4.9H60
			v-0.8l3-1.7c0,0,2.8-5.3,2.8-5.4v-0.4l3.9-3.2h0.6l1.2,0.8h0.7l2.4-1.7l-4-3v-0.5h0.9v-0.3h1.9v-0.3H75v0.9l0.6,1.4h3.5v-0.5
			L78,99.9z M61.1,96.2v3.5h-0.3l-2.6-4.5L49.9,91l6-4.9l8,6.7L61.1,96.2z"/>
		<path fill="#E6E7E8" d="M59.2,123.3v1.4h1.3c0,0,1.1,0.9,1.2,1.3c0.2,0.3,0.2,1.5,0.2,1.5h1.4v0.3h2.2v0.3h0.9v-0.5
			c0,0,1.1-0.3,1.1-0.7c0-0.4-1.9-1.7-3.4-1.7c0,0,0-0.4,0-0.5s0.3,0,0.3,0v-0.4h0.3v-1.7h-0.3v-0.4h-0.3v-0.3h-0.3v-0.3h-0.3
			l-0.5,0.7v2.2h-0.6v-0.3l-1.4-0.8L59.2,123.3z"/>
		<path fill="#E6E7E8" d="M68.2,132.6c-0.1,0-3.3,1.3-3.6,1.8c-0.4,0.5-0.9,5-0.9,5s-3,3.8-3.2,4c-0.2,0.3,0,4.2,0,4.2
			s2.7,6.3,3.9,7c1.3,0.7,2.6,0.6,2.6,0.6s0.6,2.5,0.6,3.7s-0.8,6.3-0.9,6.9c-0.1,0.5-1.9,9.4-1.9,9.9c0,0.5,0.2,1.1,0.2,1.5
			c0,0.3,0.2,0.2,0.2,0.2v2.5h-0.3v3h0.2c0,0,0.6,3.2,1.7,4.4s2.2,1.4,2.2,1.4h1.6v-0.3h-0.5V188h-0.1v-0.3v-5.5v-0.4h0.3
			c0,0,2.7-4.6,3.4-5.5c0.7-0.9,3.3-3.2,5-4.5c1.8-1.5,2.6-3,3-3.8c0.4-0.8,0.8-1.4,1-1.9c0.2-0.5,0-1.8,0-1.8h-0.3v-0.8
			c0,0,2.3-1.5,4-2.6c1.8-1.1,2.6-1.5,2.6-1.5v-4.4h0.6c0,0,1-1,1.9-1.9c0.9-1,1-2.1,1.1-2.6c0.1-0.5,0.3-0.7,0.3-0.7v-0.8h-0.3
			c0,0-0.7-1.8-1-2.2s-0.6-0.9-0.6-0.9h-1.2v-0.3h-1c0,0-4.7-2.4-5-2.7c-0.3-0.3-0.5-0.8-0.5-0.8v-0.5l-0.2-0.2v-0.7h-0.4v-0.7v-1.7
			c0,0-0.5,0.1-0.5,0s-3.9-1.8-5-3c-1.2-1.2-2.2-1.8-2.2-1.8L68.2,132.6z"/>
		<path fill="#E6E7E8" d="M147.1,83l-10.9-4.5l-7.7,2.3l-2.9,6.1l-3.7,2.3v3.8h2.9l0.4-0.4l-0.2,0.8c0,0-0.4,0.8-0.3,1
			c0.1,0.1,0,0.5,0.8,0.5c0.8,0,3.6-0.8,3.6-0.8l0.2-1.9l1.7-1.5l-1.2-1.9v-1.6l3.8-2.5l0.9,1.3l-2.1,2.2l1.3,2.2l2.2,0.5l-3,3.9
			h-1.8l-2.9,1.6h-2.7l-1.2,1.2H122l-0.7,2.9h-1.1l-0.7-0.5l-1.2,1.3h-2.1l-0.3,0.5v1.1l0.9,4l-4.7-0.3l-0.5,5.9h5.3l1.9-5.2
			l4.5-1.7l3.9,2.8l2.6-1.3l4.1,2.8l1.4-0.8l2.2-0.1l1-3.2l3.8-0.4l0.7-2.1l-3.7-2.9l6.6-5.2L147.1,83z"/>
		<path fill="#E6E7E8" d="M115.2,92.1c-0.2,0-1.6,0.8-1.6,0.8l1.6,3.5l-0.8,3.7v0.4h0.8l1-1h1.4l0.9-1.5L115.2,92.1z"/>
		<path fill="#E6E7E8" d="M107.8,84.1c-0.2-0.1-4.6-0.2-4.7-0.2s-2.6,2.1-2.6,2.1l1.3,2.2h4.1l3-1.6L107.8,84.1z"/>
		<path fill="#E6E7E8" d="M125.2,66.7c0,0.2-0.4,3.7-0.4,3.7s5.1,0.2,5.1,0c0-0.2,4-1.3,4-1.3V66L125.2,66.7z"/>
		<path fill="#E6E7E8" d="M113.6,95.6c-0.2,0-1.1,0-1.1,0l-0.5,2.1l0.6,1l1-0.8V95.6z"/>
		<path fill="#E6E7E8" d="M123.3,112.3l-11,2.2c0,0-6.8,10.3-6.8,10.4c0,0.1,1.1,8.7,1.1,8.7l7.8,6.1c0,0,5.4-2.2,5.6-2.1
			c0.2,0.1,2,0.1,2,0.1s1.5,2.2,1.4,2.3c-0.1,0.1,0.7,3.9,0.7,3.9l1.6,4.5v1.2l-1.4,4.1l4.6,14.5l5.6,0.4l2.6-1.4l6.3-7.3v-4.9
			c0,0,3.6-4.8,3.6-5c0-0.2-1.9-4.1-1.9-4.1l0.1-1.9l6.5-5.5l1.8-6.6h-7.1c0,0-6.4-11.7-6.4-11.9s-0.2-2-0.2-2l-1.2-1.8l-5.4-0.5
			h-2.3h-4L123.3,112.3z"/>
		<path fill="#E6E7E8" d="M166.5,75.6l-3.9,3.6L147.1,83c0,0-0.6,12.1-0.6,11.9s-6.1,4.8-6.1,4.8l4.9,4l1,4.7l-9.6,1v2.4l5.8,1.4
			c0,0,0.2,5.7,0.2,5.9s6.1,12,6.1,12l9.2-4.1l1.8-5.1l4.4-0.2l3.9,3.3l3.1,10.2c0,0,3.3-1.1,3.3-1.4c0-0.2,0-3.6,0-3.6l7.1-7.5
			c0,0,2.5,6.1,2.7,6.1c0.2,0,3.7,3.4,3.7,3.4l4.7,2v-7.7c0,0,11.6-7.8,11.6-8.1c0-0.2,0.7-4.3,0.7-4.6c-0.1-0.2-2.7-3.8-2.7-3.8
			l3.5,1.5l2.7,2.7l-0.4-3.9l6-3.9l1.9-4.3l3.8-1.2l-2.7-4.2l-2.9-1.2c0,0,3.8-3.8,3.7-3.8s8.1,0,8.1,0l6.5-2.7l-4.3,5.7l0.9,4.2
			l7.4-8.7l13.8-7.1v-0.9l-40.9-6.6H194l3.4-3.5l-6.8-2.3L174.5,76L166.5,75.6z"/>
		<path fill="#E6E7E8" d="M217.8,150.4l-8.4,1.8l-1.8,2.9l-10.4,5.4l1.4,8.8l5.4-0.5c0,0,6.2-2.5,6.5-2.4c0.3,0.1,2.6,1.8,2.6,1.8
			l2.1,4.8l4.8,0.5l3.8-1.5l2.7-8.1l-4.9-7.5l-0.7-3.7L217.8,150.4z"/>
		<path fill="#E6E7E8" d="M107,62l-29.5-0.6c0,0-10.8,11.1-10.3,10.8c0.5-0.3,8.5,0,8.5,0l3.5,8.4l2.4-0.6l-0.4,3.2l0.7,1.9l0.5,2.3
			l3,2.8l3.7-4.8c0,0,12.5-5.4,12.5-5.9c0-0.5,0.9-9.1,1.4-9.6c0.5-0.4,4.9-5.3,4.9-5.3L107,62z"/>
	</g>
	<g>
		<path fill="#F1B51C" d="M63.4,88.6c0,2.1-1.4,5.2-2.5,6.8c-2.6,4-4.1,6.9-4.7,11.9c-0.2,1.6-0.2,2.9-0.7,2.8
			c-0.5-0.1-0.5-1.4-0.7-2.8c-0.7-5.1-2.4-7.7-4.5-11.7c-1-1.8-2.7-4.9-2.7-7.1c0-4.1,3.6-7.4,7.9-7.4S63.4,84.5,63.4,88.6z"/>
		<circle fill="#FFFFFF" cx="55.5" cy="89.2" r="2.9"/>
	</g>
</g>
</svg>
