<?xml version="1.0" encoding="utf-8"?>
<!-- Generator: Adobe Illustrator 18.1.1, SVG Export Plug-In . SVG Version: 6.00 Build 0)  -->
<svg version="1.1" id="Layer_1" xmlns="http://www.w3.org/2000/svg" xmlns:xlink="http://www.w3.org/1999/xlink" x="0px" y="0px"
	 viewBox="32.8 324 546.4 142.3" enable-background="new 32.8 324 546.4 142.3" xml:space="preserve" style="max-height: 100%;">
<g>
	<g id="XMLID_81_">
		<g>
			<path fill="#808285" d="M127.5,343.4c0.7,0.7,0.6,1.8,0.5,2.7c-0.2,1-0.5,2.4-1.4,3.1c0,0.7-0.1,1.5-0.3,2.2
				c-0.3,1.1-1.1,2-2.2,2.7c-0.7,0.5-1.4,1.2-2.2,1.7c-1,0.6-2,0.7-3.1,0.7c-1.1,0.1-2.1-0.1-3.1-0.7c-0.8-0.5-1.5-1.2-2.2-1.7
				c-1-0.7-1.8-1.5-2.2-2.7c-0.2-0.7-0.2-1.5-0.3-2.2c-0.8-0.7-1.2-2-1.4-3.1c-0.2-0.9-0.2-1.9,0.5-2.7c-0.2-4.1,0.2-6.6,2.3-8.4
				c2.4-2.1,6.8-2.6,9.4-1.2C127.5,333,127.6,340.4,127.5,343.4z"/>
		</g>
	</g>
	<path fill="#808285" d="M138.1,364c-0.3-3.1-2.5-4.6-5.6-5.2c-0.1,0-4.6-0.6-6.1-0.7l-4.1,12.2l-1.4-8l0.8-1.8l-0.5-2.5h-3.9
		l-0.7,2.5l1,1.6l-1.5,8.2l-3.9-12.4c-1.5,0.1-6.2,0.8-6.2,0.8c-3.2,0.5-5.3,2.2-5.6,5.2v36.2c0.3,0,0.6,0.1,0.9,0.1v3.6
		c0,1.4,1.1,2.5,2.5,2.5h2c0.3,0,0.6-0.1,0.8-0.2v47.1h1.1v4c0,0.6,0.5,1.1,1.1,1.1h8.6c0.6,0,1.1-0.5,1.1-1.1v-4h0.9v-45.1h0.8
		v45.1h0.9v4c0,0.6,0.5,1.1,1.1,1.1h8.6c0.6,0,1.1-0.5,1.1-1.1v-4h0.7c0.3-11.2,0.2-35.4,0.1-47.8c0.5,0.5,1.1,0.7,1.8,0.7h1
		c1.4,0,2.5-1.1,2.5-2.5v-3.7c0.2,0,0.5-0.1,0.7-0.1L138.1,364z"/>
	<path fill="#808285" d="M387.1,364.5c-0.3-3.1-2.5-4.6-5.6-5.2c-0.1,0-4.6-0.6-6.1-0.7l-4.1,12.2l-1.5-8l0.8-1.8l-0.5-2.6h-3.9
		l-0.7,2.6l1,1.6l-1.5,8.2l-3.9-12.4c-1.5,0.1-6.2,0.8-6.2,0.8c-3.2,0.5-5.3,2.2-5.6,5.2v36.2c0.3,0,0.6,0.1,0.9,0.1v3.6
		c0,1.4,1.1,2.5,2.5,2.5h2c0.3,0,0.6-0.1,0.8-0.2v47.1h1.1v4c0,0.6,0.5,1.1,1.1,1.1h8.6c0.6,0,1.1-0.5,1.1-1.1v-4h0.9v-45h0.8v45
		h0.9v4c0,0.6,0.5,1.1,1.1,1.1h8.6c0.6,0,1.1-0.5,1.1-1.1v-4h0.7c0.3-11.2,0.2-35.5,0.1-47.8c0.5,0.5,1.1,0.7,1.8,0.7h1
		c1.4,0,2.5-1.1,2.5-2.5v-3.7c0.2,0,0.5-0.1,0.7-0.1L387.1,364.5z"/>
	<g id="XMLID_80_">
		<g>
			<path fill="#808285" d="M376.8,344.8c0.7,0.7,0.6,1.8,0.5,2.7c-0.2,1-0.5,2.4-1.4,3.1c0,0.7-0.1,1.5-0.3,2.2
				c-0.3,1.1-1.1,2-2.2,2.7c-0.7,0.5-1.4,1.2-2.2,1.7c-1,0.6-2,0.7-3.1,0.7c-1.1,0.1-2.1-0.1-3.1-0.7c-0.8-0.5-1.5-1.2-2.2-1.7
				c-1-0.7-1.8-1.5-2.2-2.7c-0.2-0.7-0.2-1.5-0.3-2.2c-0.9-0.7-1.2-2-1.4-3.1c-0.1-0.9-0.2-1.9,0.5-2.7c-0.1-4.1,0.2-6.6,2.3-8.4
				c1.1-1,4.1-2,6.3-2c2.2-0.1,5.2,1,6.3,2C376.7,338.2,376.9,340.8,376.8,344.8z"/>
		</g>
	</g>
	<g id="XMLID_79_">
		<g>
			<path fill="#808285" d="M439.7,346.6c2,5.8-0.7,9.7-5.5,9.5c-1.3,1-2.3,1.8-3.6,1.8h-0.1h-0.1c-1.3,0-2.3-0.8-3.6-1.8
				c-4.8,0.2-7.5-3.7-5.6-9.5c-0.5-6.8,3.4-13.6,7.6-11.4C435.4,332.2,440.2,339.8,439.7,346.6z"/>
		</g>
	</g>
	<path fill="#808285" d="M448.2,400.2v-34.6c-0.5-2.6-1.9-4.6-4.8-5.1h-0.1c0,0-7.1-1.3-7.3-1.4l-3.6,12.6l-0.8-8.1l0.9-1.6
		l-0.9-1.2h-2.4l-0.8,1.3l0.9,1.5l-0.7,7.9l-3.7-12.5c-0.2,0.2-7.4,1.6-7.4,1.6c-2.8,0.5-4.1,2.7-4.6,5v34.5
		c-0.1,0.2-0.1,0.4-0.1,0.6v3.7c0,1.3,1.3,2.5,2.6,2.5h0.3c1.3,0,2.4-1.1,2.4-2.4v-3.7c0-0.3-0.1-0.6-0.2-0.8l1.2-25
		c0,0,2.1,11.6,2,14.4c-0.2,3.7-3.7,8.8-4.2,14.7c-0.2,3.1,0.7,13.8,0.7,13.8c-0.1,1.9,0,2.3,1.5,2.3h1.2l1.5,28
		c0,0.6-0.2,2-0.8,4.2c-0.1,0.2-0.1,0.3-0.1,0.5c0,0.1,0,0.1-0.1,0.1c-0.3,1.2-0.8,3.5-0.8,3.7c-0.1,0.2-0.1,0.3-0.1,0.4
		c0-0.1,0-0.1,0-0.1c0,0.1,0,0.1,0,0.2c0,0.1,0,0.2,0,0.2c0,0.1,0,0.2,0,0.3s0,0.2,0.1,0.2c0,0.1,0,0.1,0.1,0.1
		c0.3,0.7,1,0.9,1.6,0.9h1.7l0,0h4.7c0.4,0,0.5-0.2,0.5-0.6v-5l0,0v-1l0,0v-0.5v-2.4c0,0,0-1-0.1-1.8l1.6-27.4h1.2l1.6,27.3v0.1
		c-0.2,0.9-0.2,1.9-0.2,1.9v2.4v0.5v1l0,0v4.8c0,0.7,0.1,0.9,0.4,0.9h4.4l0,0h2.2c0.5,0,1.1-0.1,1.4-0.6c0,0,0-0.1,0.1-0.1
		c0.1-0.1,0.1-0.1,0.1-0.2c0.1-0.1,0.1-0.1,0.1-0.2c0-0.1,0-0.1,0-0.1c0-0.1,0-0.2,0-0.3c0-0.1,0-0.1,0-0.2c0-0.1,0-0.1,0-0.2
		c0,0,0,0,0,0.1c0-0.1-0.1-0.3-0.1-0.5c-0.1-0.2-0.6-2.4-0.9-3.7c0-0.1,0-0.1-0.1-0.1c0-0.2-0.1-0.3-0.1-0.5c-0.6-2.3-0.7-3.5-0.8-4
		l1.5-28.2h1.2c1.6,0,1.6-0.4,1.6-2.3c0,0,0.4-10.7,0.2-13.8c-0.4-5.3-3.6-11.7-3.8-14.3c-0.2-3.5,1.5-14.8,1.5-14.8V375l1.6,24.8
		c-0.2,0.3-0.3,0.7-0.3,1.1v3.7c0,1.3,1.1,2.4,2.4,2.4h0.3c1.3,0,2.7-1.1,2.7-2.4v-3.7C448.3,400.6,448.3,400.3,448.2,400.2"/>
	<g id="XMLID_78_">
		<g>
			<path fill="#808285" d="M190.7,347.5c0.1,3.6,0,7.4,0.9,8.3c-3.1,2-8.7,2-10.1,2c-2.9,0.1-7.7-0.2-10.3-2
				c2.2-1.2-2.7-26,12.4-20.1C187.3,334.7,190.6,341.1,190.7,347.5z"/>
		</g>
	</g>
	<path fill="#808285" d="M199.2,400.2v-34.6c-0.5-2.6-1.9-4.6-4.8-5.1h-0.1c0,0-7.1-1.3-7.3-1.4l-3.6,12.6l-0.8-8.1l0.9-1.6
		l-0.9-1.2h-2.4l-0.8,1.3l0.9,1.5l-0.7,7.9l-3.7-12.5c-0.2,0.2-7.4,1.6-7.4,1.6c-2.8,0.5-4.1,2.7-4.6,5v34.5
		c-0.1,0.2-0.1,0.4-0.1,0.6v3.7c0,1.3,1.3,2.5,2.6,2.5h0.3c1.3,0,2.4-1.1,2.4-2.4v-3.7c0-0.3-0.1-0.6-0.2-0.8l1.2-25
		c0,0,2.1,11.6,2,14.4c-0.2,3.7-3.7,8.8-4.2,14.7c-0.2,3.1,0.7,13.8,0.7,13.8c-0.1,1.9,0,2.3,1.5,2.3h1.2l1.5,28
		c0,0.6-0.2,2-0.8,4.2c-0.1,0.2-0.1,0.3-0.1,0.5c0,0.1,0,0.1-0.1,0.1c-0.3,1.2-0.8,3.5-0.9,3.7c-0.1,0.2-0.1,0.3-0.1,0.4
		c0-0.1,0-0.1,0-0.1c0,0.1,0,0.1,0,0.2c0,0.1,0,0.2,0,0.2c0,0.1,0,0.2,0,0.3s0,0.2,0.1,0.2c0,0.1,0.1,0.1,0.1,0.1
		c0.3,0.7,1,0.9,1.6,0.9h1.7l0,0h4.7c0.4,0,0.5-0.2,0.5-0.6v-5l0,0v-1l0,0v-0.5v-2.4c0,0,0-1-0.1-1.8l1.6-27.4h1.2l1.6,27.3v0.1
		c-0.2,0.9-0.2,1.9-0.2,1.9v2.4v0.5v1l0,0v4.8c0,0.7,0.1,0.9,0.4,0.9h4.4l0,0h2.2c0.5,0,1.1-0.1,1.4-0.6c0,0,0-0.1,0.1-0.1
		c0.1-0.1,0.1-0.1,0.1-0.2c0.1-0.1,0.1-0.1,0.1-0.2c0-0.1,0-0.1,0-0.1c0-0.1,0-0.2,0-0.3c0-0.1,0-0.1,0-0.2c0-0.1,0-0.1,0-0.2
		c0,0,0,0,0,0.1c0-0.1-0.1-0.3-0.1-0.5c-0.1-0.2-0.6-2.4-0.9-3.7c0-0.1,0-0.1-0.1-0.1c0-0.2-0.1-0.3-0.1-0.5c-0.6-2.3-0.7-3.5-0.8-4
		l1.5-28.2h1.2c1.6,0,1.6-0.4,1.6-2.3c0,0,0.4-10.7,0.2-13.8c-0.4-5.3-3.6-11.7-3.8-14.3c-0.2-3.5,1.5-14.8,1.5-14.8V375l1.6,24.8
		c-0.2,0.3-0.3,0.7-0.3,1.1v3.7c0,1.3,1.1,2.4,2.4,2.4h0.3c1.3,0,2.7-1.1,2.7-2.4v-3.7C199.3,400.6,199.2,400.3,199.2,400.2"/>
	<g id="XMLID_77_">
		<g>
			<path fill="#808285" d="M500.8,344.4c0.7,0.7,0.6,1.8,0.5,2.7c-0.2,1-0.5,2.4-1.4,3.1c-0.1,0.7-0.1,1.5-0.3,2.2
				c-0.3,1.2-1.1,2-2.2,2.7c-0.7,0.6-1.4,1.2-2.3,1.8c-1,0.6-2,0.7-3.1,0.7c-1.1,0.1-2.1-0.1-3.1-0.7c-0.8-0.5-1.5-1.2-2.3-1.8
				c-1-0.7-1.8-1.5-2.1-2.7c-0.2-0.7-0.2-1.5-0.3-2.2c-0.9-0.7-1.2-2-1.4-3.1c-0.1-0.9-0.2-1.9,0.5-2.7c-0.1-4.1,0.2-6.6,2.3-8.4
				c1.1-1,4.1-2,6.3-2c2.2-0.1,5.2,1,6.3,2C500.6,337.8,500.9,340.3,500.8,344.4z"/>
		</g>
	</g>
	<g id="XMLID_76_">
		<g>
			<path fill="#808285" d="M563.8,343.3c1,0.3,2.5,1.1,2.5,3.1c-0.1,3.4-5,7.8-2,11.9c-2.8-1-3.7-2.9-4-3.8c-0.5,0.6-1.1,1.1-2,1.6
				c-1.4,0.9-2.4,1.6-3.9,1.6h-0.1h-0.1c-1.4-0.1-2.4-1-3.6-2c-2.2-1.7-2.8-2.9-3.1-5.9c-4.2-3.1-0.6-20.9,9.8-14.8
				C561.7,333.9,563.5,339,563.8,343.3z"/>
		</g>
	</g>
	<path fill="#808285" d="M300.4,359c-0.2,0.2-7.4,1.6-7.4,1.6c-2.8,0.5-4.1,2.7-4.6,5.1v34.5c-0.1,0.2-0.1,0.4-0.1,0.6v3.7
		c0,1.3,1.3,2.5,2.6,2.5h0.3c1.3,0,2.4-1.1,2.4-2.4v-3.7c0-0.3-0.1-0.6-0.2-0.8l1.2-25c0,0,2.1,11.6,2,14.4
		c-0.2,3.7-3.7,8.8-4.2,14.7c-0.2,3.1,0.7,13.8,0.7,13.8c-0.1,1.9,0,2.3,1.5,2.3h1.2l1.5,28c0,0.6-0.2,2-0.8,4.2
		c-0.1,0.2-0.1,0.3-0.1,0.5c0,0.1,0,0.1-0.1,0.1c-0.3,1.2-0.8,3.5-0.9,3.7c-0.1,0.2-0.1,0.3-0.1,0.4c0-0.1,0-0.1,0-0.1
		c0,0.1,0,0.1,0,0.2c0,0.1,0,0.2,0,0.3s0,0.2,0,0.3s0,0.2,0.1,0.2c0,0.1,0,0.1,0.1,0.1c0.3,0.7,1,0.9,1.6,0.9h1.7l0,0h4.7
		c0.4,0,0.5-0.2,0.5-0.6v-5l0,0v-1l0,0V452v-2.4c0,0,0-1-0.1-1.8l1.6-27.4h1.2l1.6,27.3v0.1c-0.2,0.9-0.2,1.9-0.2,1.9v2.4v0.5v1l0,0
		v4.8c0,0.7,0.1,0.9,0.4,0.9h4.4l0,0h2.2c0.5,0,1.1-0.1,1.4-0.6c0,0,0-0.1,0.1-0.1c0.1-0.1,0.1-0.1,0.1-0.2c0.1-0.1,0.1-0.1,0.1-0.2
		c0-0.1,0-0.1,0-0.1c0-0.1,0-0.2,0-0.3c0-0.1,0-0.1,0-0.2s0-0.1,0-0.2c0,0,0,0,0,0.1c0-0.1-0.1-0.3-0.1-0.5
		c-0.1-0.2-0.6-2.4-0.9-3.7c0,0,0-0.1-0.1-0.1c0-0.2-0.1-0.3-0.1-0.5c-0.6-2.3-0.7-3.5-0.8-4l1.5-28.2h1.2c1.6,0,1.6-0.4,1.6-2.3
		c0,0,0.4-10.7,0.2-13.8c-0.4-5.3-3.6-11.7-3.8-14.3c-0.2-3.5,1.5-14.8,1.5-14.8v-0.1l1.6,24.8c-0.2,0.3-0.3,0.7-0.3,1.1v3.7
		c0,1.3,1.1,2.4,2.4,2.4h0.3c1.3,0,2.7-1.1,2.7-2.4v-3.7c0-0.2-0.1-0.5-0.1-0.7v-34.6c-0.5-2.6-1.9-4.6-4.8-5.1h-0.1
		c0,0-7.1-1.3-7.3-1.4l-5.6,7.8L300.4,359z"/>
	<path fill="#808285" d="M549.4,359c-0.2,0.2-7.4,1.6-7.4,1.6c-2.8,0.5-4.1,2.7-4.6,5.1v34.5c-0.1,0.2-0.1,0.4-0.1,0.6v3.7
		c0,1.3,1.3,2.5,2.6,2.5h0.3c1.3,0,2.4-1.1,2.4-2.4v-3.7c0-0.3-0.1-0.6-0.2-0.8l1.2-25c0,0,2.1,11.6,2,14.4
		c-0.2,3.7-3.7,8.8-4.2,14.7c-0.2,3.1,0.7,13.8,0.7,13.8c-0.1,1.9,0,2.3,1.5,2.3h1.2l1.5,28c0,0.6-0.2,2-0.8,4.2
		c-0.1,0.2-0.1,0.3-0.1,0.5c0,0.1,0,0.1-0.1,0.1c-0.3,1.2-0.8,3.5-0.8,3.7c-0.1,0.2-0.1,0.3-0.1,0.4c0-0.1,0-0.1,0-0.1
		c0,0.1,0,0.1,0,0.2c0,0.1,0,0.2,0,0.3s0,0.2,0,0.3s0,0.2,0.1,0.2c0,0.1,0,0.1,0.1,0.1c0.3,0.7,1,0.9,1.6,0.9h1.7l0,0h4.7
		c0.4,0,0.5-0.2,0.5-0.6v-5l0,0v-1l0,0V452v-2.4c0,0,0-1-0.1-1.8l1.6-27.4h1.2l1.6,27.3v0.1c-0.2,0.9-0.2,1.9-0.2,1.9v2.4v0.5v1l0,0
		v4.8c0,0.7,0.1,0.9,0.4,0.9h4.4l0,0h2.2c0.5,0,1.1-0.1,1.4-0.6c0,0,0-0.1,0.1-0.1c0.1-0.1,0.1-0.1,0.1-0.2c0.1-0.1,0.1-0.1,0.1-0.2
		c0-0.1,0-0.1,0-0.1c0-0.1,0-0.2,0-0.3c0-0.1,0-0.1,0-0.2s0-0.1,0-0.2c0,0,0,0,0,0.1c0-0.1-0.1-0.3-0.1-0.5
		c-0.1-0.2-0.6-2.4-0.8-3.7c0,0,0-0.1-0.1-0.1c0-0.2-0.1-0.3-0.1-0.5c-0.6-2.3-0.7-3.5-0.8-4l1.5-28.2h1.2c1.6,0,1.6-0.4,1.6-2.3
		c0,0,0.4-10.7,0.2-13.8c-0.4-5.3-3.6-11.7-3.8-14.3c-0.2-3.5,1.5-14.8,1.5-14.8v-0.1l1.6,24.8c-0.2,0.3-0.3,0.7-0.3,1.1v3.7
		c0,1.3,1.1,2.4,2.4,2.4h0.3c1.3,0,2.7-1.1,2.7-2.4v-3.7c0-0.2-0.1-0.5-0.1-0.7v-34.6c-0.5-2.6-1.9-4.6-4.8-5.1h-0.1
		c0,0-7.1-1.3-7.3-1.4l-5.6,7.8L549.4,359z"/>
	<path fill="#808285" d="M51.3,359c-0.2,0.2-7.4,1.6-7.4,1.6c-2.8,0.5-4.1,2.7-4.6,5.1v34.5c-0.1,0.2-0.1,0.4-0.1,0.6v3.7
		c0,1.3,1.3,2.5,2.6,2.5H42c1.3,0,2.4-1.1,2.4-2.4v-3.7c0-0.3-0.1-0.6-0.2-0.8l1.2-25c0,0,2.1,11.6,2,14.4
		c-0.2,3.7-3.7,8.8-4.2,14.7C43.1,407.3,44,418,44,418c-0.1,1.9,0,2.3,1.5,2.3h1.2l1.5,28c0,0.6-0.2,2-0.8,4.2
		c-0.1,0.2-0.1,0.3-0.1,0.5c0,0.1,0,0.1-0.1,0.1c-0.3,1.2-0.8,3.5-0.9,3.7c-0.1,0.2-0.1,0.3-0.1,0.4c0-0.1,0-0.1,0-0.1
		c0,0.1,0,0.1,0,0.2c0,0.1,0,0.2,0,0.3s0,0.2,0,0.3s0,0.2,0.1,0.2c0,0.1,0.1,0.1,0.1,0.1c0.3,0.7,1,0.9,1.6,0.9h1.7l0,0h4.7
		c0.4,0,0.5-0.2,0.5-0.6v-5l0,0v-1l0,0V452v-2.4c0,0,0-1-0.1-1.8l1.6-27.4h1.2l1.6,27.3v0.1c-0.2,0.9-0.2,1.9-0.2,1.9v2.4v0.5v1l0,0
		v4.8c0,0.7,0.1,0.9,0.4,0.9h4.4l0,0h2.2c0.5,0,1.1-0.1,1.4-0.6c0,0,0-0.1,0.1-0.1c0.1-0.1,0.1-0.1,0.1-0.2c0.1-0.1,0.1-0.1,0.1-0.2
		c0-0.1,0-0.1,0-0.1c0-0.1,0-0.2,0-0.3c0-0.1,0-0.1,0-0.2s0-0.1,0-0.2c0,0,0,0,0,0.1c0-0.1-0.1-0.3-0.1-0.5
		c-0.1-0.2-0.6-2.4-0.8-3.7c0,0,0-0.1-0.1-0.1c0-0.2-0.1-0.3-0.1-0.5c-0.6-2.3-0.7-3.5-0.8-4l1.5-28.2h1.2c1.6,0,1.6-0.4,1.6-2.3
		c0,0,0.4-10.7,0.2-13.8c-0.4-5.3-3.6-11.7-3.8-14.3c-0.2-3.5,1.5-14.8,1.5-14.8v-0.1l1.6,24.6c-0.2,0.3-0.3,0.7-0.3,1.1v3.7
		c0,1.3,1.1,2.4,2.4,2.4h0.3c1.3,0,2.7-1.1,2.7-2.4v-3.7c0-0.2-0.1-0.5-0.1-0.7v-34.6c-0.5-2.6-1.9-4.6-4.8-5.1h-0.1
		c0,0-7.1-1.3-7.3-1.4l-5.6,7.8L51.3,359z"/>
	<g id="XMLID_75_">
		<g>
			<path fill="#808285" d="M66.2,347.5c0.1,3.6,0,7.4,0.9,8.3c-3.1,2-8.7,2-10.1,2c-2.9,0.1-7.8-0.2-10.3-2
				c2.2-1.2-2.7-26,12.4-20.1C62.8,334.7,66.1,341.1,66.2,347.5z"/>
		</g>
	</g>
	<g id="XMLID_74_">
		<g>
			<path fill="#808285" d="M315,343.3c1,0.3,2.5,1.1,2.5,3.1c-0.1,3.4-5,7.8-2,11.9c-2.8-1-3.7-2.9-4-3.8c-0.5,0.6-1.1,1.1-2,1.6
				c-1.4,0.9-2.5,1.6-3.9,1.6h-0.1h-0.1c-1.4-0.1-2.4-1-3.7-2c-2.2-1.7-2.8-2.9-3.1-5.9c-4.3-3.1-0.7-20.9,9.8-14.8
				C312.9,333.9,314.7,339,315,343.3z"/>
		</g>
	</g>
	<g id="XMLID_73_">
		<g>
			<path fill="#808285" d="M252.3,344.3c0.7,0.7,0.6,1.8,0.5,2.7c-0.2,1.1-0.5,2.4-1.4,3.1c-0.1,0.7-0.1,1.5-0.3,2.2
				c-0.3,1.2-1.1,2-2.1,2.7c-0.7,0.6-1.4,1.2-2.3,1.8c-1,0.6-1.9,0.7-3.1,0.7c-1.1,0.1-2.1-0.1-3.1-0.7c-0.8-0.5-1.5-1.2-2.3-1.8
				c-1-0.7-1.8-1.5-2.1-2.7c-0.2-0.7-0.2-1.5-0.3-2.2c-0.9-0.7-1.2-2-1.4-3.1c-0.1-0.9-0.2-1.9,0.5-2.7c-0.2-4.1,0.2-6.6,2.3-8.4
				c1.1-1,4.1-2,6.3-2c2.2-0.1,5.2,1,6.3,2C252.1,337.8,252.4,340.3,252.3,344.3z"/>
		</g>
	</g>
	<path fill="#808285" d="M262.6,364.4c-0.3-3.1-2.5-4.6-5.6-5.2c-0.1,0-6.9-0.6-8.4-0.7l-4.4,7.8l-4.8-8c-1.5,0.1-9,0.9-9,0.9
		c-3.2,0.5-5.3,2.2-5.6,5.2v36.2c0.3,0,0.6,0.1,0.9,0.1v3.6c0,1.4,1.1,2.5,2.5,2.5h2c0.3,0,0.6-0.1,0.8-0.2v47.1h1.1v4
		c0,0.6,0.5,1.1,1.1,1.1h8.6c0.6,0,1.1-0.5,1.1-1.1v-4h0.9v-45.1h0.8v45.1h0.9v4c0,0.6,0.5,1.1,1.1,1.1h8.6c0.6,0,1.1-0.5,1.1-1.1
		v-4h0.7c0.3-11.2,0.2-35.5,0.1-47.8c0.5,0.5,1.1,0.7,1.8,0.7h1c1.4,0,2.5-1.1,2.5-2.5v-3.7c0.2,0,0.5-0.1,0.7-0.1L262.6,364.4z"/>
	<path fill="#808285" d="M511.1,364.4c-0.3-3.1-2.5-4.6-5.6-5.2c-0.1,0-6.9-0.6-8.4-0.7l-4.4,7.8l-4.8-8c-1.5,0.1-9,0.9-9,0.9
		c-3.2,0.5-5.3,2.2-5.6,5.2v36.2c0.3,0,0.6,0.1,0.9,0.1v3.6c0,1.4,1.1,2.5,2.5,2.5h2c0.3,0,0.6-0.1,0.8-0.2v47.1h1.1v4
		c0,0.6,0.5,1.1,1.1,1.1h8.5c0.6,0,1.1-0.5,1.1-1.1v-4h0.9v-45.1h0.8v45.1h0.9v4c0,0.6,0.5,1.1,1.1,1.1h8.6c0.6,0,1.1-0.5,1.1-1.1
		v-4h0.7c0.3-11.2,0.2-35.5,0.1-47.8c0.5,0.5,1.1,0.7,1.8,0.7h1c1.4,0,2.5-1.1,2.5-2.5v-3.7c0.2,0,0.5-0.1,0.7-0.1L511.1,364.4z"/>
</g>
</svg>
