<?xml version="1.0" encoding="utf-8"?>
<!-- Generator: Adobe Illustrator 18.1.1, SVG Export Plug-In . SVG Version: 6.00 Build 0)  -->
<svg version="1.1" id="Layer_1" xmlns="http://www.w3.org/2000/svg" xmlns:xlink="http://www.w3.org/1999/xlink" x="0px" y="0px"
	 viewBox="0 0 1080 340.7" enable-background="new 0 0 1080 340.7" xml:space="preserve" style="height:100%">
<g>
	<g id="XMLID_81_">
		<g>
			<path fill="#6086C4" d="M225,77.5c1.2,1.3,1.1,3.1,0.8,4.7c-0.3,1.8-0.8,4.2-2.4,5.4c0,1.3-0.1,2.6-0.5,3.9c-0.6,2-2,3.5-3.8,4.7
				c-1.3,0.9-2.5,2.2-3.9,3c-1.7,1-3.5,1.3-5.4,1.2c-1.9,0.1-3.7-0.2-5.4-1.2c-1.4-0.8-2.6-2.1-3.9-3c-1.7-1.2-3.1-2.7-3.8-4.7
				c-0.4-1.3-0.4-2.6-0.5-3.9c-1.5-1.2-2.1-3.5-2.4-5.4c-0.3-1.6-0.4-3.4,0.8-4.7c-0.3-7.2,0.3-11.6,4-14.8c4.2-3.7,12-4.5,16.6-2.2
				C225,59.2,225.2,72.3,225,77.5z"/>
		</g>
		<g>
		</g>
	</g>
	<path fill="#6086C4" d="M243.7,113.9c-0.5-5.4-4.4-8.1-9.9-9.2c-0.2,0-8.1-1-10.8-1.2l-7.2,21.5l-2.5-14.2l1.4-3.1l-0.9-4.5h-6.9
		l-1.2,4.5l1.7,2.9l-2.6,14.4l-6.9-21.8c-2.7,0.2-10.9,1.5-11,1.5c-5.6,0.8-9.4,3.8-9.9,9.2l0,63.9c0.5,0,1.1,0.1,1.6,0.1v6.4
		c0,2.4,2,4.4,4.4,4.4h3.6c0.5,0,1-0.1,1.4-0.3v83.2h1.9v7c0,1,0.8,1.9,1.9,1.9h15.1c1,0,1.9-0.8,1.9-1.9v-7h1.6v-79.5h1.4v79.5h1.5
		v7c0,1,0.8,1.9,1.9,1.9h15.2c1,0,1.9-0.8,1.9-1.9v-7h1.2c0.6-19.8,0.3-62.5,0.1-84.3c0.8,0.8,1.9,1.3,3.1,1.3h1.7
		c2.4,0,4.4-2,4.4-4.4v-6.6c0.4,0,0.9-0.1,1.2-0.1L243.7,113.9z"/>
	<path fill="#6086C4" d="M683.2,114.8c-0.5-5.4-4.4-8.1-9.9-9.2c-0.2,0-8.1-1-10.8-1.2l-7.2,21.5l-2.6-14.2l1.4-3.1l-0.9-4.5h-6.9
		l-1.2,4.5l1.7,2.9l-2.6,14.4l-6.9-21.8c-2.7,0.2-10.9,1.5-11,1.5c-5.6,0.8-9.4,3.8-9.9,9.2l0,63.9c0.5,0,1.1,0.1,1.6,0.1v6.4
		c0,2.4,2,4.4,4.4,4.4h3.6c0.5,0,1-0.1,1.4-0.3v83.2h1.9v7c0,1,0.8,1.9,1.9,1.9h15.1c1,0,1.9-0.8,1.9-1.9v-7h1.6v-79.5h1.4v79.5h1.5
		v7c0,1,0.8,1.9,1.9,1.9h15.2c1,0,1.9-0.8,1.9-1.9v-7h1.2c0.6-19.8,0.3-62.6,0.1-84.3c0.8,0.8,1.9,1.3,3.1,1.3h1.7
		c2.4,0,4.4-2,4.4-4.4v-6.6c0.4,0,0.9-0.1,1.3-0.1L683.2,114.8z"/>
	<g id="XMLID_80_">
		<g>
			<path fill="#6086C4" d="M665,80c1.2,1.3,1.1,3.1,0.8,4.7c-0.3,1.8-0.8,4.2-2.4,5.4c0,1.3-0.1,2.6-0.5,3.9c-0.6,2-2,3.5-3.8,4.7
				c-1.3,0.9-2.5,2.2-3.9,3c-1.7,1-3.5,1.3-5.4,1.2c-1.9,0.1-3.7-0.2-5.4-1.2c-1.4-0.8-2.6-2.1-3.9-3c-1.7-1.2-3.1-2.7-3.8-4.7
				c-0.4-1.3-0.4-2.6-0.5-3.9c-1.5-1.2-2.1-3.5-2.4-5.4c-0.2-1.6-0.4-3.4,0.8-4.7c-0.2-7.2,0.3-11.6,4-14.8c2-1.7,7.2-3.6,11.1-3.5
				c3.9-0.1,9.1,1.7,11.1,3.5C664.7,68.4,665.2,72.9,665,80z"/>
		</g>
		<g>
		</g>
	</g>
	<g id="XMLID_79_">
		<g>
			<path fill="#6086C4" d="M776,83.2c3.5,10.2-1.2,17.1-9.7,16.7c-2.3,1.7-4.1,3.1-6.4,3.1h-0.1h-0.1c-2.3,0-4.1-1.4-6.4-3.1
				c-8.5,0.3-13.2-6.6-9.8-16.7c-0.8-12,6-24,13.4-20.2C768.3,57.7,776.9,71.2,776,83.2z"/>
		</g>
		<g>
		</g>
	</g>
	<path fill="#6086C4" d="M791,177.7l0-61c-0.8-4.5-3.4-8.2-8.4-9l-0.1,0c0,0-12.6-2.3-12.9-2.4l-6.4,22.2l-1.4-14.3l1.5-2.8
		l-1.5-2.2h-4.3l-1.4,2.3l1.6,2.7l-1.3,14l-6.6-22.1c-0.4,0.3-13.1,2.8-13.1,2.8c-4.9,0.8-7.2,4.7-8.2,8.9v60.9
		c-0.1,0.4-0.2,0.7-0.2,1.1v6.5c0,2.3,2.3,4.4,4.6,4.4h0.5c2.3,0,4.3-1.9,4.3-4.3v-6.5c0-0.5-0.1-1-0.3-1.4l2.1-44.2
		c0,0,3.7,20.4,3.5,25.5c-0.3,6.6-6.6,15.6-7.4,26c-0.4,5.5,1.2,24.4,1.2,24.4c-0.1,3.3,0,4,2.7,4h2.1l2.6,49.4
		c0,1.1-0.3,3.6-1.4,7.5c-0.1,0.3-0.1,0.5-0.2,0.8c0,0.1,0,0.1-0.1,0.1c-0.5,2.2-1.4,6.1-1.5,6.5c-0.1,0.3-0.1,0.5-0.1,0.7
		c0-0.1,0-0.1,0-0.1c0,0.1,0,0.2,0,0.3c0,0.2,0,0.3,0,0.4c0,0.2,0,0.4,0,0.5c0,0.1,0,0.3,0.1,0.4c0,0.1,0,0.2,0.1,0.2
		c0.5,1.3,1.8,1.6,2.8,1.6l3,0v0h8.3c0.7,0,0.9-0.3,0.9-1.1v-8.8c0,0,0,0,0,0l0-1.7c0,0,0,0,0,0v-0.9v-4.3c0,0,0-1.7-0.2-3.2
		l2.9-48.4h2.2l2.9,48.2v0.1c-0.3,1.5-0.3,3.3-0.3,3.3v4.3v0.9l0,1.7c0,0,0,0,0,0v8.4c0,1.3,0.1,1.6,0.7,1.6h7.7v0l3.9,0
		c0.9,0,1.9-0.2,2.5-1c0,0,0-0.1,0.1-0.1c0.1-0.1,0.1-0.2,0.2-0.4c0.1-0.1,0.1-0.2,0.1-0.4c0-0.1,0-0.2,0-0.2c0-0.2,0-0.4,0-0.6
		c0-0.1,0-0.2,0-0.4c0-0.1,0-0.2,0-0.3c0,0,0,0,0,0.1c0-0.2-0.1-0.5-0.1-0.8c-0.1-0.4-1-4.2-1.5-6.5c0-0.1,0-0.1-0.1-0.2
		c0-0.3-0.1-0.5-0.2-0.8c-1.1-4-1.3-6.2-1.4-7.1l2.6-49.7h2.2c2.8,0,2.9-0.7,2.8-4c0,0,0.7-18.9,0.3-24.4
		c-0.7-9.4-6.4-20.7-6.7-25.3c-0.4-6.2,2.7-26.1,2.7-26.1l0-0.1l2.8,43.8c-0.3,0.6-0.5,1.2-0.5,1.9v6.5c0,2.3,1.9,4.3,4.3,4.3h0.5
		c2.3,0,4.7-1.9,4.7-4.3v-6.5C791.2,178.4,791.1,178,791,177.7"/>
	<g id="XMLID_78_">
		<g>
			<path fill="#6086C4" d="M336.6,84.8c0.1,6.3,0,13.1,1.6,14.6c-5.4,3.6-15.4,3.6-17.8,3.6c-5.2,0.1-13.6-0.4-18.1-3.6
				c3.9-2.2-4.7-45.8,21.9-35.5C330.6,62.1,336.4,73.4,336.6,84.8z"/>
		</g>
		<g>
		</g>
	</g>
	<path fill="#6086C4" d="M351.5,177.7l0-61c-0.8-4.5-3.4-8.2-8.4-9l-0.1,0c0,0-12.6-2.3-12.9-2.4l-6.4,22.2l-1.4-14.3l1.5-2.8
		l-1.5-2.2h-4.3l-1.4,2.3l1.6,2.7l-1.3,14l-6.6-22.1c-0.4,0.3-13.1,2.8-13.1,2.8c-4.9,0.8-7.2,4.7-8.2,8.9v60.9
		c-0.1,0.4-0.2,0.7-0.2,1.1v6.5c0,2.3,2.3,4.4,4.6,4.4h0.5c2.3,0,4.2-1.9,4.2-4.3v-6.5c0-0.5-0.1-1-0.3-1.4l2.1-44.2
		c0,0,3.7,20.4,3.5,25.5c-0.3,6.6-6.6,15.6-7.4,26c-0.4,5.5,1.2,24.4,1.2,24.4c-0.1,3.3,0,4,2.7,4h2.1l2.6,49.4
		c0,1.1-0.3,3.6-1.4,7.5c-0.1,0.3-0.1,0.5-0.2,0.8c0,0.1,0,0.1-0.1,0.1c-0.5,2.2-1.4,6.1-1.5,6.5c-0.1,0.3-0.1,0.5-0.1,0.7
		c0-0.1,0-0.1,0-0.1c0,0.1,0,0.2,0,0.3c0,0.2,0,0.3,0,0.4c0,0.2,0,0.4,0,0.5c0,0.1,0,0.3,0.1,0.4c0,0.1,0.1,0.2,0.1,0.2
		c0.5,1.3,1.8,1.6,2.8,1.6l3,0v0h8.3c0.7,0,0.9-0.3,0.9-1.1v-8.8c0,0,0,0,0,0l0-1.7c0,0,0,0,0,0v-0.9v-4.3c0,0,0-1.7-0.2-3.2
		l2.9-48.4h2.2l2.9,48.2l0,0.1c-0.3,1.5-0.3,3.3-0.3,3.3v4.3v0.9l0,1.7c0,0,0,0,0,0v8.4c0,1.3,0.1,1.6,0.7,1.6h7.7v0l3.9,0
		c0.9,0,1.9-0.2,2.5-1c0,0,0-0.1,0.1-0.1c0.1-0.1,0.1-0.2,0.2-0.4c0.1-0.1,0.1-0.2,0.1-0.4c0-0.1,0-0.2,0-0.2c0-0.2,0-0.4,0-0.6
		c0-0.1,0-0.2,0-0.4c0-0.1,0-0.2,0-0.3c0,0,0,0,0,0.1c0-0.2-0.1-0.5-0.1-0.8c-0.1-0.4-1-4.2-1.5-6.5c0-0.1,0-0.1-0.1-0.2
		c0-0.3-0.1-0.5-0.2-0.8c-1.1-4-1.3-6.2-1.4-7.1l2.6-49.7h2.2c2.8,0,2.9-0.7,2.8-4c0,0,0.7-18.9,0.3-24.4
		c-0.7-9.4-6.4-20.7-6.7-25.3c-0.4-6.2,2.7-26.1,2.7-26.1l0-0.1l2.8,43.8c-0.3,0.6-0.5,1.2-0.5,1.9v6.5c0,2.3,1.9,4.3,4.3,4.3h0.5
		c2.3,0,4.7-1.9,4.7-4.3v-6.5C351.7,178.4,351.6,178,351.5,177.7"/>
	<g id="XMLID_77_">
		<g>
			<path fill="#6086C4" d="M883.7,79.3c1.2,1.3,1.1,3.1,0.8,4.7c-0.3,1.8-0.8,4.2-2.4,5.4c-0.1,1.3-0.1,2.7-0.5,3.9
				c-0.6,2.1-2,3.5-3.8,4.8c-1.3,1-2.5,2.2-4,3.1c-1.7,1-3.5,1.3-5.4,1.2c-1.9,0.1-3.7-0.2-5.4-1.2c-1.4-0.8-2.6-2.1-4-3.1
				c-1.7-1.2-3.1-2.7-3.7-4.8c-0.4-1.2-0.4-2.6-0.5-3.9c-1.5-1.2-2.1-3.6-2.4-5.4c-0.2-1.6-0.3-3.4,0.8-4.7
				c-0.2-7.2,0.3-11.7,4-14.9c1.9-1.7,7.2-3.6,11.2-3.5c3.9-0.1,9.2,1.8,11.2,3.5C883.5,67.6,884,72.1,883.7,79.3z"/>
		</g>
		<g>
		</g>
	</g>
	<g id="XMLID_76_">
		<g>
			<path fill="#6086C4" d="M995,77.3c1.7,0.5,4.4,1.9,4.4,5.4c-0.1,6-8.8,13.7-3.6,21c-4.9-1.7-6.6-5.1-7-6.7c-0.9,1-2,1.9-3.6,2.9
				c-2.4,1.6-4.3,2.9-6.8,2.8h-0.1h-0.2c-2.4-0.1-4.2-1.7-6.4-3.5c-3.8-3-5-5.1-5.5-10.4c-7.5-5.5-1.1-36.8,17.3-26.1
				C991.3,60.8,994.4,69.8,995,77.3z"/>
		</g>
		<g>
		</g>
	</g>
	<path fill="#6086C4" d="M530.1,105c-0.4,0.3-13.1,2.8-13.1,2.8c-4.9,0.8-7.2,4.7-8.2,9v60.9c-0.1,0.4-0.2,0.7-0.2,1.1v6.5
		c0,2.3,2.3,4.4,4.6,4.4h0.5c2.3,0,4.2-1.9,4.2-4.3v-6.5c0-0.5-0.1-1-0.3-1.4l2.1-44.2c0,0,3.7,20.4,3.5,25.5
		c-0.3,6.6-6.6,15.6-7.4,26c-0.4,5.5,1.2,24.4,1.2,24.4c-0.1,3.3,0,4,2.7,4h2.1l2.6,49.4c0,1.1-0.3,3.6-1.4,7.5
		c-0.1,0.3-0.1,0.5-0.2,0.8c0,0.1,0,0.1-0.1,0.2c-0.5,2.2-1.4,6.1-1.5,6.5c-0.1,0.3-0.1,0.5-0.1,0.7c0-0.1,0-0.1,0-0.1
		c0,0.1,0,0.2,0,0.3c0,0.2,0,0.3,0,0.5c0,0.2,0,0.4,0,0.5c0,0.1,0,0.3,0.1,0.4c0,0.1,0,0.2,0.1,0.2c0.5,1.3,1.8,1.6,2.8,1.6l3,0v0
		h8.3c0.7,0,0.9-0.3,0.9-1.1v-8.8c0,0,0,0,0,0l0-1.7c0,0,0,0,0,0v-0.9v-4.3c0,0,0-1.7-0.2-3.2l2.9-48.4h2.2l2.9,48.2v0.1
		c-0.3,1.5-0.3,3.3-0.3,3.3v4.3v0.9l0,1.7c0,0,0,0,0,0v8.4c0,1.3,0.1,1.6,0.7,1.6h7.7v0l3.9,0c0.9,0,1.9-0.2,2.5-1
		c0,0,0-0.1,0.1-0.1c0.1-0.1,0.1-0.2,0.2-0.4c0.1-0.1,0.1-0.2,0.1-0.4c0-0.1,0-0.2,0-0.2c0-0.2,0-0.4,0-0.6c0-0.1,0-0.2,0-0.3
		c0-0.1,0-0.2,0-0.3c0,0,0,0,0,0.1c0-0.2-0.1-0.5-0.1-0.8c-0.1-0.4-1-4.2-1.5-6.5c0,0,0-0.1-0.1-0.2c0-0.3-0.1-0.5-0.2-0.8
		c-1.1-4-1.3-6.2-1.4-7.1l2.6-49.7h2.2c2.8,0,2.9-0.7,2.8-4c0,0,0.7-18.9,0.3-24.4c-0.7-9.4-6.4-20.7-6.7-25.3
		c-0.4-6.2,2.7-26.1,2.7-26.1l0-0.1l2.8,43.8c-0.3,0.6-0.5,1.2-0.5,1.9v6.5c0,2.3,1.9,4.3,4.3,4.3h0.5c2.3,0,4.7-1.9,4.7-4.3v-6.5
		c0-0.4-0.1-0.8-0.2-1.2l0-61c-0.8-4.5-3.4-8.2-8.4-9l-0.1,0c0,0-12.6-2.3-12.9-2.4l-9.9,13.7L530.1,105z"/>
	<path fill="#6086C4" d="M969.6,105c-0.4,0.3-13.1,2.8-13.1,2.8c-4.9,0.8-7.2,4.7-8.2,9v60.9c-0.1,0.4-0.2,0.7-0.2,1.1v6.5
		c0,2.3,2.3,4.4,4.6,4.4h0.5c2.3,0,4.2-1.9,4.2-4.3v-6.5c0-0.5-0.1-1-0.3-1.4l2.1-44.2c0,0,3.7,20.4,3.5,25.5
		c-0.3,6.6-6.6,15.6-7.4,26c-0.4,5.5,1.2,24.4,1.2,24.4c-0.1,3.3,0,4,2.7,4h2.1l2.6,49.4c0,1.1-0.3,3.6-1.4,7.5
		c-0.1,0.3-0.1,0.5-0.2,0.8c0,0.1,0,0.1-0.1,0.2c-0.5,2.2-1.4,6.1-1.5,6.5c-0.1,0.3-0.1,0.5-0.1,0.7c0-0.1,0-0.1,0-0.1
		c0,0.1,0,0.2,0,0.3c0,0.2,0,0.3,0,0.5c0,0.2,0,0.4,0,0.5c0,0.1,0,0.3,0.1,0.4c0,0.1,0,0.2,0.1,0.2c0.5,1.3,1.8,1.6,2.8,1.6l3,0v0
		h8.3c0.7,0,0.9-0.3,0.9-1.1v-8.8c0,0,0,0,0,0l0-1.7c0,0,0,0,0,0v-0.9v-4.3c0,0,0-1.7-0.2-3.2l2.9-48.4h2.2l2.9,48.2v0.1
		c-0.3,1.5-0.3,3.3-0.3,3.3v4.3v0.9l0,1.7c0,0,0,0,0,0v8.4c0,1.3,0.1,1.6,0.7,1.6h7.7v0l3.9,0c0.9,0,1.9-0.2,2.5-1
		c0,0,0-0.1,0.1-0.1c0.1-0.1,0.1-0.2,0.2-0.4c0.1-0.1,0.1-0.2,0.1-0.4c0-0.1,0-0.2,0-0.2c0-0.2,0-0.4,0-0.6c0-0.1,0-0.2,0-0.3
		c0-0.1,0-0.2,0-0.3c0,0,0,0,0,0.1c0-0.2-0.1-0.5-0.1-0.8c-0.1-0.4-1-4.2-1.5-6.5c0,0,0-0.1-0.1-0.2c0-0.3-0.1-0.5-0.2-0.8
		c-1.1-4-1.3-6.2-1.4-7.1l2.6-49.7h2.2c2.8,0,2.9-0.7,2.8-4c0,0,0.7-18.9,0.3-24.4c-0.7-9.4-6.4-20.7-6.7-25.3
		c-0.4-6.2,2.7-26.1,2.7-26.1l0-0.1l2.8,43.8c-0.3,0.6-0.5,1.2-0.5,1.9v6.5c0,2.3,1.9,4.3,4.3,4.3h0.5c2.3,0,4.7-1.9,4.7-4.3v-6.5
		c0-0.4-0.1-0.8-0.2-1.2l0-61c-0.8-4.5-3.4-8.2-8.4-9l-0.1,0c0,0-12.6-2.3-12.9-2.4l-9.9,13.7L969.6,105z"/>
	<path fill="#6086C4" d="M90.6,105c-0.4,0.3-13.1,2.8-13.1,2.8c-4.9,0.8-7.2,4.7-8.2,9v60.9c-0.1,0.4-0.2,0.7-0.2,1.1v6.5
		c0,2.3,2.3,4.4,4.6,4.4h0.5c2.3,0,4.3-1.9,4.3-4.3v-6.5c0-0.5-0.1-1-0.3-1.4l2.1-44.2c0,0,3.7,20.4,3.5,25.5
		c-0.3,6.6-6.6,15.6-7.4,26c-0.4,5.5,1.2,24.4,1.2,24.4c-0.1,3.3,0,4,2.7,4h2.1l2.6,49.4c0,1.1-0.3,3.6-1.4,7.5
		c-0.1,0.3-0.1,0.5-0.2,0.8c0,0.1,0,0.1-0.1,0.2c-0.5,2.2-1.4,6.1-1.5,6.5c-0.1,0.3-0.1,0.5-0.1,0.7c0-0.1,0-0.1,0-0.1
		c0,0.1,0,0.2,0,0.3c0,0.2,0,0.3,0,0.5c0,0.2,0,0.4,0,0.5c0,0.1,0,0.3,0.1,0.4c0,0.1,0.1,0.2,0.1,0.2c0.5,1.3,1.8,1.6,2.8,1.6l3,0v0
		H96c0.7,0,0.9-0.3,0.9-1.1v-8.8c0,0,0,0,0,0l0-1.7c0,0,0,0,0,0v-0.9v-4.3c0,0,0-1.7-0.2-3.2l2.9-48.4h2.2l2.9,48.2l0,0.1
		c-0.3,1.5-0.3,3.3-0.3,3.3v4.3v0.9l0,1.7c0,0,0,0,0,0v8.4c0,1.3,0.1,1.6,0.7,1.6h7.7v0l3.9,0c0.9,0,1.9-0.2,2.5-1
		c0,0,0-0.1,0.1-0.1c0.1-0.1,0.1-0.2,0.2-0.4c0.1-0.1,0.1-0.2,0.1-0.4c0-0.1,0-0.2,0-0.2c0-0.2,0-0.4,0-0.6c0-0.1,0-0.2,0-0.3
		c0-0.1,0-0.2,0-0.3c0,0,0,0,0,0.1c0-0.2-0.1-0.5-0.1-0.8c-0.1-0.4-1-4.2-1.5-6.5c0,0,0-0.1-0.1-0.2c0-0.3-0.1-0.5-0.2-0.8
		c-1.1-4-1.3-6.2-1.4-7.1l2.6-49.7h2.2c2.8,0,2.9-0.7,2.8-4c0,0,0.7-18.9,0.3-24.4c-0.7-9.4-6.4-20.7-6.7-25.3
		c-0.4-6.2,2.7-26.1,2.7-26.1l0-0.1L123,177c-0.3,0.6-0.5,1.2-0.5,1.9v6.5c0,2.3,1.9,4.3,4.3,4.3h0.5c2.3,0,4.7-1.9,4.7-4.3v-6.5
		c0-0.4-0.1-0.8-0.2-1.2l0-61c-0.8-4.5-3.4-8.2-8.4-9l-0.1,0c0,0-12.6-2.3-12.9-2.4l-9.9,13.7L90.6,105z"/>
	<g id="XMLID_75_">
		<g>
			<path fill="#6086C4" d="M116.8,84.8c0.1,6.3,0,13.1,1.6,14.6c-5.4,3.6-15.4,3.6-17.8,3.6c-5.2,0.1-13.7-0.4-18.1-3.6
				c3.9-2.2-4.7-45.8,21.9-35.5C110.8,62.1,116.6,73.4,116.8,84.8z"/>
		</g>
		<g>
		</g>
	</g>
	<g id="XMLID_74_">
		<g>
			<path fill="#6086C4" d="M555.9,77.3c1.7,0.5,4.5,1.9,4.4,5.4c-0.1,6-8.8,13.7-3.6,21c-4.9-1.7-6.5-5.1-7-6.7
				c-0.9,1-2,1.9-3.5,2.9c-2.4,1.6-4.4,2.9-6.8,2.8h-0.1h-0.1c-2.4-0.1-4.2-1.7-6.5-3.5c-3.8-3-5-5.1-5.5-10.4
				c-7.6-5.5-1.2-36.8,17.3-26.1C552.2,60.8,555.3,69.8,555.9,77.3z"/>
		</g>
		<g>
		</g>
	</g>
	<g id="XMLID_73_">
		<g>
			<path fill="#6086C4" d="M445.2,79.2c1.2,1.3,1.1,3.1,0.8,4.7c-0.3,1.9-0.8,4.2-2.4,5.4c-0.1,1.3-0.1,2.7-0.5,3.9
				c-0.6,2.1-2,3.5-3.7,4.7c-1.3,1-2.5,2.2-4,3.1c-1.7,1-3.4,1.3-5.4,1.2c-1.9,0.1-3.7-0.2-5.4-1.2c-1.4-0.8-2.6-2.1-4-3.1
				c-1.7-1.2-3.1-2.6-3.7-4.7c-0.4-1.2-0.4-2.6-0.5-3.9c-1.6-1.2-2.1-3.5-2.4-5.4c-0.2-1.6-0.3-3.4,0.8-4.7
				c-0.3-7.2,0.3-11.6,4-14.9c1.9-1.7,7.2-3.6,11.1-3.5c3.9-0.1,9.2,1.8,11.1,3.5C444.9,67.6,445.5,72,445.2,79.2z"/>
		</g>
		<g>
		</g>
	</g>
	<path fill="#6086C4" d="M463.4,114.5c-0.5-5.4-4.4-8.1-9.9-9.2c-0.2,0-12.1-1-14.8-1.2l-7.7,13.8l-8.5-14.1
		c-2.7,0.2-15.9,1.5-15.9,1.5c-5.6,0.8-9.4,3.8-9.9,9.2l0,63.9c0.5,0,1.1,0.1,1.6,0.1v6.4c0,2.4,2,4.4,4.4,4.4h3.6
		c0.5,0,1-0.1,1.4-0.3v83.2h1.9v7c0,1,0.8,1.9,1.9,1.9h15.1c1,0,1.9-0.8,1.9-1.9v-7h1.6v-79.5h1.4v79.5h1.5v7c0,1,0.8,1.9,1.9,1.9
		H450c1,0,1.9-0.8,1.9-1.9v-7h1.2c0.6-19.8,0.3-62.6,0.1-84.3c0.8,0.8,1.9,1.3,3.1,1.3h1.7c2.4,0,4.4-2,4.4-4.4v-6.6
		c0.4,0,0.9-0.1,1.3-0.1L463.4,114.5z"/>
	<path fill="#6086C4" d="M901.9,114.5c-0.5-5.4-4.4-8.1-9.9-9.2c-0.2,0-12.1-1-14.8-1.2l-7.7,13.8l-8.5-14.1
		c-2.7,0.2-15.9,1.5-15.9,1.5c-5.6,0.8-9.4,3.8-9.9,9.2l0,63.9c0.5,0,1.1,0.1,1.6,0.1v6.4c0,2.4,2,4.4,4.4,4.4h3.6
		c0.5,0,1-0.1,1.4-0.3v83.2h1.9v7c0,1,0.8,1.9,1.9,1.9H865c1,0,1.9-0.8,1.9-1.9v-7h1.6v-79.5h1.4v79.5h1.5v7c0,1,0.8,1.9,1.9,1.9
		h15.2c1,0,1.9-0.8,1.9-1.9v-7h1.2c0.6-19.8,0.3-62.6,0.1-84.3c0.8,0.8,1.9,1.3,3.1,1.3h1.7c2.4,0,4.4-2,4.4-4.4v-6.6
		c0.4,0,0.9-0.1,1.2-0.1L901.9,114.5z"/>
</g>
</svg>
