<?xml version="1.0" encoding="utf-8"?>
<!-- Generator: Adobe Illustrator 18.1.1, SVG Export Plug-In . SVG Version: 6.00 Build 0)  -->
<svg version="1.1" id="Layer_1" xmlns="http://www.w3.org/2000/svg" xmlns:xlink="http://www.w3.org/1999/xlink" x="0px" y="0px"
	 viewBox="0 0 219.3 104.1" enable-background="new 0 0 219.3 104.1" xml:space="preserve">
<g>
	<g>
		<g>
			<g>
				<path fill-rule="evenodd" clip-rule="evenodd" fill="#808285" d="M25.2,24.6c0.1,0,0.2,0.2,0.2,0.3c0,0.1-0.2,0.2-0.3,0.2
					c-0.1,0-0.2-0.2-0.2-0.3C24.9,24.7,25.1,24.6,25.2,24.6L25.2,24.6z"/>
				<path fill-rule="evenodd" clip-rule="evenodd" fill="#808285" d="M25.6,4.6v3.7c-0.2,0-0.4,0-0.6,0c-0.2,0-0.4,0-0.6,0V4.6
					c0.2,0,0.4,0,0.6,0C25.1,4.6,25.4,4.6,25.6,4.6L25.6,4.6z M32.6,10.2L34.5,7c0.4,0.2,0.8,0.4,1.1,0.6l-1.9,3.2
					C33.4,10.6,33,10.4,32.6,10.2L32.6,10.2z M38.9,16l3.2-1.9c0.2,0.4,0.4,0.7,0.6,1.1l-3.2,1.9C39.3,16.8,39.1,16.4,38.9,16
					L38.9,16z M41.4,24.2h3.7c0,0.2,0,0.4,0,0.6c0,0.2,0,0.4,0,0.6h-3.7c0-0.2,0-0.4,0-0.6C41.4,24.6,41.4,24.4,41.4,24.2L41.4,24.2
					z M39.5,32.5l3.2,1.9c-0.2,0.4-0.4,0.8-0.6,1.1l-3.2-1.9C39.1,33.3,39.3,32.9,39.5,32.5L39.5,32.5z M33.7,38.8l1.9,3.2
					c-0.4,0.2-0.7,0.4-1.1,0.6l-1.9-3.2C33,39.2,33.4,39,33.7,38.8L33.7,38.8z M25.6,41.3v3.7c-0.2,0-0.4,0-0.6,0
					c-0.2,0-0.4,0-0.6,0v-3.7c0.2,0,0.4,0,0.6,0C25.1,41.3,25.4,41.3,25.6,41.3L25.6,41.3z M17.2,39.4l-1.9,3.2
					c-0.4-0.2-0.8-0.4-1.1-0.6l1.9-3.2C16.5,39,16.9,39.2,17.2,39.4L17.2,39.4z M11,33.6l-3.2,1.9c-0.2-0.4-0.4-0.7-0.6-1.1l3.2-1.9
					C10.5,32.9,10.7,33.3,11,33.6L11,33.6z M8.4,25.5H4.7c0-0.2,0-0.4,0-0.6c0-0.2,0-0.4,0-0.6h3.7c0,0.2,0,0.4,0,0.6
					C8.4,25,8.4,25.3,8.4,25.5L8.4,25.5z M10.3,17.1l-3.2-1.9c0.2-0.4,0.4-0.8,0.6-1.1L11,16C10.7,16.4,10.5,16.8,10.3,17.1
					L10.3,17.1z M16.1,10.9l-1.9-3.2C14.6,7.4,15,7.2,15.4,7l1.9,3.2C16.9,10.4,16.5,10.6,16.1,10.9L16.1,10.9z"/>
				<polygon fill-rule="evenodd" clip-rule="evenodd" fill="#808285" points="36.9,12.6 37.5,13.3 24.6,26 24,25.3 36.9,12.6 				
					"/>
				<polygon fill-rule="evenodd" clip-rule="evenodd" fill="#808285" points="13.8,18.7 14.5,17.5 25.9,24.6 25.1,25.7 13.8,18.7 
									"/>
			</g>
		</g>
		<circle fill-rule="evenodd" clip-rule="evenodd" fill="#808285" cx="25.1" cy="24.9" r="1.4"/>
		<path fill="#6D6E71" d="M24.6,49.2C11,49.2,0,38.2,0,24.6S11,0,24.6,0s24.6,11,24.6,24.6S38.2,49.2,24.6,49.2z M24.6,2.1
			C12.2,2.1,2.1,12.2,2.1,24.6s10.1,22.5,22.5,22.5S47.2,37,47.2,24.6S37,2.1,24.6,2.1z"/>
	</g>
	<g>
		<g>
			<g>
				<path fill-rule="evenodd" clip-rule="evenodd" fill="#808285" d="M81.5,24.6c0.1,0,0.2,0.2,0.2,0.3c0,0.1-0.2,0.2-0.3,0.2
					c-0.1,0-0.2-0.2-0.2-0.3C81.3,24.7,81.4,24.6,81.5,24.6L81.5,24.6z"/>
				<path fill-rule="evenodd" clip-rule="evenodd" fill="#808285" d="M81.9,4.6v3.7c-0.2,0-0.4,0-0.6,0c-0.2,0-0.4,0-0.6,0V4.6
					c0.2,0,0.4,0,0.6,0C81.5,4.6,81.7,4.6,81.9,4.6L81.9,4.6z M89,10.2L90.8,7c0.4,0.2,0.8,0.4,1.1,0.6l-1.9,3.2
					C89.7,10.6,89.3,10.4,89,10.2L89,10.2z M95.2,16l3.2-1.9c0.2,0.4,0.4,0.7,0.6,1.1l-3.2,1.9C95.7,16.8,95.5,16.4,95.2,16L95.2,16
					z M97.8,24.2h3.7c0,0.2,0,0.4,0,0.6c0,0.2,0,0.4,0,0.6h-3.7c0-0.2,0-0.4,0-0.6C97.8,24.6,97.8,24.4,97.8,24.2L97.8,24.2z
					 M95.9,32.5l3.2,1.9c-0.2,0.4-0.4,0.8-0.6,1.1l-3.2-1.9C95.5,33.3,95.7,32.9,95.9,32.5L95.9,32.5z M90.1,38.8l1.9,3.2
					c-0.4,0.2-0.7,0.4-1.1,0.6L89,39.4C89.3,39.2,89.7,39,90.1,38.8L90.1,38.8z M81.9,41.3v3.7c-0.2,0-0.4,0-0.6,0
					c-0.2,0-0.4,0-0.6,0v-3.7c0.2,0,0.4,0,0.6,0C81.5,41.3,81.7,41.3,81.9,41.3L81.9,41.3z M73.6,39.4l-1.9,3.2
					c-0.4-0.2-0.8-0.4-1.1-0.6l1.9-3.2C72.8,39,73.2,39.2,73.6,39.4L73.6,39.4z M67.3,33.6l-3.2,1.9c-0.2-0.4-0.4-0.7-0.6-1.1
					l3.2-1.9C66.9,32.9,67.1,33.3,67.3,33.6L67.3,33.6z M64.8,25.5H61c0-0.2,0-0.4,0-0.6c0-0.2,0-0.4,0-0.6h3.7c0,0.2,0,0.4,0,0.6
					C64.8,25,64.8,25.3,64.8,25.5L64.8,25.5z M66.7,17.1l-3.2-1.9c0.2-0.4,0.4-0.8,0.6-1.1l3.2,1.9C67.1,16.4,66.9,16.8,66.7,17.1
					L66.7,17.1z M72.5,10.9l-1.9-3.2C71,7.4,71.3,7.2,71.7,7l1.9,3.2C73.2,10.4,72.8,10.6,72.5,10.9L72.5,10.9z"/>
				<polygon fill-rule="evenodd" clip-rule="evenodd" fill="#808285" points="93.2,12.6 93.8,13.3 81,26 80.3,25.3 93.2,12.6 				
					"/>
				<polygon fill-rule="evenodd" clip-rule="evenodd" fill="#808285" points="70.2,18.7 70.9,17.5 82.2,24.6 81.5,25.7 70.2,18.7 
									"/>
			</g>
		</g>
		<circle fill-rule="evenodd" clip-rule="evenodd" fill="#808285" cx="81.5" cy="24.9" r="1.4"/>
		<path fill="#6D6E71" d="M81,49.2c-13.6,0-24.6-11-24.6-24.6S67.4,0,81,0s24.6,11,24.6,24.6S94.5,49.2,81,49.2z M81,2.1
			c-12.4,0-22.5,10.1-22.5,22.5S68.5,47.2,81,47.2s22.5-10.1,22.5-22.5S93.4,2.1,81,2.1z"/>
	</g>
	<g>
		<g>
			<g>
				<path fill-rule="evenodd" clip-rule="evenodd" fill="#808285" d="M138.9,24.6c0.1,0,0.2,0.2,0.2,0.3c0,0.1-0.2,0.2-0.3,0.2
					c-0.1,0-0.2-0.2-0.2-0.3C138.6,24.7,138.8,24.6,138.9,24.6L138.9,24.6z"/>
				<path fill-rule="evenodd" clip-rule="evenodd" fill="#808285" d="M139.3,4.6v3.7c-0.2,0-0.4,0-0.6,0c-0.2,0-0.4,0-0.6,0V4.6
					c0.2,0,0.4,0,0.6,0C138.9,4.6,139.1,4.6,139.3,4.6L139.3,4.6z M146.3,10.2l1.9-3.2c0.4,0.2,0.8,0.4,1.1,0.6l-1.9,3.2
					C147.1,10.6,146.7,10.4,146.3,10.2L146.3,10.2z M152.6,16l3.2-1.9c0.2,0.4,0.4,0.7,0.6,1.1l-3.2,1.9
					C153,16.8,152.8,16.4,152.6,16L152.6,16z M155.1,24.2h3.7c0,0.2,0,0.4,0,0.6c0,0.2,0,0.4,0,0.6h-3.7c0-0.2,0-0.4,0-0.6
					C155.1,24.6,155.1,24.4,155.1,24.2L155.1,24.2z M153.2,32.5l3.2,1.9c-0.2,0.4-0.4,0.8-0.6,1.1l-3.2-1.9
					C152.8,33.3,153,32.9,153.2,32.5L153.2,32.5z M147.4,38.8l1.9,3.2c-0.4,0.2-0.7,0.4-1.1,0.6l-1.9-3.2
					C146.7,39.2,147.1,39,147.4,38.8L147.4,38.8z M139.3,41.3v3.7c-0.2,0-0.4,0-0.6,0c-0.2,0-0.4,0-0.6,0v-3.7c0.2,0,0.4,0,0.6,0
					C138.9,41.3,139.1,41.3,139.3,41.3L139.3,41.3z M131,39.4l-1.9,3.2c-0.4-0.2-0.8-0.4-1.1-0.6l1.9-3.2
					C130.2,39,130.6,39.2,131,39.4L131,39.4z M124.7,33.6l-3.2,1.9c-0.2-0.4-0.4-0.7-0.6-1.1l3.2-1.9
					C124.3,32.9,124.5,33.3,124.7,33.6L124.7,33.6z M122.2,25.5h-3.7c0-0.2,0-0.4,0-0.6c0-0.2,0-0.4,0-0.6h3.7c0,0.2,0,0.4,0,0.6
					C122.2,25,122.2,25.3,122.2,25.5L122.2,25.5z M124.1,17.1l-3.2-1.9c0.2-0.4,0.4-0.8,0.6-1.1l3.2,1.9
					C124.5,16.4,124.3,16.8,124.1,17.1L124.1,17.1z M129.8,10.9L128,7.6c0.4-0.2,0.7-0.4,1.1-0.6l1.9,3.2
					C130.6,10.4,130.2,10.6,129.8,10.9L129.8,10.9z"/>
				<polygon fill-rule="evenodd" clip-rule="evenodd" fill="#808285" points="150.6,12.6 151.2,13.3 138.3,26 137.7,25.3 
					150.6,12.6 				"/>
				<polygon fill-rule="evenodd" clip-rule="evenodd" fill="#808285" points="127.5,18.7 128.3,17.5 139.6,24.6 138.9,25.7 
					127.5,18.7 				"/>
			</g>
		</g>
		<circle fill-rule="evenodd" clip-rule="evenodd" fill="#808285" cx="138.9" cy="24.9" r="1.4"/>
		<path fill="#6D6E71" d="M138.3,49.2c-13.6,0-24.6-11-24.6-24.6S124.8,0,138.3,0S163,11,163,24.6S151.9,49.2,138.3,49.2z
			 M138.3,2.1c-12.4,0-22.5,10.1-22.5,22.5s10.1,22.5,22.5,22.5s22.5-10.1,22.5-22.5S150.8,2.1,138.3,2.1z"/>
	</g>
	<g>
		<g>
			<g>
				<path fill-rule="evenodd" clip-rule="evenodd" fill="#808285" d="M25.2,79.5c0.1,0,0.2,0.2,0.2,0.3c0,0.1-0.2,0.2-0.3,0.2
					c-0.1,0-0.2-0.2-0.2-0.3C24.9,79.6,25.1,79.5,25.2,79.5L25.2,79.5z"/>
				<path fill-rule="evenodd" clip-rule="evenodd" fill="#808285" d="M25.6,59.5v3.7c-0.2,0-0.4,0-0.6,0c-0.2,0-0.4,0-0.6,0v-3.7
					c0.2,0,0.4,0,0.6,0C25.1,59.5,25.4,59.5,25.6,59.5L25.6,59.5z M32.6,65.1l1.9-3.2c0.4,0.2,0.8,0.4,1.1,0.6l-1.9,3.2
					C33.4,65.6,33,65.3,32.6,65.1L32.6,65.1z M38.9,70.9l3.2-1.9c0.2,0.4,0.4,0.7,0.6,1.1L39.5,72C39.3,71.7,39.1,71.3,38.9,70.9
					L38.9,70.9z M41.4,79.1h3.7c0,0.2,0,0.4,0,0.6c0,0.2,0,0.4,0,0.6h-3.7c0-0.2,0-0.4,0-0.6S41.4,79.3,41.4,79.1L41.4,79.1z
					 M39.5,87.4l3.2,1.9c-0.2,0.4-0.4,0.8-0.6,1.1l-3.2-1.9C39.1,88.2,39.3,87.8,39.5,87.4L39.5,87.4z M33.7,93.7l1.9,3.2
					c-0.4,0.2-0.7,0.4-1.1,0.6l-1.9-3.2C33,94.1,33.4,93.9,33.7,93.7L33.7,93.7z M25.6,96.2v3.7c-0.2,0-0.4,0-0.6,0
					c-0.2,0-0.4,0-0.6,0v-3.7c0.2,0,0.4,0,0.6,0C25.1,96.2,25.4,96.2,25.6,96.2L25.6,96.2z M17.2,94.3l-1.9,3.2
					c-0.4-0.2-0.8-0.4-1.1-0.6l1.9-3.2C16.5,93.9,16.9,94.1,17.2,94.3L17.2,94.3z M11,88.5l-3.2,1.9c-0.2-0.4-0.4-0.7-0.6-1.1
					l3.2-1.9C10.5,87.8,10.7,88.2,11,88.5L11,88.5z M8.4,80.4H4.7c0-0.2,0-0.4,0-0.6c0-0.2,0-0.4,0-0.6h3.7c0,0.2,0,0.4,0,0.6
					S8.4,80.2,8.4,80.4L8.4,80.4z M10.3,72l-3.2-1.9c0.2-0.4,0.4-0.8,0.6-1.1l3.2,1.9C10.7,71.3,10.5,71.7,10.3,72L10.3,72z
					 M16.1,65.8l-1.9-3.2c0.4-0.2,0.7-0.4,1.1-0.6l1.9,3.2C16.9,65.3,16.5,65.6,16.1,65.8L16.1,65.8z"/>
				<polygon fill-rule="evenodd" clip-rule="evenodd" fill="#808285" points="36.9,67.5 37.5,68.2 24.6,80.9 24,80.2 36.9,67.5 				
					"/>
				<polygon fill-rule="evenodd" clip-rule="evenodd" fill="#808285" points="13.8,73.6 14.5,72.4 25.9,79.5 25.1,80.6 13.8,73.6 
									"/>
			</g>
		</g>
		<circle fill-rule="evenodd" clip-rule="evenodd" fill="#808285" cx="25.1" cy="79.8" r="1.4"/>
		<path fill="#6D6E71" d="M24.6,104.1C11,104.1,0,93.1,0,79.5s11-24.6,24.6-24.6s24.6,11,24.6,24.6S38.2,104.1,24.6,104.1z M24.6,57
			C12.2,57,2.1,67.1,2.1,79.5s10.1,22.5,22.5,22.5s22.5-10.1,22.5-22.5S37,57,24.6,57z"/>
	</g>
	<g>
		<g>
			<g>
				<path fill-rule="evenodd" clip-rule="evenodd" fill="#808285" d="M81.5,79.5c0.1,0,0.2,0.2,0.2,0.3c0,0.1-0.2,0.2-0.3,0.2
					c-0.1,0-0.2-0.2-0.2-0.3C81.3,79.6,81.4,79.5,81.5,79.5L81.5,79.5z"/>
				<path fill-rule="evenodd" clip-rule="evenodd" fill="#808285" d="M81.9,59.5v3.7c-0.2,0-0.4,0-0.6,0c-0.2,0-0.4,0-0.6,0v-3.7
					c0.2,0,0.4,0,0.6,0C81.5,59.5,81.7,59.5,81.9,59.5L81.9,59.5z M89,65.1l1.9-3.2c0.4,0.2,0.8,0.4,1.1,0.6l-1.9,3.2
					C89.7,65.6,89.3,65.3,89,65.1L89,65.1z M95.2,70.9l3.2-1.9c0.2,0.4,0.4,0.7,0.6,1.1L95.9,72C95.7,71.7,95.5,71.3,95.2,70.9
					L95.2,70.9z M97.8,79.1h3.7c0,0.2,0,0.4,0,0.6c0,0.2,0,0.4,0,0.6h-3.7c0-0.2,0-0.4,0-0.6S97.8,79.3,97.8,79.1L97.8,79.1z
					 M95.9,87.4l3.2,1.9c-0.2,0.4-0.4,0.8-0.6,1.1l-3.2-1.9C95.5,88.2,95.7,87.8,95.9,87.4L95.9,87.4z M90.1,93.7l1.9,3.2
					c-0.4,0.2-0.7,0.4-1.1,0.6L89,94.3C89.3,94.1,89.7,93.9,90.1,93.7L90.1,93.7z M81.9,96.2v3.7c-0.2,0-0.4,0-0.6,0
					c-0.2,0-0.4,0-0.6,0v-3.7c0.2,0,0.4,0,0.6,0C81.5,96.2,81.7,96.2,81.9,96.2L81.9,96.2z M73.6,94.3l-1.9,3.2
					c-0.4-0.2-0.8-0.4-1.1-0.6l1.9-3.2C72.8,93.9,73.2,94.1,73.6,94.3L73.6,94.3z M67.3,88.5l-3.2,1.9c-0.2-0.4-0.4-0.7-0.6-1.1
					l3.2-1.9C66.9,87.8,67.1,88.2,67.3,88.5L67.3,88.5z M64.8,80.4H61c0-0.2,0-0.4,0-0.6c0-0.2,0-0.4,0-0.6h3.7c0,0.2,0,0.4,0,0.6
					S64.8,80.2,64.8,80.4L64.8,80.4z M66.7,72l-3.2-1.9c0.2-0.4,0.4-0.8,0.6-1.1l3.2,1.9C67.1,71.3,66.9,71.7,66.7,72L66.7,72z
					 M72.5,65.8l-1.9-3.2c0.4-0.2,0.7-0.4,1.1-0.6l1.9,3.2C73.2,65.3,72.8,65.6,72.5,65.8L72.5,65.8z"/>
				<polygon fill-rule="evenodd" clip-rule="evenodd" fill="#808285" points="93.2,67.5 93.8,68.2 81,80.9 80.3,80.2 93.2,67.5 				
					"/>
				<polygon fill-rule="evenodd" clip-rule="evenodd" fill="#808285" points="70.2,73.6 70.9,72.4 82.2,79.5 81.5,80.6 70.2,73.6 
									"/>
			</g>
		</g>
		<circle fill-rule="evenodd" clip-rule="evenodd" fill="#808285" cx="81.5" cy="79.8" r="1.4"/>
		<path fill="#6D6E71" d="M81,104.1c-13.6,0-24.6-11-24.6-24.6s11-24.6,24.6-24.6s24.6,11,24.6,24.6S94.5,104.1,81,104.1z M81,57
			c-12.4,0-22.5,10.1-22.5,22.5s10.1,22.5,22.5,22.5s22.5-10.1,22.5-22.5S93.4,57,81,57z"/>
	</g>
	<g>
		<g>
			<g>
				<path fill-rule="evenodd" clip-rule="evenodd" fill="#808285" d="M138.9,79.5c0.1,0,0.2,0.2,0.2,0.3c0,0.1-0.2,0.2-0.3,0.2
					c-0.1,0-0.2-0.2-0.2-0.3C138.6,79.6,138.8,79.5,138.9,79.5L138.9,79.5z"/>
				<path fill-rule="evenodd" clip-rule="evenodd" fill="#808285" d="M139.3,59.5v3.7c-0.2,0-0.4,0-0.6,0c-0.2,0-0.4,0-0.6,0v-3.7
					c0.2,0,0.4,0,0.6,0C138.9,59.5,139.1,59.5,139.3,59.5L139.3,59.5z M146.3,65.1l1.9-3.2c0.4,0.2,0.8,0.4,1.1,0.6l-1.9,3.2
					C147.1,65.6,146.7,65.3,146.3,65.1L146.3,65.1z M152.6,70.9l3.2-1.9c0.2,0.4,0.4,0.7,0.6,1.1l-3.2,1.9
					C153,71.7,152.8,71.3,152.6,70.9L152.6,70.9z M155.1,79.1h3.7c0,0.2,0,0.4,0,0.6c0,0.2,0,0.4,0,0.6h-3.7c0-0.2,0-0.4,0-0.6
					S155.1,79.3,155.1,79.1L155.1,79.1z M153.2,87.4l3.2,1.9c-0.2,0.4-0.4,0.8-0.6,1.1l-3.2-1.9C152.8,88.2,153,87.8,153.2,87.4
					L153.2,87.4z M147.4,93.7l1.9,3.2c-0.4,0.2-0.7,0.4-1.1,0.6l-1.9-3.2C146.7,94.1,147.1,93.9,147.4,93.7L147.4,93.7z M139.3,96.2
					v3.7c-0.2,0-0.4,0-0.6,0c-0.2,0-0.4,0-0.6,0v-3.7c0.2,0,0.4,0,0.6,0C138.9,96.2,139.1,96.2,139.3,96.2L139.3,96.2z M131,94.3
					l-1.9,3.2c-0.4-0.2-0.8-0.4-1.1-0.6l1.9-3.2C130.2,93.9,130.6,94.1,131,94.3L131,94.3z M124.7,88.5l-3.2,1.9
					c-0.2-0.4-0.4-0.7-0.6-1.1l3.2-1.9C124.3,87.8,124.5,88.2,124.7,88.5L124.7,88.5z M122.2,80.4h-3.7c0-0.2,0-0.4,0-0.6
					c0-0.2,0-0.4,0-0.6h3.7c0,0.2,0,0.4,0,0.6S122.2,80.2,122.2,80.4L122.2,80.4z M124.1,72l-3.2-1.9c0.2-0.4,0.4-0.8,0.6-1.1
					l3.2,1.9C124.5,71.3,124.3,71.7,124.1,72L124.1,72z M129.8,65.8l-1.9-3.2c0.4-0.2,0.7-0.4,1.1-0.6l1.9,3.2
					C130.6,65.3,130.2,65.6,129.8,65.8L129.8,65.8z"/>
				<polygon fill-rule="evenodd" clip-rule="evenodd" fill="#808285" points="150.6,67.5 151.2,68.2 138.3,80.9 137.7,80.2 
					150.6,67.5 				"/>
				<polygon fill-rule="evenodd" clip-rule="evenodd" fill="#808285" points="127.5,73.6 128.3,72.4 139.6,79.5 138.9,80.6 
					127.5,73.6 				"/>
			</g>
		</g>
		<circle fill-rule="evenodd" clip-rule="evenodd" fill="#808285" cx="138.9" cy="79.8" r="1.4"/>
		<path fill="#6D6E71" d="M138.3,104.1c-13.6,0-24.6-11-24.6-24.6s11-24.6,24.6-24.6s24.6,11,24.6,24.6S151.9,104.1,138.3,104.1z
			 M138.3,57c-12.4,0-22.5,10.1-22.5,22.5s10.1,22.5,22.5,22.5s22.5-10.1,22.5-22.5S150.8,57,138.3,57z"/>
	</g>
	<g>
		<g>
			<g>
				<path fill-rule="evenodd" clip-rule="evenodd" fill="#808285" d="M195.3,24.6c0.1,0,0.2,0.2,0.2,0.3c0,0.1-0.2,0.2-0.3,0.2
					c-0.1,0-0.2-0.2-0.2-0.3C195,24.7,195.1,24.6,195.3,24.6L195.3,24.6z"/>
				<path fill-rule="evenodd" clip-rule="evenodd" fill="#808285" d="M195.6,4.6v3.7c-0.2,0-0.4,0-0.6,0c-0.2,0-0.4,0-0.6,0V4.6
					c0.2,0,0.4,0,0.6,0C195.2,4.6,195.4,4.6,195.6,4.6L195.6,4.6z M202.7,10.2l1.9-3.2c0.4,0.2,0.8,0.4,1.1,0.6l-1.9,3.2
					C203.4,10.6,203.1,10.4,202.7,10.2L202.7,10.2z M209,16l3.2-1.9c0.2,0.4,0.4,0.7,0.6,1.1l-3.2,1.9C209.4,16.8,209.2,16.4,209,16
					L209,16z M211.5,24.2h3.7c0,0.2,0,0.4,0,0.6c0,0.2,0,0.4,0,0.6h-3.7c0-0.2,0-0.4,0-0.6C211.5,24.6,211.5,24.4,211.5,24.2
					L211.5,24.2z M209.6,32.5l3.2,1.9c-0.2,0.4-0.4,0.8-0.6,1.1l-3.2-1.9C209.2,33.3,209.4,32.9,209.6,32.5L209.6,32.5z M203.8,38.8
					l1.9,3.2c-0.4,0.2-0.7,0.4-1.1,0.6l-1.9-3.2C203.1,39.2,203.4,39,203.8,38.8L203.8,38.8z M195.6,41.3v3.7c-0.2,0-0.4,0-0.6,0
					c-0.2,0-0.4,0-0.6,0v-3.7c0.2,0,0.4,0,0.6,0C195.2,41.3,195.4,41.3,195.6,41.3L195.6,41.3z M187.3,39.4l-1.9,3.2
					c-0.4-0.2-0.8-0.4-1.1-0.6l1.9-3.2C186.6,39,186.9,39.2,187.3,39.4L187.3,39.4z M181,33.6l-3.2,1.9c-0.2-0.4-0.4-0.7-0.6-1.1
					l3.2-1.9C180.6,32.9,180.8,33.3,181,33.6L181,33.6z M178.5,25.5h-3.7c0-0.2,0-0.4,0-0.6c0-0.2,0-0.4,0-0.6h3.7
					c0,0.2,0,0.4,0,0.6C178.5,25,178.5,25.3,178.5,25.5L178.5,25.5z M180.4,17.1l-3.2-1.9c0.2-0.4,0.4-0.8,0.6-1.1L181,16
					C180.8,16.4,180.6,16.8,180.4,17.1L180.4,17.1z M186.2,10.9l-1.9-3.2c0.4-0.2,0.7-0.4,1.1-0.6l1.9,3.2
					C186.9,10.4,186.6,10.6,186.2,10.9L186.2,10.9z"/>
				<polygon fill-rule="evenodd" clip-rule="evenodd" fill="#808285" points="206.9,12.6 207.6,13.3 194.7,26 194,25.3 206.9,12.6 
									"/>
				<polygon fill-rule="evenodd" clip-rule="evenodd" fill="#808285" points="183.9,18.7 184.6,17.5 195.9,24.6 195.2,25.7 
					183.9,18.7 				"/>
			</g>
		</g>
		<circle fill-rule="evenodd" clip-rule="evenodd" fill="#808285" cx="195.2" cy="24.9" r="1.4"/>
		<path fill="#6D6E71" d="M194.7,49.2c-13.6,0-24.6-11-24.6-24.6S181.1,0,194.7,0s24.6,11,24.6,24.6S208.3,49.2,194.7,49.2z
			 M194.7,2.1c-12.4,0-22.5,10.1-22.5,22.5s10.1,22.5,22.5,22.5s22.5-10.1,22.5-22.5S207.1,2.1,194.7,2.1z"/>
	</g>
	<g>
		<g>
			<g>
				<path fill-rule="evenodd" clip-rule="evenodd" fill="#808285" d="M195.3,79.5c0.1,0,0.2,0.2,0.2,0.3c0,0.1-0.2,0.2-0.3,0.2
					c-0.1,0-0.2-0.2-0.2-0.3C195,79.6,195.1,79.5,195.3,79.5L195.3,79.5z"/>
				<path fill-rule="evenodd" clip-rule="evenodd" fill="#808285" d="M195.6,59.5v3.7c-0.2,0-0.4,0-0.6,0c-0.2,0-0.4,0-0.6,0v-3.7
					c0.2,0,0.4,0,0.6,0C195.2,59.5,195.4,59.5,195.6,59.5L195.6,59.5z M202.7,65.1l1.9-3.2c0.4,0.2,0.8,0.4,1.1,0.6l-1.9,3.2
					C203.4,65.6,203.1,65.3,202.7,65.1L202.7,65.1z M209,70.9l3.2-1.9c0.2,0.4,0.4,0.7,0.6,1.1l-3.2,1.9
					C209.4,71.7,209.2,71.3,209,70.9L209,70.9z M211.5,79.1h3.7c0,0.2,0,0.4,0,0.6c0,0.2,0,0.4,0,0.6h-3.7c0-0.2,0-0.4,0-0.6
					S211.5,79.3,211.5,79.1L211.5,79.1z M209.6,87.4l3.2,1.9c-0.2,0.4-0.4,0.8-0.6,1.1l-3.2-1.9C209.2,88.2,209.4,87.8,209.6,87.4
					L209.6,87.4z M203.8,93.7l1.9,3.2c-0.4,0.2-0.7,0.4-1.1,0.6l-1.9-3.2C203.1,94.1,203.4,93.9,203.8,93.7L203.8,93.7z M195.6,96.2
					v3.7c-0.2,0-0.4,0-0.6,0c-0.2,0-0.4,0-0.6,0v-3.7c0.2,0,0.4,0,0.6,0C195.2,96.2,195.4,96.2,195.6,96.2L195.6,96.2z M187.3,94.3
					l-1.9,3.2c-0.4-0.2-0.8-0.4-1.1-0.6l1.9-3.2C186.6,93.9,186.9,94.1,187.3,94.3L187.3,94.3z M181,88.5l-3.2,1.9
					c-0.2-0.4-0.4-0.7-0.6-1.1l3.2-1.9C180.6,87.8,180.8,88.2,181,88.5L181,88.5z M178.5,80.4h-3.7c0-0.2,0-0.4,0-0.6
					c0-0.2,0-0.4,0-0.6h3.7c0,0.2,0,0.4,0,0.6S178.5,80.2,178.5,80.4L178.5,80.4z M180.4,72l-3.2-1.9c0.2-0.4,0.4-0.8,0.6-1.1
					l3.2,1.9C180.8,71.3,180.6,71.7,180.4,72L180.4,72z M186.2,65.8l-1.9-3.2c0.4-0.2,0.7-0.4,1.1-0.6l1.9,3.2
					C186.9,65.3,186.6,65.6,186.2,65.8L186.2,65.8z"/>
				<polygon fill-rule="evenodd" clip-rule="evenodd" fill="#808285" points="206.9,67.5 207.6,68.2 194.7,80.9 194,80.2 
					206.9,67.5 				"/>
				<polygon fill-rule="evenodd" clip-rule="evenodd" fill="#808285" points="183.9,73.6 184.6,72.4 195.9,79.5 195.2,80.6 
					183.9,73.6 				"/>
			</g>
		</g>
		<circle fill-rule="evenodd" clip-rule="evenodd" fill="#808285" cx="195.2" cy="79.8" r="1.4"/>
		<path fill="#6D6E71" d="M194.7,104.1c-13.6,0-24.6-11-24.6-24.6s11-24.6,24.6-24.6s24.6,11,24.6,24.6S208.3,104.1,194.7,104.1z
			 M194.7,57c-12.4,0-22.5,10.1-22.5,22.5s10.1,22.5,22.5,22.5s22.5-10.1,22.5-22.5S207.1,57,194.7,57z"/>
	</g>
</g>
</svg>
