<?xml version="1.0" encoding="utf-8"?>
<!-- Generator: Adobe Illustrator 18.1.1, SVG Export Plug-In . SVG Version: 6.00 Build 0)  -->
<svg version="1.1" id="Layer_1" xmlns="http://www.w3.org/2000/svg" xmlns:xlink="http://www.w3.org/1999/xlink" x="0px" y="0px"
	 viewBox="0 0 45.9 78.8" enable-background="new 0 0 45.9 78.8" xml:space="preserve">
<g display="none">
	<path display="inline" fill="#E7E7E7" d="M77.6,49.3v-3.6h-0.5v-3.4L60.9,24.6v-1.9L65,9.1V7.9L38.2-16v-1.5h1.5v-1h3.9l17.4-26.1
		V-45L6-39.2c0,0-1.7,1.2-1,3.4s4.8,17.2-0.2,17.6C0-17.7-14-17.7-33.6-21.8C-36-21.1-60,2.4-60,2.4s-22-4.1-35.8-4.4
		c-13.8-0.2-17.6,5.8-17.6,5.8l7.3,9.9l-7.3,8.5l15,12.1l15-11.1l18.9,5.8c0,0,9.7-0.2,13.3,6.3c3.9,6.3,3.1,8,3.1,8l4.1,2.9
		l-3.4,4.6l7.3,11.1v15.7c0,0,10.2,15.7,11.6,18.1c1.5,2.4,5.8,8.7,7,8.9c1.2,0.2,3.6,0.7,3.6,0.7s-2.2-6-2.4-9.2
		c0.2,1.2,12.1,14,12.1,14l0.5,4.4c0,0,1.9,3.6,7.5,4.6c5.8,1,8,2.2,8.2,2.7c0.2,0.5,5.8,3.6,8,4.6c2.2,1,5.1,1.7,5.8,2.4
		c0.7,0.7,4.6,4.6,4.6,5.1c0,0.5,14.5,4.6,14.5,4.6s-10.4-5.6-10.6-6c0-0.5,0-3.4,0-3.4h1.5v-2.9h-6.8c0,0,0.2-1,0-1.2
		c-0.2-0.2-1,0-1,0v-12.8h-5.3l-7.5,5.3H9.9V116c0,0-5.1-6.5-5.1-12.6s5.3-7,5.3-7h8.9l3.6-2.7l2.7,1.9h3.9c0,0,1-1.9,1.7,0.2
		c0.7,2.2,2.4,7.7,2.4,7.7h1.2V91.6h-1v-1.9l7.3-4.1c0,0,6.8-13.1,6.8-13.3v-1l9.4-7.7h1.5l2.9,1.9h1.7l5.8-4.1L59,54.1v-1.2h2.2
		v-0.7h4.6v-0.7h4.6v2.2l1.5,3.4h8.5v-1.2L77.6,49.3z M36.2,40.3v8.5h-0.7l-6.3-11.1L8.7,27.5l14.7-12.1L43,31.9L36.2,40.3z"/>
	<path display="inline" fill="#E7E7E7" d="M31.7,106.6v3.4h3.1c0,0,2.7,2.2,2.9,3.1c0.5,0.7,0.5,3.6,0.5,3.6h3.4v0.7h5.3v0.7h2.2
		v-1.2c0,0,2.7-0.7,2.7-1.7c0-1-4.6-4.1-8.2-4.1c0,0,0-1,0-1.2c0-0.2,0.7,0,0.7,0v-1h0.7v-4.1h-0.7v-1h-0.7v-0.7h-0.7v-0.7H42
		l-1.2,1.7v5.3h-1.5v-0.7l-3.4-1.9L31.7,106.6z"/>
	<path display="inline" fill="#E7E7E7" d="M53.6,129.3c-0.2,0-8,3.1-8.7,4.4c-1,1.2-2.2,12.3-2.2,12.3s-7.3,9.2-7.7,9.9
		s0,10.4,0,10.4s6.5,15.5,9.7,17.2c3.1,1.7,6.3,1.5,6.3,1.5s1.5,6,1.5,8.9s-1.9,15.5-2.2,16.9c-0.2,1.2-4.6,23-4.6,24.2
		c0,1.2,0.5,2.7,0.5,3.6c0,0.7,0.5,0.5,0.5,0.5v6h-0.7v7.3h0.5c0,0,1.5,7.7,4.1,10.9c2.7,3.1,5.3,3.4,5.3,3.4h3.9v-0.7h-1.2v-0.7
		h-0.2v-0.7v-13.5v-1H59c0,0,6.5-11.4,8.2-13.5c1.7-2.2,8-7.7,12.3-11.1c4.4-3.6,6.3-7.3,7.3-9.2s1.9-3.4,2.4-4.6s0-4.4,0-4.4h-0.7
		v-1.9c0,0,5.6-3.6,9.9-6.3c4.4-2.7,6.3-3.6,6.3-3.6v-10.9h1.5c0,0,2.4-2.4,4.6-4.6c2.2-2.4,2.4-5.1,2.7-6.3
		c0.2-1.2,0.7-1.7,0.7-1.7v-1.9h-0.7c0,0-1.7-4.4-2.4-5.3c-0.7-1-1.5-2.2-1.5-2.2h-2.9v-0.7h-2.4c0,0-11.6-5.8-12.3-6.5
		c-0.7-0.7-1.2-1.9-1.2-1.9V152l-0.5-0.5v-1.7h-1v-1.7V144c0,0-1.2,0.2-1.2,0s-9.4-4.4-12.3-7.3s-5.3-4.4-5.3-4.4L53.6,129.3z"/>
	<path display="inline" fill="#E7E7E7" d="M246.8,7.9L220.2-3.2l-18.9,5.6l-7,15l-8.9,5.6v9.2h7l1-1l-0.5,1.9c0,0-1,1.9-0.7,2.4
		c0.2,0.2,0,1.2,1.9,1.2c1.9,0,8.7-1.9,8.7-1.9l0.5-4.6l4.1-3.6l-2.9-4.6v-3.9l9.2-6l2.2,3.1l-5.1,5.3l3.1,5.3l5.3,1.2l-7.3,9.7
		h-4.4l-7,3.9h-6.5l-2.9,2.9h-5.8l-1.7,7H181l-1.7-1.2l-2.9,3.1h-5.1l-0.7,1.2v2.7l2.2,9.9l-11.6-0.7L160,80h13.1l4.6-12.8l11.1-4.1
		l9.7,6.8l6.3-3.1l10.2,6.8l3.4-1.9l5.3-0.2l2.4-7.7l9.2-1l1.7-5.1l-8.9-7l16.2-12.8L246.8,7.9z"/>
	<path display="inline" fill="#E7E7E7" d="M168.7,30.2c-0.5,0-3.9,1.9-3.9,1.9l3.9,8.5l-1.9,8.9v1h1.9l2.4-2.4h3.4l2.2-3.6
		L168.7,30.2z"/>
	<path display="inline" fill="#E7E7E7" d="M150.6,10.6c-0.5-0.2-11.4-0.5-11.6-0.5c-0.2,0-6.3,5.1-6.3,5.1l3.1,5.3H146l7.3-3.9
		L150.6,10.6z"/>
	<path display="inline" fill="#E7E7E7" d="M193.1-31.9c0,0.5-1,8.9-1,8.9s12.6,0.5,12.6,0s9.9-3.1,9.9-3.1v-7.5L193.1-31.9z"/>
	<path display="inline" fill="#E7E7E7" d="M164.8,38.9c-0.5,0-2.7,0-2.7,0l-1.2,5.1l1.5,2.4l2.4-1.9V38.9z"/>
	<path display="inline" fill="#E7E7E7" d="M188.5,79.7L161.7,85c0,0-16.7,25.1-16.7,25.4c0,0.2,2.7,21.3,2.7,21.3l19.1,15
		c0,0,13.3-5.3,13.8-5.1c0.5,0.2,4.8,0.2,4.8,0.2s3.6,5.3,3.4,5.6c-0.2,0.2,1.7,9.7,1.7,9.7l3.9,11.1v2.9l-3.4,10.2l11.4,35.5
		l13.8,1l6.3-3.4l15.5-17.9v-12.1c0,0,8.7-11.8,8.7-12.3c0-0.5-4.6-10.2-4.6-10.2l0.2-4.6l16-13.5l4.4-16.2h-17.4
		c0,0-15.7-28.8-15.7-29.2c0-0.5-0.5-4.8-0.5-4.8l-2.9-4.4l-13.3-1.2h-5.6h-9.9L188.5,79.7z"/>
	<path display="inline" fill="#E7E7E7" d="M294.1-10.2l-9.7,8.7l-37.7,9.4c0,0-1.5,29.7-1.5,29.2s-15,11.8-15,11.8l12.1,9.9
		l2.4,11.6L221.4,73v5.8l14.3,3.4c0,0,0.5,14,0.5,14.5c0,0.5,15,29.5,15,29.5l22.5-10.2l4.4-12.6l10.9-0.5l9.7,8l7.5,24.9
		c0,0,8-2.7,8-3.4c0-0.5,0-8.7,0-8.7l17.4-18.4c0,0,6,15,6.5,15c0.5,0,8.9,8.2,8.9,8.2l11.6,4.8v-18.9c0,0,28.3-19.1,28.3-19.8
		c0-0.5,1.7-10.6,1.7-11.4c-0.2-0.5-6.5-9.2-6.5-9.2l8.5,3.6l6.5,6.5l-1-9.7l14.7-9.7l4.6-10.6l9.2-2.9L417.9,41l-7-2.9
		c0,0,9.2-9.2,8.9-9.2c-0.2,0,19.8,0,19.8,0l16-6.5l-10.6,14l2.2,10.4l18.1-21.3l33.8-17.4V6L399-10.2h-37.5l8.2-8.5l-16.7-5.6
		l-39.4,15L294.1-10.2z"/>
	<path display="inline" fill="#E7E7E7" d="M419.8,173l-20.5,4.4l-4.4,7l-25.4,13.3l3.4,21.5l13.3-1.2c0,0,15.2-6,16-5.8
		c0.7,0.2,6.3,4.4,6.3,4.4l5.1,11.8l11.8,1.2l9.2-3.6l6.5-19.8L429,187.8l-1.7-8.9L419.8,173z"/>
	<path display="inline" fill="#E7E7E7" d="M148.6-43.5L76.4-45c0,0-26.3,27.1-25.1,26.3c1.2-0.7,20.8,0,20.8,0l8.5,20.5l5.8-1.5
		l-1,7.7l1.7,4.6l1.2,5.6l7.3,6.8l8.9-11.8c0,0,30.7-13.3,30.7-14.5s2.2-22.2,3.4-23.4c1.2-1,12.1-13.1,12.1-13.1L148.6-43.5z"/>
</g>
<g>
	<path fill="#F0B51C" d="M41.8,21.7c0,5.1-3.4,12.8-6,16.7c-6.3,9.9-10.2,16.9-11.6,29.2c-0.5,3.9-0.5,7-1.7,6.8
		c-1.2-0.2-1.2-3.4-1.7-6.8C19.1,55.1,15,48.8,9.7,38.9c-2.4-4.4-6.5-12.1-6.5-17.4c0-10.2,8.7-18.1,19.3-18.1
		C33.1,3.3,41.8,11.6,41.8,21.7z"/>
	<circle fill="#FFFFFF" cx="22.5" cy="23.2" r="7"/>
</g>
</svg>
