<?xml version="1.0" encoding="utf-8"?>
<!-- Generator: Adobe Illustrator 18.1.1, SVG Export Plug-In . SVG Version: 6.00 Build 0)  -->
<svg version="1.1" id="Layer_1" xmlns="http://www.w3.org/2000/svg" xmlns:xlink="http://www.w3.org/1999/xlink" x="0px" y="0px"
	 viewBox="0 90 612 612" enable-background="new 0 90 612 612" xml:space="preserve">
<g>
	<circle fill="#FFFFFF" cx="306" cy="396" r="283.2"/>
	<path fill="#808285" d="M306,112.8c156.5,0,283.2,126.7,283.2,283.2S462.5,679.2,306,679.2S22.8,552.5,22.8,396
		C22.8,239.5,149.5,112.8,306,112.8 M306,90C137.2,90,0,227.2,0,396s137.2,306,306,306s306-137.2,306-306S474.8,90,306,90L306,90z"
		/>
</g>
<g>
	<path fill="#D1D3D4" d="M370.9,167.2l2.6,0.9l-60.9,221.4c4.4,1.8,6.6,6.6,5.3,11.4c-1.3,4.8-5.7,7.5-10.5,7l-11,39.5l-2.6-0.9
		l11-39.5c-4.4-1.8-6.6-6.6-5.3-11.4c1.3-4.8,5.7-7.5,10.5-7L370.9,167.2L370.9,167.2z"/>
	<path fill="#D1D3D4" d="M309.5,395.1c1.8,0.4,3.1,2.2,2.2,4.4c-0.4,1.8-2.2,3.1-4.4,2.2c-1.8-0.4-3.1-2.2-2.2-4.4
		C305.6,395.6,307.8,394.2,309.5,395.1L309.5,395.1z"/>
	<polygon fill="#D1D3D4" points="484,270.6 490.6,280.7 255.6,445.1 249,435.5 	"/>
	<polygon fill="#D1D3D4" points="160.5,324.5 169.7,309.6 365.2,431.5 356,446.4 	"/>
	<path fill="#A7A9AC" d="M306,370.6c14.9,0,27.2,12.3,27.2,27.2s-12.3,27.2-27.2,27.2c-14.9,0-27.2-12.3-27.2-27.2
		C278.8,382.4,291.1,370.6,306,370.6L306,370.6z"/>
	<path fill="#58595B" d="M314.3,139.5v47.8c-2.6,0-5.3,0-8.3,0c-2.6,0-5.7,0-8.3,0v-47.8c2.6,0,5.3,0,8.3,0
		C308.6,139.1,311.3,139.1,314.3,139.5L314.3,139.5z M404.2,211l23.7-41.2c4.8,2.6,9.6,5.3,14,8.3l-23.7,41.2
		C413.8,216.3,409,213.6,404.2,211L404.2,211z M484,285.1l41.2-23.7c3.1,4.8,5.7,9.2,8.3,14l-41.2,23.7
		C489.7,294.7,487.1,289.9,484,285.1L484,285.1z M516.4,389.4h47.8c0,2.6,0,5.3,0,8.3c0,2.6,0,5.7,0,8.3h-47.8c0-2.6,0-5.3,0-8.3
		C516.4,394.7,516.4,392.1,516.4,389.4L516.4,389.4z M492.3,495.5l41.2,23.7c-2.6,4.8-5.3,9.6-8.3,14L484,509.5
		C487.1,505.2,489.7,500.3,492.3,495.5L492.3,495.5z M418.2,575.7l23.7,41.2c-4.8,3.1-9.2,5.7-14,8.3l-23.7-41.2
		C409,581.4,413.8,578.8,418.2,575.7L418.2,575.7z M314.3,607.7v47.8c-2.6,0-5.3,0-8.3,0c-2.6,0-5.7,0-8.3,0v-47.8
		c2.6,0,5.3,0,8.3,0C308.6,608.2,311.3,608.2,314.3,607.7L314.3,607.7z M207.8,584.1l-23.7,41.2c-4.8-2.6-9.6-5.3-14-8.3l23.7-41.2
		C198.2,578.8,203,581.4,207.8,584.1L207.8,584.1z M128,510l-41.2,23.7c-3.1-4.8-5.7-9.2-8.3-14l41.2-23.7
		C122.3,500.3,124.9,505.2,128,510L128,510z M95.6,405.6H47.8c0-2.6,0-5.3,0-8.3c0-2.6,0-5.7,0-8.3h47.8c0,2.6,0,5.3,0,8.3
		C95.1,400.4,95.6,403,95.6,405.6L95.6,405.6z M119.7,299.6l-41.2-23.7c2.6-4.8,5.3-9.6,8.3-14l41.2,23.7
		C124.9,289.9,122.3,294.7,119.7,299.6L119.7,299.6z M193.8,219.3l-23.7-41.2c4.8-3.1,9.2-5.7,14-8.3l23.7,41.2
		C203,213.6,198.2,216.3,193.8,219.3L193.8,219.3z"/>
	<path fill="#58595B" d="M335.8,140.9l-3.1,28.9c-1.8-0.4-3.9-0.4-5.7-0.4l3.1-28.9C331.9,140.4,334.1,140.9,335.8,140.9
		L335.8,140.9z M350.7,172.9l6.1-28.5c1.8,0.4,3.5,0.9,5.7,1.3l-6.1,28.5C354.7,173.3,352.5,173.3,350.7,172.9L350.7,172.9z
		 M374,178.6l9.2-27.6c1.8,0.4,3.5,1.3,5.3,1.8l-9.2,27.6C377.9,179.9,375.7,179,374,178.6L374,178.6z M396.7,186.9l11.8-26.7
		c1.8,0.9,3.5,1.3,5.3,2.2L402,189.1C400.3,188.6,398.5,187.8,396.7,186.9L396.7,186.9z M418.2,197.4l14.5-25.4
		c1.8,0.9,3.5,1.8,4.8,3.1l-14.5,25.4C421.3,199.6,419.5,198.7,418.2,197.4L418.2,197.4z M438.4,210.6l17.1-23.7
		c1.8,1.3,3.1,2.2,4.8,3.5l-17.1,23.7C441.5,212.8,439.7,211.4,438.4,210.6L438.4,210.6z M457.2,225.5L477,204
		c1.3,1.3,2.6,2.6,4.4,3.9l-19.7,21.5C459.9,227.7,458.6,226.3,457.2,225.5L457.2,225.5z M474.3,242.1l21.5-19.7
		c1.3,1.3,2.6,2.6,3.9,4.4l-21.5,19.7C477,244.8,475.7,243.4,474.3,242.1L474.3,242.1z M489.7,260.5l23.7-17.1
		c1.3,1.3,2.2,3.1,3.5,4.8l-23.7,17.1C491.9,263.6,491,261.9,489.7,260.5L489.7,260.5z M502.8,280.3l25.4-14.5
		c0.9,1.8,1.8,3.1,3.1,4.8l-25.4,14.5C505,283.8,504.2,282,502.8,280.3L502.8,280.3z M514.2,301.7l26.7-11.8
		c0.9,1.8,1.8,3.5,2.2,5.3L516.4,307C516,305.3,515.1,303.5,514.2,301.7L514.2,301.7z M523,324.1l27.6-9.2c0.4,1.8,1.3,3.5,1.8,5.3
		l-27.6,9.2C524.3,327.6,523.9,325.9,523,324.1L523,324.1z M529.6,346.9l28.5-6.1c0.4,1.8,0.9,3.5,1.3,5.7l-28.5,6.1
		C530.5,350.8,530,349.1,529.6,346.9L529.6,346.9z M533.5,370.6l28.9-3.1c0,1.8,0.4,3.9,0.4,5.7l-28.9,3.1
		C534,374.5,534,372.8,533.5,370.6L533.5,370.6z M534.4,418.8l28.9,3.1c0,1.8-0.4,3.9-0.4,5.7l-28.9-3.1
		C534,422.3,534,420.6,534.4,418.8L534.4,418.8z M530.9,442.5l28.5,6.1c-0.4,1.8-0.9,3.5-1.3,5.7l-28.5-6.1
		C530,446,530.5,444.2,530.9,442.5L530.9,442.5z M524.8,465.7l27.6,9.2c-0.4,1.8-1.3,3.5-1.8,5.3L523,471
		C523.9,469.2,524.3,467.5,524.8,465.7L524.8,465.7z M516.4,488.1l26.7,11.8c-0.9,1.8-1.3,3.5-2.2,5.3l-26.7-11.8
		C515.1,491.6,516,489.8,516.4,488.1L516.4,488.1z M493.2,530.1l23.7,17.1c-1.3,1.8-2.2,3.1-3.5,4.8L489.7,535
		C491,533.2,491.9,531.5,493.2,530.1L493.2,530.1z M478.3,549l21.5,19.7c-1.3,1.3-2.6,2.6-3.9,4.4l-21.5-19.7
		C475.7,551.6,477,550.3,478.3,549L478.3,549z M461.6,566.1l19.7,21.5c-1.3,1.3-2.6,2.6-4.4,3.9L457.2,570
		C458.6,568.7,459.9,567.4,461.6,566.1L461.6,566.1z M442.8,581.4l17.1,23.7c-1.3,1.3-3.1,2.2-4.8,3.5L438,584.9
		C439.7,583.6,441.5,582.3,442.8,581.4L442.8,581.4z M401.6,606l11.8,26.7c-1.8,0.9-3.5,1.8-5.3,2.2l-11.8-26.7
		C398.5,607.3,400.3,606.4,401.6,606L401.6,606z M379.7,614.8l9.2,27.6c-1.8,0.4-3.5,1.3-5.3,1.8l-9.2-27.6
		C375.7,616.1,377.9,615.2,379.7,614.8L379.7,614.8z M356.4,621.3l6.1,28.5c-1.8,0.4-3.5,0.9-5.7,1.3l-6.1-28.5
		C352.5,621.8,354.7,621.8,356.4,621.3L356.4,621.3z M332.7,625.3l3.1,28.9c-1.8,0-3.9,0.4-5.7,0.4l-3.1-28.9
		C328.8,625.7,331,625.3,332.7,625.3L332.7,625.3z M285,625.7l-3.1,28.9c-1.8,0-3.9-0.4-5.7-0.4l3.1-28.9
		C281,625.3,282.8,625.7,285,625.7L285,625.7z M261.3,622.2l-6.1,28.5c-1.8-0.4-3.5-0.9-5.7-1.3l6.1-28.5
		C257.3,621.8,259.1,621.8,261.3,622.2L261.3,622.2z M237.6,616.5l-9.2,27.6c-1.8-0.4-3.5-1.3-5.3-1.8l9.2-27.6
		C234.1,615.2,235.9,616.1,237.6,616.5L237.6,616.5z M215.3,608.2l-11.8,26.7c-1.8-0.9-3.5-1.3-5.3-2.2L210,606
		C211.7,606.4,213.5,607.3,215.3,608.2L215.3,608.2z M193.8,597.7l-14.5,25.4c-1.8-0.9-3.5-1.8-4.8-3.1l14.5-25.4
		C190.7,595.5,192,596.3,193.8,597.7L193.8,597.7z M173.6,584.5l-17.1,23.7c-1.8-1.3-3.1-2.2-4.8-3.5l17.1-23.7
		C170.5,582.3,171.9,583.6,173.6,584.5L173.6,584.5z M154.8,569.6L135,591.1c-1.3-1.3-2.6-2.6-4.4-3.9l19.7-21.5
		C151.7,567.4,153.4,568.7,154.8,569.6L154.8,569.6z M137.7,552.9l-21.5,19.7c-1.3-1.3-2.6-2.6-3.9-4.4l21.5-19.7
		C135,550.3,136.3,551.6,137.7,552.9L137.7,552.9z M122.3,534.5l-23.7,17.1c-1.3-1.3-2.2-3.1-3.5-4.8l23.7-17.1
		C120.1,531.5,121,533.2,122.3,534.5L122.3,534.5z M108.7,514.8l-25.4,14.5c-0.9-1.8-1.8-3.1-3.1-4.8l25.4-14.5
		C107,511.3,107.8,513.1,108.7,514.8L108.7,514.8z M97.8,493.3L71,505.2c-0.9-1.8-1.8-3.5-2.2-5.3l26.7-11.8
		C96,489.8,96.9,491.6,97.8,493.3L97.8,493.3z M88.6,471l-27.6,9.2c-0.4-1.8-1.3-3.5-1.8-5.3l27.6-9.2
		C87.7,467.5,88.1,469.2,88.6,471L88.6,471z M82.4,448.2l-28.5,5.7c-0.4-1.8-0.9-3.5-1.3-5.7l28.5-6.1C81.5,444.2,82,446,82.4,448.2
		L82.4,448.2z M78.5,424.5l-29.4,3.1c0-1.8-0.4-3.9-0.4-5.7l28.9-3.1C78,420.6,78,422.3,78.5,424.5L78.5,424.5z M77.6,376.3
		l-28.9-3.1c0-1.8,0.4-3.9,0.4-5.7l28.9,3.1C78,372.8,78,374.5,77.6,376.3L77.6,376.3z M81.1,352.6l-28.5-6.1
		c0.4-1.8,0.9-3.5,1.3-5.7l28.5,6.1C82,349.1,81.5,350.8,81.1,352.6L81.1,352.6z M86.8,329.4l-27.6-9.2c0.4-1.8,1.3-3.5,1.8-5.3
		l27.6,9.2C88.1,325.9,87.7,327.6,86.8,329.4L86.8,329.4z M95.1,307l-26.7-11.8c0.9-1.8,1.3-3.5,2.2-5.3l26.7,11.8
		C96.9,303.5,96,305.3,95.1,307L95.1,307z M118.8,264.9l-23.7-17.1c1.3-1.8,2.2-3.1,3.5-4.8l23.7,17.1
		C121,261.9,120.1,263.6,118.8,264.9L118.8,264.9z M133.7,246.5l-21.5-19.7c1.3-1.3,2.6-2.6,3.9-4.4l21.5,19.7
		C136.3,243.4,135,244.8,133.7,246.5L133.7,246.5z M150.4,229l-19.7-21.5c1.3-1.3,2.6-2.6,4.4-3.9l19.7,21.5
		C153.4,226.3,151.7,227.7,150.4,229L150.4,229z M168.8,213.6L151.7,190c1.3-1.3,3.1-2.2,4.8-3.5l17.1,23.7
		C171.9,211.4,170.5,212.8,168.8,213.6L168.8,213.6z M210,189.1l-11.8-26.7c1.8-0.9,3.5-1.8,5.3-2.2l11.8,26.7
		C213.5,187.8,211.7,188.6,210,189.1L210,189.1z M232.3,180.3l-9.2-27.6c1.8-0.4,3.5-1.3,5.3-1.8l9.2,27.6
		C235.9,179,234.1,179.9,232.3,180.3L232.3,180.3z M255.6,173.7l-6.1-28.5c1.8-0.4,3.5-0.9,5.7-1.3l6.1,28.5
		C259.1,173.3,257.3,173.3,255.6,173.7L255.6,173.7z M279.3,169.8l-3.1-28.9c1.8,0,3.9-0.4,5.7-0.4l3.1,28.9
		C282.8,169.3,281,169.8,279.3,169.8L279.3,169.8z"/>
	<polygon points="481.4,267.6 488.4,277.2 253.4,441.6 246.4,431.9 	"/>
	<polygon fill="#939598" points="477.9,273.2 252.5,433.7 251.2,431.9 	"/>
	<polygon points="164,319.3 173.2,304.4 368.7,426.2 359.5,441.2 	"/>
	<polygon fill="#939598" points="169.7,317.5 359.9,433.7 358.2,435.9 	"/>
	<path fill="#E6E7E8" d="M306,384.2c7.5,0,13.6,6.1,13.6,13.6c0,7.5-6.1,13.6-13.6,13.6c-7.5,0-13.6-6.1-13.6-13.6
		C292.4,389.9,298.5,384.2,306,384.2L306,384.2z"/>
	<path fill="#ED1C24" d="M368.3,166.3l2.6,0.9L309.9,389c4.4,1.8,6.6,6.6,5.3,11.4c-1.3,4.8-5.7,7.5-10.5,7l-11,39.5l-2.6-0.9
		l11-39.5c-4.4-1.8-6.6-6.6-5.3-11.4c1.3-4.8,5.7-7.5,10.5-7L368.3,166.3L368.3,166.3z"/>
	<path fill="#FFFFFF" d="M306.9,394.2c1.8,0.4,3.1,2.2,2.2,4.4c-0.4,1.8-2.2,3.1-4.4,2.2c-1.8-0.4-3.1-2.2-2.2-4.4
		C302.9,394.7,305.1,393.8,306.9,394.2L306.9,394.2z"/>
</g>
</svg>
