<?xml version="1.0" encoding="utf-8"?>
<!-- Generator: Adobe Illustrator 18.1.1, SVG Export Plug-In . SVG Version: 6.00 Build 0)  -->
<svg version="1.1" id="Layer_1" xmlns="http://www.w3.org/2000/svg" xmlns:xlink="http://www.w3.org/1999/xlink" x="0px" y="0px"
	 viewBox="-2 -2 254 254" enable-background="new -2 -2 254 254" xml:space="preserve">
<g>
	<circle fill="#FFFFFF" cx="125" cy="125.1" r="113.4"/>
	<path fill="#808285" d="M125,11.7c62.6,0,113.4,50.8,113.4,113.4S187.6,238.6,125,238.6S11.6,187.7,11.6,125.1S62.2,11.7,125,11.7
		 M125,2.4C57.4,2.4,2.3,57.5,2.3,125.1s55,122.7,122.7,122.7s122.7-55,122.7-122.7S192.4,2.4,125,2.4L125,2.4z"/>
</g>
<g>
	<path fill="#D1D3D4" d="M150.8,33.5l1.1,0.2l-24.4,88.9c1.7,0.8,2.7,2.7,2.1,4.4c-0.4,1.9-2.3,2.9-4.2,2.7l-4.4,15.8H120l4.4-15.8
		c-1.7-0.8-2.7-2.7-2.1-4.4c0.4-1.9,2.3-2.9,4.2-2.7L150.8,33.5L150.8,33.5z"/>
	<path fill="#D1D3D4" d="M126.3,124.7c0.6,0.2,1.3,1.1,1.1,1.7s-1.1,1.3-1.7,1.1c-0.6-0.2-1.3-1.1-1.1-1.7
		C124.8,124.9,125.6,124.5,126.3,124.7L126.3,124.7z"/>
	<polygon fill="#D1D3D4" points="196.2,74.9 198.9,78.9 104.8,144.9 102.1,140.9 	"/>
	<polygon fill="#D1D3D4" points="66.6,96.5 70.4,90.4 148.5,139.4 145,145.5 	"/>
	<path fill="#A7A9AC" d="M125,114.8c6.1,0,10.9,4.8,10.9,10.9s-4.8,10.9-10.9,10.9c-6.1,0-10.9-4.8-10.9-10.9
		C114.1,119.9,118.9,114.8,125,114.8L125,114.8z"/>
	<path fill="#58595B" d="M128.2,22.4v19.1c-1.1,0-2.1,0-3.4,0c-1.1,0-2.1,0-3.4,0V22.4c1.1,0,2.1,0,3.4,0
		C126.1,22.2,127.1,22.2,128.2,22.4L128.2,22.4z M164.3,51.2l9.7-16.6c1.9,1.1,3.8,2.1,5.7,3.4L170,54.5
		C168.1,53.3,166.2,52,164.3,51.2L164.3,51.2z M196.2,80.8l16.6-9.7c1.3,1.9,2.3,3.8,3.4,5.7l-16.6,9.7
		C198.5,84.6,197.5,82.7,196.2,80.8L196.2,80.8z M209.2,122.4h19.1c0,1.1,0,2.1,0,3.4c0,1.1,0,2.1,0,3.4h-19.1c0-1.1,0-2.1,0-3.4
		C209.2,124.7,209.2,123.6,209.2,122.4L209.2,122.4z M199.6,165l16.6,9.7c-1.1,1.9-2.1,3.8-3.4,5.7l-16.6-9.7
		C197.5,169,198.5,167.1,199.6,165L199.6,165z M170,197.2l9.7,16.6c-1.9,1.3-3.8,2.3-5.7,3.4l-9.7-16.6
		C166.2,199.5,168.1,198.4,170,197.2L170,197.2z M128.2,210.2v19.1c-1.1,0-2.1,0-3.4,0c-1.1,0-2.1,0-3.4,0v-19.1c1.1,0,2.1,0,3.4,0
		C126.1,210.2,127.1,210.2,128.2,210.2L128.2,210.2z M85.5,200.5l-9.7,16.6c-1.9-1.1-3.8-2.1-5.7-3.4l9.7-16.6
		C81.7,198.4,83.6,199.5,85.5,200.5L85.5,200.5z M53.6,170.9L37,180.6c-1.3-1.9-2.3-3.8-3.4-5.7l16.6-9.7
		C51.3,167.1,52.3,169,53.6,170.9L53.6,170.9z M40.5,129.1H21.4c0-1.1,0-2.1,0-3.4c0-1.1,0-2.1,0-3.4h19.1c0,1.1,0,2.1,0,3.4
		C40.5,126.8,40.5,128,40.5,129.1L40.5,129.1z M50.2,86.4l-16.6-9.7c1.1-1.9,2.1-3.8,3.4-5.7l16.6,9.7
		C52.3,82.7,51.3,84.6,50.2,86.4L50.2,86.4z M79.8,54.3l-9.7-16.6c1.9-1.3,3.8-2.3,5.7-3.4l9.7,16.6C83.6,52,81.7,53.3,79.8,54.3
		L79.8,54.3z"/>
	<path fill="#58595B" d="M136.8,22.8l-1.3,11.6c-0.8,0-1.5-0.2-2.3-0.2l1.3-11.6C135.3,22.8,136.1,22.8,136.8,22.8L136.8,22.8z
		 M142.9,35.6l2.5-11.3c0.8,0.2,1.5,0.2,2.3,0.4L145.2,36C144.3,36,143.7,35.8,142.9,35.6L142.9,35.6z M152.3,37.9l3.6-11.1
		c0.6,0.2,1.5,0.4,2.1,0.6l-3.6,11.1C153.6,38.6,152.9,38.3,152.3,37.9L152.3,37.9z M161.1,41.3l4.8-10.7c0.6,0.2,1.5,0.6,2.1,0.8
		l-4.8,10.7C162.6,41.9,162,41.7,161.1,41.3L161.1,41.3z M170,45.7l5.9-10.1c0.6,0.4,1.3,0.8,1.9,1.1l-5.9,10.1
		C171.2,46.3,170.6,45.9,170,45.7L170,45.7z M177.9,50.7l6.9-9.5c0.6,0.4,1.3,0.8,1.9,1.3l-6.9,9.5
		C179.2,51.6,178.6,51.2,177.9,50.7L177.9,50.7z M185.5,56.8l7.8-8.6c0.6,0.4,1.1,1.1,1.7,1.5l-7.8,8.6
		C186.8,57.7,186.1,57.2,185.5,56.8L185.5,56.8z M192.4,63.6l8.6-7.8c0.4,0.6,1.1,1.1,1.5,1.7l-8.6,7.8
		C193.5,64.6,192.9,64,192.4,63.6L192.4,63.6z M198.5,70.9L208,64c0.4,0.6,0.8,1.3,1.3,1.9l-9.5,6.9
		C199.4,72.2,198.9,71.5,198.5,70.9L198.5,70.9z M204,78.9l10.1-5.9c0.4,0.6,0.8,1.3,1.1,1.9L205,80.8
		C204.6,80.1,204.2,79.5,204,78.9L204,78.9z M208.4,87.3l10.7-4.8c0.4,0.6,0.6,1.5,0.8,2.1l-10.7,4.8
		C209,88.8,208.6,88.1,208.4,87.3L208.4,87.3z M212,96.3l11.1-3.6c0.2,0.6,0.4,1.5,0.6,2.1l-11.1,3.6C212.4,97.8,212.2,97,212,96.3
		L212,96.3z M214.5,105.6l11.3-2.5c0.2,0.8,0.4,1.5,0.4,2.3l-11.3,2.5C214.9,107,214.7,106.2,214.5,105.6L214.5,105.6z M216.2,115
		l11.6-1.3c0,0.8,0.2,1.5,0.2,2.3l-11.6,1.3C216.4,116.5,216.2,115.9,216.2,115L216.2,115z M216.4,134.1l11.6,1.3
		c0,0.8-0.2,1.5-0.2,2.3l-11.6-1.3C216.2,135.8,216.4,135,216.4,134.1L216.4,134.1z M214.9,143.8l11.3,2.5c-0.2,0.8-0.2,1.5-0.4,2.3
		l-11.3-2.5C214.7,145.3,214.9,144.4,214.9,143.8L214.9,143.8z M212.6,153l11.1,3.6c-0.2,0.6-0.4,1.5-0.6,2.1l-11.1-3.6
		C212.2,154.5,212.4,153.9,212.6,153L212.6,153z M209.2,162.1l10.7,4.8c-0.2,0.6-0.6,1.5-0.8,2.1l-10.7-4.8
		C208.6,163.6,209,162.7,209.2,162.1L209.2,162.1z M200,178.9l9.5,6.9c-0.4,0.6-0.8,1.3-1.3,1.9l-9.5-6.9
		C198.9,180.1,199.4,179.5,200,178.9L200,178.9z M193.9,186.4l8.6,7.8c-0.4,0.6-1.1,1.1-1.5,1.7l-8.6-7.8
		C192.9,187.5,193.5,186.9,193.9,186.4L193.9,186.4z M187.2,193.4l7.8,8.6c-0.6,0.4-1.1,1.1-1.7,1.5l-7.8-8.6
		C186.1,194.2,186.8,193.8,187.2,193.4L187.2,193.4z M179.8,199.5l6.9,9.5c-0.6,0.4-1.3,0.8-1.9,1.3l-6.9-9.5
		C178.6,200.3,179.2,199.9,179.8,199.5L179.8,199.5z M163.2,209.3l4.8,10.7c-0.6,0.4-1.5,0.6-2.1,0.8l-4.8-10.7
		C162,210,162.6,209.6,163.2,209.3L163.2,209.3z M154.4,212.9l3.6,11.1c-0.6,0.2-1.5,0.4-2.1,0.6l-3.6-11.1
		C152.9,213.3,153.6,213.1,154.4,212.9L154.4,212.9z M145.2,215.4l2.5,11.3c-0.8,0.2-1.5,0.4-2.3,0.4l-2.5-11.3
		C143.7,215.7,144.3,215.7,145.2,215.4L145.2,215.4z M135.7,217.1l1.3,11.6c-0.8,0-1.5,0.2-2.3,0.2l-1.3-11.6
		C134,217.1,134.9,217.1,135.7,217.1L135.7,217.1z M116.4,217.3l-1.3,11.6c-0.8,0-1.5-0.2-2.3-0.2l1.3-11.6
		C114.9,217.1,115.8,217.1,116.4,217.3L116.4,217.3z M106.9,215.9l-2.5,11.3c-0.8-0.2-1.5-0.2-2.3-0.4l2.5-11.3
		C105.5,215.7,106.1,215.7,106.9,215.9L106.9,215.9z M97.7,213.6l-3.6,11.1c-0.6-0.2-1.5-0.4-2.1-0.6l3.6-11.1
		C96.2,213.1,96.8,213.3,97.7,213.6L97.7,213.6z M88.7,210.2l-4.8,10.7c-0.6-0.2-1.5-0.6-2.1-0.8l4.8-10.7
		C87.2,209.6,87.8,210,88.7,210.2L88.7,210.2z M80,206l-5.9,10.1c-0.6-0.4-1.3-0.8-1.9-1.1l5.9-10.1C78.6,205.1,79.2,205.6,80,206
		L80,206z M71.8,200.7l-6.9,9.5c-0.6-0.4-1.3-0.8-1.9-1.3l6.9-9.5C70.6,199.9,71.2,200.3,71.8,200.7L71.8,200.7z M64.3,194.9
		l-7.8,8.6c-0.6-0.4-1.1-1.1-1.7-1.5l7.8-8.6C63.2,193.8,63.7,194.2,64.3,194.9L64.3,194.9z M57.4,188.1l-8.6,7.8
		c-0.4-0.6-1.1-1.1-1.5-1.7l8.6-7.8C56.3,186.9,56.9,187.5,57.4,188.1L57.4,188.1z M51.3,180.8l-9.5,6.7c-0.4-0.6-0.8-1.3-1.3-1.9
		l9.5-6.9C50.4,179.5,50.8,180.1,51.3,180.8L51.3,180.8z M45.8,172.8l-10.1,5.7c-0.4-0.6-0.8-1.3-1.1-1.9l10.1-5.9
		C45.2,171.3,45.6,172,45.8,172.8L45.8,172.8z M41.4,164.2L30.7,169c-0.4-0.6-0.6-1.5-0.8-2.1l10.7-4.8
		C40.8,162.7,41.2,163.6,41.4,164.2L41.4,164.2z M37.8,155.4l-11.1,3.6c-0.2-0.6-0.4-1.5-0.6-2.1l11.1-3.6
		C37.4,153.9,37.6,154.5,37.8,155.4L37.8,155.4z M35.3,145.9l-11.3,2.5c-0.2-0.8-0.4-1.5-0.4-2.3l11.3-2.5
		C34.9,144.4,35.1,145.3,35.3,145.9L35.3,145.9z M33.6,136.4l-11.6,1.3c0-0.8-0.2-1.5-0.2-2.3l11.6-1.3
		C33.4,135,33.6,135.8,33.6,136.4L33.6,136.4z M33.4,117.3l-11.6-1.3c0-0.8,0.2-1.5,0.2-2.3l11.6,1.3
		C33.6,115.9,33.4,116.5,33.4,117.3L33.4,117.3z M34.9,107.9l-11.3-2.5c0.2-0.8,0.2-1.5,0.4-2.3l11.3,2.5
		C35.1,106.2,34.9,107,34.9,107.9L34.9,107.9z M37.2,98.4l-11.1-3.6c0.2-0.6,0.4-1.5,0.6-2.1l11.1,3.6C37.6,97,37.4,97.8,37.2,98.4
		L37.2,98.4z M40.5,89.4l-10.7-4.8c0.2-0.6,0.6-1.5,0.8-2.1l10.7,4.8C41.2,88.1,40.8,88.8,40.5,89.4L40.5,89.4z M50,72.8l-9.5-6.9
		c0.4-0.6,0.8-1.3,1.3-1.9l9.5,6.9C50.8,71.5,50.4,72.2,50,72.8L50,72.8z M55.9,65.2l-8.6-8c0.4-0.6,1.1-1.1,1.5-1.7l8.6,7.8
		C56.9,64,56.3,64.6,55.9,65.2L55.9,65.2z M62.6,58.3l-7.8-8.6c0.6-0.4,1.1-1.1,1.7-1.5l7.8,8.6C63.7,57.2,63.2,57.7,62.6,58.3
		L62.6,58.3z M70,52.2L63,42.8c0.6-0.4,1.3-0.8,1.9-1.3l6.9,9.5C71.2,51.2,70.6,51.6,70,52.2L70,52.2z M86.6,42.3l-4.8-10.7
		c0.6-0.4,1.5-0.6,2.1-0.8l4.8,10.7C87.8,41.7,87.2,41.9,86.6,42.3L86.6,42.3z M95.4,38.8l-3.6-11.1c0.6-0.2,1.5-0.4,2.1-0.6
		l3.6,11.1C96.8,38.3,96.2,38.6,95.4,38.8L95.4,38.8z M104.6,36l-2.5-11.3c0.8-0.2,1.5-0.4,2.3-0.4l2.5,11.3
		C106.1,35.8,105.5,36,104.6,36L104.6,36z M114.1,34.6L112.8,23c0.8,0,1.5-0.2,2.3-0.2l1.3,11.6C115.8,34.3,114.9,34.3,114.1,34.6
		L114.1,34.6z"/>
	<polygon points="195.2,73.6 197.9,77.4 103.8,143.4 101.1,139.6 	"/>
	<polygon fill="#939598" points="193.9,75.9 103.4,140.2 102.9,139.6 	"/>
	<polygon points="68.1,94.4 71.8,88.3 150,137.3 146.4,143.4 	"/>
	<polygon fill="#939598" points="70.2,93.8 146.4,140.2 146,141.1 	"/>
	<path fill="#E6E7E8" d="M125,120.3c2.9,0,5.5,2.5,5.5,5.5s-2.5,5.5-5.5,5.5c-2.9,0-5.5-2.5-5.5-5.5
		C119.5,122.8,121.8,120.3,125,120.3L125,120.3z"/>
	<path fill="#ED1C24" d="M149.8,33.1l1.1,0.2l-24.4,89.1c1.7,0.8,2.7,2.7,2.1,4.4c-0.4,1.9-2.3,2.9-4.2,2.7l-4.4,16l-1.1-0.2
		l4.4-15.8c-1.7-0.8-2.7-2.7-2.1-4.4c0.4-1.9,2.3-2.9,4.2-2.7L149.8,33.1L149.8,33.1z"/>
	<path fill="#FFFFFF" d="M125.2,124.5c0.6,0.2,1.3,1.1,1.1,1.7c-0.2,0.6-1.1,1.3-1.7,1.1c-0.6-0.2-1.3-1.1-1.1-1.7
		C123.7,124.7,124.6,124.3,125.2,124.5L125.2,124.5z"/>
</g>
</svg>
