<?xml version="1.0" encoding="utf-8"?>
<!-- Generator: Adobe Illustrator 18.1.1, SVG Export Plug-In . SVG Version: 6.00 Build 0)  -->
<svg version="1.1" id="Layer_1" xmlns="http://www.w3.org/2000/svg" xmlns:xlink="http://www.w3.org/1999/xlink" x="0px" y="0px"
	 viewBox="0 0 169.4 452.4" enable-background="new 0 0 169.4 452.4" xml:space="preserve">
<g>
	<g>
		<g>
			<g>
				<g>
					<ellipse fill-rule="evenodd" clip-rule="evenodd" fill="#9DB7BF" cx="23.7" cy="436.4" rx="19.9" ry="12"/>
					<ellipse fill-rule="evenodd" clip-rule="evenodd" fill="#EAEAEA" cx="23.7" cy="431.8" rx="19.9" ry="12"/>
					<path fill="#C9D6DB" d="M27.4,430.5c0.1,2.4-7.1,2.4-7.2,0V27.7c0-2,1.6-3.6,3.6-3.6c2,0,3.6,1.6,3.6,3.6V430.5z"/>
				</g>
				<path fill="#9DB7BF" d="M28,26.2h-8.6c-0.7,0-1.3-0.6-1.3-1.3v-8.6c0-0.7,0.6-1.3,1.3-1.3H28c0.7,0,1.3,0.6,1.3,1.3V25
					C29.2,25.7,28.7,26.2,28,26.2z"/>
			</g>
		</g>
	</g>
	<g>
		<path fill="#DD2E27" d="M162.9,93.9c-46.4-9.2-92.8,33.2-139.2,23.3c0.3-29.2,0.7-58.4,1-87.5c46.4,9.2,92.8-33.2,139.2-23.3
			C163.6,35.6,163.3,64.8,162.9,93.9z"/>
		<g>
			<path fill="#FDDD13" d="M34.5,48.6c3.2,0.2,6.3,0.1,9.5-0.1c1-3.1,2.1-6.1,3.1-9.2c1,3,1.9,5.9,2.9,8.8c3.1-0.4,6.2-1,9.3-1.6
				c-2.6,2.4-5.1,4.7-7.7,6.9c1,2.8,2,5.6,3,8.4c-2.6-1.4-5.1-2.8-7.7-4.4c-2.6,2.2-5.2,4.2-7.8,6.2c1-3.1,1.9-6.1,2.9-9.2
				C39.5,52.6,37,50.7,34.5,48.6z"/>
			<path fill="#FDDD13" d="M68.5,36.6c-1,0.5-2.1,1-3.1,1.5c0.7-0.9,1.5-1.8,2.2-2.8c-0.5-0.8-1.1-1.7-1.6-2.5
				c0.9,0.2,1.8,0.4,2.7,0.6c0.7-0.9,1.4-1.8,2.2-2.8c-0.1,1-0.2,2-0.4,3c1,0.1,2,0.3,3,0.4c-1,0.6-2.1,1.1-3.1,1.7
				c-0.1,1.1-0.2,2.2-0.3,3.3C69.6,38.1,69,37.3,68.5,36.6z"/>
			<path fill="#FDDD13" d="M73.5,42.9c0.9-0.7,1.8-1.5,2.8-2.2c-0.1-1-0.3-2.1-0.4-3.1c0.7,0.5,1.5,1,2.2,1.5
				c0.9-0.8,1.9-1.5,2.8-2.3c-0.5,1.1-0.9,2.1-1.4,3.2c0.7,0.6,1.4,1.1,2.1,1.7c-1.1,0.2-2.1,0.3-3.2,0.5c-0.5,1.1-1,2.2-1.5,3.3
				c-0.1-1-0.2-2-0.3-3C75.6,42.7,74.6,42.8,73.5,42.9z"/>
			<path fill="#FDDD13" d="M73.6,54.3c1-0.3,2.1-0.6,3.1-1c0.3-1.2,0.6-2.4,0.9-3.6c0.4,0.9,0.7,1.8,1.1,2.7c1-0.3,2-0.7,3-1
				c-0.8,0.8-1.5,1.7-2.3,2.5c0.3,0.9,0.6,1.8,0.9,2.7c-0.9-0.3-1.7-0.6-2.6-0.8c-0.9,1-1.7,1.9-2.6,2.9c0.3-1.1,0.7-2.3,1-3.4
				C75.2,55,74.4,54.7,73.6,54.3z"/>
			<path fill="#FDDD13" d="M68.2,64.1c0.7-1,1.4-2,2.1-3c0,1.1,0,2.1,0,3.2c0.9,0.1,1.7,0.2,2.6,0.3c-1,0.6-1.9,1.2-2.9,1.7
				c0,1,0,2.1,0,3.1c-0.6-0.7-1.2-1.3-1.8-2c-1,0.5-2,1.1-3,1.6c0.6-1,1.3-2,1.9-3c-0.5-0.7-1-1.4-1.5-2.2
				C66.4,64,67.3,64.1,68.2,64.1z"/>
		</g>
	</g>
</g>
</svg>
