<?xml version="1.0" encoding="utf-8"?>
<!-- Generator: Adobe Illustrator 18.1.0, SVG Export Plug-In . SVG Version: 6.00 Build 0)  -->
<svg version="1.1" id="Layer_1" xmlns="http://www.w3.org/2000/svg" xmlns:xlink="http://www.w3.org/1999/xlink" x="0px" y="0px"
	 viewBox="1400.6 33.1 129 1166.9" enable-background="new 1400.6 33.1 129 1166.9" xml:space="preserve">
<g>
	<g>
		<g>
			<g>
				<g>
					<ellipse fill="#9CB6BE" cx="1465.1" cy="1161.1" rx="64.5" ry="38.9"/>
					<ellipse fill="#E9E9E9" cx="1465.1" cy="1145.9" rx="64.5" ry="38.9"/>
					<path fill="#C8D4DA" d="M1477.1,1141.6c0.3,7.8-23,7.8-23.3,0V73.9c0-6.5,5.2-11.7,11.7-11.7s11.7,5.2,11.7,11.7
						C1477.1,73.9,1477.1,1141.6,1477.1,1141.6z"/>
				</g>
				<path fill="#9CB6BE" d="M1479.1,69.4h-27.9c-2.3,0-4.2-1.9-4.2-4.2V37.3c0-2.3,1.9-4.2,4.2-4.2h27.9c2.3,0,4.2,1.9,4.2,4.2v27.9
					C1483.3,67.4,1481.3,69.4,1479.1,69.4z"/>
			</g>
		</g>
	</g>
</g>
</svg>
