<?xml version="1.0" encoding="utf-8"?>
<!-- Generator: Adobe Illustrator 18.1.1, SVG Export Plug-In . SVG Version: 6.00 Build 0)  -->
<svg version="1.1" id="Layer_1" xmlns="http://www.w3.org/2000/svg" xmlns:xlink="http://www.w3.org/1999/xlink" x="0px" y="0px"
	 viewBox="0 0 120 118.6" enable-background="new 0 0 120 118.6" xml:space="preserve">
<circle fill="#7EA3D5" cx="60.4" cy="59.3" r="57.8"/>
<path fill="#E6E7E8" d="M12.4,69.8c1,0.7,2.7,0.4,3.6,1.6c0.7,0,1-0.3,1.4-0.4c-0.9-0.9-2.1-1.1-3.2-1.5
	C13.6,69.3,12.5,68.5,12.4,69.8z M47,49.4c0.7,0,1-0.5,1.5-0.7c0.2-0.8-0.3-1.4,0-2.1c-0.7-1.1-1.2,0.5-1.9,0.6
	c0.1,0.7,0.1,1.3-0.1,1.7C46.7,48.9,46.8,49.2,47,49.4z M17.7,72.4c0.5,0.2,0.9,0.2,1.4,0.3c0.1-0.2,0-0.3,0.1-0.6
	c0.1-0.1,0.4,0.1,0.5-0.1C19.3,71.5,17.6,71.1,17.7,72.4z M48.6,46.1c0.2,0.2,0.4,0.5,0.6,0.9c0.3,0,0.5,0.1,0.7,0.3
	c-0.2,0.1-0.1,0.4,0,0.6c-0.2,0.1-0.2,0.3-0.4,0.4c0.3,0.4-0.3,0.7-0.1,1c0.1,0.2,0.4,0,0.4,0.3c-0.1,0.5-0.8,0.4-0.7,1
	c0.2,0.3,0.5,0.2,0.9,0.2c0.5-0.6,1.3-0.5,2.2-0.7c0.7-0.6,0.6-2.3-0.4-2.6c-0.2-1.3-1-1.6-1.5-2.3c0.1-0.4,0.3-0.8,0.1-1.5
	c-0.2-0.1-0.4,0.1-0.6,0c0-0.3,0-0.3-0.1-0.5c-0.8-0.2-1.3,0.4-1.6,1.1c0.1,0.5,0.4,0.7,0.6,1C48.6,45.6,48.6,45.8,48.6,46.1z
	 M74.7,29.5c0.3,0.3,0.2,0.7,0.5,0.9c0.5-0.3,1.5,0.3,1.5-0.8c-0.1-0.2-0.2,0.1-0.4,0c-0.7-1.4-0.1-2.9,0.8-3.1
	c0.2-1.1,1.1-1.3,1.6-1.9c0,0.2,0.2,0,0.3,0.1c0.9-1,2.1-0.7,3-1.4c0-0.5-0.2-0.7-0.4-1c-0.8-0.5-1.2,0.4-1.8,0.6
	c-0.3,0.1-0.6,0-0.9,0.2c-0.5,0.2-1,0.7-1.6,0.9c-0.4,0.2-1,0-1.3,0.2c-0.3,0.2-0.4,0.7-0.6,1.1c-0.1,0.3-0.4,0.5-0.4,0.6
	c0,0,0.1,0.1,0,0.1c-0.3,0.5-0.7,0.8-0.9,1.5c0.1,0,0,0.5,0.2,0.5c-0.3,0.3-0.6,0.5-0.5,0.9C74,29.2,74.4,29.1,74.7,29.5z
	 M77.9,92.4c-0.5,0.1-0.3,1.2-0.8,1.5c0,0.3,0.2,0.4,0.1,0.6c-0.1,0-0.1,0.1-0.2,0.2c-0.8-0.1-1.2,0.7-1.4,1.6
	c0.4,1.3-0.2,2.9,0,4.3c0.5,0.4,0.6,1.4,1.1,1.5c0.7,0,0.7-1.4,1.1-2.1c-0.2-1.5,0.7-2.3,0.6-3.8c0.3-0.6,0.3-1.6,0.5-2.2
	C78.6,93.2,78.4,92.3,77.9,92.4z M104.8,71.7c0.5,0.8,1.3-0.3,1-1C105.2,71,104.8,71,104.8,71.7z M110.9,67.4c-1-0.4-1.3,0.7-1,1.7
	c0.2,0.1,0.4,0.2,0.7,0.1C110.8,68.6,111,68.2,110.9,67.4z M60.4,2.7C29.2,2.7,3.8,28.1,3.8,59.3c0,31.2,25.4,56.6,56.6,56.6
	S117,90.6,117,59.3C117,28.1,91.6,2.7,60.4,2.7z M15.4,33.7c0,0.1,0,0.2,0,0.3c0,0.1-0.2,0.2-0.3,0.2C15.2,34,15.3,33.8,15.4,33.7z
	 M15,34.4c0.1,0.1,0.3,0.2,0.2,0.3c-0.2,0,0,0.1,0,0.2c-0.1,0-0.3,0-0.4,0C14.8,34.8,14.9,34.6,15,34.4z M16.1,81.8
	c0,0.1-0.6,1.7-0.8,1.9c-0.2,0.2-0.2,0-0.3,0.2c0,0.1,0,0.3,0,0.5c-1.2-2.3-2.3-4.6-3.2-7c0,0,0,0,0,0c0.1,0.2,0.5,0.4,0.8,0.7
	c0.7,0.8,1.7,1.9,2.6,1C16.2,79.8,16.4,80.7,16.1,81.8z M60.4,111.2c-10.6,0-20.4-3.2-28.6-8.7c0-0.3-0.1-0.5-0.2-0.8
	c0.2-0.6,0.7-1,1-1.5c1-0.3,1.7-1,2.7-1.3c0.2-1.4,0.3-3,0.8-4.1c0-0.6,0-1.2-0.2-1.9c0.3-0.1,0.5-0.3,0.8-0.5c0-0.4,0-0.7,0.1-1
	c0.9-0.2,0.7-1.4,1-2.2c-0.1-0.4-0.3-0.6-0.4-1c-0.7-0.3-1.4-1-2-1.3c-0.9-0.4-1.4-1.1-2.1-0.8c-0.8-0.7-1.7-1.1-2.5-1.7
	c-0.5,0.1-0.8,0.4-1.3,0.4c0.1-0.6,0.4-1,0.6-1.4c-0.2-0.8-0.6-1.1-1-1.6c-1.1-0.2-1.9-1.7-3.2-1.9c-0.2-0.4-0.5-0.6-0.8-0.9
	c-0.2,0-0.3-0.1-0.4-0.1c-0.5-1-1.3-1.1-2.1-1.3c-0.6,0.5-0.7,0.1-1.4-0.1c-0.2-0.1-0.5,0-0.7-0.1c-0.4-0.2-0.4-0.6-0.7-0.6
	c-0.5,0.1-0.4,1.1-0.9,0.9c0-0.3-0.1-0.8-0.2-1.2c-0.6,0.1-0.8,1-1.5,1.4c-0.4-0.1-0.8,0.2-1.1,0.6c-0.2-0.1-0.3-0.5-0.5-0.5
	c-1.1,0-2.3,0.1-2.5-1.1c-0.1-0.5,0.4-1.6,0-2.5c-0.3-0.1-0.4-0.5-0.7-0.7c-0.5-0.3-1.3,0.2-1.7-0.5c-0.4-1.2,0.3-1.6,0.2-2.7
	c-0.4-0.4-0.9-0.4-1.2-0.2c-0.3-1.6-0.6-3.3-0.8-5c0.2,0,0.4,0.1,0.6,0.1c0.2-0.1,0.2-0.4,0.3-0.6c0.9-0.4,1.4,0.4,2.3,0.2
	c0,0.2,0.2,0.1,0.2,0.2c0.4,1.2,1,2,1.7,2.7c0.5-1.1-0.5-2.2-0.6-3.6c0.2-0.5,0.3-0.6,0.4-1.2c1.3-0.6,2.3-2,1.7-3.9
	c0.3-0.1,0.4,0.1,0.6-0.1c0-0.2,0-0.4,0.1-0.6c0.3-1.2,1.4-1.5,2-2.4c0.1-0.2-0.1-0.4-0.1-0.8c1.3,0,1.3-1.5,2.6-1.6
	c0.4-0.3,0.1-1.4,0-1.8c0.2-0.7,0.8-0.8,0.8-1.8c-1.1-0.1-2,1-3.2,1c0.7-0.2,1-1.3,1.8-1.5c0.9-0.3,1.9,0.3,2.7-0.1
	c0.4-0.2,0.5-0.6,0.8-0.7c0.5-0.2,1-0.3,1.3-1.1c0.1-0.4,0-1.1-0.2-1.4c-0.4-0.1-0.8,0.1-1.2-0.1c0-0.4,0.4-0.3,0.4-0.8
	c-0.1-0.1-0.4,0-0.5,0c-0.3-0.7-0.8-0.9-1.2-1.4c-0.6-1.7-0.9-3.4-2.3-3.7c-0.2,0.7-0.1,1.5-1.1,1.7c-0.8-0.5-0.6-1.9-1.2-2.6
	c-0.3-0.4-0.9-0.4-1.2-0.7c-0.2-0.1-0.2-0.4-0.4-0.5c-0.9,0.2-1.4-0.4-2.4,0.1c-0.2,0.5,0,0.8,0.2,1.2c0.4,2-0.1,2.8,0.4,4.3
	c-0.3,1-1.4,1.7-0.6,3.3c-0.3,0.2-0.1,1.1-0.6,1.1c-0.7,0-0.9-2.1-1.2-3.1c-0.3-0.2-0.6-0.4-1-0.7c0.6-1.9,1.3-3.7,2-5.5
	c0.1,0.3,0.2,0.6,0.4,0.7c0.2-0.3,0.1-0.9-0.2-1.2c0.3-0.7,0.6-1.4,1-2c0.4,0.2,1-0.1,1.5-0.1c0.3,0.4,0.8,0.7,1.1,1.2
	c1.2,0.2,1.8,2.1,3.1,1.5c-0.2-0.9-0.9-0.8-1.2-1.5c0.6-0.3,0.7,0.4,1.4,0.3c0.8-0.6,0.1-1.9-0.8-1.8c-0.1-0.4-0.3-0.8-0.4-1.2
	c0.8-0.3,1.3,0.6,2.1,0.6c0.3-0.5,0.4-1.1,0.6-1.6c-0.2-0.4-0.7-0.4-0.9-0.9c-0.6-0.5-1.6-0.5-2-1.5c0-0.2,0.2,0.2,0.1-0.2
	c-0.2-0.7-0.5-1.1-0.8-1.4c1.4-2,2.9-3.9,4.6-5.7c0.5,0.8,0.9,1.8,1.5,2.4c-0.1,0.8,0.1,1.6,0.5,2.1c1.3-1,2.2,1.1,2.2,2.5
	c-0.2,0.3-0.6,0.6-0.3,1.1c-0.4,0.5-1.2,0.9-1.2,1.6c0,1,1.1,1.4,1.4,1.9c0.1,1.3,0.5,1.8,0.6,3.2c1,0.5,2.2,0.5,2.7,1.9l0.8-0.1
	c0.1-0.2,0.3-0.3,0.4-0.5c0-1,0.2-1.7,0.4-2.6c0.8-0.7,0.7-2.1,1.7-2.2c0.1,0,0.4,0.1,0.5,0c0.3-0.2,0.4-0.8,0.7-1.1
	c0.4-0.4,0.9-0.4,1.2-0.7c0.1-0.3,0.1-0.6,0.3-0.7c1.8,0,3.1-1.1,4.4-1.9c0.1-0.3-0.2-0.7-0.4-0.8c-0.3,0.1-0.8,0.2-1-0.1
	c0.5-0.8,1,0.1,1.7,0c0.1-0.9-0.8-1.5-0.7-2.7c-0.2-0.2-0.6,0.2-0.6-0.3c0.4-0.4,0.9,0.5,1.5,0.3c0.1-0.4,0.6-0.8,0.6-1.6
	c0-0.3-0.2-0.6-0.2-0.9c0-0.2,0.2-0.3,0.2-0.4c0.2-0.6-0.2-1-0.3-1.5c0.3-0.1,0.6-0.2,0.9-0.4c-0.1-0.9-0.6-1.2-1.2-1.4
	c-0.3-1.5,0.7-2,1.1-3c1.3-0.3,1.9-1.4,2.5-2.5c-0.2-0.2-0.4,0-0.8,0c-0.8-1-3.2,0-3.9,0.4c-0.1-0.3,0.1-0.3,0-0.6
	c-0.2-0.3-0.6-0.1-0.8-0.4c0.4-0.1,1-0.1,1.1-0.5c-0.4-0.9-1.3-1-1.9-1.6c-0.3,0-0.7,0.2-0.8,0.1c-0.1,0-0.1,0-0.2,0
	c6.9-3.5,14.8-5.4,23-5.4c14.2,0,27.1,5.7,36.4,15c-0.6,0.6-2.1,0.8-2.9,0.4c-0.4,0.1-0.6,0.5-1,0.7c-0.8,0.6-2.2,0.6-2.6,1.3
	c-0.2,0.4,0.2,0.5,0.2,1c-0.7,0.4-2.3,0.2-3,0.9c-0.2,0.3,0.3,0.3,0.2,0.7c0.9,0.1,1.4,1.3,1.3,2.4c-0.3-0.5-0.6-1.1-0.9-1.5
	c-0.6-0.5-2.1-1-2.4,0.1c0.1,0.6,0.7,0.5,0.8,1.1c-0.3,0.2-0.7-0.1-1-0.3c0-0.3,0.2-0.8,0-1.1c-0.5,0-0.6,0.2-0.9,0.5
	c0.1,0.5,0.1,1.1-0.1,1c0.4,0.6,0.4,1.5,0.7,2.2c0.1-0.1,0.9-0.4,1.1,0c-0.6-0.1-0.8,0.3-1.1,0.5c0.1,0.3,0,0.7,0,1.1
	c-0.5,0.2-0.8,1.1-1.4,1c0.3-0.6,0.6-1.4,0.7-2.2c-0.2-0.7-0.6-1.3-0.6-2c0-0.7,0.6-1.3,0.2-2.3c-0.1-0.3-0.5-0.9-0.8-1
	c-0.5-0.1-1.3,0.9-1.5,1.3c-0.1,0.2-0.3,0.5-0.3,0.6c-0.2,1.1,0.6,2.5,0.7,3.4c-0.4,0-0.9-0.4-1.3-0.8c-0.5-0.2-0.8,0-1.3-0.1
	c-0.8-0.1-1.2-1.2-2-0.9c-0.1,0.8,0.8,0.8,0.5,1.7c-0.2,0-0.5,0-0.8-0.2c-0.6,0.8-1.1,0.1-1.6,0.2c-0.2,0-0.6,0.1-0.9,0.2
	c-0.5,0.1-0.8,0.6-1.2,0.8c-0.3,0.2-0.6,0.2-0.8,0.4c-0.5,0.3-0.7,1.2-1.2,0.7c-0.1-0.6,0.3-0.6,0.2-1.1c-0.4-0.5-0.9-1.1-1.4-0.5
	c0,0.9,0.1,1.6-0.2,2.1c-0.9,0.2-1.1,1.1-1.5,1.9c-0.3-0.2-0.5-0.1-0.8,0c-0.2,0.2-0.1,0.7-0.4,0.8c-0.3-0.1-0.3-0.3-0.4-0.7
	c-0.4-0.6-1-0.9-1.2-1.8c1.2,0.8,2.9,0.7,3.4-1.2c-0.3-0.6-0.8-0.5-1.2-0.8c-0.5-1.2-1.6-1.8-2.8-1.6c-0.3-0.3-0.5-0.3-0.9-0.4
	c-0.1-0.2-0.2-0.4-0.4-0.5c-0.6,0.1-1,0.2-1.4-0.1c-0.8,0.4-2,0-2.6,0.8c-0.2,0.1-0.3-0.1-0.5-0.1c-0.6,1.2-2.3,1.6-2.7,2.8
	c-0.9,0.3-1.5,1.4-1.3,2.8c-0.3,1.5-1.4,2.5-2.2,3.2c0.3,0.9,0.2,2.2,0.3,3.2c0.2,0.4,0.6,0.2,0.9,0.3c0.2,0.1,0.2,0.3,0.4,0.4
	c0.5,0.1,0.8-0.5,1.2-0.9c0.3,0.2,0.6,0.5,1,0.4c0.2,0.5,0.5,0.9,1,1c0.5-0.8,0.7-1.8,1-2.8c-0.2-0.4-0.5-0.6-0.7-0.9
	c-0.5-2,1.7-2.2,1.8-4.1c0.3-0.3,0.9-1,1.3-0.5c0.1,0.1,0,0.3,0.1,0.5c-0.8,1.1-1.8,2.2-1.3,4.4c0.4,0,0.6,0.6,1.1,0.7
	c0.5,0.1,1-0.4,1.5-0.4c0.1,0,0.1,0.2,0.1,0.2c0.1,0.1,0.4-0.3,0.4,0c-0.1,0-0.1,0.2-0.2,0.3c-0.6-0.1-1.9,0.2-1.8,0.8
	c0,0.3,0.5,0.5,0.6,0.8c0.2,0.9-0.5,1.2-1.1,0.7c-0.6,0.1-0.3,1-0.3,1.7c-0.7,0.6-1.4,0.5-2.6,0.6c-0.4-0.9-0.8-2.2-1.6-2.5
	c-0.5-0.2-1,0.3-1.3,0.7c-0.2,1.2,1.2,3.3-0.6,3.2c-0.4,0.7-1.3,1.1-1.4,2.1c-0.9,0.3-1.1,1.3-1.9,1.7c0-0.2-0.1-0.2-0.3-0.2
	c-0.1,0.8-1.2,0.2-1.3,1.1c0.6,0.6,1.3,1,1.6,2c-0.1,0.4,0,1.1-0.1,1.6c-1.1,0.2-2.7-0.3-3.6,0.6c0.2,0.7,0.3,1.3,0.3,1.9
	c0,0.7,0,1.4,0.2,2.3c0.6,0.4,1.1,0.7,1.8,1c0.1-0.1,0.2-0.3,0.3-0.3c1.3,0.3,2.5-0.9,2.2-2.7c0.1-0.1,0.2-0.2,0.4-0.3
	c0.5-0.4,1-0.9,1.1-1.9c0.7-0.2,0.9-0.5,1.6-0.1c0.6-0.1,0.9-1,1.6-0.9c0.8,0.1,1.5,1.5,1.3,2.5c0.1,0.1,0.2,0.2,0.3,0.4
	c0.3,0.6,0.5,1.3,1.3,1.1c0.2-0.2,0.2-0.6,0.1-1c0,0,0.1-0.1,0.1-0.1c0.1-0.1,0.3-0.1,0.2-0.4c-0.4-0.4-0.8-1-0.9-2
	c0.8-0.3,1.5,0.6,1.5,1.9c0.2,0.2,0.3,0.3,0.4,0.5c0.5,0.6,1,1.5,1.2,2.6c0.9-0.1,0.8-1.6,0.6-2.5c0,0,0.1-0.1,0.1-0.1
	c0.3-0.3,0.8-0.7,1.2-0.5c0,0.2,0,0.4,0,0.5c0,0.5,0.1,0.9,0.1,1.6c0.3,0.4,0.6,0.7,0.9,1.1c0.9,0,1.8-0.2,2.4,0.3
	c0.3-0.1,0.5-0.4,0.9-0.5c0.3,1.3-0.2,2.3-0.3,3.4c-0.5,0.3-1-0.2-1.5-0.1c-0.3,0-0.6,0.3-0.9,0.4c-1.7,0.2-3.3-2.1-4.7-0.6
	c0,0.2,0,0.6,0,0.8c-0.5,0.3-1.1-0.4-1.2-0.8c-0.6-0.2-1.3-0.5-2-0.9c0-0.7-0.1-1-0.2-2.2c-0.3-0.6-1-0.3-1.5-0.5
	c-0.3,0.4-1,0.4-1.3,0.1c-1.1,0.8-3.2,1-4.3,1.6c-0.3-0.3-0.8-0.6-1.2-0.2c-0.2,1.2-1,1.6-1.5,2.4l0.1,1.3c-0.2,0.4-0.5,0.5-0.6,0.9
	c-0.6,0.5-1.2,1.3-1.6,1.9c0.2,0.8-0.8,1.4-0.8,2.2c0,0.3,0.1,0.4,0.2,0.8c0.1,0.5,0.1,1,0.2,1.5c0.2,1,0,1.6-0.1,2.7
	c0,1.2,0.5,1.4,0.9,1.8c0.4,1.4,1.5,1.7,1.9,3.2c0.5,0.1,0.6,0.8,0.8,1.1c0.5,0.4,1,0.6,1.7,0.5c0.4-0.5,1.2-0.4,1.7,0
	c0.8-0.2,1.9-0.4,2.7-1c0.2,0.2,0.4,0,0.7,0c0.3,0.8,1.1,0.9,2,0.9c0.2,0.3,0.3,0.7,0.5,0.9c0.1,1-0.2,1.5-0.4,2.2
	c0.6,1.5,2,2,2,3.9c0.3,0.5,0.6,0.9,0.7,1.4c0.7,2.4-1,3.7-0.6,5.9c0.1,0.6,0.6,1.2,0.8,1.8c0.3,0.8,0.5,1.5,0.6,2.4
	c0.4,1.4,0.7,3.5,1.2,4.4c0.5-0.1,0.7,1,0.8,1.9c0.8,1.8,3.7,0.6,5.1,0.2c0-0.3,0.1-0.5,0.1-0.7c1-0.8,1.5-2.3,2.1-3.5
	c0-0.8-0.1-0.8-0.1-1.4c0.4-0.4,0.7-0.5,0.8-0.9c0.3-0.8-0.2-1.4-0.3-2c-0.1-0.6,0.7-1.4,1.1-1.9c0.2-0.3,0.5-0.7,0.8-1
	c0.9-0.7,0.6-1.7,0.5-3.2c-0.3-0.3-0.2-0.7-0.4-1c-0.3-0.7-0.9-1.2-0.8-2.3c0-0.6,0.6-2.6,0.8-3c0.3-0.6,1.2-1.3,1.8-2.1
	c0.5-0.6,0.9-1.4,1.3-1.9c0.2-1.1,0.4-2.2,0.9-3c-0.1-1,0.4-1.4,0.6-2c-1.3-0.8-1.9,0.7-2.9,0.7c-0.6,0-0.8-0.4-1.1-0.7
	c-0.6-0.5-1.1-0.8-1.6-1.6c0-0.4-0.3-0.8-0.4-1.2c-0.7-0.6-1.1-1.8-1.5-2.8c-0.6-1.6-1.3-3.1-1.8-4.4c0-0.1-0.2,0.1-0.3-0.2
	c0.6-0.6,1.1,0.9,1.4,1.5c0.6,1.1,1.4,1.1,1.4,2.5c0.4,0.6,0.9,1,1.4,1.5c0.6,0.9,0.6,2.2,0.8,3.6c1,1.2,2.2-0.4,3.6-0.4
	c0.7-1.1,1.6-1.9,3-2.2c0.3-1.2,1.3-1.8,1.1-3.6c-0.4-0.5-0.9-0.7-1.3-1c-0.2-0.4-0.4-0.9-0.9-1c-0.2,0.6-0.4,1-0.9,1
	c-0.6,0-0.7-0.7-1.1-0.9c-0.3-0.2-0.4,0.1-0.7-0.2c-0.2-0.3-0.1-0.7-0.1-1c-0.3-0.5-0.8-0.6-0.9-1.4c1.1-0.3,1.5,1.7,2.4,2.1
	c0.4,0.1,0.9,0,1.4-0.1c0.1,0.2,0.2,0.2,0.4,0.5c1.5,0.3,3,0.8,4.7,0.7c0.4,1,1.3,1.3,1.8,1.4c0,0.9,0.2,1.6,0.9,1.4
	c0.1-0.2,0.1-0.5,0.3-0.7c0.1,0.2,0.3,0.2,0.3,0.4c-0.1,0-0.2,0-0.2,0.1c0.4,0.6,0.3,1.5,0.3,2c0.1,0.5,0.4,1.1,0.3,1.8
	c0.7,1.7,1.1,2.4,1.7,4c0.2,0,0.3,0.3,0.5,0.3c0.3-0.3,0.7-0.6,0.9-0.9c0-1.3,0.6-2.2,0.3-4c1.1-1.2,2.3-2.3,2.9-4.1
	c0.7,0.1,1.2-0.2,1.5-0.6c0.5,1.3,2,1.9,1.6,3.7c0.4,0.7,1.4,0.8,1.8,0.2c0.3,1,1.1,2.9,0.8,4.3c0.5,1.1,1.4,2.8,1.7,4.1
	c-0.5-0.1-0.8-0.5-1.4-0.6c-0.2-0.6-0.8-1.1-1.2-0.5c0.2,0.9,0.6,1.5,0.9,2.1c0.2,0.3,0.3,0.8,0.5,1.1c0.2,0.3,0.5,0.5,0.7,0.8
	c0.6,1,1.1,1.3,2,1.8c0.2,0.2,0.5,0.4,0.7,0.6C94.8,101.6,78.7,111.2,60.4,111.2z M74.1,54.3c0.7-0.7,2-1.7,2.9-1
	c-0.1,0.8-1.1,0.7-1.1,1.5c0.3,0.7,1,1.4,1.2,2.6c0.1,0.3,0,0.7,0.1,1c0,0,0,0,0,0h-1.8c0-0.2,0.1-0.3,0.1-0.5
	C75.4,56.5,74.1,55.7,74.1,54.3z M71.3,57.1c-0.4,0.1-0.7,0.5-1.2,0.4c-0.4-0.1-0.7-0.6-1.1-0.8c-0.4-0.2-2.4,0-2.9,0.2
	c-0.3,0.1-0.4,0.6-0.8,0.6c0.3-0.5-0.2-0.7-0.2-1.2c0-0.4,0.2-0.5,0.4-1c0.3-0.8,0.4-1.6,1.1-1.9c0.1,0.3,0.4,0.5,0.7,0.5
	c0,0.4,0.1,0.5,0.2,0.9c0.5,0.2,0.8-0.2,1.2-0.5c0-0.4-0.2-0.4-0.2-0.8c0.3-0.3,1.2,0,1.3-0.6c0.2,0.4-0.2,0.7-0.2,1
	c0.5,1.2,1.3,1.8,2.1,2.6C71.5,56.9,71.2,56.8,71.3,57.1z M110.3,73.2c-0.9,3.2-2.1,6.3-3.6,9.2c-0.3,0-0.3,0-0.6,0
	c-0.4,0.3-0.4,0.9-0.2,1.6c-0.3,0.6-0.7,1.2-1,1.8c0-0.2,0-0.3,0-0.4c-0.3-0.2-0.6,0.2-0.7,0.1c-0.4-1.1-1.6-1.9-2-3
	c0.5,0.2,1,1.2,1.6,0.5c-0.2-1.3-0.6-2.4-1.4-3.3c-0.1-0.2-0.3-0.2-0.5-0.4c-0.8-1-1.4-2.3-0.6-3.2c0.6,0.4,1.2,0.9,1.8,1.3
	c0.2,0.5,0.2,0.9,0.5,1.1c0.4-0.2,0.3-1,0.9-0.7c0.3-0.6,1-0.7,1.1-1.5c-0.2-1-0.5-1.7-0.7-2.6c-0.2-0.3-0.6-0.4-0.8-0.7
	c0.1-0.6-0.5-1.3-0.4-2.1c0.3-0.3,0.7-0.5,1.2-0.7c0.2,0.1,0.2,0.3,0.3,0.5c0.5-0.4,1.1-0.6,1.4-1.2c0.2-0.1,0.2,0.1,0.4,0
	c0.9-0.5,2-1,2.5-2c0-1.4,0.9-1.7,0.7-3.4c0-0.3-0.3-0.3-0.3-0.6c0-1.3-0.7-1.5-0.8-2.6c0.4-0.5,0.9-0.7,1-1.5
	c-0.1-1-0.9-0.6-1.7-0.7c-0.1-0.2-0.1-0.4,0-0.5c0.1-0.6,0.6-0.8,0.9-1.1c0.2,0.1,0.3,0.4,0.4,0.7c0.5,0.1,0.7,0,1.2,0
	c0.2,0.1,0.3,0.2,0.5,0.4c0.3,0.4,0.4,0.9,0.6,1.4c-0.3,0.7-0.1,1.2,0.2,1.4c-0.1,3.6-0.6,7.1-1.4,10.4c-0.2,0.1-0.3,0.3-0.5,0.5
	C110.4,72.6,110.3,72.9,110.3,73.2z M41.6,35.1c-1.2-2-2.1,1.5-0.4,1.7c0.5,1.8,2.1,0.7,3,0.6c0.1-0.5,0.3-1,0.8-1.1
	c0.1-0.5,0-0.9-0.1-1.5C43.6,34.9,42.8,35.3,41.6,35.1z M91.8,78.4c-0.2,0.3-0.1,0.8-0.4,0.9c0.3,0.2,0.1,1,0.5,1.4
	c0.3,0,0.6,0.1,0.9-0.3C92.9,79.1,92.5,78.7,91.8,78.4z M25.5,50.2c-0.3-0.3-0.3-0.8-0.1-1.1c-1.1-1.1-1.9,1.1-1.8,2.6
	c0.7-0.1,1.2,0.1,1.6,0.6c0.5-0.3,1.1,0,1.5-0.2C26.3,51.5,26.5,49.8,25.5,50.2z M23,52.1c-0.1,0.9-0.8,1.3-1.5,1.1
	c0.2,1.1,1.1,0.1,1.7,0.1c0-0.3,0.2-0.7,0-1.1C23.1,52.2,23.1,52.1,23,52.1z"/>
</svg>
