<?xml version="1.0" encoding="utf-8"?>
<!-- Generator: Adobe Illustrator 18.1.1, SVG Export Plug-In . SVG Version: 6.00 Build 0)  -->
<svg version="1.1" id="Layer_1" xmlns="http://www.w3.org/2000/svg" xmlns:xlink="http://www.w3.org/1999/xlink" x="0px" y="0px"
	 viewBox="0 0 228 228" enable-background="new 0 0 228 228" xml:space="preserve">
<g id="circle">
	<g>
		<g>
			<g>
				<path fill="none" stroke="#686868" stroke-width="0.5812" stroke-miterlimit="10" d="M130,5.2c0.1,0,0.2,0,0.3,0"/>
				<path fill="none" stroke="#686868" stroke-width="0.5812" stroke-miterlimit="10" stroke-dasharray="0.5813,1.1626" d="
					M131.4,5.5c53.3,8.3,94.1,54.1,94.1,109.3c0,51.4-35.3,94.6-83.2,107"/>
				<path fill="none" stroke="#686868" stroke-width="0.5812" stroke-miterlimit="10" d="M141.8,221.9c-0.1,0-0.2,0-0.3,0.1"/>
			</g>
		</g>
		<polygon fill="#B3B8BC" points="135.9,223.3 143.4,225.2 141.9,218.6 		"/>
	</g>
	<g>
		<g>
			<g>
				<path fill="none" stroke="#686868" stroke-width="0.5812" stroke-miterlimit="10" d="M114,225.4c-0.1,0-0.2,0-0.3,0"/>
				<path fill="none" stroke="#686868" stroke-width="0.5812" stroke-miterlimit="10" stroke-dasharray="0.5797,1.1594" d="
					M112.5,225.3c-60.9-0.8-110.1-50-110.1-110.6c0-54.6,39.8-99.9,92.2-109"/>
				<path fill="none" stroke="#686868" stroke-width="0.5812" stroke-miterlimit="10" d="M95.3,5.7c0.1,0,0.2,0,0.3,0"/>
			</g>
		</g>
		<polygon fill="#B3B8BC" points="101,4 93.4,2.4 95.2,8.9 		"/>
	</g>
</g>
<image display="none" overflow="visible" width="3839" height="3294" id="truck" xlink:href="ECC2E1F68A9BB8E2.png"  transform="matrix(4.016351e-02 0 0 4.016351e-02 38.4924 43.458)">
</image>
<g display="none">
</g>
</svg>
