<?xml version="1.0" encoding="utf-8"?>
<!-- Generator: Adobe Illustrator 18.1.1, SVG Export Plug-In . SVG Version: 6.00 Build 0)  -->
<svg version="1.1" id="Layer_1" xmlns="http://www.w3.org/2000/svg" xmlns:xlink="http://www.w3.org/1999/xlink" x="0px" y="0px"
	 viewBox="5 89 604 607" enable-background="new 5 89 604 607" xml:space="preserve">
<g>
	<g>
		<g>
			<path fill="none" stroke="#686868" stroke-width="2" stroke-miterlimit="10" d="M348.4,103.2c0.3,0,0.5,0,0.8,0"/>
			<path fill="none" stroke="#686868" stroke-width="2" stroke-miterlimit="10" stroke-dasharray="0.5802,1.1604" d="
				M352.2,103.7C493.3,125.8,601,247.8,601,395.1c0,137-93.4,252-220,285.4"/>
			<path fill="none" stroke="#686868" stroke-width="2" stroke-miterlimit="10" d="M379.6,680.7c-0.3,0-0.5,0-0.8,0.3"/>
		</g>
	</g>
	<polygon fill="#B3B8BC" points="364,684.5 383.9,689.3 380.2,671.8 	"/>
</g>
<g>
	<g>
		<g>
			<path fill="none" stroke="#686868" stroke-width="2" stroke-miterlimit="10" d="M306.1,689.9c-0.3,0-0.5,0-0.8,0"/>
			<path fill="none" stroke="#686868" stroke-width="2" stroke-miterlimit="10" stroke-dasharray="0.581,1.162" d="
				M302.4,689.9C141.1,687.7,11.3,556.6,11.3,395.1c0-145.4,105.3-266.3,243.9-290.5"/>
			<path fill="none" stroke="#686868" stroke-width="2" stroke-miterlimit="10" d="M256.6,104.3c0.3,0,0.5,0,0.8,0"/>
		</g>
	</g>
	<polygon fill="#B3B8BC" points="271.9,99.7 251.7,95.4 256.3,112.9 	"/>
</g>
</svg>
