<?xml version="1.0" encoding="utf-8"?>
<!-- Generator: Adobe Illustrator 18.1.1, SVG Export Plug-In . SVG Version: 6.00 Build 0)  -->
<svg version="1.1" id="Layer_1" xmlns="http://www.w3.org/2000/svg" xmlns:xlink="http://www.w3.org/1999/xlink" x="0px" y="0px"
	 viewBox="0 0 121 139.5" enable-background="new 0 0 121 139.5" xml:space="preserve">
<g>
	
		<polygon fill-rule="evenodd" clip-rule="evenodd" fill="none" stroke="#B7B7B7" stroke-width="2.4955" stroke-miterlimit="10" points="
		5.1,5.2 5.1,117 21.6,134.7 102.6,134.7 102.6,5.2 	"/>
	
		<rect x="23.9" y="52.1" fill-rule="evenodd" clip-rule="evenodd" fill="none" stroke="#B7B7B7" stroke-width="2.4955" stroke-miterlimit="10" width="58.2" height="1.7"/>
	
		<rect x="23.9" y="58.4" fill-rule="evenodd" clip-rule="evenodd" fill="none" stroke="#B7B7B7" stroke-width="2.4955" stroke-miterlimit="10" width="58.2" height="1.7"/>
	
		<rect x="23.9" y="64.8" fill-rule="evenodd" clip-rule="evenodd" fill="none" stroke="#B7B7B7" stroke-width="2.4955" stroke-miterlimit="10" width="58.2" height="1.7"/>
	
		<rect x="23.9" y="71.2" fill-rule="evenodd" clip-rule="evenodd" fill="none" stroke="#B7B7B7" stroke-width="2.4955" stroke-miterlimit="10" width="58.2" height="1.7"/>
	
		<rect x="23.9" y="77.5" fill-rule="evenodd" clip-rule="evenodd" fill="none" stroke="#B7B7B7" stroke-width="2.4955" stroke-miterlimit="10" width="58.2" height="1.7"/>
	
		<rect x="23.9" y="83.9" fill-rule="evenodd" clip-rule="evenodd" fill="none" stroke="#B7B7B7" stroke-width="2.4955" stroke-miterlimit="10" width="58.2" height="1.7"/>
	
		<rect x="23.9" y="33.5" fill-rule="evenodd" clip-rule="evenodd" fill="none" stroke="#B7B7B7" stroke-width="2.4955" stroke-miterlimit="10" width="58.2" height="1.7"/>
	
		<rect x="23.9" y="39.9" fill-rule="evenodd" clip-rule="evenodd" fill="none" stroke="#B7B7B7" stroke-width="2.4955" stroke-miterlimit="10" width="58.2" height="1.7"/>
	
		<rect x="23.9" y="46.3" fill-rule="evenodd" clip-rule="evenodd" fill="none" stroke="#B7B7B7" stroke-width="2.4955" stroke-miterlimit="10" width="58.2" height="1.7"/>
	
		<path fill-rule="evenodd" clip-rule="evenodd" fill="none" stroke="#474B51" stroke-width="1.6637" stroke-linecap="round" stroke-linejoin="round" stroke-miterlimit="10" d="
		M25,113.4c4.1-0.7,20.9-2.5,23.9-5.3c1.2-1.2,2.3-3.3,1-4.4c-0.7-0.6-1.6-0.5-2.5-0.3c-5.8,1.1-10.9,5.8-12.3,11.6
		c7.4,0.4,14.8-2.8,19.6-8.3c-3.4,1.5-6.5,3.9-8.8,6.9c5.1-3,11.1-3.4,15.4-7.4c3-2.9,0.5-10,0-14.1c-4.4,8.4-1.7,18.7,0.2,28
		c0.3,1.5,1.1,3.3,2.7,3.2c-0.3-4.5-7.2-7.6-10.8-10.4c13,0.8,30.6-0.3,43.6-0.6"/>
	<text transform="matrix(1 0 0 1 13.5447 24.3341)" fill="#124D9C" font-family="'OpenSans-CondensedBold'" font-size="9.0608">CLIMATE DECLARATION</text>
	
		<polyline fill-rule="evenodd" clip-rule="evenodd" fill="none" stroke="#B7B7B7" stroke-width="2.4955" stroke-miterlimit="10" points="
		5.1,117 23.9,118.5 21.6,134.7 	"/>
	<g>
		<polygon fill="#F1B51C" points="73,99.8 66.3,106.5 75.7,105.2 		"/>
		<polygon fill="#F1B51C" points="77,104.6 112.3,87.1 109.5,81.6 109.5,81.6 108.4,79.4 94.4,87.4 95.1,88.8 74.3,99.1 		"/>
		
			<rect x="111" y="80.7" transform="matrix(-0.4449 -0.8956 0.8956 -0.4449 90.6916 221.7173)" fill="#F1B51C" width="6.1" height="4.2"/>
	</g>
</g>
</svg>
