<?xml version="1.0" encoding="utf-8"?>
<!-- Generator: Adobe Illustrator 18.1.1, SVG Export Plug-In . SVG Version: 6.00 Build 0)  -->
<svg version="1.1" id="Layer_1" xmlns="http://www.w3.org/2000/svg" xmlns:xlink="http://www.w3.org/1999/xlink" x="0px" y="0px"
	 viewBox="0 0 116.1 135.6" enable-background="new 0 0 116.1 135.6" xml:space="preserve">
<polygon fill-rule="evenodd" clip-rule="evenodd" fill="none" stroke="#B7B7B7" stroke-width="2.4955" stroke-miterlimit="10" points="
	2.4,3.1 2.4,114.9 18.9,132.6 99.9,132.6 99.9,3.1 "/>
<rect x="21.3" y="49.9" fill-rule="evenodd" clip-rule="evenodd" fill="none" stroke="#B7B7B7" stroke-width="2.4955" stroke-miterlimit="10" width="58.2" height="1.7"/>
<rect x="21.3" y="56.3" fill-rule="evenodd" clip-rule="evenodd" fill="none" stroke="#B7B7B7" stroke-width="2.4955" stroke-miterlimit="10" width="58.2" height="1.7"/>
<rect x="21.3" y="62.7" fill-rule="evenodd" clip-rule="evenodd" fill="none" stroke="#B7B7B7" stroke-width="2.4955" stroke-miterlimit="10" width="58.2" height="1.7"/>
<rect x="21.3" y="69" fill-rule="evenodd" clip-rule="evenodd" fill="none" stroke="#B7B7B7" stroke-width="2.4955" stroke-miterlimit="10" width="58.2" height="1.7"/>
<rect x="21.3" y="75.4" fill-rule="evenodd" clip-rule="evenodd" fill="none" stroke="#B7B7B7" stroke-width="2.4955" stroke-miterlimit="10" width="58.2" height="1.7"/>
<rect x="21.3" y="81.8" fill-rule="evenodd" clip-rule="evenodd" fill="none" stroke="#B7B7B7" stroke-width="2.4955" stroke-miterlimit="10" width="58.2" height="1.7"/>
<rect x="21.3" y="31.4" fill-rule="evenodd" clip-rule="evenodd" fill="none" stroke="#B7B7B7" stroke-width="2.4955" stroke-miterlimit="10" width="58.2" height="1.7"/>
<rect x="21.3" y="37.8" fill-rule="evenodd" clip-rule="evenodd" fill="none" stroke="#B7B7B7" stroke-width="2.4955" stroke-miterlimit="10" width="58.2" height="1.7"/>
<rect x="21.3" y="44.1" fill-rule="evenodd" clip-rule="evenodd" fill="none" stroke="#B7B7B7" stroke-width="2.4955" stroke-miterlimit="10" width="58.2" height="1.7"/>
<path fill-rule="evenodd" clip-rule="evenodd" fill="none" stroke="#474B51" stroke-width="1.6637" stroke-linecap="round" stroke-linejoin="round" stroke-miterlimit="10" d="
	M22.3,111.2c4.1-0.7,20.9-2.5,23.9-5.3c1.2-1.2,2.3-3.3,1-4.4c-0.7-0.6-1.6-0.5-2.5-0.3c-5.8,1.1-10.9,5.8-12.3,11.6
	c7.4,0.4,14.8-2.8,19.6-8.3c-3.4,1.5-6.5,3.9-8.8,6.9c5.1-3,11.1-3.4,15.4-7.4c3-2.9,0.5-10,0-14.1c-4.4,8.4-1.7,18.7,0.2,28
	c0.3,1.5,1.1,3.3,2.7,3.2c-0.3-4.5-7.2-7.6-10.8-10.4c13,0.8,30.6-0.3,43.6-0.6"/>
<g>
	<path fill="#124D9C" d="M13.6,16.7c-0.3,0-0.6,0.2-0.8,0.6c-0.2,0.4-0.3,1-0.3,1.7c0,1.5,0.4,2.2,1.2,2.2c0.3,0,0.7-0.1,1.1-0.3V22
		c-0.3,0.2-0.7,0.3-1.2,0.3c-0.7,0-1.3-0.3-1.7-0.9S11.3,20,11.3,19c0-1.1,0.2-1.9,0.6-2.5s1-0.9,1.7-0.9c0.2,0,0.5,0,0.7,0.1
		s0.4,0.2,0.7,0.3l-0.4,1c-0.1-0.1-0.3-0.2-0.4-0.2S13.8,16.7,13.6,16.7z"/>
	<path fill="#124D9C" d="M15.7,22.2v-6.5h1.2v5.4h1.7v1.1H15.7z"/>
	<path fill="#124D9C" d="M19.5,22.2v-6.5h1.1v6.5H19.5z"/>
	<path fill="#124D9C" d="M24.3,22.2l-1.2-5.5h0c0.1,0.4,0.1,0.8,0.1,1.2v4.3H22v-6.5h1.8l1.1,5.1h0l1.1-5.1H28v6.5h-1.1v-4.4
		c0-0.4,0-0.7,0.1-1.1h0l-1.2,5.5H24.3z"/>
	<path fill="#124D9C" d="M32.2,22.2l-0.4-1.6h-1.7l-0.4,1.6h-1.2l1.6-6.5h1.6l1.6,6.5H32.2z M31.6,19.5L31.2,18
		c0-0.1-0.1-0.3-0.1-0.7S31,16.7,31,16.6c0,0.3-0.1,0.5-0.1,0.8c-0.1,0.3-0.2,1-0.5,2.1H31.6z"/>
	<path fill="#124D9C" d="M35.6,22.2h-1.2v-5.4h-1.2v-1.1h3.7v1.1h-1.2V22.2z"/>
	<path fill="#124D9C" d="M40.5,22.2h-2.9v-6.5h2.9v1h-1.7v1.5h1.6v1h-1.6v1.8h1.7V22.2z"/>
	<path fill="#124D9C" d="M47.8,18.9c0,1.1-0.2,1.9-0.7,2.4c-0.4,0.6-1.1,0.8-1.9,0.8h-1.6v-6.5h1.7c0.8,0,1.3,0.3,1.8,0.8
		S47.8,17.9,47.8,18.9z M46.5,18.9c0-1.4-0.4-2.2-1.2-2.2h-0.5v4.4h0.4c0.4,0,0.8-0.2,1-0.6S46.5,19.7,46.5,18.9z"/>
	<path fill="#124D9C" d="M51.6,22.2h-2.9v-6.5h2.9v1h-1.7v1.5h1.6v1h-1.6v1.8h1.7V22.2z"/>
	<path fill="#124D9C" d="M54.7,16.7c-0.3,0-0.6,0.2-0.8,0.6c-0.2,0.4-0.3,1-0.3,1.7c0,1.5,0.4,2.2,1.2,2.2c0.3,0,0.7-0.1,1.1-0.3V22
		c-0.3,0.2-0.7,0.3-1.2,0.3c-0.7,0-1.3-0.3-1.7-0.9S52.4,20,52.4,19c0-1.1,0.2-1.9,0.6-2.5s1-0.9,1.7-0.9c0.2,0,0.5,0,0.7,0.1
		s0.4,0.2,0.7,0.3l-0.4,1c-0.1-0.1-0.3-0.2-0.4-0.2S54.9,16.7,54.7,16.7z"/>
	<path fill="#124D9C" d="M56.8,22.2v-6.5H58v5.4h1.7v1.1H56.8z"/>
	<path fill="#124D9C" d="M63.5,22.2l-0.4-1.6h-1.7l-0.4,1.6h-1.2l1.6-6.5h1.6l1.6,6.5H63.5z M62.9,19.5L62.5,18
		c0-0.1-0.1-0.3-0.1-0.7s-0.1-0.6-0.1-0.7c0,0.3-0.1,0.5-0.1,0.8c-0.1,0.3-0.2,1-0.5,2.1H62.9z"/>
	<path fill="#124D9C" d="M66.5,19.7v2.5h-1.2v-6.5h1.6c0.7,0,1.2,0.2,1.5,0.5c0.3,0.3,0.5,0.8,0.5,1.4c0,0.8-0.3,1.4-0.8,1.7
		l1.2,2.8h-1.3l-1-2.5H66.5z M66.5,18.7h0.3c0.3,0,0.5-0.1,0.6-0.2c0.1-0.2,0.2-0.4,0.2-0.7c0-0.3-0.1-0.6-0.2-0.7s-0.3-0.2-0.6-0.2
		h-0.3V18.7z"/>
	<path fill="#124D9C" d="M72.9,22.2l-0.4-1.6h-1.7l-0.4,1.6h-1.2l1.6-6.5h1.6l1.6,6.5H72.9z M72.3,19.5L71.9,18
		c0-0.1-0.1-0.3-0.1-0.7s-0.1-0.6-0.1-0.7c0,0.3-0.1,0.5-0.1,0.8c-0.1,0.3-0.2,1-0.5,2.1H72.3z"/>
	<path fill="#124D9C" d="M76.3,22.2h-1.2v-5.4h-1.2v-1.1h3.7v1.1h-1.2V22.2z"/>
	<path fill="#124D9C" d="M78.5,22.2v-6.5h1.1v6.5H78.5z"/>
	<path fill="#124D9C" d="M85.4,19c0,1.1-0.2,1.9-0.6,2.5c-0.4,0.6-1,0.9-1.7,0.9c-0.8,0-1.3-0.3-1.7-0.9S80.8,20,80.8,19
		c0-1.1,0.2-1.9,0.6-2.5s1-0.9,1.7-0.9c0.7,0,1.3,0.3,1.7,0.9S85.4,17.9,85.4,19z M82,19c0,0.7,0.1,1.3,0.3,1.7
		c0.2,0.4,0.5,0.6,0.8,0.6c0.7,0,1.1-0.8,1.1-2.3c0-1.5-0.4-2.3-1.1-2.3c-0.4,0-0.6,0.2-0.8,0.6C82.1,17.7,82,18.2,82,19z"/>
	<path fill="#124D9C" d="M90.9,22.2h-1.5l-2-4.7h-0.1c0.1,0.4,0.1,0.7,0.1,1.1v3.5h-1.1v-6.5h1.5l2,4.6h0c-0.1-0.3-0.1-0.7-0.1-1.1
		v-3.5h1.1V22.2z"/>
</g>
<polyline fill-rule="evenodd" clip-rule="evenodd" fill="none" stroke="#B7B7B7" stroke-width="2.4955" stroke-miterlimit="10" points="
	2.4,114.9 21.3,116.3 18.9,132.6 "/>
<g>
	<polygon fill="#F1B51C" points="70.4,97.7 63.6,104.3 73,103 	"/>
	<polygon fill="#F1B51C" points="74.3,102.5 109.6,84.9 106.9,79.4 106.9,79.5 105.8,77.2 91.8,85.3 92.4,86.6 71.6,97 	"/>
	
		<rect x="108.3" y="78.5" transform="matrix(-0.4449 -0.8956 0.8956 -0.4449 88.7756 216.2712)" fill="#F1B51C" width="6.1" height="4.2"/>
</g>
</svg>
