<?xml version="1.0" encoding="utf-8"?>
<!-- Generator: Adobe Illustrator 18.1.1, SVG Export Plug-In . SVG Version: 6.00 Build 0)  -->
<svg version="1.1" id="Layer_1" xmlns="http://www.w3.org/2000/svg" xmlns:xlink="http://www.w3.org/1999/xlink" x="0px" y="0px"
	 viewBox="0 0 612 792" enable-background="new 0 0 612 792" xml:space="preserve">
<g>
	<polygon fill="none" stroke="#B7B7B7" stroke-width="2.4955" stroke-miterlimit="10" points="25.8,69.5 25.8,635 109.2,724.5 
		518.9,724.5 518.9,69.5 	"/>
	
		<rect x="120.9" y="306.7" fill="none" stroke="#B7B7B7" stroke-width="2.4955" stroke-miterlimit="10" width="294.4" height="8.6"/>
	
		<rect x="120.9" y="338.6" fill="none" stroke="#B7B7B7" stroke-width="2.4955" stroke-miterlimit="10" width="294.4" height="8.6"/>
	<rect x="120.9" y="371" fill="none" stroke="#B7B7B7" stroke-width="2.4955" stroke-miterlimit="10" width="294.4" height="8.6"/>
	
		<rect x="120.9" y="403.3" fill="none" stroke="#B7B7B7" stroke-width="2.4955" stroke-miterlimit="10" width="294.4" height="8.6"/>
	
		<rect x="120.9" y="435.2" fill="none" stroke="#B7B7B7" stroke-width="2.4955" stroke-miterlimit="10" width="294.4" height="8.6"/>
	
		<rect x="120.9" y="467.6" fill="none" stroke="#B7B7B7" stroke-width="2.4955" stroke-miterlimit="10" width="294.4" height="8.6"/>
	
		<rect x="120.9" y="212.7" fill="none" stroke="#B7B7B7" stroke-width="2.4955" stroke-miterlimit="10" width="294.4" height="8.6"/>
	<rect x="120.9" y="245" fill="none" stroke="#B7B7B7" stroke-width="2.4955" stroke-miterlimit="10" width="294.4" height="8.6"/>
	
		<rect x="120.9" y="277.4" fill="none" stroke="#B7B7B7" stroke-width="2.4955" stroke-miterlimit="10" width="294.4" height="8.6"/>
	
		<path fill="none" stroke="#474B51" stroke-width="1.6637" stroke-linecap="round" stroke-linejoin="round" stroke-miterlimit="10" d="
		M126.4,616.8c20.7-3.5,105.7-12.6,120.9-26.8c6.1-6.1,11.6-16.7,5.1-22.3c-3.5-3-8.1-2.5-12.6-1.5c-29.3,5.6-55.1,29.3-62.2,58.7
		c37.4,2,74.9-14.2,99.1-42c-17.2,7.6-32.9,19.7-44.5,34.9c25.8-15.2,56.1-17.2,77.9-37.4c15.2-14.7,2.5-50.6,0-71.3
		c-22.3,42.5-8.6,94.6,1,141.6c1.5,7.6,5.6,16.7,13.7,16.2c-1.5-22.8-36.4-38.4-54.6-52.6c65.8,4,154.8-1.5,220.5-3"/>
	<g enable-background="new    ">
		<path fill="#124D9C" d="M82.2,138.4c-1.7,0-3.1,1-4.1,3.1c-1,2-1.5,4.9-1.5,8.5c0,7.6,2,11.4,5.9,11.4c1.7,0,3.5-0.6,5.4-1.7v5.4
			c-1.6,1.1-3.6,1.6-6.1,1.6c-3.7,0-6.5-1.5-8.5-4.4c-2-2.9-3-7.1-3-12.4c0-5.3,1-9.5,3.1-12.4s4.9-4.5,8.5-4.5
			c1.2,0,2.3,0.2,3.4,0.5c1.1,0.3,2.3,0.9,3.5,1.7l-2,4.9c-0.7-0.5-1.4-0.9-2.1-1.3C84,138.6,83.1,138.4,82.2,138.4z"/>
		<path fill="#124D9C" d="M92.6,166.3v-32.7h6.1V161h8.4v5.3H92.6z"/>
		<path fill="#124D9C" d="M112.1,166.3v-32.7h5.7v32.7H112.1z"/>
		<path fill="#124D9C" d="M136.4,166.3l-6.2-27.9H130c0.3,2.1,0.4,4.1,0.4,5.9v22h-5.6v-32.7h9.4l5.6,25.7h0.2l5.5-25.7h9.5v32.7
			h-5.8v-22.2c0-1.8,0.1-3.7,0.3-5.6h-0.2l-6.2,27.8H136.4z"/>
		<path fill="#124D9C" d="M176.2,166.3l-1.9-8.3h-8.5l-1.9,8.3h-6.1l8.1-32.8h8.3l8.1,32.8H176.2z M173.2,152.6l-1.7-7.6
			c-0.1-0.5-0.3-1.6-0.7-3.5c-0.4-1.9-0.6-3.1-0.7-3.7c-0.2,1.3-0.4,2.7-0.7,4.2c-0.3,1.5-1.1,5.1-2.3,10.6H173.2z"/>
		<path fill="#124D9C" d="M193.7,166.3h-6.1v-27.4h-6.3v-5.3h18.6v5.3h-6.3V166.3z"/>
		<path fill="#124D9C" d="M218.2,166.3h-14.7v-32.7h14.7v5.3h-8.7v7.8h8v5.3h-8v9.1h8.7V166.3z"/>
		<path fill="#124D9C" d="M255.1,149.6c0,5.4-1.1,9.5-3.3,12.4c-2.2,2.9-5.4,4.3-9.5,4.3h-8v-32.7h8.7c3.8,0,6.8,1.4,8.9,4.2
			S255.1,144.6,255.1,149.6z M248.8,149.8c0-7.3-2-11-6-11h-2.4V161h2c2.2,0,3.9-0.9,4.9-2.8C248.3,156.3,248.8,153.5,248.8,149.8z"
			/>
		<path fill="#124D9C" d="M274.6,166.3h-14.7v-32.7h14.7v5.3h-8.7v7.8h8v5.3h-8v9.1h8.7V166.3z"/>
		<path fill="#124D9C" d="M290.2,138.4c-1.7,0-3.1,1-4.1,3.1c-1,2-1.5,4.9-1.5,8.5c0,7.6,2,11.4,5.9,11.4c1.7,0,3.5-0.6,5.4-1.7v5.4
			c-1.6,1.1-3.6,1.6-6.1,1.6c-3.7,0-6.5-1.5-8.5-4.4c-2-2.9-3-7.1-3-12.4c0-5.3,1-9.5,3.1-12.4s4.9-4.5,8.5-4.5
			c1.2,0,2.3,0.2,3.4,0.5c1.1,0.3,2.3,0.9,3.5,1.7l-2,4.9c-0.7-0.5-1.4-0.9-2.1-1.3C291.9,138.6,291.1,138.4,290.2,138.4z"/>
		<path fill="#124D9C" d="M300.6,166.3v-32.7h6.1V161h8.4v5.3H300.6z"/>
		<path fill="#124D9C" d="M334.5,166.3l-1.9-8.3h-8.5l-1.9,8.3h-6.1l8.1-32.8h8.3l8.1,32.8H334.5z M331.4,152.6l-1.7-7.6
			c-0.1-0.5-0.3-1.6-0.7-3.5c-0.4-1.9-0.6-3.1-0.7-3.7c-0.2,1.3-0.4,2.7-0.7,4.2c-0.3,1.5-1.1,5.1-2.3,10.6H331.4z"/>
		<path fill="#124D9C" d="M349.5,153.6v12.7h-6.1v-32.7h8c3.4,0,5.9,0.8,7.5,2.4s2.4,4,2.4,7.3c0,4.1-1.4,7-4.2,8.7l6.3,14.3h-6.5
			l-5.2-12.7H349.5z M349.5,148.3h1.6c1.4,0,2.5-0.4,3.1-1.2c0.6-0.8,0.9-2,0.9-3.6c0-1.7-0.3-2.9-1-3.6s-1.7-1.1-3.1-1.1h-1.5
			V148.3z"/>
		<path fill="#124D9C" d="M381.9,166.3L380,158h-8.5l-1.9,8.3h-6.1l8.1-32.8h8.3l8.1,32.8H381.9z M378.8,152.6l-1.7-7.6
			c-0.1-0.5-0.3-1.6-0.7-3.5c-0.4-1.9-0.6-3.1-0.7-3.7c-0.2,1.3-0.4,2.7-0.7,4.2c-0.3,1.5-1.1,5.1-2.3,10.6H378.8z"/>
		<path fill="#124D9C" d="M399.3,166.3h-6.1v-27.4H387v-5.3h18.6v5.3h-6.3V166.3z"/>
		<path fill="#124D9C" d="M410.2,166.3v-32.7h5.7v32.7H410.2z"/>
		<path fill="#124D9C" d="M445.3,149.9c0,5.4-1,9.6-3,12.5s-4.9,4.4-8.7,4.4c-3.8,0-6.7-1.5-8.7-4.4c-2-2.9-3-7.1-3-12.5
			c0-5.4,1-9.6,3-12.5c2-2.9,5-4.3,8.8-4.3c3.8,0,6.7,1.5,8.7,4.4S445.3,144.5,445.3,149.9z M428,149.9c0,3.7,0.5,6.6,1.4,8.5
			c0.9,2,2.3,2.9,4.1,2.9c3.7,0,5.5-3.8,5.5-11.5c0-7.6-1.8-11.5-5.5-11.5c-1.8,0-3.2,1-4.2,2.9C428.5,143.3,428,146.1,428,149.9z"
			/>
		<path fill="#124D9C" d="M473,166.3h-7.4l-10.1-23.7h-0.3c0.4,1.8,0.6,3.7,0.6,5.8v17.9h-5.6v-32.7h7.5l10,23.5h0.2
			c-0.3-1.6-0.4-3.4-0.4-5.6v-17.9h5.6V166.3z"/>
	</g>
	<polyline fill="none" stroke="#B7B7B7" stroke-width="2.4955" stroke-miterlimit="10" points="25.8,635 120.9,642.6 109.2,724.5 	
		"/>
	<g>
		<polygon fill="#F1B51C" points="369.2,548 335.3,581.9 382.9,575.3 		"/>
		<polygon fill="#F1B51C" points="389.5,572.3 568,483.8 553.8,455.9 553.8,455.9 548.3,444.8 477.5,485.3 481,492.4 375.8,544.4 		
			"/>
		
			<rect x="561.7" y="451.1" transform="matrix(0.4449 0.8956 -0.8956 0.4449 733.8475 -260.5875)" fill="#F1B51C" width="30.9" height="21.2"/>
	</g>
</g>
</svg>
