<?xml version="1.0" encoding="utf-8"?>
<!-- Generator: Adobe Illustrator 18.1.1, SVG Export Plug-In . SVG Version: 6.00 Build 0)  -->
<svg version="1.1" id="Layer_1" xmlns="http://www.w3.org/2000/svg" xmlns:xlink="http://www.w3.org/1999/xlink" x="0px" y="0px"
	 viewBox="0 0 131.5 160.5" enable-background="new 0 0 131.5 160.5" xml:space="preserve">
<g>
	<g>
		<g>
			<path fill="#2691CF" d="M115.9,64.9l11.7-9.8l-14.2-5.7l8.1-12.9l-15.2-1l3.7-14.8l-14.8,3.7l-1-15.2l-12.9,8.1L75.7,3.3L65.9,15
				L56.2,3.3l-5.7,14.2L37.6,9.3l-1,15.2l-14.8-3.7l3.7,14.8l-15.2,1l8.1,12.9L4.3,55.2L16,64.9L4.3,74.7l14.2,5.7l-8.1,12.9l15.2,1
				l-3.7,14.8l14.8-3.7l1,15.2l12.9-8.1l5.7,14.2l9.8-11.7l9.8,11.7l5.7-14.2l12.9,8.1l1-15.2l14.8,3.7l-3.7-14.8l15.2-1l-8.1-12.9
				l14.2-5.7L115.9,64.9z M65.9,107.1c-23.3,0-42.2-18.9-42.2-42.2s18.9-42.2,42.2-42.2s42.2,18.9,42.2,42.2S89.2,107.1,65.9,107.1z
				"/>
			<g>
				<polygon fill="#2691CF" points="49.9,114.2 36.5,122.7 35.5,106.9 34.5,107.1 15.3,145.5 30.1,144.7 38.2,157 54.2,125 				"/>
				<polygon fill="#2691CF" points="96.4,106.9 95.3,122.7 81.9,114.2 77.6,125 93.6,157 101.8,144.7 116.6,145.5 97.3,107.1 				
					"/>
			</g>
			<path fill="#2691CF" d="M65.9,102.9C45,102.9,28,85.9,28,64.9S45,27,65.9,27s37.9,17,37.9,37.9S86.8,102.9,65.9,102.9z"/>
		</g>
	</g>
	<g>
		<path id="_24502000_2_" fill="#FFFFFF" d="M36.8,67.4c-0.1,0.3-0.3,0.6-0.3,0.8c-2.8,0.8-4.7,0.1-4.8,0c-0.3-0.1-0.6,0-0.7,0.3
			c-0.1,0.3,0,0.6,0.3,0.7c0.1,0.1,2.1,0.9,5,0.2c0,0,0,0.1,0,0.1c0,0.8,0.3,1.4,0.8,1.7c1.3,0.8,4,0.1,8.1-4
			c-0.3,0.7-0.5,1.6-0.6,2.4c0,0,0,0.1,0,0.1c0,0.2,0.1,0.4,0.4,0.5c0.4,0.2,0.7-0.2,0.9-0.5l0.6-0.8c0.5-0.7,1.6-2.4,2.3-3.2
			c-0.1,0.5-0.2,1-0.2,1.5c0,0.7,0.2,1.3,0.7,1.6c0.5,0.3,1.2,0.4,2.8-0.6c0.1,0.4,0.4,0.5,0.6,0.6c1,0.5,3-0.6,5-2.5
			c-0.3,0.6-0.5,1.1-0.5,1.3c0,0.1,0,0.1,0,0.2c0,0.3,0.2,0.4,0.3,0.5c0.4,0.2,0.7-0.2,0.9-0.5l0.6-0.9c0.5-0.7,1.7-2.5,2.4-3.2
			c0.2,0.5,0.6,1.1,1.2,1.5c-0.2,0.4-0.3,0.8-0.3,1.1c0,0.4,0.1,0.7,0.4,0.9c0.5,0.4,1.3,0.2,2.1-0.3c-2.6,2.6-3.8,5.2-3.9,6.3
			c0,0,0,0,0,0.1c0,0.6,0.3,0.9,0.5,1c0.4,0.2,0.9,0.1,1.4-0.4c2-1.6,3.4-5.3,4.1-7.6c1-0.8,2.1-1.6,3.5-2.3c-0.4,0.8-0.7,1.5-0.7,2
			c0,0.2,0,0.4,0.1,0.6c0.2,0.4,0.5,0.7,0.9,0.7c0.9,0.1,2.2-0.9,3.6-2.7c-0.1,0.4-0.3,0.7-0.4,1.1c-4.1,3.2-6,6.7-6.2,8.6
			c0,0.2,0,0.3,0,0.4c0,0.7,0.3,1.1,0.6,1.3c0.3,0.2,0.8,0.3,1.6-0.3c0.9-0.7,2.9-3.9,5-9.3c2.7-2.1,6.3-4,11.2-5.4
			c0.2-0.1,0.4-0.3,0.4-0.5c0,0,0-0.1,0-0.1c-0.1-0.3-0.4-0.5-0.7-0.4c-4.3,1.2-7.6,2.8-10.3,4.6c0.3-0.9,0.6-1.9,0.9-3
			c0-0.1,0-0.1,0-0.2c0-0.2-0.1-0.4-0.3-0.5c-0.3-0.1-0.5,0-0.7,0.2c-2.7,4.3-4.3,5.1-4.6,5.1c0,0,0-0.1,0-0.2
			c0-0.5,0.4-1.7,1.8-3.2c0.1-0.1,0.2-0.2,0.2-0.4c0-0.1,0-0.2-0.1-0.3c-0.2-0.2-0.4-0.3-0.7-0.2c-1.7,0.7-3.2,1.6-4.5,2.5
			c0-0.1,0-0.1,0-0.1c0,0,0-0.1,0-0.1c0-0.2-0.1-0.4-0.3-0.5c0,0,0,0,0,0c0.4-0.3,0.8-0.6,1.2-1c0.4-0.4,0.5-0.8,0.5-1
			c0-0.1,0-0.2,0-0.3c-0.1-0.4-0.5-0.6-1-0.7c-1.2-0.1-3.1,0.9-4.9,3.4c-0.6-0.3-0.8-1.1-0.9-1.4l0-0.1c-0.1-0.2-0.3-0.4-0.5-0.4
			c-0.4,0-0.8,0.3-1.4,1c0,0,0,0,0-0.1c0-0.1,0.1-0.2,0.1-0.2c0-0.2-0.1-0.4-0.3-0.5c-0.2-0.1-0.6-0.1-0.7,0.1
			c-3.1,4.1-5.8,5.3-6.2,5.1c0,0,0,0,0-0.1c0,0,0-0.1,0-0.2c0.7-0.5,1.5-1.1,2.5-2c0.9-0.8,1.1-1.4,1.1-1.8c0-0.2,0-0.3-0.1-0.4
			c-0.2-0.4-0.6-0.7-1.2-0.6c-1.1,0.1-2.6,1.4-3.3,4.1c-1.8,1.2-2.3,1-2.3,1c-0.2-0.1-0.2-0.9,0.1-2.3c0.1-0.6,0.2-0.9,0-1.1
			c-0.1-0.2-0.4-0.4-0.6-0.4c-0.6,0-1.2,0.6-2.6,2.5c0.5-1.3,1.1-2.2,1.1-2.2c0.1-0.1,0.1-0.2,0.1-0.3c0-0.2-0.1-0.3-0.2-0.5
			c-0.2-0.2-0.6-0.1-0.7,0.1c-4.8,5.9-8.1,7.1-9.1,6.5c-0.2-0.1-0.3-0.4-0.3-0.7c0-0.1,0-0.3,0.1-0.5c1.8-0.6,3.9-1.9,6.1-4.2
			c1.3-1.3,2-2.6,2-3.6c0-0.2,0-0.4-0.1-0.6c-0.2-0.5-0.6-0.8-1.2-0.8C42.4,59.8,39.5,62.1,36.8,67.4L36.8,67.4z M44.1,61
			c0.2,0,0.2,0.1,0.3,0.1c0,0,0,0.1,0,0.2c0,0.5-0.4,1.5-1.7,2.8c-1.7,1.8-3.3,2.9-4.8,3.5C40.4,62.7,43,61,44.1,61L44.1,61z
			 M55,63.9c0.2-0.1,0.3-0.1,0.4-0.1c0,0.1-0.2,0.4-0.7,0.9c-0.4,0.3-0.8,0.7-1.1,0.9C54.1,64.5,54.7,64,55,63.9L55,63.9z M67.2,62
			c0.2,0,0.3,0,0.4,0c0,0-0.1,0.1-0.1,0.1c-1.3,1.2-2.4,1.9-3.3,2.2C65.6,62.5,66.8,62.1,67.2,62L67.2,62z M65.5,65
			c-1.1,0.9-2,1.4-2.4,1.4c0-0.1,0.1-0.3,0.3-0.8C64,65.6,64.8,65.4,65.5,65L65.5,65z M65.1,68c-0.7,1.9-1.8,4.1-3.1,5.1
			c-0.1,0.1-0.1,0.1-0.2,0.1C61.9,72.4,62.9,70.3,65.1,68L65.1,68z M68.7,74.8c0-0.3,0.1-0.7,0.3-1.2c0.5-1.4,1.8-3.5,4-5.6
			c-1.7,4.1-3.3,6.5-3.9,6.9c-0.2,0.1-0.3,0.2-0.4,0.2C68.8,75.1,68.7,75,68.7,74.8L68.7,74.8z"/>
		<path id="_24501840_2_" fill="#FFFFFF" d="M84.5,48.7c-0.3,0-0.6,0.2-0.8,0.5c0,0-3,7.8-3.4,8.7c-0.9,0.1-9.2,0.5-9.2,0.5
			c-0.4,0-0.8,0.4-0.8,0.8c0,0,0,0,0,0c0,0.5,0.4,0.8,0.9,0.8l9.8-0.5c0.3,0,0.6-0.2,0.7-0.5c0,0,1.8-4.7,2.8-7.2
			c0.9,2.4,2.8,7.1,2.8,7.1c0.1,0.3,0.4,0.5,0.7,0.5c0,0,5,0.3,7.6,0.4c-2,1.6-5.9,4.9-5.9,4.9c-0.2,0.2-0.3,0.4-0.3,0.6
			c0,0.1,0,0.1,0,0.2c0,0,1.3,4.9,1.9,7.4c-2.2-1.4-6.4-4.1-6.4-4.1c-0.3-0.2-0.6-0.2-0.9,0c0,0-4.3,2.7-6.5,4.1
			c0.7-2.4,1.9-6.8,1.9-6.8c0-0.1,0-0.1,0-0.2c0-0.4-0.2-0.7-0.6-0.8c-0.4-0.1-0.9,0.1-1,0.6l-2.5,8.9c-0.1,0.3,0,0.7,0.3,0.9
			c0.3,0.2,0.6,0.2,0.9,0c0,0,7-4.5,7.8-5c0.8,0.5,7.7,5,7.7,5c0.3,0.2,0.7,0.2,0.9,0c0.2-0.2,0.3-0.4,0.3-0.7c0-0.1,0-0.1,0-0.2
			c0,0-2.1-8-2.3-8.9c0.7-0.6,7.1-5.9,7.1-5.9c0.2-0.2,0.3-0.4,0.3-0.6c0-0.1,0-0.2,0-0.3c-0.1-0.3-0.4-0.5-0.7-0.6
			c0,0-8.2-0.5-9.2-0.5c-0.3-0.9-3.4-8.6-3.4-8.6C85.2,48.9,84.9,48.7,84.5,48.7L84.5,48.7z"/>
	</g>
</g>
</svg>
