<?xml version="1.0" encoding="utf-8"?>
<!-- Generator: Adobe Illustrator 18.1.1, SVG Export Plug-In . SVG Version: 6.00 Build 0)  -->
<svg version="1.1" id="Layer_1" xmlns="http://www.w3.org/2000/svg" xmlns:xlink="http://www.w3.org/1999/xlink" x="0px" y="0px"
	 viewBox="0 0 172 168" enable-background="new 0 0 172 168" xml:space="preserve">
<g>
	<radialGradient id="SVGID_1_" cx="96.4424" cy="69.8251" r="51.7103" gradientUnits="userSpaceOnUse">
		<stop  offset="0" style="stop-color:#FFFFFF"/>
		<stop  offset="1" style="stop-color:#1E417D"/>
	</radialGradient>
	<path fill-rule="evenodd" clip-rule="evenodd" fill="url(#SVGID_1_)" d="M155.4,118.5c5-10.4,7.9-22.3,7.9-34.6
		c0-43.9-35.7-79.6-79.6-79.6C39.8,4.4,4.2,40,4.2,83.9c0,43.9,35.7,79.6,79.6,79.6c30.6,0,57.1-17.3,70.4-42.5L155.4,118.5
		L155.4,118.5z"/>
	<path fill-rule="evenodd" clip-rule="evenodd" fill="#0A497E" d="M122.8,58.4c0-2.7,2.2-4.9,4.9-4.9s4.9,2.2,4.9,4.9
		s-2.2,4.9-4.9,4.9S122.8,61.1,122.8,58.4L122.8,58.4z"/>
	<path fill-rule="evenodd" clip-rule="evenodd" fill="#FFFFFF" d="M155.4,118.5H150V99.8c0-10.1,1.1-19.4-12.4-19.4
		c-7.2,0-11.7,3.4-14.9,9.7h-0.4v-9.5c-6.1,0.2-12.4,0.5-17.5,0.4v2.5h6.8v35.1h-6.8v2.5h23.9v-2.5h-6.5V105c0-4.7,0-9.4,1.4-12.6
		c1.4-3.8,5.4-8.5,9.7-8.5c6.8,0,5.8,6.8,5.8,16.2v18.4h-6.3v2.5h21.2L155.4,118.5L155.4,118.5z"/>
	<polygon fill-rule="evenodd" clip-rule="evenodd" fill="#FFFFFF" points="128.3,38.4 132.8,52.1 147.2,52.1 135.5,60.7 140,74.4 
		128.3,65.9 116.5,74.4 121,60.7 109.3,52.1 123.7,52.1 128.3,38.4 	"/>
	<path fill-rule="evenodd" clip-rule="evenodd" fill="#FFFFFF" d="M59.1,38.2c-23.9,0-42.9,19.4-42.9,43.2
		c0,23.9,18.9,43.2,42.9,43.2c23.8,0,42.7-19.3,42.7-43.2C101.8,57.7,82.9,38.2,59.1,38.2L59.1,38.2z M59.1,121.6
		c-15.7,0-28.3-17.6-28.3-40.2c0-22.3,12.6-40,28.3-40c15.7,0,28.3,17.6,28.3,40C87.4,103.9,74.8,121.6,59.1,121.6L59.1,121.6z"/>
	<path fill-rule="evenodd" clip-rule="evenodd" fill="#0A497E" d="M159,130c0-2.5,2-4.5,4.3-4.5c2.3,0,4.3,2,4.3,4.5
		c0,2.5-2,4.3-4.3,4.3C161,134.4,159,132.6,159,130L159,130z M163.4,135.3c2.9,0,5.4-2.2,5.4-5.2c0-3.1-2.5-5.4-5.4-5.4
		c-2.9,0-5.4,2.3-5.4,5.4C158,133.1,160.5,135.3,163.4,135.3L163.4,135.3z M162.3,130.4h1.1l1.6,2.7h0.9l-1.6-2.7
		c0.9-0.2,1.4-0.5,1.4-1.6c0-1.3-0.5-1.8-2-1.8h-2.3v6.1h0.9V130.4L162.3,130.4z M162.3,129.7v-2h1.3c0.5,0,1.3,0.2,1.3,0.9
		c0,0.9-0.7,1.1-1.4,1.1H162.3L162.3,129.7z"/>
</g>
</svg>
