<?xml version="1.0" encoding="utf-8"?>
<!-- Generator: Adobe Illustrator 18.1.1, SVG Export Plug-In . SVG Version: 6.00 Build 0)  -->
<svg version="1.1" id="truck_circle" xmlns="http://www.w3.org/2000/svg" xmlns:xlink="http://www.w3.org/1999/xlink" x="0px"
	 y="0px" viewBox="0 0 229.2 232" enable-background="new 0 0 229.2 232" xml:space="preserve">
<g id="shadow">
	
		<image overflow="visible" width="955" height="370" xlink:href="1D00701A635542C0.png"  transform="matrix(0.24 0 0 0.24 0 135.1333)">
	</image>
</g>
<g id="circle">
	<g>
		<g>
			<g>
				<path fill="none" stroke="#686868" stroke-width="0.5812" stroke-miterlimit="10" d="M130.2,8.4c0.1,0,0.2,0,0.3,0"/>
				<path fill="none" stroke="#686868" stroke-width="0.5812" stroke-miterlimit="10" stroke-dasharray="0.5802,1.1604" d="
					M131.6,8.6C184,16.8,224,62.1,224,116.8c0,50.9-34.7,93.6-81.7,106"/>
				<path fill="none" stroke="#686868" stroke-width="0.5812" stroke-miterlimit="10" d="M141.8,222.9c-0.1,0-0.2,0-0.3,0.1"/>
			</g>
		</g>
		<polygon fill="#B3B8BC" points="136,224.3 143.4,226.2 141.9,219.6 		"/>
	</g>
	<g>
		<g>
			<g>
				<path fill="none" stroke="#686868" stroke-width="0.5812" stroke-miterlimit="10" d="M114.5,226.4c-0.1,0-0.2,0-0.3,0"/>
				<path fill="none" stroke="#686868" stroke-width="0.5812" stroke-miterlimit="10" stroke-dasharray="0.581,1.162" d="M113,226.3
					C53.2,225.6,5,176.8,5,116.8c0-54,39.1-98.9,90.6-107.9"/>
				<path fill="none" stroke="#686868" stroke-width="0.5812" stroke-miterlimit="10" d="M96.1,8.8c0.1,0,0.2,0,0.3,0"/>
			</g>
		</g>
		<polygon fill="#B3B8BC" points="101.8,7.2 94.3,5.5 96,12 		"/>
	</g>
</g>
<image overflow="visible" width="3839" height="3294" id="truck" xlink:href="1D00701A635542C7.png"  transform="matrix(4.016351e-02 0 0 4.016351e-02 38.994 45.552)">
</image>
</svg>
