<?xml version="1.0" encoding="utf-8"?>
<!-- Generator: Adobe Illustrator 18.1.1, SVG Export Plug-In . SVG Version: 6.00 Build 0)  -->
<svg version="1.1" id="Layer_1" xmlns="http://www.w3.org/2000/svg" xmlns:xlink="http://www.w3.org/1999/xlink" x="0px" y="0px"
	 viewBox="0 0 112.6 100.8" enable-background="new 0 0 112.6 100.8" xml:space="preserve">
<g>
	<polygon fill-rule="evenodd" clip-rule="evenodd" fill="#F1B51C" points="89.1,20.7 63.6,42.9 76.9,45.1 59.3,67.1 65.2,62.5 
		90.3,40.1 78,37.7 	"/>
</g>
<path fill="#B3B8BC" d="M8.3,47.2H3.3v23.3c0,6.7,5.5,12.2,12.2,12.2h4c6.7,0,12.2-5.5,12.2-12.2V37.4c0-3.5,2.5-6.4,5.8-7v2.1H40
	v43.4c0,5.8,3.5,10.7,8.5,12.9h-8.3v10.9H111V88.8h-8.3c5-2.1,8.5-7.1,8.5-12.9V15.1c0-7.7-6.3-14-14-14H54c-7.7,0-14,6.3-14,14V23
	h-2.5v2.3c-6.1,0.7-10.9,5.9-10.9,12.2v33.1c0,3.9-3.2,7.1-7.1,7.1h-4c-3.9,0-7.1-3.2-7.1-7.1V47.2z M47.2,15.1
	c0-3.8,3.1-6.8,6.8-6.8h43.3c3.8,0,6.8,3.1,6.8,6.8v60.8c0,3.8-3.1,6.8-6.8,6.8H54c-3.8,0-6.8-3.1-6.8-6.8V15.1z M1,22.5v21.5h9.2
	v-2.1h5.4c3.5,0,6.4-2.9,6.4-6.4v-13c0-2.5-1.5-4.7-3.6-5.7l1.7-1.9l-1.5-1.3l4-4.4l7.3-2.8l-1.8-4.8L19.7,5l-4.8,5.3l-1.6-1.4
	L1,22.5z M10.2,28.1h6.7v7.4c0,0.7-0.6,1.3-1.3,1.3h-5.4V28.1z"/>
</svg>
