<?xml version="1.0" encoding="utf-8"?>
<!-- Generator: Adobe Illustrator 18.1.1, SVG Export Plug-In . SVG Version: 6.00 Build 0)  -->
<svg version="1.1" id="gas_1_" xmlns="http://www.w3.org/2000/svg" xmlns:xlink="http://www.w3.org/1999/xlink" x="0px" y="0px"
	 viewBox="0 0 114.1 102.6" enable-background="new 0 0 114.1 102.6" xml:space="preserve">
<g id="bolt">
	<polygon fill-rule="evenodd" clip-rule="evenodd" fill="#F1B51C" points="89.8,21.7 64.4,44 77.7,46.1 60.1,68.1 66,63.5 91,41.1 
		78.7,38.7 	"/>
</g>
<path id="gas" fill="#B3B8BC" d="M9.1,48.2H4v23.3c0,6.7,5.5,12.2,12.2,12.2h4c6.7,0,12.2-5.5,12.2-12.2V38.4c0-3.5,2.5-6.4,5.8-7
	v2.1h2.5v43.4c0,5.8,3.5,10.7,8.5,12.9H41v10.9h70.8V89.8h-8.3c5-2.1,8.5-7.1,8.5-12.9V16.1c0-7.7-6.3-14-14-14H54.8
	c-7.7,0-14,6.3-14,14V24h-2.5v2.3c-6.1,0.7-10.9,5.9-10.9,12.2v33.1c0,3.9-3.2,7.1-7.1,7.1h-4c-3.9,0-7.1-3.2-7.1-7.1V48.2z
	 M47.9,16.1c0-3.8,3.1-6.8,6.8-6.8h43.3c3.8,0,6.8,3.1,6.8,6.8v60.8c0,3.8-3.1,6.8-6.8,6.8H54.8c-3.8,0-6.8-3.1-6.8-6.8V16.1z
	 M1.8,23.5v21.5H11v-2.1h5.4c3.5,0,6.4-2.9,6.4-6.4v-13c0-2.5-1.5-4.7-3.6-5.7l1.7-1.9l-1.5-1.3l4-4.4l7.3-2.8l-1.8-4.8L20.5,6
	l-4.8,5.3l-1.6-1.4L1.8,23.5z M11,29.1h6.7v7.4c0,0.7-0.6,1.3-1.3,1.3H11V29.1z"/>
</svg>
