<?xml version="1.0" encoding="utf-8"?>
<!-- Generator: Adobe Illustrator 18.1.1, SVG Export Plug-In . SVG Version: 6.00 Build 0)  -->
<svg version="1.1" id="Layer_1" xmlns="http://www.w3.org/2000/svg" xmlns:xlink="http://www.w3.org/1999/xlink" x="0px" y="0px"
	 viewBox="0 0 618.7 44.2" enable-background="new 0 0 618.7 44.2" xml:space="preserve">
<g>
	<rect x="309.3" y="0" fill="#414042" width="22.1" height="22.1"/>
	<rect x="309.3" y="22.1" fill="#FFF200" width="22.1" height="22.1"/>
	<rect x="331.4" y="0" fill="#FFF200" width="22.1" height="22.1"/>
	<rect x="331.4" y="22.1" fill="#414042" width="22.1" height="22.1"/>
	<rect x="353.5" y="0" fill="#414042" width="22.1" height="22.1"/>
	<rect x="353.5" y="22.1" fill="#FFF200" width="22.1" height="22.1"/>
	<rect x="375.6" y="0" fill="#FFF200" width="22.1" height="22.1"/>
	<rect x="375.6" y="22.1" fill="#414042" width="22.1" height="22.1"/>
	<rect x="397.7" y="0" fill="#414042" width="22.1" height="22.1"/>
	<rect x="397.7" y="22.1" fill="#FFF200" width="22.1" height="22.1"/>
	<rect x="419.8" y="0" fill="#FFF200" width="22.1" height="22.1"/>
	<rect x="419.8" y="22.1" fill="#414042" width="22.1" height="22.1"/>
	<rect x="441.9" y="0" fill="#414042" width="22.1" height="22.1"/>
	<rect x="441.9" y="22.1" fill="#FFF200" width="22.1" height="22.1"/>
	<rect x="464" y="0" fill="#FFF200" width="22.1" height="22.1"/>
	<rect x="464" y="22.1" fill="#414042" width="22.1" height="22.1"/>
	<rect x="486.1" y="0" fill="#414042" width="22.1" height="22.1"/>
	<rect x="486.1" y="22.1" fill="#FFF200" width="22.1" height="22.1"/>
	<rect x="508.2" y="0" fill="#FFF200" width="22.1" height="22.1"/>
	<rect x="508.2" y="22.1" fill="#414042" width="22.1" height="22.1"/>
	<rect x="530.3" y="0" fill="#414042" width="22.1" height="22.1"/>
	<rect x="530.3" y="22.1" fill="#FFF200" width="22.1" height="22.1"/>
	<rect x="552.4" y="0" fill="#FFF200" width="22.1" height="22.1"/>
	<rect x="552.4" y="22.1" fill="#414042" width="22.1" height="22.1"/>
	<rect x="574.5" y="0" fill="#414042" width="22.1" height="22.1"/>
	<rect x="574.5" y="22.1" fill="#FFF200" width="22.1" height="22.1"/>
	<rect x="596.6" y="0" fill="#FFF200" width="22.1" height="22.1"/>
	<rect x="596.6" y="22.1" fill="#414042" width="22.1" height="22.1"/>
	<rect x="0" y="0" fill="#414042" width="22.1" height="22.1"/>
	<rect x="0" y="22.1" fill="#FFF200" width="22.1" height="22.1"/>
	<rect x="22.1" y="0" fill="#FFF200" width="22.1" height="22.1"/>
	<rect x="22.1" y="22.1" fill="#414042" width="22.1" height="22.1"/>
	<rect x="44.2" y="0" fill="#414042" width="22.1" height="22.1"/>
	<rect x="44.2" y="22.1" fill="#FFF200" width="22.1" height="22.1"/>
	<rect x="66.3" y="0" fill="#FFF200" width="22.1" height="22.1"/>
	<rect x="66.3" y="22.1" fill="#414042" width="22.1" height="22.1"/>
	<rect x="88.4" y="0" fill="#414042" width="22.1" height="22.1"/>
	<rect x="88.4" y="22.1" fill="#FFF200" width="22.1" height="22.1"/>
	<rect x="110.5" y="0" fill="#FFF200" width="22.1" height="22.1"/>
	<rect x="110.5" y="22.1" fill="#414042" width="22.1" height="22.1"/>
	<rect x="132.6" y="0" fill="#414042" width="22.1" height="22.1"/>
	<rect x="132.6" y="22.1" fill="#FFF200" width="22.1" height="22.1"/>
	<rect x="154.7" y="0" fill="#FFF200" width="22.1" height="22.1"/>
	<rect x="154.7" y="22.1" fill="#414042" width="22.1" height="22.1"/>
	<rect x="176.8" y="0" fill="#414042" width="22.1" height="22.1"/>
	<rect x="176.8" y="22.1" fill="#FFF200" width="22.1" height="22.1"/>
	<rect x="198.9" y="0" fill="#FFF200" width="22.1" height="22.1"/>
	<rect x="198.9" y="22.1" fill="#414042" width="22.1" height="22.1"/>
	<rect x="221" y="0" fill="#414042" width="22.1" height="22.1"/>
	<rect x="221" y="22.1" fill="#FFF200" width="22.1" height="22.1"/>
	<rect x="243.1" y="0" fill="#FFF200" width="22.1" height="22.1"/>
	<rect x="243.1" y="22.1" fill="#414042" width="22.1" height="22.1"/>
	<rect x="265.2" y="0" fill="#414042" width="22.1" height="22.1"/>
	<rect x="265.2" y="22.1" fill="#FFF200" width="22.1" height="22.1"/>
	<rect x="287.3" y="0" fill="#FFF200" width="22.1" height="22.1"/>
	<rect x="287.3" y="22.1" fill="#414042" width="22.1" height="22.1"/>
</g>
<g>
	<rect x="309.3" y="0" fill="#414042" width="22.1" height="22.1"/>
	<rect x="309.3" y="22.1" fill="#FFF200" width="22.1" height="22.1"/>
	<rect x="331.4" y="0" fill="#FFF200" width="22.1" height="22.1"/>
	<rect x="331.4" y="22.1" fill="#414042" width="22.1" height="22.1"/>
	<rect x="353.5" y="0" fill="#414042" width="22.1" height="22.1"/>
	<rect x="353.5" y="22.1" fill="#FFF200" width="22.1" height="22.1"/>
	<rect x="375.6" y="0" fill="#FFF200" width="22.1" height="22.1"/>
	<rect x="375.6" y="22.1" fill="#414042" width="22.1" height="22.1"/>
	<rect x="397.7" y="0" fill="#414042" width="22.1" height="22.1"/>
	<rect x="397.7" y="22.1" fill="#FFF200" width="22.1" height="22.1"/>
	<rect x="419.8" y="0" fill="#FFF200" width="22.1" height="22.1"/>
	<rect x="419.8" y="22.1" fill="#414042" width="22.1" height="22.1"/>
	<rect x="441.9" y="0" fill="#414042" width="22.1" height="22.1"/>
	<rect x="441.9" y="22.1" fill="#FFF200" width="22.1" height="22.1"/>
	<rect x="464" y="0" fill="#FFF200" width="22.1" height="22.1"/>
	<rect x="464" y="22.1" fill="#414042" width="22.1" height="22.1"/>
	<rect x="486.1" y="0" fill="#414042" width="22.1" height="22.1"/>
	<rect x="486.1" y="22.1" fill="#FFF200" width="22.1" height="22.1"/>
	<rect x="508.2" y="0" fill="#FFF200" width="22.1" height="22.1"/>
	<rect x="508.2" y="22.1" fill="#414042" width="22.1" height="22.1"/>
	<rect x="530.3" y="0" fill="#414042" width="22.1" height="22.1"/>
	<rect x="530.3" y="22.1" fill="#FFF200" width="22.1" height="22.1"/>
	<rect x="552.4" y="0" fill="#FFF200" width="22.1" height="22.1"/>
	<rect x="552.4" y="22.1" fill="#414042" width="22.1" height="22.1"/>
	<rect x="574.5" y="0" fill="#414042" width="22.1" height="22.1"/>
	<rect x="574.5" y="22.1" fill="#FFF200" width="22.1" height="22.1"/>
	<rect x="596.6" y="0" fill="#FFF200" width="22.1" height="22.1"/>
	<rect x="596.6" y="22.1" fill="#414042" width="22.1" height="22.1"/>
	<rect x="0" y="0" fill="#414042" width="22.1" height="22.1"/>
	<rect x="0" y="22.1" fill="#FFF200" width="22.1" height="22.1"/>
	<rect x="22.1" y="0" fill="#FFF200" width="22.1" height="22.1"/>
	<rect x="22.1" y="22.1" fill="#414042" width="22.1" height="22.1"/>
	<rect x="44.2" y="0" fill="#414042" width="22.1" height="22.1"/>
	<rect x="44.2" y="22.1" fill="#FFF200" width="22.1" height="22.1"/>
	<rect x="66.3" y="0" fill="#FFF200" width="22.1" height="22.1"/>
	<rect x="66.3" y="22.1" fill="#414042" width="22.1" height="22.1"/>
	<rect x="88.4" y="0" fill="#414042" width="22.1" height="22.1"/>
	<rect x="88.4" y="22.1" fill="#FFF200" width="22.1" height="22.1"/>
	<rect x="110.5" y="0" fill="#FFF200" width="22.1" height="22.1"/>
	<rect x="110.5" y="22.1" fill="#414042" width="22.1" height="22.1"/>
	<rect x="132.6" y="0" fill="#414042" width="22.1" height="22.1"/>
	<rect x="132.6" y="22.1" fill="#FFF200" width="22.1" height="22.1"/>
	<rect x="154.7" y="0" fill="#FFF200" width="22.1" height="22.1"/>
	<rect x="154.7" y="22.1" fill="#414042" width="22.1" height="22.1"/>
	<rect x="176.8" y="0" fill="#414042" width="22.1" height="22.1"/>
	<rect x="176.8" y="22.1" fill="#FFF200" width="22.1" height="22.1"/>
	<rect x="198.9" y="0" fill="#FFF200" width="22.1" height="22.1"/>
	<rect x="198.9" y="22.1" fill="#414042" width="22.1" height="22.1"/>
	<rect x="221" y="0" fill="#414042" width="22.1" height="22.1"/>
	<rect x="221" y="22.1" fill="#FFF200" width="22.1" height="22.1"/>
	<rect x="243.1" y="0" fill="#FFF200" width="22.1" height="22.1"/>
	<rect x="243.1" y="22.1" fill="#414042" width="22.1" height="22.1"/>
	<rect x="265.2" y="0" fill="#414042" width="22.1" height="22.1"/>
	<rect x="265.2" y="22.1" fill="#FFF200" width="22.1" height="22.1"/>
	<rect x="287.3" y="0" fill="#FFF200" width="22.1" height="22.1"/>
	<rect x="287.3" y="22.1" fill="#414042" width="22.1" height="22.1"/>
</g>
</svg>
