<?xml version="1.0" encoding="utf-8"?>
<!-- Generator: Adobe Illustrator 18.1.1, SVG Export Plug-In . SVG Version: 6.00 Build 0)  -->
<svg version="1.1" id="Layer_1" xmlns="http://www.w3.org/2000/svg" xmlns:xlink="http://www.w3.org/1999/xlink" x="0px" y="0px"
	 viewBox="0 0 111.5 107.7" enable-background="new 0 0 111.5 107.7" xml:space="preserve">
<g>
	<rect x="17.7" y="60.1" fill="#B3B8BC" width="6.6" height="9.4"/>
	<rect x="32.2" y="60.1" fill="#B3B8BC" width="6.6" height="9.4"/>
	<rect x="46.8" y="60.1" fill="#B3B8BC" width="6.6" height="9.4"/>
	<rect x="61.3" y="60.1" fill="#B3B8BC" width="6.6" height="9.4"/>
	<rect x="17.7" y="78.1" fill="#B3B8BC" width="6.6" height="9.4"/>
	<rect x="32.2" y="78.1" fill="#B3B8BC" width="6.6" height="9.4"/>
	<rect x="46.8" y="78.1" fill="#B3B8BC" width="6.6" height="9.4"/>
	<rect x="61.3" y="78.1" fill="#B3B8BC" width="6.6" height="9.4"/>
	<rect x="75.9" y="60.1" fill="#B3B8BC" width="6.6" height="9.4"/>
	<rect x="90.5" y="60.1" fill="#B3B8BC" width="6.6" height="9.4"/>
	<path fill="#B3B8BC" d="M108.3,44.5h-3.4h-4.4V0h-3.3h-3.3H82.6h-3.3H76v44.5h-7.1V0h-3.3h-3.3H51.1h-3.3h-3.3v44.5h-7.1V0h-3.3
		h-3.3H19.5h-3.3h-3.3v44.5H9.9h-5H3.3v63.2h1.6h5h65.5H82h7.8h6.6h8.4h3.4h3.2V44.5H108.3z M93.9,6.6v7H82.6v-7H93.9z M82.6,20.2
		h11.3v24.4H82.6V20.2z M62.3,6.6v7H51.1v-7H62.3z M51.1,20.2h11.3v24.4H51.1V20.2z M30.8,6.6v7H19.5v-7H30.8z M19.5,20.2h11.3v24.4
		H19.5V20.2z M82,101.1V84.7h7.8v16.4H82z M96.5,101.1v-23h-4.6h-2H82h-2.7h-3.9v23H9.9v-50h95v50H96.5z"/>
</g>
</svg>
