<?xml version="1.0" encoding="utf-8"?>
<!-- Generator: Adobe Illustrator 18.1.1, SVG Export Plug-In . SVG Version: 6.00 Build 0)  -->
<svg version="1.1" id="Layer_1" xmlns="http://www.w3.org/2000/svg" xmlns:xlink="http://www.w3.org/1999/xlink" x="0px" y="0px"
	 viewBox="0 0 521 28" enable-background="new 0 0 521 28" xml:space="preserve">
<g>
	<path id="shadow" d="M22.7,26.5c-2.8,1.1-5.9,1.6-9.2,1.6c-4.2,0-7.5-1.2-9.9-3.5C1.2,22.3,0,19.1,0,15c0-4.2,1.3-7.6,4-10.2
		c2.7-2.6,6.3-3.9,10.8-3.9c2.2,0,4.6,0.3,7.2,0.9v5.3c-2.6-0.9-5.1-1.4-7.5-1.4c-2.7,0-4.8,0.8-6.4,2.4c-1.6,1.6-2.4,3.8-2.4,6.5
		c0,2.7,0.7,4.8,2.1,6.3c1.4,1.5,3.4,2.2,6,2.2c1.2,0,2.3-0.1,3.2-0.4v-8.9h5.5V26.5z M59.4,27.7H43.6V1.3h15.8v4.5H49.1v6.1h9.8
		v4.4h-9.8V23h10.4V27.7z M102.1,27.7h-6.9L85.1,9.9l0.1,17.7h-5.3V1.3h6.9L97,19L96.9,1.3h5.3V27.7z M139.7,27.7h-15.8V1.3h15.8
		v4.5h-10.4v6.1h9.8v4.4h-9.8V23h10.4V27.7z M179.7,27.7H173L165.6,17v10.7h-5.5V1.3c1.9-0.1,4.5-0.2,7.9-0.2c3.3,0,5.7,0.6,7.4,1.9
		c1.6,1.3,2.5,3.1,2.5,5.6c0,1.8-0.6,3.4-1.8,4.8c-1.2,1.4-2.8,2.2-4.8,2.6L179.7,27.7z M165.6,12.9c0.5,0.1,1,0.1,1.7,0.1
		c1.5,0,2.6-0.4,3.5-1c0.9-0.7,1.3-1.6,1.3-2.8c0-1.2-0.4-2.2-1.2-2.8c-0.8-0.6-1.9-0.9-3.5-0.9c-0.8,0-1.4,0-1.9,0.1V12.9z
		 M220.8,27.7h-6l-1.7-5.1h-9.9l-1.7,5.1h-5.5l9.3-26.3h6.1L220.8,27.7z M211.7,18.2L208.1,8l-3.6,10.2H211.7z M253.9,27.7h-14.8
		V1.3h5.5v21.6h9.3V27.7z M327.5,27.7h-5.7l-2.6-17.5l-5.6,17.5h-5.1l-5.8-17.1l-2.1,17.1h-5.5l4-26.3h6.3l5.9,17.7l6-17.7h6.3
		L327.5,27.7z M358.4,0.9c3.8,0,6.8,1.2,9,3.5c2.2,2.3,3.3,5.6,3.3,9.8c0,4.2-1.2,7.5-3.6,10c-2.4,2.5-5.5,3.8-9.3,3.8
		c-4,0-7-1.2-9.1-3.5c-2.1-2.3-3.2-5.6-3.2-9.8c0-4.1,1.2-7.4,3.7-10C351.5,2.2,354.6,0.9,358.4,0.9z M358,23.1
		c1.9,0,3.6-0.8,4.9-2.3c1.3-1.5,2-3.7,2-6.4c0-2.8-0.6-5-1.8-6.5c-1.2-1.5-2.9-2.2-5.1-2.2c-1.9,0-3.5,0.8-4.8,2.3
		c-1.3,1.5-1.9,3.6-1.9,6.3c0,2.8,0.6,5,1.8,6.5C354.1,22.4,355.8,23.1,358,23.1z M405.6,5.9h-6.8v21.7h-5.5V5.9h-6.8V1.3h19V5.9z
		 M434.6,0.9c3.8,0,6.8,1.2,9,3.5c2.2,2.3,3.3,5.6,3.3,9.8c0,4.2-1.2,7.5-3.6,10c-2.4,2.5-5.5,3.8-9.3,3.8c-4,0-7-1.2-9.1-3.5
		c-2.1-2.3-3.2-5.6-3.2-9.8c0-4.1,1.2-7.4,3.7-10C427.8,2.2,430.8,0.9,434.6,0.9z M434.3,23.1c1.9,0,3.6-0.8,4.9-2.3
		c1.3-1.5,2-3.7,2-6.4c0-2.8-0.6-5-1.8-6.5c-1.2-1.5-2.9-2.2-5.1-2.2c-1.9,0-3.5,0.8-4.8,2.3c-1.3,1.5-1.9,3.6-1.9,6.3
		c0,2.8,0.6,5,1.8,6.5C430.4,22.4,432.1,23.1,434.3,23.1z M486,27.7h-6.7L471.9,17v10.7h-5.5V1.3c1.9-0.1,4.5-0.2,7.9-0.2
		c3.3,0,5.7,0.6,7.4,1.9c1.6,1.3,2.4,3.1,2.4,5.6c0,1.8-0.6,3.4-1.8,4.8c-1.2,1.4-2.8,2.2-4.8,2.6L486,27.7z M471.9,12.9
		c0.5,0.1,1,0.1,1.7,0.1c1.5,0,2.7-0.4,3.5-1c0.9-0.7,1.3-1.6,1.3-2.8c0-1.2-0.4-2.2-1.2-2.8c-0.8-0.6-1.9-0.9-3.5-0.9
		c-0.8,0-1.4,0-1.9,0.1V12.9z M518.4,6.1c-1.7-0.5-3.3-0.7-4.8-0.7c-1.3,0-2.4,0.3-3.1,0.8c-0.7,0.5-1.1,1.3-1.1,2.2
		c0,0.6,0.2,1.2,0.7,1.7c0.5,0.5,1.7,1.2,3.6,1.9c1.5,0.6,2.6,1.1,3.5,1.6c0.9,0.5,1.6,1.2,2.2,2.2c0.6,0.9,0.9,2.1,0.9,3.6
		c0,2.5-1,4.6-2.9,6.2c-1.9,1.6-4.5,2.4-7.7,2.4c-1.8,0-3.6-0.2-5.3-0.5v-5.1c2,0.6,3.9,1,5.8,1c1.4,0,2.4-0.3,3.2-0.8
		c0.8-0.6,1.2-1.4,1.2-2.4c0-0.7-0.2-1.3-0.7-1.8c-0.5-0.6-1.7-1.2-3.7-1.9c-1.5-0.6-2.7-1.1-3.5-1.6c-0.9-0.5-1.6-1.3-2.2-2.2
		c-0.6-0.9-0.9-2.2-0.9-3.6c0-2.4,0.9-4.3,2.7-5.8c1.8-1.4,4.3-2.2,7.6-2.2c1.7,0,3.2,0.1,4.6,0.4V6.1z"/>
	<linearGradient id="SVGID_1_" gradientUnits="userSpaceOnUse" x1="260.7147" y1="27.1918" x2="260.7147" y2="8.028055e-02">
		<stop  offset="0" style="stop-color:#BEBEBE"/>
		<stop  offset="0.2929" style="stop-color:#E5E4E2"/>
		<stop  offset="0.4286" style="stop-color:#E5E4E2"/>
		<stop  offset="0.5643" style="stop-color:#EEECEB"/>
		<stop  offset="0.7679" style="stop-color:#FFFAFA"/>
		<stop  offset="0.875" style="stop-color:#D5D4CB"/>
		<stop  offset="1" style="stop-color:#BEBEBE"/>
	</linearGradient>
	<path fill="url(#SVGID_1_)" stroke="#808285" stroke-width="0.1606" stroke-miterlimit="10" d="M23.2,25.6
		c-2.8,1.1-5.9,1.6-9.2,1.6c-4.2,0-7.5-1.2-9.9-3.5c-2.4-2.3-3.6-5.5-3.6-9.5c0-4.2,1.3-7.6,4-10.2c2.7-2.6,6.3-3.9,10.8-3.9
		c2.2,0,4.6,0.3,7.2,0.9v5.3c-2.6-0.9-5.1-1.4-7.5-1.4c-2.7,0-4.8,0.8-6.4,2.4c-1.6,1.6-2.4,3.8-2.4,6.5c0,2.7,0.7,4.8,2.1,6.3
		c1.4,1.5,3.4,2.2,6,2.2c1.2,0,2.3-0.1,3.2-0.4v-9h5.5V25.6z M60,26.8H44.1V0.5H60V5H49.6v6.1h9.8v4.4h-9.8v6.7H60V26.8z
		 M102.7,26.8h-6.9L85.6,9.1l0.1,17.7h-5.3V0.5h6.9l10.2,17.7L97.4,0.5h5.3V26.8z M140.2,26.8h-15.8V0.5h15.8V5h-10.4v6.1h9.8v4.4
		h-9.8v6.7h10.4V26.8z M180.2,26.8h-6.7l-7.4-10.7v10.7h-5.5V0.5c1.9-0.1,4.5-0.2,7.9-0.2c3.3,0,5.7,0.6,7.4,1.9
		c1.6,1.3,2.5,3.1,2.5,5.6c0,1.8-0.6,3.4-1.8,4.8c-1.2,1.4-2.8,2.2-4.8,2.6L180.2,26.8z M166.2,12.1c0.5,0.1,1,0.1,1.7,0.1
		c1.5,0,2.7-0.4,3.5-1c0.9-0.7,1.3-1.6,1.3-2.8c0-1.2-0.4-2.2-1.2-2.8c-0.8-0.6-1.9-0.9-3.5-0.9c-0.8,0-1.4,0-1.9,0.1V12.1z
		 M221.3,26.8h-6l-1.7-5.1h-9.9l-1.7,5.1h-5.5l9.3-26.3h6.1L221.3,26.8z M212.2,17.4l-3.6-10.2L205,17.4H212.2z M254.4,26.8h-14.8
		V0.5h5.5v21.6h9.3V26.8z M328,26.8h-5.7l-2.6-17.5l-5.6,17.5H309l-5.8-17.1l-2.1,17.1h-5.5l4-26.3h6.3l5.9,17.7l6-17.7h6.3
		L328,26.8z M358.9,0.1c3.8,0,6.8,1.2,9,3.5c2.2,2.3,3.3,5.6,3.3,9.8c0,4.2-1.2,7.5-3.6,10c-2.4,2.5-5.5,3.8-9.3,3.8
		c-4,0-7-1.2-9.1-3.5c-2.1-2.3-3.2-5.6-3.2-9.8c0-4.1,1.2-7.4,3.7-10C352.1,1.3,355.2,0.1,358.9,0.1z M358.6,22.3
		c1.9,0,3.6-0.8,4.9-2.3c1.3-1.5,2-3.7,2-6.4c0-2.8-0.6-5-1.8-6.5c-1.2-1.5-2.9-2.2-5.1-2.2c-1.9,0-3.5,0.8-4.8,2.3
		c-1.3,1.5-1.9,3.6-1.9,6.3c0,2.8,0.6,5,1.8,6.5C354.7,21.5,356.4,22.3,358.6,22.3z M406.2,5.1h-6.8v21.7H394V5.1h-6.8V0.5h19V5.1z
		 M435.1,0.1c3.8,0,6.8,1.2,9,3.5c2.2,2.3,3.3,5.6,3.3,9.8c0,4.2-1.2,7.5-3.6,10c-2.4,2.5-5.5,3.8-9.3,3.8c-4,0-7-1.2-9.1-3.5
		c-2.1-2.3-3.2-5.6-3.2-9.8c0-4.1,1.2-7.4,3.7-10C428.3,1.3,431.4,0.1,435.1,0.1z M434.8,22.3c1.9,0,3.6-0.8,4.9-2.3
		c1.3-1.5,2-3.7,2-6.4c0-2.8-0.6-5-1.8-6.5c-1.2-1.5-2.9-2.2-5.1-2.2c-1.9,0-3.5,0.8-4.8,2.3c-1.3,1.5-1.9,3.6-1.9,6.3
		c0,2.8,0.6,5,1.8,6.5C430.9,21.5,432.6,22.3,434.8,22.3z M486.5,26.8h-6.7l-7.4-10.7v10.7H467V0.5c1.9-0.1,4.5-0.2,7.9-0.2
		c3.3,0,5.7,0.6,7.4,1.9c1.6,1.3,2.4,3.1,2.4,5.6c0,1.8-0.6,3.4-1.8,4.8c-1.2,1.4-2.8,2.2-4.8,2.6L486.5,26.8z M472.5,12.1
		c0.5,0.1,1,0.1,1.7,0.1c1.5,0,2.7-0.4,3.5-1c0.9-0.7,1.3-1.6,1.3-2.8c0-1.2-0.4-2.2-1.2-2.8c-0.8-0.6-1.9-0.9-3.5-0.9
		c-0.8,0-1.4,0-1.9,0.1V12.1z M518.9,5.3c-1.7-0.5-3.3-0.7-4.8-0.7c-1.3,0-2.4,0.3-3.1,0.8c-0.7,0.5-1.1,1.3-1.1,2.2
		c0,0.6,0.2,1.2,0.7,1.7c0.5,0.5,1.7,1.2,3.6,1.9c1.5,0.6,2.6,1.1,3.5,1.6c0.9,0.5,1.6,1.2,2.2,2.2c0.6,0.9,0.9,2.1,0.9,3.6
		c0,2.5-1,4.6-2.9,6.2c-1.9,1.6-4.5,2.4-7.7,2.4c-1.8,0-3.6-0.2-5.3-0.5v-5.1c2,0.6,3.9,1,5.8,1c1.4,0,2.4-0.3,3.2-0.8
		c0.8-0.6,1.2-1.4,1.2-2.4c0-0.7-0.2-1.3-0.7-1.8c-0.5-0.6-1.7-1.2-3.7-1.9c-1.5-0.6-2.7-1.1-3.5-1.6c-0.9-0.5-1.6-1.3-2.2-2.2
		c-0.6-0.9-0.9-2.2-0.9-3.6c0-2.4,0.9-4.3,2.7-5.8c1.8-1.4,4.3-2.2,7.6-2.2c1.7,0,3.2,0.1,4.6,0.4V5.3z"/>
</g>
</svg>
