<?xml version="1.0" encoding="utf-8"?>
<!-- Generator: Adobe Illustrator 18.1.1, SVG Export Plug-In . SVG Version: 6.00 Build 0)  -->
<svg version="1.1" id="Layer_1" xmlns="http://www.w3.org/2000/svg" xmlns:xlink="http://www.w3.org/1999/xlink" x="0px" y="0px"
	 viewBox="0 0 796.8 47.2" enable-background="new 0 0 796.8 47.2" xml:space="preserve">
<g>
	<path id="shadow" d="M37.7,42.5c-4.3,1.6-8.9,2.4-13.9,2.4c-6.4,0-11.4-1.8-15.1-5.3C5,36.2,3.2,31.3,3.2,25.2
		c0-6.4,2-11.6,6.1-15.5c4.1-3.9,9.6-5.9,16.4-5.9c3.4,0,7.1,0.5,11,1.4v8C32.8,11.7,29,11,25.4,11c-4,0-7.3,1.2-9.7,3.7
		c-2.4,2.4-3.6,5.7-3.6,9.9c0,4.1,1.1,7.3,3.2,9.6c2.2,2.3,5.2,3.4,9.2,3.4c1.9,0,3.5-0.2,4.9-0.6V23.4h8.3V42.5z M93.5,44.4H69.4
		v-40h24.1v6.8H77.7v9.3h15v6.6h-15v10.2h15.7V44.4z M158.3,44.4h-10.5l-15.4-27l0.1,27h-8v-40h10.5l15.5,26.9l-0.2-26.9h8V44.4z
		 M215.4,44.4h-24.1v-40h24.1v6.8h-15.7v9.3h15v6.6h-15v10.2h15.7V44.4z M276.2,44.4H266l-11.2-16.2v16.2h-8.3v-40
		c2.8-0.2,6.8-0.3,11.9-0.3c5,0,8.7,1,11.2,2.9c2.5,1.9,3.7,4.8,3.7,8.6c0,2.8-0.9,5.2-2.7,7.3c-1.8,2.1-4.3,3.4-7.3,4L276.2,44.4z
		 M254.8,22c0.7,0.1,1.6,0.1,2.7,0.1c2.3,0,4-0.5,5.3-1.6c1.3-1.1,1.9-2.5,1.9-4.3c0-1.9-0.6-3.3-1.8-4.2c-1.2-0.9-2.9-1.4-5.3-1.4
		c-1.2,0-2.2,0.1-2.9,0.2V22z M338.7,44.4h-9.1l-2.7-7.7h-15.1l-2.6,7.7h-8.3l14.1-40h9.3L338.7,44.4z M324.8,30l-5.5-15.5L313.9,30
		H324.8z M388.9,44.4h-22.4v-40h8.3v32.8h14.1V44.4z M500.7,44.4h-8.7l-4-26.6l-8.5,26.6h-7.8l-8.7-26l-3.2,26h-8.4l6-40h9.6
		l8.9,26.9l9.1-26.9h9.5L500.7,44.4z M547.7,3.7c5.8,0,10.4,1.8,13.7,5.3c3.4,3.5,5,8.5,5,14.9c0,6.3-1.8,11.4-5.5,15.3
		c-3.7,3.9-8.4,5.8-14.1,5.8c-6,0-10.6-1.8-13.9-5.3c-3.2-3.5-4.9-8.5-4.9-15c0-6.3,1.9-11.3,5.6-15.2C537.3,5.7,542,3.7,547.7,3.7z
		 M547.2,37.5c2.9,0,5.4-1.2,7.4-3.5c2-2.3,3-5.6,3-9.7c0-4.3-0.9-7.6-2.7-9.8c-1.8-2.2-4.4-3.4-7.8-3.4c-2.9,0-5.4,1.2-7.3,3.5
		c-2,2.3-2.9,5.5-2.9,9.6c0,4.3,0.9,7.6,2.7,9.9C541.2,36.3,543.8,37.5,547.2,37.5z M619.5,11.4h-10.3v33h-8.3v-33h-10.3v-7h28.8
		V11.4z M663.5,3.7c5.8,0,10.4,1.8,13.7,5.3c3.4,3.5,5,8.5,5,14.9c0,6.3-1.8,11.4-5.5,15.3c-3.7,3.9-8.4,5.8-14.1,5.8
		c-6,0-10.6-1.8-13.9-5.3c-3.2-3.5-4.9-8.5-4.9-15c0-6.3,1.9-11.3,5.6-15.2C653.1,5.7,657.8,3.7,663.5,3.7z M663,37.5
		c2.9,0,5.4-1.2,7.4-3.5c2-2.3,3-5.6,3-9.7c0-4.3-0.9-7.6-2.7-9.8c-1.8-2.2-4.4-3.4-7.8-3.4c-2.9,0-5.4,1.2-7.3,3.5
		c-2,2.3-2.9,5.5-2.9,9.6c0,4.3,0.9,7.6,2.7,9.9C657,36.3,659.6,37.5,663,37.5z M741.5,44.4h-10.1l-11.2-16.2v16.2h-8.3v-40
		c2.8-0.2,6.8-0.3,11.9-0.3c5,0,8.7,1,11.2,2.9c2.5,1.9,3.7,4.8,3.7,8.6c0,2.8-0.9,5.2-2.7,7.3c-1.8,2.1-4.2,3.4-7.3,4L741.5,44.4z
		 M720.2,22c0.7,0.1,1.6,0.1,2.6,0.1c2.3,0,4-0.5,5.3-1.6c1.3-1.1,2-2.5,2-4.3c0-1.9-0.6-3.3-1.8-4.2c-1.2-0.9-2.9-1.4-5.3-1.4
		c-1.2,0-2.2,0.1-2.9,0.2V22z M790.8,11.6c-2.6-0.8-5.1-1.1-7.3-1.1c-2,0-3.6,0.4-4.8,1.2c-1.1,0.8-1.7,1.9-1.7,3.3
		c0,0.9,0.4,1.8,1.1,2.6c0.7,0.8,2.6,1.8,5.5,3c2.2,0.9,4,1.7,5.3,2.5c1.3,0.8,2.4,1.9,3.4,3.3c1,1.4,1.4,3.3,1.4,5.5
		c0,3.8-1.5,7-4.4,9.4c-3,2.4-6.9,3.6-11.8,3.6c-2.8,0-5.5-0.3-8.1-0.8v-7.7c3,1,6,1.5,8.8,1.5c2.1,0,3.7-0.4,4.9-1.3
		c1.2-0.9,1.8-2.1,1.8-3.6c0-1-0.4-1.9-1.1-2.8c-0.7-0.8-2.6-1.8-5.6-3c-2.3-0.9-4-1.7-5.4-2.5c-1.3-0.8-2.4-1.9-3.3-3.4
		c-0.9-1.4-1.4-3.3-1.4-5.5c0-3.7,1.4-6.6,4.1-8.8c2.8-2.2,6.6-3.3,11.5-3.3c2.5,0,4.8,0.2,7,0.7V11.6z"/>
	<linearGradient id="SVGID_1_" gradientUnits="userSpaceOnUse" x1="399.2906" y1="43.6422" x2="399.2906" y2="2.4515">
		<stop  offset="0" style="stop-color:#BEBEBE"/>
		<stop  offset="0.2929" style="stop-color:#E5E4E2"/>
		<stop  offset="0.4286" style="stop-color:#E5E4E2"/>
		<stop  offset="0.5643" style="stop-color:#EEECEB"/>
		<stop  offset="0.7679" style="stop-color:#FFFAFA"/>
		<stop  offset="0.875" style="stop-color:#D5D4CB"/>
		<stop  offset="1" style="stop-color:#BEBEBE"/>
	</linearGradient>
	<path fill="url(#SVGID_1_)" stroke="#808285" stroke-width="0.1606" stroke-miterlimit="10" d="M38.5,41.3
		c-4.3,1.6-8.9,2.4-13.9,2.4c-6.4,0-11.4-1.8-15.1-5.3C5.8,34.9,4,30,4,23.9c0-6.4,2-11.6,6.1-15.5c4.1-3.9,9.6-5.9,16.4-5.9
		c3.4,0,7.1,0.5,11,1.4v8c-3.9-1.4-7.7-2.1-11.3-2.1c-4,0-7.3,1.2-9.7,3.7c-2.4,2.4-3.6,5.7-3.6,9.9c0,4.1,1.1,7.3,3.2,9.6
		c2.2,2.3,5.2,3.4,9.2,3.4c1.9,0,3.5-0.2,4.9-0.6V22.1h8.3V41.3z M94.3,43.1H70.2v-40h24.1v6.8H78.6v9.3h15v6.6h-15V36h15.7V43.1z
		 M159.2,43.1h-10.5l-15.4-27l0.1,27h-8v-40h10.5l15.5,26.9l-0.2-26.9h8V43.1z M216.3,43.1h-24.1v-40h24.1v6.8h-15.7v9.3h15v6.6h-15
		V36h15.7V43.1z M277,43.1h-10.1l-11.2-16.2v16.2h-8.3v-40c2.8-0.2,6.8-0.3,11.9-0.3c5,0,8.7,1,11.2,2.9c2.5,1.9,3.7,4.8,3.7,8.6
		c0,2.8-0.9,5.2-2.7,7.3c-1.8,2.1-4.3,3.4-7.3,4L277,43.1z M255.6,20.7c0.7,0.1,1.6,0.1,2.7,0.1c2.3,0,4-0.5,5.3-1.6
		c1.3-1.1,2-2.5,2-4.3c0-1.9-0.6-3.3-1.8-4.2c-1.2-0.9-2.9-1.4-5.3-1.4c-1.2,0-2.2,0.1-2.9,0.2V20.7z M339.5,43.1h-9.1l-2.7-7.7
		h-15.1l-2.6,7.7h-8.3l14.1-40h9.3L339.5,43.1z M325.6,28.7l-5.5-15.5l-5.4,15.5H325.6z M389.7,43.1h-22.4v-40h8.3v32.8h14.1V43.1z
		 M501.6,43.1h-8.7l-4-26.6l-8.5,26.6h-7.8l-8.7-26l-3.2,26h-8.4l6-40h9.6l8.9,26.9L486,3.1h9.5L501.6,43.1z M548.5,2.5
		c5.8,0,10.4,1.8,13.7,5.3c3.4,3.5,5,8.5,5,14.9c0,6.3-1.8,11.4-5.5,15.3c-3.7,3.9-8.4,5.8-14.1,5.8c-6,0-10.6-1.8-13.9-5.3
		c-3.2-3.5-4.9-8.5-4.9-15c0-6.3,1.9-11.3,5.6-15.2C538.1,4.4,542.8,2.5,548.5,2.5z M548,36.2c2.9,0,5.4-1.2,7.4-3.5
		c2-2.3,3-5.6,3-9.7c0-4.3-0.9-7.6-2.7-9.8c-1.8-2.2-4.4-3.4-7.8-3.4c-2.9,0-5.4,1.2-7.3,3.5c-2,2.3-2.9,5.5-2.9,9.6
		c0,4.3,0.9,7.6,2.7,9.9C542.1,35,544.6,36.2,548,36.2z M620.3,10.1H610v33h-8.3v-33h-10.3v-7h28.8V10.1z M664.3,2.5
		c5.8,0,10.4,1.8,13.7,5.3c3.4,3.5,5,8.5,5,14.9c0,6.3-1.8,11.4-5.5,15.3c-3.7,3.9-8.4,5.8-14.1,5.8c-6,0-10.6-1.8-13.9-5.3
		c-3.2-3.5-4.9-8.5-4.9-15c0-6.3,1.9-11.3,5.6-15.2C653.9,4.4,658.6,2.5,664.3,2.5z M663.8,36.2c2.9,0,5.4-1.2,7.4-3.5
		c2-2.3,3-5.6,3-9.7c0-4.3-0.9-7.6-2.7-9.8c-1.8-2.2-4.4-3.4-7.8-3.4c-2.9,0-5.4,1.2-7.3,3.5c-2,2.3-2.9,5.5-2.9,9.6
		c0,4.3,0.9,7.6,2.7,9.9C657.9,35,660.4,36.2,663.8,36.2z M742.3,43.1h-10.1L721,26.9v16.2h-8.3v-40c2.8-0.2,6.8-0.3,11.9-0.3
		c5,0,8.7,1,11.2,2.9c2.5,1.9,3.7,4.8,3.7,8.6c0,2.8-0.9,5.2-2.7,7.3c-1.8,2.1-4.2,3.4-7.3,4L742.3,43.1z M721,20.7
		c0.7,0.1,1.6,0.1,2.6,0.1c2.3,0,4-0.5,5.3-1.6c1.3-1.1,2-2.5,2-4.3c0-1.9-0.6-3.3-1.8-4.2c-1.2-0.9-2.9-1.4-5.3-1.4
		c-1.2,0-2.2,0.1-2.9,0.2V20.7z M791.6,10.3c-2.6-0.8-5.1-1.1-7.3-1.1c-2,0-3.6,0.4-4.8,1.2c-1.1,0.8-1.7,1.9-1.7,3.3
		c0,0.9,0.4,1.8,1.1,2.6c0.7,0.8,2.6,1.8,5.5,3c2.2,0.9,4,1.7,5.3,2.5c1.3,0.8,2.4,1.9,3.4,3.3c1,1.4,1.4,3.3,1.4,5.5
		c0,3.8-1.5,7-4.4,9.4c-3,2.4-6.9,3.6-11.8,3.6c-2.8,0-5.5-0.3-8.1-0.8v-7.7c3,1,6,1.5,8.8,1.5c2.1,0,3.7-0.4,4.9-1.3
		c1.2-0.9,1.8-2.1,1.8-3.6c0-1-0.4-1.9-1.1-2.8c-0.7-0.8-2.6-1.8-5.6-3c-2.3-0.9-4-1.7-5.4-2.5c-1.3-0.8-2.4-1.9-3.3-3.4
		c-0.9-1.4-1.4-3.3-1.4-5.5c0-3.7,1.4-6.6,4.1-8.8c2.8-2.2,6.6-3.3,11.5-3.3c2.5,0,4.8,0.2,7,0.7V10.3z"/>
</g>
</svg>
