<?xml version="1.0" encoding="utf-8"?>
<!-- Generator: Adobe Illustrator 18.1.1, SVG Export Plug-In . SVG Version: 6.00 Build 0)  -->
<svg version="1.1" id="Layer_1" xmlns="http://www.w3.org/2000/svg" xmlns:xlink="http://www.w3.org/1999/xlink" x="0px" y="0px"
	 viewBox="0 0 119 118.5" enable-background="new 0 0 119 118.5" xml:space="preserve">
<g>
	<circle fill="#FFFFFF" cx="59.5" cy="59.3" r="54"/>
	<path fill="#808285" d="M59.5,5.3c29.8,0,54,24.2,54,54c0,29.8-24.2,54-54,54c-29.8,0-54-24.2-54-54C5.5,29.5,29.6,5.3,59.5,5.3
		 M59.5,0.9C27.3,0.9,1.1,27.1,1.1,59.3s26.2,58.4,58.4,58.4s58.4-26.2,58.4-58.4S91.6,0.9,59.5,0.9L59.5,0.9z"/>
</g>
<g>
	<path fill-rule="evenodd" clip-rule="evenodd" fill="#D1D3D4" d="M71.8,15.7l0.5,0.1L60.7,58.1c0.8,0.4,1.3,1.3,1,2.1
		c-0.2,0.9-1.1,1.4-2,1.3l-2.1,7.5L57.1,69l2.1-7.5c-0.8-0.4-1.3-1.3-1-2.1c0.2-0.9,1.1-1.4,2-1.3L71.8,15.7L71.8,15.7z"/>
	<path fill-rule="evenodd" clip-rule="evenodd" fill="#D1D3D4" d="M60.1,59.1c0.3,0.1,0.6,0.5,0.5,0.8c-0.1,0.3-0.5,0.6-0.8,0.5
		c-0.3-0.1-0.6-0.5-0.5-0.8C59.4,59.2,59.8,59,60.1,59.1L60.1,59.1z"/>
	<polygon fill-rule="evenodd" clip-rule="evenodd" fill="#D1D3D4" points="93.4,35.4 94.7,37.3 49.9,68.7 48.6,66.8 93.4,35.4 	"/>
	<polygon fill-rule="evenodd" clip-rule="evenodd" fill="#D1D3D4" points="31.7,45.7 33.5,42.8 70.7,66.1 69,69 31.7,45.7 	"/>
	<path fill-rule="evenodd" clip-rule="evenodd" fill="#A7A9AC" d="M59.5,54.4c2.9,0,5.2,2.3,5.2,5.2c0,2.9-2.3,5.2-5.2,5.2
		c-2.9,0-5.2-2.3-5.2-5.2C54.3,56.8,56.6,54.4,59.5,54.4L59.5,54.4z"/>
	<path fill-rule="evenodd" clip-rule="evenodd" fill="#58595B" d="M61,10.4v9.1c-0.5,0-1,0-1.6,0c-0.5,0-1,0-1.6,0v-9.1
		c0.5,0,1,0,1.6,0C60,10.3,60.5,10.3,61,10.4L61,10.4z M78.2,24.1l4.6-7.9c0.9,0.5,1.8,1,2.7,1.6l-4.6,7.9
		C80,25.1,79.1,24.5,78.2,24.1L78.2,24.1z M93.4,38.2l7.9-4.6c0.6,0.9,1.1,1.8,1.6,2.7L95,40.9C94.5,40,94,39.1,93.4,38.2L93.4,38.2
		z M99.6,58h9.1c0,0.5,0,1,0,1.6c0,0.5,0,1,0,1.6h-9.1c0-0.5,0-1,0-1.6C99.6,59.1,99.6,58.6,99.6,58L99.6,58z M95,78.3l7.9,4.6
		c-0.5,0.9-1,1.8-1.6,2.7l-7.9-4.6C94,80.2,94.5,79.3,95,78.3L95,78.3z M80.9,93.6l4.6,7.9c-0.9,0.6-1.8,1.1-2.7,1.6l-4.6-7.9
		C79.1,94.7,80,94.2,80.9,93.6L80.9,93.6z M61,99.8v9.1c-0.5,0-1,0-1.6,0c-0.5,0-1,0-1.6,0v-9.1c0.5,0,1,0,1.6,0
		C60,99.8,60.5,99.8,61,99.8L61,99.8z M40.7,95.2l-4.6,7.9c-0.9-0.5-1.8-1-2.7-1.6l4.6-7.9C38.9,94.2,39.8,94.7,40.7,95.2L40.7,95.2
		z M25.5,81.1l-7.9,4.6c-0.6-0.9-1.1-1.8-1.6-2.7l7.9-4.6C24.4,79.3,24.9,80.2,25.5,81.1L25.5,81.1z M19.3,61.2h-9.1
		c0-0.5,0-1,0-1.6c0-0.5,0-1,0-1.6h9.1c0,0.5,0,1,0,1.6C19.3,60.1,19.3,60.7,19.3,61.2L19.3,61.2z M23.9,40.9L16,36.3
		c0.5-0.9,1-1.8,1.6-2.7l7.9,4.6C24.9,39.1,24.4,40,23.9,40.9L23.9,40.9z M38,25.6l-4.6-7.9c0.9-0.6,1.8-1.1,2.7-1.6l4.6,7.9
		C39.8,24.5,38.9,25.1,38,25.6L38,25.6z"/>
	<path fill-rule="evenodd" clip-rule="evenodd" fill="#58595B" d="M65.1,10.6l-0.6,5.5c-0.4,0-0.7-0.1-1.1-0.1l0.6-5.5
		C64.4,10.6,64.8,10.6,65.1,10.6L65.1,10.6z M68,16.7l1.2-5.4c0.4,0.1,0.7,0.1,1.1,0.2l-1.2,5.4C68.7,16.9,68.4,16.8,68,16.7
		L68,16.7z M72.5,17.8l1.7-5.3c0.3,0.1,0.7,0.2,1,0.3l-1.7,5.3C73.1,18.1,72.8,18,72.5,17.8L72.5,17.8z M76.7,19.4l2.3-5.1
		c0.3,0.1,0.7,0.3,1,0.4l-2.3,5.1C77.4,19.7,77.1,19.6,76.7,19.4L76.7,19.4z M80.9,21.5l2.8-4.8c0.3,0.2,0.6,0.4,0.9,0.5L81.8,22
		C81.5,21.8,81.2,21.6,80.9,21.5L80.9,21.5z M84.7,23.9l3.3-4.5c0.3,0.2,0.6,0.4,0.9,0.6l-3.3,4.5C85.3,24.3,85,24.1,84.7,23.9
		L84.7,23.9z M88.3,26.8l3.7-4.1c0.3,0.2,0.5,0.5,0.8,0.7l-3.7,4.1C88.9,27.2,88.6,27,88.3,26.8L88.3,26.8z M91.6,30l4.1-3.7
		c0.2,0.3,0.5,0.5,0.7,0.8l-4.1,3.7C92.1,30.5,91.8,30.2,91.6,30L91.6,30z M94.5,33.5l4.5-3.3c0.2,0.3,0.4,0.6,0.6,0.9l-4.5,3.3
		C94.9,34.1,94.7,33.8,94.5,33.5L94.5,33.5z M97.1,37.3l4.8-2.8c0.2,0.3,0.4,0.6,0.5,0.9l-4.8,2.8C97.4,37.9,97.2,37.6,97.1,37.3
		L97.1,37.3z M99.2,41.3l5.1-2.3c0.2,0.3,0.3,0.7,0.4,1l-5.1,2.3C99.5,42,99.3,41.7,99.2,41.3L99.2,41.3z M100.9,45.6l5.3-1.7
		c0.1,0.3,0.2,0.7,0.3,1l-5.3,1.7C101.1,46.3,101,45.9,100.9,45.6L100.9,45.6z M102.1,50l5.4-1.2c0.1,0.4,0.2,0.7,0.2,1.1l-5.4,1.2
		C102.3,50.7,102.2,50.3,102.1,50L102.1,50z M102.9,54.5l5.5-0.6c0,0.4,0.1,0.7,0.1,1.1l-5.5,0.6C103,55.2,102.9,54.9,102.9,54.5
		L102.9,54.5z M103,63.6l5.5,0.6c0,0.4-0.1,0.7-0.1,1.1l-5.5-0.6C102.9,64.4,103,64,103,63.6L103,63.6z M102.3,68.2l5.4,1.2
		c-0.1,0.4-0.1,0.7-0.2,1.1l-5.4-1.2C102.2,68.9,102.3,68.5,102.3,68.2L102.3,68.2z M101.2,72.6l5.3,1.7c-0.1,0.3-0.2,0.7-0.3,1
		l-5.3-1.7C101,73.3,101.1,73,101.2,72.6L101.2,72.6z M99.6,76.9l5.1,2.3c-0.1,0.3-0.3,0.7-0.4,1l-5.1-2.3
		C99.3,77.6,99.5,77.2,99.6,76.9L99.6,76.9z M95.2,84.9l4.5,3.3c-0.2,0.3-0.4,0.6-0.6,0.9l-4.5-3.3C94.7,85.5,94.9,85.2,95.2,84.9
		L95.2,84.9z M92.3,88.5l4.1,3.7c-0.2,0.3-0.5,0.5-0.7,0.8l-4.1-3.7C91.8,89,92.1,88.7,92.3,88.5L92.3,88.5z M89.1,91.8l3.7,4.1
		c-0.3,0.2-0.5,0.5-0.8,0.7l-3.7-4.1C88.6,92.2,88.9,92,89.1,91.8L89.1,91.8z M85.6,94.7l3.3,4.5c-0.3,0.2-0.6,0.4-0.9,0.6l-3.3-4.5
		C85,95.1,85.3,94.9,85.6,94.7L85.6,94.7z M77.7,99.4l2.3,5.1c-0.3,0.2-0.7,0.3-1,0.4l-2.3-5.1C77.1,99.7,77.4,99.5,77.7,99.4
		L77.7,99.4z M73.5,101.1l1.7,5.3c-0.3,0.1-0.7,0.2-1,0.3l-1.7-5.3C72.8,101.3,73.1,101.2,73.5,101.1L73.5,101.1z M69.1,102.3
		l1.2,5.4c-0.4,0.1-0.7,0.2-1.1,0.2l-1.2-5.4C68.4,102.4,68.7,102.4,69.1,102.3L69.1,102.3z M64.6,103.1l0.6,5.5
		c-0.4,0-0.7,0.1-1.1,0.1l-0.6-5.5C63.8,103.1,64.2,103.1,64.6,103.1L64.6,103.1z M55.4,103.2l-0.6,5.5c-0.4,0-0.7-0.1-1.1-0.1
		l0.6-5.5C54.7,103.1,55.1,103.1,55.4,103.2L55.4,103.2z M50.9,102.5l-1.2,5.4c-0.4-0.1-0.7-0.1-1.1-0.2l1.2-5.4
		C50.2,102.4,50.5,102.4,50.9,102.5L50.9,102.5z M46.5,101.4l-1.7,5.3c-0.3-0.1-0.7-0.2-1-0.3l1.7-5.3
		C45.8,101.2,46.1,101.3,46.5,101.4L46.5,101.4z M42.2,99.8l-2.3,5.1c-0.3-0.1-0.7-0.3-1-0.4l2.3-5.1C41.5,99.5,41.8,99.7,42.2,99.8
		L42.2,99.8z M38.1,97.8l-2.8,4.8c-0.3-0.2-0.6-0.4-0.9-0.5l2.8-4.8C37.4,97.4,37.7,97.6,38.1,97.8L38.1,97.8z M34.2,95.3l-3.3,4.5
		c-0.3-0.2-0.6-0.4-0.9-0.6l3.3-4.5C33.6,94.9,33.9,95.1,34.2,95.3L34.2,95.3z M30.6,92.5l-3.7,4.1c-0.3-0.2-0.5-0.5-0.8-0.7
		l3.7-4.1C30.1,92,30.3,92.2,30.6,92.5L30.6,92.5z M27.3,89.3L23.2,93c-0.2-0.3-0.5-0.5-0.7-0.8l4.1-3.7
		C26.8,88.7,27.1,89,27.3,89.3L27.3,89.3z M24.4,85.8L19.9,89c-0.2-0.3-0.4-0.6-0.6-0.9l4.5-3.3C24,85.2,24.2,85.5,24.4,85.8
		L24.4,85.8z M21.8,82L17,84.7c-0.2-0.3-0.4-0.6-0.5-0.9l4.8-2.8C21.5,81.3,21.7,81.6,21.8,82L21.8,82z M19.7,77.9l-5.1,2.3
		c-0.2-0.3-0.3-0.7-0.4-1l5.1-2.3C19.4,77.2,19.6,77.6,19.7,77.9L19.7,77.9z M18,73.7l-5.3,1.7c-0.1-0.3-0.2-0.7-0.3-1l5.3-1.7
		C17.8,73,17.9,73.3,18,73.7L18,73.7z M16.8,69.2l-5.4,1.2c-0.1-0.4-0.2-0.7-0.2-1.1l5.4-1.2C16.6,68.5,16.7,68.9,16.8,69.2
		L16.8,69.2z M16,64.7l-5.5,0.6c0-0.4-0.1-0.7-0.1-1.1l5.5-0.6C15.9,64,16,64.4,16,64.7L16,64.7z M15.9,55.6L10.4,55
		c0-0.4,0.1-0.7,0.1-1.1l5.5,0.6C16,54.9,15.9,55.2,15.9,55.6L15.9,55.6z M16.6,51.1l-5.4-1.2c0.1-0.4,0.1-0.7,0.2-1.1l5.4,1.2
		C16.7,50.3,16.6,50.7,16.6,51.1L16.6,51.1z M17.7,46.6l-5.3-1.7c0.1-0.3,0.2-0.7,0.3-1l5.3,1.7C17.9,45.9,17.8,46.3,17.7,46.6
		L17.7,46.6z M19.3,42.3l-5.1-2.3c0.1-0.3,0.3-0.7,0.4-1l5.1,2.3C19.6,41.7,19.4,42,19.3,42.3L19.3,42.3z M23.8,34.4l-4.5-3.3
		c0.2-0.3,0.4-0.6,0.6-0.9l4.5,3.3C24.2,33.8,24,34.1,23.8,34.4L23.8,34.4z M26.6,30.8L22.5,27c0.2-0.3,0.5-0.5,0.7-0.8l4.1,3.7
		C27.1,30.2,26.8,30.5,26.6,30.8L26.6,30.8z M29.8,27.5l-3.7-4.1c0.3-0.2,0.5-0.5,0.8-0.7l3.7,4.1C30.3,27,30.1,27.2,29.8,27.5
		L29.8,27.5z M33.3,24.6L30,20.1c0.3-0.2,0.6-0.4,0.9-0.6l3.3,4.5C33.9,24.1,33.6,24.3,33.3,24.6L33.3,24.6z M41.2,19.9l-2.3-5.1
		c0.3-0.2,0.7-0.3,1-0.4l2.3,5.1C41.8,19.6,41.5,19.7,41.2,19.9L41.2,19.9z M45.4,18.2l-1.7-5.3c0.3-0.1,0.7-0.2,1-0.3l1.7,5.3
		C46.1,18,45.8,18.1,45.4,18.2L45.4,18.2z M49.8,16.9l-1.2-5.4c0.4-0.1,0.7-0.2,1.1-0.2l1.2,5.4C50.5,16.8,50.2,16.9,49.8,16.9
		L49.8,16.9z M54.3,16.2l-0.6-5.5c0.4,0,0.7-0.1,1.1-0.1l0.6,5.5C55.1,16.1,54.7,16.1,54.3,16.2L54.3,16.2z"/>
	<polygon fill-rule="evenodd" clip-rule="evenodd" points="92.9,34.8 94.2,36.6 49.4,68 48.1,66.2 92.9,34.8 	"/>
	<polygon fill-rule="evenodd" clip-rule="evenodd" fill="#939598" points="92.3,35.9 49.2,66.5 49,66.2 92.3,35.9 	"/>
	<polygon fill-rule="evenodd" clip-rule="evenodd" points="32.4,44.7 34.2,41.8 71.4,65.1 69.7,68 32.4,44.7 	"/>
	<polygon fill-rule="evenodd" clip-rule="evenodd" fill="#939598" points="33.4,44.4 69.7,66.5 69.5,66.9 33.4,44.4 	"/>
	<path fill-rule="evenodd" clip-rule="evenodd" fill="#E6E7E8" d="M59.5,57c1.4,0,2.6,1.2,2.6,2.6c0,1.4-1.2,2.6-2.6,2.6
		c-1.4,0-2.6-1.2-2.6-2.6C56.9,58.2,58,57,59.5,57L59.5,57z"/>
	<path fill-rule="evenodd" clip-rule="evenodd" fill="#ED1C24" d="M71.3,15.5l0.5,0.1L60.2,58c0.8,0.4,1.3,1.3,1,2.1
		c-0.2,0.9-1.1,1.4-2,1.3L57.1,69l-0.5-0.1l2.1-7.5c-0.8-0.4-1.3-1.3-1-2.1c0.2-0.9,1.1-1.4,2-1.3L71.3,15.5L71.3,15.5z"/>
	<path fill-rule="evenodd" clip-rule="evenodd" fill="#FFFFFF" d="M59.6,59c0.3,0.1,0.6,0.5,0.5,0.8c-0.1,0.3-0.5,0.6-0.8,0.5
		c-0.3-0.1-0.6-0.5-0.5-0.8C58.9,59.1,59.3,58.9,59.6,59L59.6,59z"/>
</g>
</svg>
