<?xml version="1.0" encoding="utf-8"?>
<!-- Generator: Adobe Illustrator 18.1.1, SVG Export Plug-In . SVG Version: 6.00 Build 0)  -->
<svg version="1.1" id="Layer_1" xmlns="http://www.w3.org/2000/svg" xmlns:xlink="http://www.w3.org/1999/xlink" x="0px" y="0px"
	 viewBox="0 0 168 376.8" enable-background="new 0 0 168 376.8" xml:space="preserve">
<g>
	<g>
		<g>
			<g>
				<g>
					<ellipse fill-rule="evenodd" clip-rule="evenodd" fill="#9DB7BF" cx="23.8" cy="361.6" rx="19.9" ry="12"/>
					<ellipse fill-rule="evenodd" clip-rule="evenodd" fill="#EAEAEA" cx="23.8" cy="357" rx="19.9" ry="12"/>
					<path fill="#C9D6DB" d="M27.5,355.7c0.1,2.4-7.1,2.4-7.2,0V26.4c0-2,1.6-3.6,3.6-3.6c2,0,3.6,1.6,3.6,3.6V355.7z"/>
				</g>
				<path fill="#9DB7BF" d="M28.1,24.9h-8.6c-0.7,0-1.3-0.6-1.3-1.3v-8.6c0-0.7,0.6-1.3,1.3-1.3h8.6c0.7,0,1.3,0.6,1.3,1.3v8.6
					C29.4,24.4,28.8,24.9,28.1,24.9z"/>
			</g>
		</g>
	</g>
	<g>
		<path fill="#DD2E27" d="M163.1,92.6c-46.4-9.2-92.8,33.2-139.2,23.3c0.3-29.2,0.7-58.4,1-87.5c46.4,9.2,92.8-33.2,139.2-23.3
			C163.8,34.3,163.4,63.5,163.1,92.6z"/>
		<g>
			<path fill="#FDDD13" d="M34.6,47.3c3.2,0.2,6.3,0.1,9.5-0.1c1-3.1,2.1-6.1,3.1-9.2c1,3,1.9,5.9,2.9,8.8c3.1-0.4,6.2-1,9.3-1.6
				c-2.6,2.4-5.1,4.7-7.7,6.9c1,2.8,2,5.6,3,8.4c-2.6-1.4-5.1-2.8-7.7-4.4c-2.6,2.2-5.2,4.2-7.8,6.2c1-3.1,1.9-6.1,2.9-9.2
				C39.7,51.3,37.2,49.4,34.6,47.3z"/>
			<path fill="#FDDD13" d="M68.7,35.3c-1,0.5-2.1,1-3.1,1.5c0.7-0.9,1.5-1.8,2.2-2.8c-0.5-0.8-1.1-1.7-1.6-2.5
				c0.9,0.2,1.8,0.4,2.7,0.6c0.7-0.9,1.4-1.8,2.2-2.8c-0.1,1-0.2,2-0.4,3c1,0.1,2,0.3,3,0.4c-1,0.6-2.1,1.1-3.1,1.7
				c-0.1,1.1-0.2,2.2-0.3,3.3C69.7,36.8,69.2,36,68.7,35.3z"/>
			<path fill="#FDDD13" d="M73.7,41.6c0.9-0.7,1.8-1.5,2.8-2.2c-0.1-1-0.3-2.1-0.4-3.1c0.7,0.5,1.5,1,2.2,1.5
				c0.9-0.8,1.9-1.5,2.8-2.3c-0.5,1.1-0.9,2.1-1.4,3.2c0.7,0.6,1.4,1.1,2.1,1.7c-1.1,0.2-2.1,0.3-3.2,0.5c-0.5,1.1-1,2.2-1.5,3.3
				c-0.1-1-0.2-2-0.3-3C75.8,41.4,74.7,41.5,73.7,41.6z"/>
			<path fill="#FDDD13" d="M73.7,53c1-0.3,2.1-0.6,3.1-1c0.3-1.2,0.6-2.4,0.9-3.6c0.4,0.9,0.7,1.8,1.1,2.7c1-0.3,2-0.7,3-1
				c-0.8,0.8-1.5,1.7-2.3,2.5c0.3,0.9,0.6,1.8,0.9,2.7c-0.9-0.3-1.7-0.6-2.6-0.8c-0.9,1-1.7,1.9-2.6,2.9c0.3-1.1,0.7-2.3,1-3.4
				C75.4,53.7,74.5,53.4,73.7,53z"/>
			<path fill="#FDDD13" d="M68.4,62.8c0.7-1,1.4-2,2.1-3c0,1.1,0,2.1,0,3.2c0.9,0.1,1.7,0.2,2.6,0.3c-1,0.6-1.9,1.2-2.9,1.7
				c0,1,0,2.1,0,3.1c-0.6-0.7-1.2-1.3-1.8-2c-1,0.5-2,1.1-3,1.6c0.6-1,1.3-2,1.9-3c-0.5-0.7-1-1.4-1.5-2.2
				C66.6,62.7,67.5,62.8,68.4,62.8z"/>
		</g>
	</g>
</g>
</svg>
