<?xml version="1.0" encoding="utf-8"?>
<!-- Generator: Adobe Illustrator 18.1.1, SVG Export Plug-In . SVG Version: 6.00 Build 0)  -->
<svg version="1.1" id="Layer_1" xmlns="http://www.w3.org/2000/svg" xmlns:xlink="http://www.w3.org/1999/xlink" x="0px" y="0px"
	 viewBox="0 0 68 68.3" enable-background="new 0 0 68 68.3" xml:space="preserve">
<path fill="#F1B51C" d="M53.3,27.6l-18.9-7.3c-0.2-0.1-0.4-0.1-0.6,0l-18.9,7.3c-0.3,0.1-0.5,0.4-0.5,0.7c0,0.3,0.2,0.6,0.5,0.7
	l6.4,2.5v10.4c0,0.6,0,1.7,12.8,5.4c0.1,0,0.1,0,0.2,0c0.1,0,0.2,0,0.2,0c12.4-3.7,12.4-4.8,12.4-5.4V31.5l2.7-1v9.8h-0.7
	c-0.4,0-0.8,0.4-0.8,0.8v6.3c0,0.4,0.4,0.8,0.8,0.8h3c0.4,0,0.8-0.4,0.8-0.8V41c0-0.4-0.4-0.8-0.8-0.8h-0.7V29.9l2.1-0.8
	c0.3-0.1,0.5-0.4,0.5-0.7C53.8,28,53.6,27.7,53.3,27.6z M51.1,46.5h-1.4v-4.7h1.4V46.5z M34.1,21.9l16.7,6.5l-16.7,6.4l-16.7-6.4
	L34.1,21.9z M45.3,41.7c-1,0.7-6.3,2.6-11,4.1c-4.9-1.4-10.4-3.3-11.4-4.1v-9.5l10.9,4.2c0.1,0,0.2,0.1,0.3,0.1s0.2,0,0.3-0.1
	l10.9-4.2V41.7z"/>
<circle fill="none" stroke="#B3B8BC" stroke-width="1.5008" stroke-miterlimit="10" cx="34.1" cy="34.2" r="32.6"/>
</svg>
