<?xml version="1.0" encoding="utf-8"?>
<!-- Generator: Adobe Illustrator 18.1.1, SVG Export Plug-In . SVG Version: 6.00 Build 0)  -->
<svg version="1.1" xmlns="http://www.w3.org/2000/svg" xmlns:xlink="http://www.w3.org/1999/xlink" x="0px" y="0px"
	 viewBox="0 0 68 68.3" enable-background="new 0 0 68 68.3" xml:space="preserve">
<g id="Layer_1" display="none">
	<path display="inline" fill="#F1B51C" d="M53.3,27.6l-18.9-7.3c-0.2-0.1-0.4-0.1-0.6,0l-18.9,7.3c-0.3,0.1-0.5,0.4-0.5,0.7
		c0,0.3,0.2,0.6,0.5,0.7l6.4,2.5v10.4c0,0.6,0,1.7,12.8,5.4c0.1,0,0.1,0,0.2,0c0.1,0,0.2,0,0.2,0c12.4-3.7,12.4-4.8,12.4-5.4V31.5
		l2.7-1v9.8h-0.7c-0.4,0-0.8,0.4-0.8,0.8v6.3c0,0.4,0.4,0.8,0.8,0.8h3c0.4,0,0.8-0.4,0.8-0.8V41c0-0.4-0.4-0.8-0.8-0.8h-0.7V29.9
		l2.1-0.8c0.3-0.1,0.5-0.4,0.5-0.7C53.8,28,53.6,27.7,53.3,27.6z M51.1,46.5h-1.4v-4.7h1.4V46.5z M34.1,21.9l16.7,6.5l-16.7,6.4
		l-16.7-6.4L34.1,21.9z M45.3,41.7c-1,0.7-6.3,2.6-11,4.1c-4.9-1.4-10.4-3.3-11.4-4.1v-9.5l10.9,4.2c0.1,0,0.2,0.1,0.3,0.1
		s0.2,0,0.3-0.1l10.9-4.2V41.7z"/>
	
		<circle display="inline" fill="none" stroke="#B3B8BC" stroke-width="1.5008" stroke-miterlimit="10" cx="34.1" cy="34.2" r="32.6"/>
</g>
<g id="Layer_2" display="none">
	<g display="inline">
		<circle fill="none" stroke="#B3B8BC" stroke-width="1.4766" stroke-miterlimit="10" cx="34.3" cy="33.6" r="32.1"/>
		<g>
			<polyline fill="none" stroke="#F1B51C" stroke-width="1.4766" stroke-linejoin="round" stroke-miterlimit="10" points="
				18.7,28.8 10.5,28.8 10.5,38.5 18.7,38.5 			"/>
			<path fill="none" stroke="#F1B51C" stroke-width="1.4766" stroke-linejoin="round" stroke-miterlimit="10" d="M18.7,40.5h13.4
				V26.8H18.7V40.5z M23,31.2h4.7v5H23V31.2z"/>
			<path fill="none" stroke="#F1B51C" stroke-width="1.4766" stroke-linejoin="round" stroke-miterlimit="10" d="M58,28.7h-8.2v-2
				L42,28.6h-6.4v10.1h6.7l7.4,1.8v-2H58V28.7z M38.6,31.8h2.4v3.6h-2.4V31.8z"/>
			
				<line fill="none" stroke="#F1B51C" stroke-width="1.4766" stroke-linejoin="round" stroke-miterlimit="10" x1="49.9" y1="28.2" x2="49.9" y2="39"/>
		</g>
	</g>
</g>
<g id="Layer_3">
	<circle fill="none" stroke="#B3B8BC" stroke-width="1.4766" stroke-miterlimit="10" cx="34" cy="33.8" r="32.1"/>
	<polyline fill="none" stroke="#F1B51C" stroke-width="1.832" stroke-linejoin="round" stroke-miterlimit="10" points="46.2,29 
		46.2,47.8 23.4,47.8 23.4,28.9 	"/>
	
		<polyline fill="none" stroke="#F1B51C" stroke-width="1.832" stroke-linecap="round" stroke-linejoin="round" stroke-miterlimit="10" points="
		50,31.3 34.8,21.5 19.5,31.3 	"/>
	<polygon fill="#F1B51C" stroke="#F1B51C" stroke-width="1.832" stroke-linejoin="round" stroke-miterlimit="10" points="26.7,26.7 
		24.8,27.9 24.8,23.6 26.7,23.6 	"/>
	<g>
		
			<rect x="29.3" y="31.8" fill="none" stroke="#F1B51C" stroke-width="1.832" stroke-linejoin="round" stroke-miterlimit="10" width="4" height="4"/>
		
			<rect x="36.3" y="31.8" fill="none" stroke="#F1B51C" stroke-width="1.832" stroke-linejoin="round" stroke-miterlimit="10" width="4" height="4"/>
		
			<rect x="29.3" y="38.9" fill="none" stroke="#F1B51C" stroke-width="1.832" stroke-linejoin="round" stroke-miterlimit="10" width="4" height="4"/>
		
			<rect x="36.3" y="38.9" fill="none" stroke="#F1B51C" stroke-width="1.832" stroke-linejoin="round" stroke-miterlimit="10" width="4" height="4"/>
	</g>
</g>
</svg>
