<?xml version="1.0" encoding="utf-8"?>
<!-- Generator: Adobe Illustrator 18.1.1, SVG Export Plug-In . SVG Version: 6.00 Build 0)  -->
<svg version="1.1" id="Layer_1" xmlns="http://www.w3.org/2000/svg" xmlns:xlink="http://www.w3.org/1999/xlink" x="0px" y="0px"
	 viewBox="0 0 157.4 63.7" enable-background="new 0 0 157.4 63.7" xml:space="preserve">
<path fill="#F1B51C" d="M146.2,63c3,0,5.5-2.5,5.5-5.5v-2.6c2.6-0.9,4.5-3.3,4.5-6.2c0-3.6-2.9-6.6-6.6-6.6c-3.6,0-6.6,2.9-6.6,6.6
	c0,3.1,2.2,5.8,5.2,6.4v2.4c0,1.1-0.9,2-2,2H83.9V55c2.8-0.8,4.8-3.3,4.8-6.3c0-3.6-2.9-6.6-6.6-6.6s-6.6,2.9-6.6,6.6
	c0,3,2.1,5.6,4.9,6.3v4.5H18.1c-1.1,0-2-0.9-2-2v-2.4c2.9-0.7,5.1-3.3,5.1-6.4c0-3.6-2.9-6.6-6.6-6.6c-3.6,0-6.6,2.9-6.6,6.6
	c0,2.9,1.9,5.4,4.6,6.2v2.6c0,3,2.5,5.5,5.5,5.5H146.2z M79,48.7c0-1.7,1.4-3.1,3.1-3.1c1.7,0,3.1,1.4,3.1,3.1
	c0,1.7-1.4,3.1-3.1,3.1C80.4,51.8,79,50.4,79,48.7z M11.6,48.7c0-1.7,1.4-3.1,3.1-3.1c1.7,0,3.1,1.4,3.1,3.1c0,1.7-1.4,3.1-3.1,3.1
	C12.9,51.8,11.6,50.4,11.6,48.7z M146.5,48.7c0-1.7,1.4-3.1,3.1-3.1c1.7,0,3.1,1.4,3.1,3.1c0,1.7-1.4,3.1-3.1,3.1
	C147.9,51.8,146.5,50.4,146.5,48.7z"/>
<g>
	<path fill="#B3B8BC" d="M63.8,25.5H99c2,0,3.6-1.6,3.6-3.6V4.3c0-2-1.6-3.6-3.6-3.6H63.8c-2,0-3.6,1.6-3.6,3.6v17.6
		C60.2,23.9,61.8,25.5,63.8,25.5z M62,4.3c0-1,0.8-1.8,1.8-1.8H99c1,0,1.8,0.8,1.8,1.8v17.6c0,1-0.8,1.8-1.8,1.8H63.8
		c-1,0-1.8-0.8-1.8-1.8V4.3z"/>
	<path fill="#B3B8BC" d="M105.1,27.3H87.3c-0.2,0.8-0.9,1.4-1.7,1.4h-8.1c-0.8,0-1.5-0.6-1.7-1.4h-18c-0.9,0-1.6,0.7-1.6,1.6
		c0,0.9,0.7,1.6,1.6,1.6h47.3c0.9,0,1.6-0.7,1.6-1.6C106.7,28,105.9,27.3,105.1,27.3z"/>
	<path fill="#FFFFFF" d="M63.8,23.7H99c1,0,1.8-0.8,1.8-1.8V4.3c0-1-0.8-1.8-1.8-1.8H63.8c-1,0-1.8,0.8-1.8,1.8v17.6
		C62,22.9,62.8,23.7,63.8,23.7z"/>
	<path fill="#B3B8BC" d="M105.1,30.5H57.7c-0.9,0-1.6-0.7-1.6-1.6c0-0.9,0.7-1.6,1.6-1.6h18c0.2,0.8,0.9,1.4,1.7,1.4h8.1
		c0.8,0,1.5-0.6,1.7-1.4h17.8c0.9,0,1.6,0.7,1.6,1.6C106.7,29.8,105.9,30.5,105.1,30.5z"/>
</g>
<g id="Smartphone_1_">
	<g>
		<path fill="#B3B8BC" d="M154.4,4.5h-11.4c-1.2,0-2.2,1-2.2,2.3v20.7c0,1.2,1,2.3,2.2,2.3h11.4c1.2,0,2.2-1,2.2-2.3V6.8
			C156.5,5.5,155.6,4.5,154.4,4.5z M155,27.5c0,0.4-0.3,0.7-0.6,0.7h-11.4c-0.3,0-0.6-0.3-0.6-0.7v-3.3H155V27.5z M155,22.7h-12.6
			V10.8H155V22.7z M155,9.3h-12.6V6.8c0-0.4,0.3-0.7,0.6-0.7h11.4c0.3,0,0.6,0.3,0.6,0.7V9.3z M148.7,27.4c0.7,0,1.2-0.5,1.2-1.2
			s-0.5-1.2-1.2-1.2s-1.2,0.5-1.2,1.2S148,27.4,148.7,27.4z M150.2,6.9h-3.2c-0.4,0-0.8,0.4-0.8,0.8c0,0.4,0.4,0.8,0.8,0.8h3.2
			c0.4,0,0.8-0.4,0.8-0.8C151,7.2,150.7,6.9,150.2,6.9z"/>
	</g>
</g>
<g id="Tablet_1_">
	<g>
		<path fill="#B3B8BC" d="M23,0.8H3.1C1.8,0.8,0.7,2,0.7,3.4v25.8c0,1.4,1.1,2.5,2.4,2.5H23c1.3,0,2.4-1.1,2.4-2.5V3.4
			C25.4,2,24.3,0.8,23,0.8z M23.6,29.1c0,0.4-0.3,0.8-0.7,0.8H3.1c-0.4,0-0.7-0.3-0.7-0.8v-3.6h21.2V29.1z M23.6,23.7H2.5V6.1h21.2
			V23.7z M23.6,4.4H2.5v-1c0-0.4,0.3-0.8,0.7-0.8H23c0.4,0,0.7,0.3,0.7,0.8V4.4z M13,29c0.7,0,1.3-0.6,1.3-1.3
			c0-0.7-0.6-1.3-1.3-1.3s-1.3,0.6-1.3,1.3C11.7,28.4,12.3,29,13,29z"/>
	</g>
</g>
</svg>
