<?xml version="1.0" encoding="utf-8"?>
<!-- Generator: Adobe Illustrator 18.1.1, SVG Export Plug-In . SVG Version: 6.00 Build 0)  -->
<svg version="1.1" id="smart" xmlns="http://www.w3.org/2000/svg" xmlns:xlink="http://www.w3.org/1999/xlink" x="0px" y="0px"
	 viewBox="0 0 161.9 70.1" enable-background="new 0 0 161.9 70.1" xml:space="preserve">
<path id="orange-stroke" fill="#F1B51C" d="M148.4,65.8c3,0,5.5-2.5,5.5-5.5v-2.6c2.6-0.9,4.5-3.3,4.5-6.2c0-3.6-2.9-6.6-6.6-6.6
	c-3.6,0-6.6,2.9-6.6,6.6c0,3.1,2.2,5.8,5.2,6.4v2.4c0,1.1-0.9,2-2,2H86.1v-4.5c2.8-0.8,4.8-3.3,4.8-6.3c0-3.6-2.9-6.6-6.6-6.6
	s-6.6,2.9-6.6,6.6c0,3,2.1,5.6,4.9,6.3v4.5H20.3c-1.1,0-2-0.9-2-2v-2.4c2.9-0.7,5.1-3.3,5.1-6.4c0-3.6-2.9-6.6-6.6-6.6
	c-3.6,0-6.6,2.9-6.6,6.6c0,2.9,1.9,5.4,4.6,6.2v2.6c0,3,2.5,5.5,5.5,5.5H148.4z M81.2,51.5c0-1.7,1.4-3.1,3.1-3.1
	c1.7,0,3.1,1.4,3.1,3.1c0,1.7-1.4,3.1-3.1,3.1C82.6,54.6,81.2,53.2,81.2,51.5z M13.7,51.5c0-1.7,1.4-3.1,3.1-3.1
	c1.7,0,3.1,1.4,3.1,3.1c0,1.7-1.4,3.1-3.1,3.1C15.1,54.6,13.7,53.2,13.7,51.5z M148.7,51.5c0-1.7,1.4-3.1,3.1-3.1
	c1.7,0,3.1,1.4,3.1,3.1c0,1.7-1.4,3.1-3.1,3.1C150.1,54.6,148.7,53.2,148.7,51.5z"/>
<g id="desktop">
	<path fill="#B3B8BC" d="M66,28.3h35.2c2,0,3.6-1.6,3.6-3.6V7.1c0-2-1.6-3.6-3.6-3.6H66c-2,0-3.6,1.6-3.6,3.6v17.6
		C62.4,26.7,64,28.3,66,28.3z M64.2,7.1c0-1,0.8-1.8,1.8-1.8h35.2c1,0,1.8,0.8,1.8,1.8v17.6c0,1-0.8,1.8-1.8,1.8H66
		c-1,0-1.8-0.8-1.8-1.8V7.1z"/>
	<path fill="#B3B8BC" d="M107.2,30.1H89.4c-0.2,0.8-0.9,1.4-1.7,1.4h-8.1c-0.8,0-1.5-0.6-1.7-1.4h-18c-0.9,0-1.6,0.7-1.6,1.6
		c0,0.9,0.7,1.6,1.6,1.6h47.3c0.9,0,1.6-0.7,1.6-1.6C108.8,30.8,108.1,30.1,107.2,30.1z"/>
	<path fill="#FFFFFF" d="M66,26.5h35.2c1,0,1.8-0.8,1.8-1.8V7.1c0-1-0.8-1.8-1.8-1.8H66c-1,0-1.8,0.8-1.8,1.8v17.6
		C64.2,25.7,65,26.5,66,26.5z"/>
	<path fill="#B3B8BC" d="M107.2,33.3H59.9c-0.9,0-1.6-0.7-1.6-1.6c0-0.9,0.7-1.6,1.6-1.6h18c0.2,0.8,0.9,1.4,1.7,1.4h8.1
		c0.8,0,1.5-0.6,1.7-1.4h17.8c0.9,0,1.6,0.7,1.6,1.6C108.8,32.6,108.1,33.3,107.2,33.3z"/>
</g>
<g id="smartphone">
	<g>
		<path fill="#B3B8BC" d="M156.5,7.3h-11.4c-1.2,0-2.2,1-2.2,2.3v20.7c0,1.2,1,2.3,2.2,2.3h11.4c1.2,0,2.2-1,2.2-2.3V9.6
			C158.7,8.3,157.7,7.3,156.5,7.3z M157.1,30.2c0,0.4-0.3,0.7-0.6,0.7h-11.4c-0.3,0-0.6-0.3-0.6-0.7V27h12.6V30.2z M157.1,25.4
			h-12.6V13.6h12.6V25.4z M157.1,12h-12.6V9.6c0-0.4,0.3-0.7,0.6-0.7h11.4c0.3,0,0.6,0.3,0.6,0.7V12z M150.8,30.1
			c0.7,0,1.2-0.5,1.2-1.2s-0.5-1.2-1.2-1.2s-1.2,0.5-1.2,1.2S150.2,30.1,150.8,30.1z M152.4,9.6h-3.2c-0.4,0-0.8,0.4-0.8,0.8
			s0.4,0.8,0.8,0.8h3.2c0.4,0,0.8-0.4,0.8-0.8S152.8,9.6,152.4,9.6z"/>
	</g>
</g>
<g id="tablet">
	<g>
		<path fill="#B3B8BC" d="M25.1,3.6H5.3C4,3.6,2.9,4.7,2.9,6.1v25.8c0,1.4,1.1,2.5,2.4,2.5h19.8c1.3,0,2.4-1.1,2.4-2.5V6.1
			C27.5,4.7,26.5,3.6,25.1,3.6z M25.8,31.9c0,0.4-0.3,0.8-0.7,0.8H5.3c-0.4,0-0.7-0.3-0.7-0.8v-3.6h21.2V31.9z M25.8,26.5H4.6V8.9
			h21.2V26.5z M25.8,7.1H4.6v-1c0-0.4,0.3-0.8,0.7-0.8h19.8c0.4,0,0.7,0.3,0.7,0.8V7.1z M15.2,31.8c0.7,0,1.3-0.6,1.3-1.3
			c0-0.7-0.6-1.3-1.3-1.3s-1.3,0.6-1.3,1.3C13.9,31.2,14.5,31.8,15.2,31.8z"/>
	</g>
</g>
</svg>
