<?xml version="1.0" encoding="utf-8"?>
<!-- Generator: Adobe Illustrator 18.1.1, SVG Export Plug-In . SVG Version: 6.00 Build 0)  -->
<svg version="1.1" id="Layer_1" xmlns="http://www.w3.org/2000/svg" xmlns:xlink="http://www.w3.org/1999/xlink" x="0px" y="0px"
	 viewBox="0 0 724.5 123.1" enable-background="new 0 0 724.5 123.1" xml:space="preserve">
<g>
	<g>
		<polygon fill-rule="evenodd" clip-rule="evenodd" fill="#F1B51C" points="66.3,4 80.6,48 126.9,48 89.4,75.2 103.7,119.2 66.3,92 
			28.8,119.2 43.2,75.2 5.7,48 52,48 		"/>
	</g>
	<g>
		<polygon fill-rule="evenodd" clip-rule="evenodd" fill="#F1B51C" points="214.5,4 228.8,48 275.1,48 237.7,75.2 252,119.2 
			214.5,92 177.1,119.2 191.4,75.2 153.9,48 200.2,48 		"/>
	</g>
	<g>
		<polygon fill-rule="evenodd" clip-rule="evenodd" fill="#F1B51C" points="362.8,4 377.1,48 423.4,48 385.9,75.2 400.2,119.2 
			362.8,92 325.3,119.2 339.6,75.2 302.2,48 348.5,48 		"/>
	</g>
	<g>
		<polygon fill-rule="evenodd" clip-rule="evenodd" fill="#F1B51C" points="511,4 525.3,48 571.6,48 534.2,75.2 548.5,119.2 511,92 
			473.6,119.2 487.9,75.2 450.4,48 496.7,48 		"/>
	</g>
	<g>
		<polygon fill-rule="evenodd" clip-rule="evenodd" fill="#F1B51C" points="659.3,4 673.6,48 719.8,48 682.4,75.2 696.7,119.2 
			659.3,92 621.8,119.2 636.1,75.2 598.7,48 645,48 		"/>
	</g>
</g>
</svg>
