<?xml version="1.0" encoding="utf-8"?>
<!-- Generator: Adobe Illustrator 18.1.1, SVG Export Plug-In . SVG Version: 6.00 Build 0)  -->
<svg version="1.1" id="sun_1_" xmlns="http://www.w3.org/2000/svg" xmlns:xlink="http://www.w3.org/1999/xlink" x="0px" y="0px"
	 viewBox="0 0 100 100" enable-background="new 0 0 100 100" xml:space="preserve">
<path id="circle" fill="#F1B51C" d="M36.5,30.7c10.6-7.4,25.3-4.8,32.7,5.8c7.4,10.6,4.8,25.3-5.8,32.7c-10.6,7.4-25.3,4.8-32.7-5.8
	C23.3,52.8,25.9,38.2,36.5,30.7z"/>
<g id="rays">
	<path fill="#EDD926" d="M19.5,71.3c-2.3-3.3-3.9-6.9-5-10.6l-0.1-0.1l-2.9,16.4l16.4,2.9l-0.1-0.1C24.7,77.4,21.8,74.7,19.5,71.3z"
		/>
	<path fill="#EDD926" d="M80.5,28.7c2.3,3.3,3.9,6.9,5,10.6l0.1,0.1l2.9-16.4l-16.4-2.9l0.1,0.1C75.3,22.7,78.2,25.3,80.5,28.7z"/>
	<path fill="#EDD926" d="M28.7,19.5c3.3-2.3,7-3.9,10.6-5l0.1-0.1l-16.4-2.9l-2.9,16.4l0.1-0.1C22.6,24.7,25.3,21.8,28.7,19.5z"/>
	<path fill="#EDD926" d="M71.3,80.5c-3.3,2.3-6.9,3.9-10.6,5l-0.1,0.1l16.4,2.9l2.9-16.4l-0.1,0.1C77.4,75.3,74.7,78.2,71.3,80.5z"
		/>
	<path fill="#EDD926" d="M56.5,13.3c4,0.7,7.7,2.2,11.1,4l0.2,0L58.2,3.7l-13.6,9.5l0.2,0C48.6,12.7,52.5,12.6,56.5,13.3z"/>
	<path fill="#EDD926" d="M43.5,86.7c-4-0.7-7.6-2.2-11-4l-0.2,0l9.5,13.6l13.6-9.5l-0.2,0C51.4,87.3,47.5,87.4,43.5,86.7z"/>
	<path fill="#EDD926" d="M86.7,56.5c-0.7,4-2.2,7.6-4,11l0,0.2l13.6-9.5l-9.5-13.6l0,0.2C87.3,48.6,87.4,52.5,86.7,56.5z"/>
	<path fill="#EDD926" d="M13.3,43.5c0.7-4,2.2-7.7,4-11l0-0.2L3.8,41.8l9.5,13.6l0-0.2C12.7,51.4,12.6,47.5,13.3,43.5z"/>
</g>
</svg>
