<?xml version="1.0" encoding="utf-8"?>
<!-- Generator: Adobe Illustrator 18.1.1, SVG Export Plug-In . SVG Version: 6.00 Build 0)  -->
<svg version="1.1" xmlns="http://www.w3.org/2000/svg" xmlns:xlink="http://www.w3.org/1999/xlink" x="0px" y="0px" viewBox="0 0 100 100" enable-background="new 0 0 100 100" xml:space="preserve" width="100px" height="100px">
    <circle class="grey_circle" display="inline" fill="#B3B7BB" cx="50" cy="50" r="43.3"></circle>
    <g display="inline">
        <path class="shadow" fill="#7D7D7D" d="M85.8,49.2c-0.4,0-62.6-3.9-62.6-3.9l2,14.1l47.2,27.7C79,83,83.6,78.6,87.9,71
            c4.7-7.4,5.3-17.8,5.3-17.8"></path>
        <g class="brand_car">
            <path fill="#F0B41C" d="M15.3,44.5c0,0-0.2,4.1-0.5,4.6c-0.3,0.5-1.5,2.4-1.5,3.4s1.7,2.8,2.6,3.4s7.8,1.1,7.8,1.1L78.8,58
                l9.1-1.1c0,0,0.5-5.8-2.1-7.7c-2.6-1.9-10.4-2.8-15.3-3.5c-5-0.7-10-4.4-14.5-5.9c-4.5-1.6-14.2-2-18.9-1.4S23.6,43,21.3,43.5
                C19,44,15.3,44.5,15.3,44.5z"></path>
            <circle fill="#CC982B" cx="28.9" cy="56.4" r="5.4"></circle>
            <circle fill="#CC982B" cx="72.5" cy="56.4" r="5.4"></circle>
            <path fill="#FFFFFF" d="M37.9,40.8c1.7-0.4,7.5-2.4,16.2-0.3c3,0.7,7.1,3.1,7.1,3.1l-1.7,2.2l-30.6-1
                C28.9,44.7,36.2,41.2,37.9,40.8z"></path>
            <rect x="44.2" y="38.8" transform="matrix(0.9595 -0.2816 0.2816 0.9595 -10.1991 14.4139)" fill="#F0B41C" width="1.6" height="7.8"></rect>
            <path fill="#FFFFFF" d="M80.9,48.6c0,0,4.1,0.2,4.9,1.5c0.8,1.3,0.9,1.6,0.9,1.6s-3.6-0.2-4.3-0.5C81.7,50.9,80.9,48.6,80.9,48.6
                z"></path>
            <circle fill="#FFFFFF" cx="28.9" cy="56.4" r="2.1"></circle>
            <circle fill="#FFFFFF" cx="72.5" cy="56.4" r="2.1"></circle>
            <line fill="none" stroke="#FFFFFF" stroke-width="0.2811" stroke-linecap="round" stroke-miterlimit="10" x1="39.3" y1="55.1" x2="62.5" y2="55.8"></line>
            <path fill="#FFFFFF" d="M16.2,45.8L16,48.6h2.5c0,0,1.5-1.6,1.7-2C20.4,46.3,16.2,45.8,16.2,45.8z"></path>
        </g>
    </g>
    <path class="white_circle" display="inline" fill="#FFFFFF" d="M50,1.3C23.1,1.3,1.3,23.1,1.3,50c0,26.9,21.8,48.7,48.7,48.7
        C77,98.6,98.8,76.9,98.8,50C98.8,23.1,77,1.3,50,1.3z M50,93.4C26,93.4,6.5,74,6.5,49.9C6.5,25.9,26,6.5,50,6.5
        s43.5,19.5,43.5,43.5C93.5,74,74,93.4,50,93.4z"></path>
    <g class="corner_path">
        <path fill="#FFFFFF" d="M0,0v100h100V0H0z M50,100C22.4,100,0,77.6,0,50C0,22.4,22.4,0,50,0c27.6,0,50,22.4,50,50S77.6,100,50,100z
            "></path>
    </g>
    <circle class="out_circle" display="inline" fill="none" stroke="#6D6E70" stroke-width="1.3937" stroke-miterlimit="10" cx="50" cy="50" r="49.3"></circle>
</svg>