<?xml version="1.0" encoding="utf-8"?>
<!-- Generator: Adobe Illustrator 18.1.1, SVG Export Plug-In . SVG Version: 6.00 Build 0)  -->
<svg version="1.1" xmlns="http://www.w3.org/2000/svg" xmlns:xlink="http://www.w3.org/1999/xlink" x="0px" y="0px"
	 viewBox="0 0 56.7 58.3" enable-background="new 0 0 56.7 58.3" xml:space="preserve">
<g id="Layer_1" display="none">
	<g display="inline">
		<g>
			<circle fill="#B3B8BC" cx="28.3" cy="29.3" r="22.7"/>
		</g>
		<circle fill="none" stroke="#6D6E71" stroke-miterlimit="10" cx="28.3" cy="29.3" r="25.8"/>
		<g>
			<g>
				<defs>
					<circle id="SVGID_1_" cx="28.3" cy="29.3" r="22.7"/>
				</defs>
				<clipPath id="SVGID_2_">
					<use xlink:href="#SVGID_1_"  overflow="visible"/>
				</clipPath>
				<path clip-path="url(#SVGID_2_)" fill="#898989" d="M35.2,16.7l18.4,10.8c0,0-3.6,21.3-4.5,20.8C48.2,47.9,38,53.4,38,53.4h-8.8
					l2.7-35.1L35.2,16.7z"/>
			</g>
			<g>
				<defs>
					<circle id="SVGID_3_" cx="28.3" cy="29.3" r="22.7"/>
				</defs>
				<clipPath id="SVGID_4_">
					<use xlink:href="#SVGID_3_"  overflow="visible"/>
				</clipPath>
				<g clip-path="url(#SVGID_4_)">
					<path fill-rule="evenodd" clip-rule="evenodd" fill="#F1B51C" d="M28.3,15.6c-4.6,0-8.3,1.1-8.3,2.4v42.5h16.5V18
						C36.6,16.7,32.9,15.6,28.3,15.6z"/>
					<g>
						<defs>
							<path id="SVGID_5_" d="M34.5,79.9C22.2,70.1,9.9,62.3-2.2,56.4C3.4,47.2,9,38.4,14.7,30C27,37.7,39.3,47.3,51.3,58.9
								C45.8,65.5,40.1,72.4,34.5,79.9z"/>
						</defs>
						<clipPath id="SVGID_6_">
							<use xlink:href="#SVGID_5_"  overflow="visible"/>
						</clipPath>
						<path clip-path="url(#SVGID_6_)" fill-rule="evenodd" clip-rule="evenodd" fill="#CC992B" d="M28.3,19.2
							c-4.6,0-8.3,1.1-8.3,2.4V64h16.5V21.5C36.6,20.2,32.9,19.2,28.3,19.2z"/>
					</g>
					<path fill="#FFFFFF" d="M36.6,40.3c-1.6-1.1-4.9-1.6-8.3-1.6c-3.3,0-6.7,0.5-8.2,1.6v1.4h0c0-0.8,3.2-2,8.2-2s8.2,1.2,8.2,2h0
						V40.3z"/>
					<g>
						<path fill-rule="evenodd" clip-rule="evenodd" fill="#FFFFFF" d="M23,20.1c0,3.4,0,6.8,0,10.2c3.5-0.8,7.2-0.8,10.7,0
							c0-3.4,0-6.8,0-10.2C30.1,19.2,26.5,19.2,23,20.1L23,20.1z M25.4,24.3c0-0.4,0-0.8,0-1.2c0-1.2,0.6-1.5,1.2-1.6
							c0.6,0,1.2,0.1,1.2,0.9c0,0.2,0,0.4,0,0.5c-0.2,0-0.5,0-0.7,0c0-0.1,0-0.2,0-0.4c0-0.4-0.1-0.5-0.5-0.5
							c-0.5,0-0.5,0.8-0.5,1.2c0,0.4,0,0.8,0,1.2c0,0.6,0,1,0.5,0.9c0.3,0,0.5-0.1,0.5-0.5c0-0.3,0-0.5,0-0.8c-0.2,0-0.3,0-0.5,0
							c0-0.2,0-0.4,0-0.6c0.4,0,0.8,0,1.2-0.1c0,0.9,0,1.7,0,2.6c-0.2,0-0.4,0-0.7,0c0-0.1,0-0.2,0-0.3c-0.1,0.2-0.5,0.3-0.7,0.4
							C25.3,26.3,25.4,25.6,25.4,24.3L25.4,24.3z M31.3,27.8c-2-0.3-3.9-0.3-5.9,0c0-0.4,0-0.8,0-1.2c2-0.3,3.9-0.2,5.9,0
							C31.3,27,31.3,27.4,31.3,27.8L31.3,27.8z M31.3,26.3c-0.2,0-0.5-0.1-0.7-0.1c0-1,0-2,0-3c-0.2,1-0.4,2-0.6,3
							c-0.2,0-0.4,0-0.6,0c-0.2-1-0.4-2-0.6-3c0,1,0,2,0,3c-0.2,0-0.5,0-0.7,0c0-1.5,0-3,0-4.5c0.3,0,0.6,0,0.9,0c0.2,1,0.4,2,0.6,3
							c0.2-1,0.4-2,0.6-2.9c0.3,0,0.6,0.1,0.9,0.1C31.3,23.3,31.3,24.8,31.3,26.3L31.3,26.3z"/>
					</g>
				</g>
			</g>
		</g>
		<g>
			<circle fill="#B3B8BC" cx="28.3" cy="29.3" r="22.7"/>
		</g>
		<circle fill="none" stroke="#6D6E71" stroke-miterlimit="10" cx="28.3" cy="29.3" r="25.8"/>
		<g>
			<g>
				<defs>
					<circle id="SVGID_7_" cx="28.3" cy="29.3" r="22.7"/>
				</defs>
				<clipPath id="SVGID_8_">
					<use xlink:href="#SVGID_7_"  overflow="visible"/>
				</clipPath>
				<path clip-path="url(#SVGID_8_)" fill="#898989" d="M35.2,16.7l18.4,10.8c0,0-3.6,21.3-4.5,20.8C48.2,47.9,38,53.4,38,53.4h-8.8
					l2.7-35.1L35.2,16.7z"/>
			</g>
			<g>
				<defs>
					<circle id="SVGID_9_" cx="28.3" cy="29.3" r="22.7"/>
				</defs>
				<clipPath id="SVGID_10_">
					<use xlink:href="#SVGID_9_"  overflow="visible"/>
				</clipPath>
				<g clip-path="url(#SVGID_10_)">
					<path fill-rule="evenodd" clip-rule="evenodd" fill="#F1B51C" d="M28.3,15.6c-4.6,0-8.3,1.1-8.3,2.4v42.5h16.5V18
						C36.6,16.7,32.9,15.6,28.3,15.6z"/>
					<g>
						<defs>
							<path id="SVGID_11_" d="M34.5,79.9C22.2,70.1,9.9,62.3-2.2,56.4C3.4,47.2,9,38.4,14.7,30C27,37.7,39.3,47.3,51.3,58.9
								C45.8,65.5,40.1,72.4,34.5,79.9z"/>
						</defs>
						<clipPath id="SVGID_12_">
							<use xlink:href="#SVGID_11_"  overflow="visible"/>
						</clipPath>
						<path clip-path="url(#SVGID_12_)" fill-rule="evenodd" clip-rule="evenodd" fill="#CC992B" d="M28.3,19.2
							c-4.6,0-8.3,1.1-8.3,2.4V64h16.5V21.5C36.6,20.2,32.9,19.2,28.3,19.2z"/>
					</g>
					<path fill="#FFFFFF" d="M36.6,40.3c-1.6-1.1-4.9-1.6-8.3-1.6c-3.3,0-6.7,0.5-8.2,1.6v1.4h0c0-0.8,3.2-2,8.2-2s8.2,1.2,8.2,2h0
						V40.3z"/>
					<g>
						<path fill-rule="evenodd" clip-rule="evenodd" fill="#FFFFFF" d="M23,20.1c0,3.4,0,6.8,0,10.2c3.5-0.8,7.2-0.8,10.7,0
							c0-3.4,0-6.8,0-10.2C30.1,19.2,26.5,19.2,23,20.1L23,20.1z M25.4,24.3c0-0.4,0-0.8,0-1.2c0-1.2,0.6-1.5,1.2-1.6
							c0.6,0,1.2,0.1,1.2,0.9c0,0.2,0,0.4,0,0.5c-0.2,0-0.5,0-0.7,0c0-0.1,0-0.2,0-0.4c0-0.4-0.1-0.5-0.5-0.5
							c-0.5,0-0.5,0.8-0.5,1.2c0,0.4,0,0.8,0,1.2c0,0.6,0,1,0.5,0.9c0.3,0,0.5-0.1,0.5-0.5c0-0.3,0-0.5,0-0.8c-0.2,0-0.3,0-0.5,0
							c0-0.2,0-0.4,0-0.6c0.4,0,0.8,0,1.2-0.1c0,0.9,0,1.7,0,2.6c-0.2,0-0.4,0-0.7,0c0-0.1,0-0.2,0-0.3c-0.1,0.2-0.5,0.3-0.7,0.4
							C25.3,26.3,25.4,25.6,25.4,24.3L25.4,24.3z M31.3,27.8c-2-0.3-3.9-0.3-5.9,0c0-0.4,0-0.8,0-1.2c2-0.3,3.9-0.2,5.9,0
							C31.3,27,31.3,27.4,31.3,27.8L31.3,27.8z M31.3,26.3c-0.2,0-0.5-0.1-0.7-0.1c0-1,0-2,0-3c-0.2,1-0.4,2-0.6,3
							c-0.2,0-0.4,0-0.6,0c-0.2-1-0.4-2-0.6-3c0,1,0,2,0,3c-0.2,0-0.5,0-0.7,0c0-1.5,0-3,0-4.5c0.3,0,0.6,0,0.9,0c0.2,1,0.4,2,0.6,3
							c0.2-1,0.4-2,0.6-2.9c0.3,0,0.6,0.1,0.9,0.1C31.3,23.3,31.3,24.8,31.3,26.3L31.3,26.3z"/>
					</g>
				</g>
			</g>
		</g>
	</g>
</g>
<g id="Layer_2" display="none">
	<g display="inline">
		<g>
			<circle fill="#B3B8BC" cx="28.3" cy="29.2" r="22.7"/>
		</g>
		<circle fill="none" stroke="#6D6E71" stroke-miterlimit="10" cx="28.3" cy="29.2" r="25.8"/>
		<g>
			<g>
				<defs>
					<circle id="SVGID_13_" cx="28.3" cy="29.2" r="22.9"/>
				</defs>
				<clipPath id="SVGID_14_">
					<use xlink:href="#SVGID_13_"  overflow="visible"/>
				</clipPath>
				<polygon clip-path="url(#SVGID_14_)" fill="#8C9299" points="53.4,26.8 30.5,13.4 25.6,54.3 42.7,55.7 56.3,31.2 				"/>
			</g>
			<g>
				<defs>
					<circle id="SVGID_15_" cx="28.3" cy="29.2" r="22.9"/>
				</defs>
				<clipPath id="SVGID_16_">
					<use xlink:href="#SVGID_15_"  overflow="visible"/>
				</clipPath>
				<g clip-path="url(#SVGID_16_)">
					<path fill="#F1B51C" d="M39.5,31.7l-5.3-2.4l0,0c-1.5-1.3-3.7-2.1-6.1-2.4h0c-2.3,0.5-4.1,1.2-5.5,2.3l0,0l-5.5,2.4l1,22.8
						l3.8,0.1v16.9H27V53.6h2.9v17.8H35v-17l3.2-0.2L39.5,31.7z"/>
					<path fill="#F1B51C" d="M23.5,23.2h-0.7c-0.5,0-0.9-0.4-0.9-0.9v-1.5c0-0.5,0.4-0.9,0.9-0.9h0.7c0.5,0,0.9,0.4,0.9,0.9v1.5
						C24.5,22.8,24,23.2,23.5,23.2z"/>
					<path fill="#F1B51C" d="M32.9,23.2h-0.7c-0.5,0-0.9-0.4-0.9-0.9v-1.5c0-0.5,0.4-0.9,0.9-0.9h0.7c0.5,0,0.9,0.4,0.9,0.9v1.5
						C33.9,22.8,33.4,23.2,32.9,23.2z"/>
					<polygon fill="#FFFFFF" points="25.5,27.7 24.5,29.7 28,46.4 31.7,29.8 30.5,27.7 					"/>
					<polygon fill="#CC992B" points="29.2,30.2 26.9,30.2 26,27.7 30.1,27.7 					"/>
					<path fill="#F1B51C" d="M22.9,24.8v-5.1c0-2.4,2-4.4,4.4-4.4h1.1c2.4,0,4.4,2,4.4,4.4v5.1c0,1.2-2.5,4.2-5,4.2
						C25.4,29,22.9,26,22.9,24.8z"/>
					<g>
						<defs>
							<polygon id="SVGID_17_" points="25.5,27.7 24.5,29.7 28,46.4 31.7,29.8 30.5,27.7 							"/>
						</defs>
						<clipPath id="SVGID_18_">
							<use xlink:href="#SVGID_17_"  overflow="visible"/>
						</clipPath>
						<polygon clip-path="url(#SVGID_18_)" fill="#CC992B" points="29.5,46 28.1,47.2 26.6,46 27.1,30.8 29.1,30.8 						"/>
					</g>
					<path fill="#FFFFFF" d="M22.3,19.1c-0.1-0.3-0.7-1.6-0.4-2.9c0.4-1.7,1.7-1.2,1.7-1.2s0.3-1.7,2.1-1.8c0.7,0,4.9-1.2,6.9,2.1
						c0.7,1.2,0.3,5,0.3,5s-0.7-2.1-1.6-2.2c-1.7-0.2-1.9,0.8-3.5,0.6c-1.7-0.2-3.2-1.9-3.2-1.9s-0.1,1.1-0.6,1.9
						c-0.6,0.8-0.7,2.2-0.7,2.2L22.3,19.1z"/>
				</g>
			</g>
		</g>
	</g>
</g>
<g id="Layer_3" display="none">
	<g display="inline">
		<g>
			<circle fill="#B3B8BC" cx="28.1" cy="29.2" r="22.7"/>
		</g>
		<circle fill="none" stroke="#6D6E71" stroke-miterlimit="10" cx="28.1" cy="29.2" r="25.8"/>
		<g>
			<g>
				<defs>
					<circle id="SVGID_19_" cx="28.3" cy="29.2" r="22.7"/>
				</defs>
				<clipPath id="SVGID_20_">
					<use xlink:href="#SVGID_19_"  overflow="visible"/>
				</clipPath>
				<path clip-path="url(#SVGID_20_)" fill="#7D7D7D" d="M59,35.4c0,0-11.9-6.6-12.1-6.6s-32.8-2-32.8-2l1,7.4l31,18.2L59,35.4"/>
			</g>
			<g>
				<path fill="#F1B51C" d="M9.9,26.3c0,0-0.1,2.1-0.3,2.4C9.5,29,8.9,30,8.9,30.5c0,0.5,0.9,1.5,1.4,1.8c0.5,0.3,4.1,0.6,4.1,0.6
					l28.9,0.6l4.8-0.6c0,0,0.3-3-1.1-4c-1.4-1-5.4-1.5-8-1.8s-5.2-2.3-7.6-3.1c-2.4-0.8-7.4-1.1-9.9-0.8s-7.1,2.4-8.3,2.7
					S9.9,26.3,9.9,26.3z"/>
				<circle fill="#CC992B" cx="17" cy="32.6" r="2.8"/>
				<circle fill="#CC992B" cx="39.9" cy="32.6" r="2.8"/>
				<path fill="#FFFFFF" d="M21.8,24.4c0.9-0.2,3.9-1.3,8.5-0.2c1.6,0.4,3.7,1.6,3.7,1.6L33.1,27l-16-0.5
					C17,26.5,20.9,24.6,21.8,24.4z"/>
				
					<rect x="25.1" y="23.4" transform="matrix(0.9595 -0.2816 0.2816 0.9595 -6.1232 8.2089)" fill="#F1B51C" width="0.9" height="4.1"/>
				<path fill="#FFFFFF" d="M44.3,28.5c0,0,2.2,0.1,2.6,0.8c0.4,0.7,0.5,0.8,0.5,0.8s-1.9-0.1-2.2-0.3
					C44.7,29.7,44.3,28.5,44.3,28.5z"/>
				<circle fill="#FFFFFF" cx="17" cy="32.6" r="1.1"/>
				<circle fill="#FFFFFF" cx="39.9" cy="32.6" r="1.1"/>
				
					<line fill="none" stroke="#FFFFFF" stroke-width="0.2017" stroke-linecap="round" stroke-miterlimit="10" x1="22.5" y1="31.9" x2="34.6" y2="32.3"/>
				<path fill="#FFFFFF" d="M10.4,27l-0.1,1.5h1.3c0,0,0.8-0.8,0.9-1C12.6,27.3,10.4,27,10.4,27z"/>
			</g>
		</g>
	</g>
</g>
<g id="Layer_4">
	<g>
		<g>
			<circle fill="#B3B8BC" cx="28.1" cy="29.2" r="22.7"/>
		</g>
		<circle fill="none" stroke="#6D6E71" stroke-miterlimit="10" cx="28.1" cy="29.2" r="25.8"/>
		<g>
			<g>
				<circle fill="#FFFFFF" cx="27.6" cy="25.4" r="10.7"/>
				<path fill="#7D7D7D" d="M49.2,37.2c-3.3,8.6-11.7,14.6-21.1,14.6c-9.5,0-17.7-5.9-21.1-14.2c5.3-6.3,13.9-8.5,21.1-8.5
					C36.5,29.1,45.3,32.4,49.2,37.2z"/>
				<path fill="#F1B51C" d="M23.8,29.3c2.3-0.4,4.8-0.4,7.4-0.1c1,0.1,7.9,5.9,11.2,17.4c-2.6,2-5.9,5.2-13.8,5.2
					c-7.5,0-12-2.8-13.8-4.4C18.3,35.5,22.5,29.5,23.8,29.3z"/>
				<g>
					<g>
						<ellipse fill="#F1B51C" cx="32.1" cy="25.3" rx="0.3" ry="0.3"/>
						<circle fill="#F1B51C" cx="31.2" cy="25.5" r="0.3"/>
						<ellipse fill="#F1B51C" cx="22.9" cy="25.3" rx="0.3" ry="0.3"/>
						<circle fill="#F1B51C" cx="23.8" cy="25.5" r="0.3"/>
					</g>
					<path fill="#F1B51C" d="M33.3,23.3c0-0.4-0.8-0.5-0.9-0.4c-0.1,0.1-0.2,0.3-0.2,0.4c0,0.1-0.2,0-0.2,0c-0.2-0.6-0.9-1.9-1.2-2
						c-0.3-0.1-2.2-0.1-2.8-0.1v0c-0.1,0-0.6,0-0.8,0v0c-0.6,0-2.5,0-2.8,0.1c-0.3,0.1-0.9,1.4-1.2,2c0,0-0.2,0-0.2,0
						c0-0.1-0.1-0.3-0.2-0.4c-0.1-0.1-0.9,0-0.9,0.4c0,0.4,0.2,0.4,0.2,0.4s0.6,0.1,0.7,0.1c0.1-0.1,0-0.1,0.1-0.1
						c0.1,0,0.1,0,0.1,0s-0.4,0.4-0.4,0.5c0,0.1,0,0.3,0,0.3c-0.1,0.1-0.4,0.4-0.4,0.4c0,0.1-0.1,3.2,0.1,3.3c0,0,0,0,0.1,0
						c0,0,0,0,0,0h3.2c1.2,0,2.7,0,3.8,0h3.2c0,0,0,0,0,0c0,0,0.1,0,0.1,0c0.1,0,0.1-3.2,0.1-3.3c0-0.1-0.3-0.4-0.4-0.4
						c-0.1-0.1,0-0.2,0-0.3c0-0.1-0.4-0.5-0.4-0.5s0,0,0.1,0c0.1,0,0,0,0.1,0.1c0.1,0.1,0.7-0.1,0.7-0.1S33.3,23.7,33.3,23.3z
						 M23,27.7c-0.1,0-0.3-0.1-0.3-0.3c0-0.2,0.1-0.3,0.3-0.3c0.1,0,0.3,0.1,0.3,0.3C23.3,27.6,23.1,27.7,23,27.7z M23.8,27.7
						c-0.1,0-0.3-0.1-0.3-0.3c0-0.2,0.1-0.3,0.3-0.3c0.1,0,0.3,0.1,0.3,0.3C24,27.6,23.9,27.7,23.8,27.7z M24.4,25.7
						c-0.3,0.2-0.8,0.2-1,0.2c-0.2,0-0.7-0.1-0.8-0.3c-0.1-0.1-0.1-0.6,0-0.7c0.1-0.1,2.2,0.3,2.2,0.3S24.7,25.5,24.4,25.7z
						 M29.8,27.7h-4.3c0,0,0,0,0-0.1c0,0,0-0.1,0-0.1h4.3C29.8,27.6,29.8,27.6,29.8,27.7C29.8,27.7,29.8,27.7,29.8,27.7z M26.2,26.6
						v-1.2c0,0,0,0,0.1,0c0,0,0.1,0,0.1,0v1.2C26.3,26.6,26.3,26.6,26.2,26.6C26.2,26.6,26.2,26.6,26.2,26.6z M26.5,26.6v-1.3
						c0,0,0,0,0.1,0c0,0,0.1,0,0.1,0v1.3C26.6,26.6,26.6,26.7,26.5,26.6C26.5,26.7,26.5,26.6,26.5,26.6z M26.8,26.7v-1.5
						c0,0,0-0.1,0.1-0.1c0,0,0.1,0,0.1,0.1v1.5C26.9,26.7,26.9,26.8,26.8,26.7C26.8,26.8,26.8,26.7,26.8,26.7z M27.1,26.8v-1.6
						c0,0,0-0.1,0.1-0.1c0,0,0.1,0,0.1,0.1v1.6C27.2,26.8,27.2,26.8,27.1,26.8C27.1,26.8,27.1,26.8,27.1,26.8z M27.4,26.8v-1.6
						c0,0,0-0.1,0.1-0.1c0,0,0.1,0,0.1,0.1v1.6C27.5,26.8,27.5,26.8,27.4,26.8C27.4,26.8,27.4,26.8,27.4,26.8z M27.7,26.8v-1.6
						c0,0,0-0.1,0.1-0.1c0,0,0.1,0,0.1,0.1v1.6C27.8,26.8,27.8,26.8,27.7,26.8C27.7,26.8,27.7,26.8,27.7,26.8z M28,26.8v-1.6
						c0,0,0-0.1,0.1-0.1c0,0,0.1,0,0.1,0.1v1.6C28.1,26.8,28.1,26.8,28,26.8C28,26.8,28,26.8,28,26.8z M28.3,26.7v-1.5
						c0,0,0-0.1,0.1-0.1c0,0,0.1,0,0.1,0.1v1.5C28.4,26.7,28.4,26.8,28.3,26.7C28.3,26.8,28.3,26.7,28.3,26.7z M28.6,26.6v-1.3
						c0,0,0,0,0.1,0c0,0,0.1,0,0.1,0v1.3C28.8,26.6,28.7,26.7,28.6,26.6C28.7,26.7,28.6,26.6,28.6,26.6z M28.9,26.6v-1.2
						c0,0,0,0,0.1,0c0,0,0.1,0,0.1,0v1.2C29.1,26.6,29,26.6,28.9,26.6C29,26.6,28.9,26.6,28.9,26.6z M30.7,22.6
						c-0.2-0.1-0.9-0.1-1,0c-0.1,0.1-0.2,0.7-0.1,0.8c0,0,0.2,0.1,0.3,0.1l0,0c-0.5,0-1.1,0-1.9,0c-0.2,0-0.8,0-1,0
						c-0.8,0-1.4,0-1.9,0l0,0c0.2,0,0.3,0,0.3-0.1c0.1-0.1,0-0.7-0.1-0.8c-0.1-0.1-0.8-0.1-1,0c-0.2,0.1-0.2,0.8-0.1,0.9
						c0,0,0.2,0,0.5,0l0,0c-1,0.1-1.4,0.2-1.4,0.1c0-0.1,0.7-1.9,1-2c0.2-0.1,2.5-0.1,2.8-0.1c0.1,0,0.7,0,0.7,0
						c0.4,0,2.6,0,2.8,0.1c0.2,0.1,1,1.9,1,2c0,0.1-0.4-0.1-1.4-0.1l0,0c0.2,0,0.4,0,0.5,0C30.9,23.4,30.9,22.7,30.7,22.6z
						 M31.6,27.7c-0.1,0-0.3-0.1-0.3-0.3c0-0.2,0.1-0.3,0.3-0.3c0.1,0,0.3,0.1,0.3,0.3C31.8,27.6,31.7,27.7,31.6,27.7z M32.3,27.7
						c-0.1,0-0.3-0.1-0.3-0.3c0-0.2,0.1-0.3,0.3-0.3c0.1,0,0.3,0.1,0.3,0.3C32.6,27.6,32.5,27.7,32.3,27.7z M32.7,24.9
						c0.1,0.1,0.1,0.6,0,0.7c-0.1,0.1-0.7,0.3-0.8,0.3c-0.2,0-0.7,0-1-0.2c-0.3-0.2-0.3-0.5-0.3-0.5S32.6,24.8,32.7,24.9z"/>
					<path fill="#F1B51C" d="M22.6,28.2v0.9c0,0.3,0.2,0.5,0.5,0.5h0.6c0.3,0,0.5-0.2,0.5-0.5v-0.9H22.6z"/>
					<path fill="#F1B51C" d="M30.9,28.2v0.9c0,0.3,0.2,0.5,0.5,0.5h0.6c0.3,0,0.5-0.2,0.5-0.5v-0.9H30.9z"/>
				</g>
				<path fill="#FFFFFF" d="M27.5,29c0,0-0.6,19.4-0.6,22.8c0.8,0.2,1.6,0.2,2.3,0c0-3.4-1.1-20.6-1.3-22.8C27.8,29,27.5,29,27.5,29
					z"/>
				<rect x="26.8" y="40" fill="#F1B51C" width="2.1" height="2.7"/>
				<rect x="26.8" y="34.3" fill="#F1B51C" width="2.1" height="1.6"/>
				<rect x="26.8" y="31.5" fill="#F1B51C" width="2.1" height="0.9"/>
				<rect x="26.8" y="29.9" fill="#F1B51C" width="2.1" height="0.5"/>
				<rect x="26.8" y="29.2" fill="#F1B51C" width="2.1" height="0.2"/>
			</g>
		</g>
	</g>
</g>
</svg>
