<?xml version="1.0" encoding="utf-8"?>
<!-- Generator: Adobe Illustrator 18.1.1, SVG Export Plug-In . SVG Version: 6.00 Build 0)  -->
<svg version="1.1" xmlns="http://www.w3.org/2000/svg" xmlns:xlink="http://www.w3.org/1999/xlink" x="0px" y="0px"
	 viewBox="0 0 100 100" enable-background="new 0 0 100 100" xml:space="preserve">
<g id="corner_path">
	<path fill="#FFFFFF" d="M0,0v100h100V0H0z M50,100C22.4,100,0,77.6,0,50C0,22.4,22.4,0,50,0c27.6,0,50,22.4,50,50S77.6,100,50,100z
		"/>
</g>
<g id="our_commitment">
	<g>
		<circle id="Path" class="grey_circle" fill="#B3B7BB" cx="50" cy="50" r="43.3"/>
		<path id="white_circle_3_" fill="#FFFFFF" d="M50,1.3C23.1,1.3,1.3,23.1,1.3,50c0,26.9,21.8,48.7,48.7,48.7
			C77,98.6,98.8,76.9,98.8,50C98.8,23.1,77,1.3,50,1.3z M50,93.4C26,93.4,6.5,74,6.5,49.9C6.5,25.9,26,6.5,50,6.5
			s43.5,19.5,43.5,43.5C93.5,74,74,93.4,50,93.4z"/>
		
			<circle class="out_circle" id="Outer_Stroke_3_" fill="none" stroke="#6D6E70" stroke-width="1.3937" stroke-miterlimit="10" cx="50" cy="50" r="49.3"/>
		<g>
			<path id="sun" fill="#FFFFFF" d="M82.6,51.3c0,18-14.6,32.6-32.6,32.6S17.4,69.3,17.4,51.3c0-18,14.6-32.6,32.6-32.6
				S82.6,33.3,82.6,51.3"/>
			<path id="dark_grey" fill="#7D7D7D" d="M91.1,63.8c-13-3.9-27.1-6.1-40.9-6.1c-13.2,0-27.5,1.7-41.3,6
				c5.4,17.1,21.8,29.6,41.1,29.6C69.4,93.3,85.7,80.8,91.1,63.8z"/>
			<path id="road" fill="#F0B41C" d="M87.3,72.3c-8.6-8.9-15.7-13.4-17.8-13.6c-12.6-1.3-28.1-1.4-39,0.3l-0.8,0
				c-2.9,0.4-8.3,5.8-15,16.2c7.7,11,20.7,18.3,35.5,18.3C66,93.3,79.9,84.8,87.3,72.3z"/>
			<g id="road_lines">
				<path fill="#FFFFFF" d="M49.2,57.5c0,0-0.5,16.5-1.1,35.8c1.9,0.1,3.2,0.2,5.1-0.1c-1-17-2-31.9-2.4-35.7
					C50.2,57.4,49.2,57.5,49.2,57.5"/>
				<rect x="46.2" y="80.4" fill="#F0B41C" width="8.5" height="6.7"/>
				<rect x="46.2" y="69" fill="#F0B41C" width="8.5" height="3.7"/>
				<rect x="46.2" y="62.6" fill="#F0B41C" width="8.5" height="2"/>
				<rect x="46.2" y="59.8" fill="#F0B41C" width="8.5" height="0.9"/>
			</g>
			<g id="inner_car">
				<path fill-rule="evenodd" clip-rule="evenodd" fill="#F0B41C" d="M68.3,36.7c0-0.5,0-0.9,0-1.4c0-0.4,0-0.7,0.1-1.1
					c0-0.4,0.1-0.5,0.6-0.5c0.6,0,1.1,0.1,1.7,0.1c0.4,0,0.7,0.1,1.1,0.2c0.3,0,0.6,0.2,0.6,0.6c0.1,0.4,0.1,0.8,0.2,1.2
					c0,0.3-0.2,0.6-0.4,0.8c-0.3,0.3-0.7,0.4-1.1,0.5c-0.7,0.2-1.5,0.3-2.2,0.5c-0.1,0-0.2,0.1-0.3,0.1c0.1,0.1,0.1,0.2,0.2,0.3
					c0.3,0.7,0.7,1.3,1,2c0.2,0.3,0.3,0.6,0.6,0.9c0.5,0.5,0.8,1.1,0.7,1.9c0,0.4,0,0.8,0,1.2c0,1.4,0.1,2.8,0.1,4.3
					c0.1,3.2,0.1,6.4-0.1,9.5c0,0.2,0,0.4,0,0.6c0,0.5-0.3,0.9-0.8,1c-0.4,0-0.8,0-1.2,0c-1,0-2,0-3,0c-0.1,0-0.3,0-0.4,0
					C65.2,59.2,65,59,65,58.5c0-0.2,0-0.4,0-0.5c0-0.3,0-0.7,0-1.1c-0.2,0-0.4,0-0.6,0c-0.3,0-0.7,0-1,0c-1.5,0.1-3-0.3-4.5-0.3
					c-6.3,0-12.5,0-18.8,0c-0.6,0-1.1,0.1-1.7,0.1c-1.1,0.1-2.3,0.1-3.4,0.1c-0.2,0-0.3,0-0.6,0c0,0.4,0,0.8,0,1.1
					c0,1-0.2,1.2-1.2,1.2c-1.3,0-2.5,0-3.8,0c-0.2,0-0.3,0-0.5,0c-0.4-0.1-0.6-0.4-0.6-0.8c0-1.3-0.1-2.6-0.1-4
					c-0.1-2.8,0-5.7,0.1-8.5c0-1,0-1.9,0-2.9c0-0.9,0.2-1.7,0.8-2.3c0.3-0.3,0.4-0.6,0.6-1c0.3-0.6,0.6-1.1,0.9-1.7
					c0.1-0.1,0.1-0.2,0.2-0.4c-0.3-0.1-0.5-0.1-0.7-0.2c-0.6-0.1-1.3-0.3-1.9-0.4c-0.2,0-0.4-0.1-0.5-0.2c-0.5-0.3-1-0.6-0.9-1.3
					c0.1-0.4,0.1-0.8,0.2-1.2c0-0.2,0.2-0.3,0.4-0.3c1-0.2,2-0.3,3-0.3c0.4,0,0.5,0.1,0.5,0.5c0,0.6,0,1.3,0.1,1.9
					c0,0.2,0,0.3,0,0.5c0.5,0.1,0.5,0.1,0.6-0.3c0.6-1.2,1.1-2.4,1.7-3.7c0.7-1.5,1.5-2.8,2.4-4.1c0.4-0.5,0.9-1,1.4-1.3
					c0.2-0.1,0.5-0.2,0.7-0.2c0.4,0,0.8-0.1,1.2-0.2c1.7-0.1,3.5-0.3,5.2-0.4c3.5-0.1,6.9-0.2,10.4,0c1.8,0.1,3.6,0.2,5.4,0.4
					c0.5,0,1,0.2,1.5,0.2c0.1,0,0.3,0.1,0.4,0.2c0.6,0.3,1.1,0.8,1.5,1.4c1,1.3,1.8,2.7,2.5,4.2c0.6,1.2,1.1,2.4,1.6,3.6
					C67.8,36.7,68,36.9,68.3,36.7z"/>
				<path fill="none" stroke="#FFFFFF" stroke-width="0.3694" stroke-miterlimit="10" d="M38.9,47.1l-1.6-5.5c0,0,0-0.5,1-0.5
					c1,0,11.4-0.2,11.4-0.2l11.9,0.2c0,0,0.6,0,0.5,0.5C62,42.2,60.5,47,60.5,47s-8.9,1.1-10.8,1C49.7,48.1,39.3,47.2,38.9,47.1z"/>
				<path fill="#FFFFFF" d="M40,46.7c0,0-0.7,0-0.8-0.6c-0.2-0.6-1.2-4-1.2-4s-0.2-0.3,0.5-0.3l11.4,0.2l11.6-0.2
					c0,0,0.4-0.1,0.2,0.4l-1.4,4.2c0,0-0.1,0.4-1.4,0.5l-9,0.7L40,46.7z"/>
				<path fill="#FFFFFF" d="M33.1,36c0,0-0.2-0.2,0.6-1.9c0,0,2.2-5.3,2.8-5.4c0.6-0.1,10.9-0.4,13-0.4c2.1,0,12.9,0.2,13.4,0.3
					c0.5,0.1,3.5,6.4,3.5,7.2c0,0,0.2,0.3-1.6,0.2C63,36,51.2,35.7,49.9,35.8c-1.3,0.1-15.8,0.4-16.3,0.3C33.1,36.1,33.1,36,33.1,36
					z"/>
				<path fill-rule="evenodd" clip-rule="evenodd" fill="#FFFFFF" d="M31.5,38.9c0,0-0.6,0-0.7,0.9c-0.1,0.9-0.6,4.3-0.3,5.6
					c0,0,0,0.7,1.1,1L35,47c0,0,0.4,0.1,0.3-0.3c0,0-1-4.6-1.2-5.1c0,0-0.7-1.8-1.6-2.3L31.5,38.9z"/>
				<path fill="none" stroke="#FFFFFF" stroke-width="0.3694" stroke-miterlimit="10" d="M30.6,50.2l6.6,1.6l0.6,1.8
					c0,0,0.1,0.3-0.6,0.3l-5.3-0.5C31.9,53.4,30.4,53.3,30.6,50.2z"/>
				<path fill="none" stroke="#FFFFFF" stroke-width="0.3694" stroke-miterlimit="10" d="M68.9,50.2l-6.6,1.6l-0.6,1.8
					c0,0-0.1,0.3,0.6,0.3l5.3-0.5C67.6,53.4,69.1,53.3,68.9,50.2z"/>
				<path fill="none" stroke="#FFFFFF" stroke-width="0.3694" stroke-miterlimit="10" d="M40.6,51.9l9.2,0.3l9.2-0.3
					c0,0-0.5,1.2-0.7,1.5c-0.2,0.3-0.1,0.8-2,0.9c-1.9,0.1-6.5,0.2-6.5,0.2l-7.2-0.3c0,0-1-0.1-1.4-0.9L40.6,51.9z"/>
				<polyline fill="none" stroke="#FFFFFF" stroke-width="0.3694" stroke-miterlimit="10" points="41.2,53.3 40.6,51.9 49.7,52.2 
									"/>
				<path fill="none" stroke="#FFFFFF" stroke-width="0.324" stroke-miterlimit="10" d="M41.3,52.4l8.5,0.2l8.5-0.2
					c0,0-0.4,0.8-0.6,1c-0.2,0.2-0.1,0.5-1.9,0.6c-1.8,0-6,0.1-6,0.1l-6.6-0.2c0,0-1,0-1.3-0.6L41.3,52.4z"/>
				<path fill="none" stroke="#FFFFFF" stroke-width="9.236200e-02" stroke-miterlimit="10" d="M41.8,30.8"/>
				<path fill="#F0B41C" d="M40.8,36c0.7,0.1,1.3-0.1,2,0C42.1,35.9,41.4,36,40.8,36"/>
				<path fill="#F0B41C" d="M42.8,36l0-0.2c0.7-0.1,1.2-0.2,1.3-0.3c0.3-0.5,0.2-3.3-0.3-4c-0.4-0.7-3.2-0.6-4-0.1
					C39,31.7,39,35,39.3,35.7c0.1,0.1,0.9,0.2,1.9,0.2l0,0.2c-0.1,0-0.3,0-0.4,0"/>
				<path fill="#F0B41C" d="M58.4,36c-0.1,0-0.3,0-0.4,0l0-0.2c1,0,1.8,0,1.9-0.2c0.3-0.7,0.3-3.9-0.5-4.4c-0.8-0.5-3.6-0.6-4,0.1
					c-0.4,0.7-0.6,3.5-0.3,4c0.1,0.2,0.6,0.3,1.3,0.3l0,0.2"/>
				<circle fill="#F0B41C" stroke="#FFFFFF" stroke-width="9.236200e-02" stroke-miterlimit="10" cx="32.8" cy="42.8" r="1"/>
				<path fill="#F0B41C" stroke="#FFFFFF" stroke-width="9.236200e-02" stroke-miterlimit="10" d="M31.7,44.3c0,0,2.5,0.4,2.6,1.2
					l0.2,1L31.7,46L31.7,44.3z"/>
				<path fill-rule="evenodd" clip-rule="evenodd" fill="#FFFFFF" d="M67.8,38.9c0,0,0.6,0,0.7,0.9c0.1,0.9,0.6,4.3,0.3,5.6
					c0,0,0,0.7-1.1,1L64.4,47c0,0-0.4,0.1-0.3-0.3c0,0,1-4.6,1.2-5.1c0,0,0.7-1.8,1.6-2.3L67.8,38.9z"/>
				<circle fill="#F0B41C" stroke="#FFFFFF" stroke-width="9.236200e-02" stroke-miterlimit="10" cx="66.5" cy="42.8" r="1"/>
				<path fill="#F0B41C" stroke="#FFFFFF" stroke-width="9.236200e-02" stroke-miterlimit="10" d="M67.7,44.3c0,0-2.5,0.4-2.6,1.2
					l-0.2,1l2.7-0.5L67.7,44.3z"/>
				<path fill="#F0B41C" d="M38.4,42h-0.3l0.5,1.5c0,0,0.1,0.1,0.9,0.1c0.8,0,9.4,0.5,10.3,0.4v-0.1c0,0-10.5-0.3-10.7-0.5
					C38.8,43.2,38.4,42,38.4,42z"/>
				<path fill="#F0B41C" d="M61.1,42l0.4-0.1l-0.5,1.6c0,0-0.1,0.1-0.9,0.1c-0.8,0-9.4,0.5-10.3,0.4v-0.1c0,0,10.5-0.3,10.7-0.5
					C60.7,43.2,61.1,42,61.1,42z"/>
				<path fill="#F0B41C" d="M39.1,44.4l-0.4-0.1l0.5,1.6c0,0,0.1,0.1,0.9,0.1c0.8,0,8.9,0.5,9.7,0.4v-0.1c0,0-9.9-0.3-10.2-0.5
					C39.5,45.6,39.1,44.4,39.1,44.4z"/>
				<path fill="#F0B41C" d="M60.3,44.4l0.4-0.1l-0.5,1.6c0,0-0.1,0.1-0.9,0.1c-0.8,0-8.7,0.5-9.5,0.4v-0.1c0,0,9.7-0.3,10-0.5
					C60,45.6,60.3,44.4,60.3,44.4z"/>
				<rect x="49.7" y="41.9" fill="#F0B41C" width="0.1" height="5.8"/>
				<path fill="#FFFFFF" stroke="#F0B41C" stroke-width="0.2771" stroke-miterlimit="10" d="M47.2,43h2.6h2.7L52,43.7l-0.1,0.8
					c0,0,0,0.4-1,0.5l-1,0.1c0,0-0.2,0-0.3,0L48.4,45c0,0-0.6-0.1-0.7-0.5l-0.1-0.8L47.2,43z"/>
				<path fill="#F0B41C" stroke="#FFFFFF" stroke-width="9.236200e-02" stroke-miterlimit="10" d="M47.5,43.2h2.2H52l-0.3,0.4
					l-0.1,0.8c0,0-0.1,0.3-0.9,0.4l-0.9,0.1c0,0-0.2,0-0.2,0l-1-0.1c0,0-0.6-0.1-0.7-0.4l-0.1-0.7L47.5,43.2z"/>
			</g>
		</g>
	</g>
</g>
</svg>
