<?xml version="1.0" encoding="utf-8"?>
<!-- Generator: Adobe Illustrator 18.1.1, SVG Export Plug-In . SVG Version: 6.00 Build 0)  -->
<svg version="1.1" xmlns="http://www.w3.org/2000/svg" xmlns:xlink="http://www.w3.org/1999/xlink" x="0px" y="0px"
	 viewBox="0 0 100 100" enable-background="new 0 0 100 100" xml:space="preserve" width="100px" height="100px">
	<g class="our_brand">
		<circle class="grey_circle" fill="#B3B7BB" cx="50" cy="50" r="43.3"/>
		<g>
			<path class="shadow" fill="#7D7D7D" d="M85.8,49.2c-0.4,0-62.6-3.9-62.6-3.9l2,14.1l47.2,27.7C79,83,83.6,78.6,87.9,71
				c4.7-7.4,5.3-17.8,5.3-17.8"/>
			<g class="brand_car">
				<g class="_x3C_Path_x3E__1_">
					<g>
						<g>
							<path fill="#CC982B" d="M76.2,49.7c-2.9,0-5.3,2.4-5.3,5.3s2.4,5.3,5.3,5.3s5.3-2.4,5.3-5.3S79.1,49.7,76.2,49.7z M76.2,58.2
								c-1.8,0-3.2-1.4-3.2-3.2c0-1.8,1.4-3.2,3.2-3.2c1.8,0,3.2,1.4,3.2,3.2C79.4,56.7,77.9,58.2,76.2,58.2z"/>
						</g>
					</g>
					<g>
						<path fill="#FFFFFF" d="M76.2,51.8c-1.7,0-3.2,1.4-3.2,3.2c0,1.7,1.4,3.2,3.2,3.2c1.7,0,3.2-1.4,3.2-3.2
							C79.3,53.2,77.9,51.8,76.2,51.8z M76.2,55.8c-0.5,0-0.8-0.4-0.8-0.8c0-0.5,0.4-0.8,0.8-0.8c0.5,0,0.8,0.4,0.8,0.8
							C77,55.5,76.6,55.8,76.2,55.8z"/>
						<circle fill="#EEB21D" cx="76.2" cy="55" r="0.8"/>
					</g>
				</g>
				<g class="_x3C_Path_x3E_">
					<g>
						<g>
							<path fill="#CC982B" d="M28.4,49.7c-2.9,0-5.3,2.4-5.3,5.3s2.4,5.3,5.3,5.3s5.3-2.4,5.3-5.3S31.3,49.7,28.4,49.7z M28.4,58.2
								c-1.8,0-3.2-1.4-3.2-3.2c0-1.8,1.4-3.2,3.2-3.2s3.2,1.4,3.2,3.2C31.6,56.7,30.2,58.2,28.4,58.2z"/>
						</g>
					</g>
					<g>
						<path fill="#FFFFFF" d="M28.4,51.8c-1.7,0-3.2,1.4-3.2,3.2c0,1.7,1.4,3.2,3.2,3.2c1.7,0,3.2-1.4,3.2-3.2
							C31.6,53.2,30.2,51.8,28.4,51.8z M28.4,55.8c-0.5,0-0.8-0.4-0.8-0.8c0-0.5,0.4-0.8,0.8-0.8c0.5,0,0.8,0.4,0.8,0.8
							C29.3,55.5,28.9,55.8,28.4,55.8z"/>
						<circle fill="#EEB21D" cx="28.4" cy="55" r="0.8"/>
					</g>
				</g>
				<path class="_x3C_Path_x3E__2_" fill="#EEB21D" d="M88,51.7c0-0.2-0.2-0.3-0.6-1c-0.3-0.7-1-1.9-1.4-2.6c-0.5-0.7-0.7-1.1-0.9-1.3
					c-0.2-0.1-6.3-2.4-16.4-3.5c-0.3,0-1,0-1.1,0S67.1,43,67,43c-0.1,0-0.5,0.3-0.6,0.3S66,43.2,65.6,43c-0.3-0.2-7.2-3.7-10.2-4.7
					c-3-1-11.2-0.9-13.8-0.7c-1.9,0.1-2.1,0.2-2.1,0.2S38.4,37.2,38,37c-0.4-0.1-0.7,0-0.7,0l0,1.1c0,0-9.8,1.3-14.1,2.9
					c-0.9,0-2.1,0.4-2.6,0.4c-0.5,0-2.4,0-2.6-0.1C18,41.5,18.2,42,18.2,42s-0.7,1.1-0.9,1.3c-0.2,0.2-0.6,0.9-0.6,1s0.3,0.3,0.3,0.3
					s-1,1.9-1.1,2.5c-0.5,0.2-0.6,0.4-0.7,0.6c-0.1,0.2-0.9,2.9-0.9,3.2s0.2,1.4,0.3,1.6c0.1,0.2,0.2,1,0.2,1.1
					c0,0.1,0.6,0.8,0.8,0.9c0.2,0.1,0.9,0.3,1.5,0.5c0.7,0.2,3.5,1,3.8,1c0.2,0,0.7,0,0.7,0l0.3,0c0-0.3-0.1-0.6-0.1-1
					c0-3.6,3-6.6,6.6-6.6s6.6,3,6.6,6.6c0,0.6-0.1,1.1-0.2,1.7l0.3,0l0.1,0.5c0,0,2.7-0.2,4.2-0.2s19.6,0.2,22,0.2
					c2.3,0.1,7.3,0.4,7.9,0.5l0.8,0c-0.4-0.8-0.5-1.7-0.5-2.6c0-3.6,3-6.6,6.6-6.6s6.6,3,6.6,6.6c0,0.7-0.1,1.3-0.3,2l0.1,0v1.1
					c0,0,0.1,0.4,0.3,0.4c0.2,0,2.2,0,2.3,0c0.1,0,0.7-0.1,0.7-0.4s0-0.7,0-0.7s1.1-0.1,1.3-0.2s0.4-0.3,0.3-0.4
					c0-0.1-0.2-0.4-0.1-0.4c0.1-0.1,0.3-0.6,0.4-0.8c0.1-0.2,0.3-0.8,0.3-1.5C88,53.2,88.1,52,88,51.7z M29.4,42.7
					c0,0,10.9-3.8,11.6-3.9s4.1-0.2,4.1-0.2s-1.6,3.4-1.9,4.3C42.5,42.8,30.2,42.5,29.4,42.7z M51.5,43.4c-1.7,0-6.9-0.4-7.4-0.5
					c-0.1,0,0-0.1,0-0.1l1.8-4.3c0,0,5.4,0.1,6.3,0.3c0.9,0.2,2.6,0.2,7.4,2.8c0,0.4-0.2,1.1-0.2,1.5s0.1,0.6,0.2,0.6
					c0.1,0,0.1,0.3,0.1,0.3S53.2,43.4,51.5,43.4z"/>
				<path fill="#FFFFFF" d="M29.4,42.7c0,0,10.9-3.8,11.6-3.9c0.7-0.1,4.1-0.2,4.1-0.2s-1.6,3.4-1.9,4.3
					C42.5,42.8,30.1,42.5,29.4,42.7z"/>
				<path fill="#FFFFFF" d="M51.5,43.4c-1.7,0-6.9-0.4-7.4-0.5c-0.1,0,0-0.1,0-0.1l1.8-4.3c0,0,5.4,0.1,6.3,0.3
					c0.9,0.2,2.6,0.2,7.4,2.8c0,0.4-0.2,1.1-0.2,1.5s0.1,0.6,0.2,0.6c0.1,0,0.1,0.3,0.1,0.3S53.2,43.4,51.5,43.4"/>
			</g>
		</g>
	</g>
	<path class="white_circle" fill="#FFFFFF" d="M50,1.3C23.1,1.3,1.3,23.1,1.3,50c0,26.9,21.8,48.7,48.7,48.7
			C77,98.6,98.8,76.9,98.8,50C98.8,23.1,77,1.3,50,1.3z M50,93.4C26,93.4,6.5,74,6.5,49.9C6.5,25.9,26,6.5,50,6.5
			s43.5,19.5,43.5,43.5C93.5,74,74,93.4,50,93.4z"/>
	<g class="corner_path">
		<path fill="#FFFFFF" d="M0,0v100h100V0H0z M50,100C22.4,100,0,77.6,0,50C0,22.4,22.4,0,50,0c27.6,0,50,22.4,50,50S77.6,100,50,100z
			"/>
	</g>
	<circle class="out_circle" display="inline" fill="none" stroke="#6D6E70" stroke-width="1.3937" stroke-miterlimit="10" cx="50" cy="50" r="49.3"></circle>
</svg>
