<?xml version="1.0" encoding="utf-8"?>
<!-- Generator: Adobe Illustrator 18.1.1, SVG Export Plug-In . SVG Version: 6.00 Build 0)  -->
<svg version="1.1" id="Layer_1" xmlns="http://www.w3.org/2000/svg" xmlns:xlink="http://www.w3.org/1999/xlink" x="0px" y="0px"
	 viewBox="0 0 56.7 58.3" enable-background="new 0 0 56.7 58.3" xml:space="preserve">
<g>
	<g>
		<circle fill="#B3B8BC" cx="28.3" cy="29.3" r="22.7"/>
	</g>
	<circle fill="none" stroke="#6D6E71" stroke-miterlimit="10" cx="28.3" cy="29.3" r="25.8"/>
	<g>
		<g>
			<defs>
				<circle id="SVGID_1_" cx="28.3" cy="29.3" r="22.7"/>
			</defs>
			<clipPath id="SVGID_2_">
				<use xlink:href="#SVGID_1_"  overflow="visible"/>
			</clipPath>
			<path clip-path="url(#SVGID_2_)" fill="#898989" d="M35.2,16.7l18.4,10.8c0,0-3.6,21.3-4.5,20.8C48.2,47.9,38,53.4,38,53.4h-8.8
				l2.7-35.1L35.2,16.7z"/>
		</g>
		<g>
			<defs>
				<circle id="SVGID_3_" cx="28.3" cy="29.3" r="22.7"/>
			</defs>
			<clipPath id="SVGID_4_">
				<use xlink:href="#SVGID_3_"  overflow="visible"/>
			</clipPath>
			<g clip-path="url(#SVGID_4_)">
				<path fill-rule="evenodd" clip-rule="evenodd" fill="#F1B51C" d="M28.3,15.6c-4.6,0-8.3,1.1-8.3,2.4v42.5h16.5V18
					C36.6,16.7,32.9,15.6,28.3,15.6z"/>
				<g>
					<defs>
						<path id="SVGID_5_" d="M34.5,79.9C22.2,70.1,9.9,62.3-2.2,56.4C3.4,47.2,9,38.4,14.7,30C27,37.7,39.3,47.3,51.3,58.9
							C45.8,65.5,40.1,72.4,34.5,79.9z"/>
					</defs>
					<clipPath id="SVGID_6_">
						<use xlink:href="#SVGID_5_"  overflow="visible"/>
					</clipPath>
					<path clip-path="url(#SVGID_6_)" fill-rule="evenodd" clip-rule="evenodd" fill="#CC992B" d="M28.3,19.2
						c-4.6,0-8.3,1.1-8.3,2.4V64h16.5V21.5C36.6,20.2,32.9,19.2,28.3,19.2z"/>
				</g>
				<path fill="#FFFFFF" d="M36.6,40.3c-1.6-1.1-4.9-1.6-8.3-1.6c-3.3,0-6.7,0.5-8.2,1.6v1.4h0c0-0.8,3.2-2,8.2-2s8.2,1.2,8.2,2h0
					V40.3z"/>
				<g>
					<path fill-rule="evenodd" clip-rule="evenodd" fill="#FFFFFF" d="M23,20.1c0,3.4,0,6.8,0,10.2c3.5-0.8,7.2-0.8,10.7,0
						c0-3.4,0-6.8,0-10.2C30.1,19.2,26.5,19.2,23,20.1L23,20.1z M25.4,24.3c0-0.4,0-0.8,0-1.2c0-1.2,0.6-1.5,1.2-1.6
						c0.6,0,1.2,0.1,1.2,0.9c0,0.2,0,0.4,0,0.5c-0.2,0-0.5,0-0.7,0c0-0.1,0-0.2,0-0.4c0-0.4-0.1-0.5-0.5-0.5c-0.5,0-0.5,0.8-0.5,1.2
						c0,0.4,0,0.8,0,1.2c0,0.6,0,1,0.5,0.9c0.3,0,0.5-0.1,0.5-0.5c0-0.3,0-0.5,0-0.8c-0.2,0-0.3,0-0.5,0c0-0.2,0-0.4,0-0.6
						c0.4,0,0.8,0,1.2-0.1c0,0.9,0,1.7,0,2.6c-0.2,0-0.4,0-0.7,0c0-0.1,0-0.2,0-0.3c-0.1,0.2-0.5,0.3-0.7,0.4
						C25.3,26.3,25.4,25.6,25.4,24.3L25.4,24.3z M31.3,27.8c-2-0.3-3.9-0.3-5.9,0c0-0.4,0-0.8,0-1.2c2-0.3,3.9-0.2,5.9,0
						C31.3,27,31.3,27.4,31.3,27.8L31.3,27.8z M31.3,26.3c-0.2,0-0.5-0.1-0.7-0.1c0-1,0-2,0-3c-0.2,1-0.4,2-0.6,3
						c-0.2,0-0.4,0-0.6,0c-0.2-1-0.4-2-0.6-3c0,1,0,2,0,3c-0.2,0-0.5,0-0.7,0c0-1.5,0-3,0-4.5c0.3,0,0.6,0,0.9,0c0.2,1,0.4,2,0.6,3
						c0.2-1,0.4-2,0.6-2.9c0.3,0,0.6,0.1,0.9,0.1C31.3,23.3,31.3,24.8,31.3,26.3L31.3,26.3z"/>
				</g>
			</g>
		</g>
	</g>
	<g>
		<circle fill="#B3B8BC" cx="28.3" cy="29.3" r="22.7"/>
	</g>
	<circle fill="none" stroke="#6D6E71" stroke-miterlimit="10" cx="28.3" cy="29.3" r="25.8"/>
	<g>
		<g>
			<defs>
				<circle id="SVGID_7_" cx="28.3" cy="29.3" r="22.7"/>
			</defs>
			<clipPath id="SVGID_8_">
				<use xlink:href="#SVGID_7_"  overflow="visible"/>
			</clipPath>
			<path clip-path="url(#SVGID_8_)" fill="#898989" d="M35.2,16.7l18.4,10.8c0,0-3.6,21.3-4.5,20.8C48.2,47.9,38,53.4,38,53.4h-8.8
				l2.7-35.1L35.2,16.7z"/>
		</g>
		<g>
			<defs>
				<circle id="SVGID_9_" cx="28.3" cy="29.3" r="22.7"/>
			</defs>
			<clipPath id="SVGID_10_">
				<use xlink:href="#SVGID_9_"  overflow="visible"/>
			</clipPath>
			<g clip-path="url(#SVGID_10_)">
				<path fill-rule="evenodd" clip-rule="evenodd" fill="#F1B51C" d="M28.3,15.6c-4.6,0-8.3,1.1-8.3,2.4v42.5h16.5V18
					C36.6,16.7,32.9,15.6,28.3,15.6z"/>
				<g>
					<defs>
						<path id="SVGID_11_" d="M34.5,79.9C22.2,70.1,9.9,62.3-2.2,56.4C3.4,47.2,9,38.4,14.7,30C27,37.7,39.3,47.3,51.3,58.9
							C45.8,65.5,40.1,72.4,34.5,79.9z"/>
					</defs>
					<clipPath id="SVGID_12_">
						<use xlink:href="#SVGID_11_"  overflow="visible"/>
					</clipPath>
					<path clip-path="url(#SVGID_12_)" fill-rule="evenodd" clip-rule="evenodd" fill="#CC992B" d="M28.3,19.2
						c-4.6,0-8.3,1.1-8.3,2.4V64h16.5V21.5C36.6,20.2,32.9,19.2,28.3,19.2z"/>
				</g>
				<path fill="#FFFFFF" d="M36.6,40.3c-1.6-1.1-4.9-1.6-8.3-1.6c-3.3,0-6.7,0.5-8.2,1.6v1.4h0c0-0.8,3.2-2,8.2-2s8.2,1.2,8.2,2h0
					V40.3z"/>
				<g>
					<path fill-rule="evenodd" clip-rule="evenodd" fill="#FFFFFF" d="M23,20.1c0,3.4,0,6.8,0,10.2c3.5-0.8,7.2-0.8,10.7,0
						c0-3.4,0-6.8,0-10.2C30.1,19.2,26.5,19.2,23,20.1L23,20.1z M25.4,24.3c0-0.4,0-0.8,0-1.2c0-1.2,0.6-1.5,1.2-1.6
						c0.6,0,1.2,0.1,1.2,0.9c0,0.2,0,0.4,0,0.5c-0.2,0-0.5,0-0.7,0c0-0.1,0-0.2,0-0.4c0-0.4-0.1-0.5-0.5-0.5c-0.5,0-0.5,0.8-0.5,1.2
						c0,0.4,0,0.8,0,1.2c0,0.6,0,1,0.5,0.9c0.3,0,0.5-0.1,0.5-0.5c0-0.3,0-0.5,0-0.8c-0.2,0-0.3,0-0.5,0c0-0.2,0-0.4,0-0.6
						c0.4,0,0.8,0,1.2-0.1c0,0.9,0,1.7,0,2.6c-0.2,0-0.4,0-0.7,0c0-0.1,0-0.2,0-0.3c-0.1,0.2-0.5,0.3-0.7,0.4
						C25.3,26.3,25.4,25.6,25.4,24.3L25.4,24.3z M31.3,27.8c-2-0.3-3.9-0.3-5.9,0c0-0.4,0-0.8,0-1.2c2-0.3,3.9-0.2,5.9,0
						C31.3,27,31.3,27.4,31.3,27.8L31.3,27.8z M31.3,26.3c-0.2,0-0.5-0.1-0.7-0.1c0-1,0-2,0-3c-0.2,1-0.4,2-0.6,3
						c-0.2,0-0.4,0-0.6,0c-0.2-1-0.4-2-0.6-3c0,1,0,2,0,3c-0.2,0-0.5,0-0.7,0c0-1.5,0-3,0-4.5c0.3,0,0.6,0,0.9,0c0.2,1,0.4,2,0.6,3
						c0.2-1,0.4-2,0.6-2.9c0.3,0,0.6,0.1,0.9,0.1C31.3,23.3,31.3,24.8,31.3,26.3L31.3,26.3z"/>
				</g>
			</g>
		</g>
	</g>
</g>
</svg>
