<?xml version="1.0" encoding="utf-8"?>
<!-- Generator: Adobe Illustrator 18.1.1, SVG Export Plug-In . SVG Version: 6.00 Build 0)  -->
<svg version="1.1" id="Layer_1" xmlns="http://www.w3.org/2000/svg" xmlns:xlink="http://www.w3.org/1999/xlink" x="0px" y="0px"
	 viewBox="0 0 66.8 66.8" enable-background="new 0 0 66.8 66.8" xml:space="preserve">
<g>
	<path fill="#F1B51C" d="M52.6,26.8l-18.9-7.3c-0.2-0.1-0.4-0.1-0.6,0l-18.9,7.3c-0.3,0.1-0.5,0.4-0.5,0.7c0,0.3,0.2,0.6,0.5,0.7
		l6.4,2.5v10.4c0,0.6,0,1.7,12.8,5.4c0.1,0,0.1,0,0.2,0c0.1,0,0.2,0,0.2,0c12.4-3.7,12.4-4.8,12.4-5.4V30.8l2.7-1v9.8h-0.7
		c-0.4,0-0.8,0.4-0.8,0.8v6.3c0,0.4,0.4,0.8,0.8,0.8h3c0.4,0,0.8-0.4,0.8-0.8v-6.3c0-0.4-0.4-0.8-0.8-0.8h-0.7V29.1l2.1-0.8
		c0.3-0.1,0.5-0.4,0.5-0.7C53.1,27.2,52.9,26.9,52.6,26.8z M50.4,45.7H49v-4.7h1.4V45.7z M33.4,21.1l16.7,6.5L33.4,34l-16.7-6.4
		L33.4,21.1z M44.6,40.9c-1,0.7-6.3,2.6-11,4.1c-4.9-1.4-10.4-3.3-11.4-4.1v-9.5l10.9,4.2c0.1,0,0.2,0.1,0.3,0.1s0.2,0,0.3-0.1
		l10.9-4.2V40.9z"/>
</g>
</svg>
