<?xml version="1.0" encoding="utf-8"?>
<!-- Generator: Adobe Illustrator 18.1.1, SVG Export Plug-In . SVG Version: 6.00 Build 0)  -->
<svg version="1.1" id="Layer_1" xmlns="http://www.w3.org/2000/svg" xmlns:xlink="http://www.w3.org/1999/xlink" x="0px" y="0px"
	 viewBox="0 0 163.3 78.8" enable-background="new 0 0 163.3 78.8" xml:space="preserve">
<g id="Picture_3_">
	<g>
		<path fill="#B3B8BC" d="M159,0.8H83.5c-2,0-3.7,1.7-3.7,3.8v35.1c0,2.1,1.6,3.8,3.7,3.8H159c2,0,3.7-1.7,3.7-3.8V4.7
			C162.6,2.6,161,0.8,159,0.8z M160,39.8c0,0.6-0.4,1.2-1,1.2H83.5c-0.6,0-1-0.5-1-1.2V4.7c0-0.6,0.4-1.2,1-1.2H159
			c0.6,0,1,0.5,1,1.2V39.8z"/>
	</g>
</g>
<g id="Picture_1_">
	<g>
		<path fill="#B3B8BC" d="M152.3,7.5H90.2c-2,0-3.7,1.7-3.7,3.8v21.7c0,2.1,1.6,3.8,3.7,3.8h62.1c2,0,3.7-1.7,3.7-3.8V11.4
			C156,9.3,154.3,7.5,152.3,7.5z M153.3,33.1c0,0.6-0.4,1.2-1,1.2H90.2c-0.6,0-1-0.5-1-1.2V11.4c0-0.6,0.4-1.2,1-1.2h62.1
			c0.6,0,1,0.5,1,1.2V33.1z"/>
	</g>
</g>
<g id="Photo_x5F_Camera_1_">
	<g>
		<path fill="#B3B8BC" d="M46.8,1.1H5.5c-2.6,0-4.8,2.1-4.8,4.8v34.9c0,2.6,2.1,4.8,4.8,4.8h41.3c2.6,0,4.8-2.1,4.8-4.8V5.9
			C51.6,3.2,49.5,1.1,46.8,1.1z M4,18.6h9.4c-1,1.9-1.5,4.1-1.5,6.4c0,2.3,0.6,4.4,1.5,6.4H4V18.6z M48.4,40.8
			c0,0.9-0.7,1.6-1.6,1.6H5.5c-0.9,0-1.6-0.7-1.6-1.6v-6.4h11.1c0.1,0,0.3,0,0.4-0.1c2.6,3,6.4,4.8,10.7,4.8s8.1-1.9,10.7-4.8
			c0.1,0,0.3,0.1,0.4,0.1h11.1V40.8z M15.1,24.9c0-6.1,5-11.1,11.1-11.1s11.1,5,11.1,11.1c0,6.1-5,11.1-11.1,11.1S15.1,31,15.1,24.9
			z M48.4,31.3H39c1-1.9,1.5-4.1,1.5-6.4c0-2.3-0.6-4.4-1.5-6.4h9.4V31.3z M48.4,15.4H37.3c-0.1,0-0.3,0-0.4,0.1
			c-2.6-3-6.4-4.8-10.7-4.8s-8.1,1.9-10.7,4.8c-0.1,0-0.3-0.1-0.4-0.1H4V5.9C4,5,4.7,4.3,5.5,4.3h41.3c0.9,0,1.6,0.7,1.6,1.6V15.4z"
			/>
	</g>
</g>
<circle fill="#B3B8BC" cx="26.2" cy="24.8" r="6.3"/>
<path fill="#F1B51C" d="M117.9,77.9c3,0,5.5-2.5,5.5-5.5v-2.6c2.6-0.9,4.5-3.3,4.5-6.2c0-3.6-2.9-6.6-6.6-6.6
	c-3.6,0-6.6,2.9-6.6,6.6c0,3.1,2.2,5.8,5.2,6.4v2.4c0,1.1-0.9,2-2,2H29.8c-1.1,0-2-0.9-2-2V70c2.9-0.7,5.1-3.3,5.1-6.4
	c0-3.6-2.9-6.6-6.6-6.6c-3.6,0-6.6,2.9-6.6,6.6c0,2.9,1.9,5.4,4.6,6.2v2.6c0,3,2.5,5.5,5.5,5.5H117.9z M23.2,63.7
	c0-1.7,1.4-3.1,3.1-3.1c1.7,0,3.1,1.4,3.1,3.1c0,1.7-1.4,3.1-3.1,3.1C24.6,66.7,23.2,65.4,23.2,63.7z M118.2,63.7
	c0-1.7,1.4-3.1,3.1-3.1c1.7,0,3.1,1.4,3.1,3.1c0,1.7-1.4,3.1-3.1,3.1C119.6,66.7,118.2,65.4,118.2,63.7z"/>
</svg>
