<?xml version="1.0" encoding="utf-8"?>
<!-- Generator: Adobe Illustrator 18.1.1, SVG Export Plug-In . SVG Version: 6.00 Build 0)  -->
<svg version="1.1" id="vision" xmlns="http://www.w3.org/2000/svg" xmlns:xlink="http://www.w3.org/1999/xlink" x="0px" y="0px"
	 viewBox="0 0 165.2 79.4" enable-background="new 0 0 165.2 79.4" xml:space="preserve">
<g id="picture-outer">
	<g>
		<path fill="#B3B8BC" d="M159.8,1.2H84.3c-2,0-3.7,1.7-3.7,3.8v35.1c0,2.1,1.6,3.8,3.7,3.8h75.5c2,0,3.7-1.7,3.7-3.8V5
			C163.4,2.9,161.8,1.2,159.8,1.2z M160.8,40.1c0,0.6-0.4,1.2-1,1.2H84.3c-0.6,0-1-0.5-1-1.2V5c0-0.6,0.4-1.2,1-1.2h75.5
			c0.6,0,1,0.5,1,1.2V40.1z"/>
	</g>
</g>
<g id="Picture_1_">
	<g>
		<path fill="#B3B8BC" d="M153.1,7.9H91c-2,0-3.7,1.7-3.7,3.8v21.7c0,2.1,1.6,3.8,3.7,3.8h62.1c2,0,3.7-1.7,3.7-3.8V11.7
			C156.8,9.6,155.1,7.9,153.1,7.9z M154.1,33.4c0,0.6-0.4,1.2-1,1.2H91c-0.6,0-1-0.5-1-1.2V11.7c0-0.6,0.4-1.2,1-1.2h62.1
			c0.6,0,1,0.5,1,1.2V33.4z"/>
	</g>
</g>
<g id="camera">
	<g>
		<path fill="#B3B8BC" d="M47.6,1.4H6.4c-2.6,0-4.8,2.1-4.8,4.8v34.9c0,2.6,2.1,4.8,4.8,4.8h41.3c2.6,0,4.8-2.1,4.8-4.8V6.2
			C52.4,3.6,50.3,1.4,47.6,1.4z M4.8,18.9h9.4c-1,1.9-1.5,4.1-1.5,6.4c0,2.3,0.6,4.4,1.5,6.4H4.8V18.9z M49.2,41.1
			c0,0.9-0.7,1.6-1.6,1.6H6.4c-0.9,0-1.6-0.7-1.6-1.6v-6.4h11.1c0.1,0,0.3,0,0.4-0.1c2.6,3,6.4,4.8,10.7,4.8s8.1-1.9,10.7-4.8
			c0.1,0,0.3,0.1,0.4,0.1h11.1V41.1z M15.9,25.3c0-6.1,5-11.1,11.1-11.1s11.1,5,11.1,11.1s-5,11.1-11.1,11.1S15.9,31.4,15.9,25.3z
			 M49.2,31.6h-9.4c1-1.9,1.5-4.1,1.5-6.4c0-2.3-0.6-4.4-1.5-6.4h9.4V31.6z M49.2,15.7H38.1c-0.1,0-0.3,0-0.4,0.1
			c-2.6-3-6.4-4.8-10.7-4.8s-8.1,1.9-10.7,4.8c-0.1,0-0.3-0.1-0.4-0.1H4.8V6.2c0-0.9,0.7-1.6,1.6-1.6h41.3c0.9,0,1.6,0.7,1.6,1.6
			V15.7z"/>
	</g>
</g>
<circle id="circle" fill="#B3B8BC" cx="27" cy="25.2" r="6.3"/>
<path id="orange-stroke" fill="#F1B51C" d="M118.7,78.3c3,0,5.5-2.5,5.5-5.5v-2.6c2.6-0.9,4.5-3.3,4.5-6.2c0-3.6-2.9-6.6-6.6-6.6
	c-3.6,0-6.6,2.9-6.6,6.6c0,3.1,2.2,5.8,5.2,6.4v2.4c0,1.1-0.9,2-2,2H30.6c-1.1,0-2-0.9-2-2v-2.4c2.9-0.7,5.1-3.3,5.1-6.4
	c0-3.6-2.9-6.6-6.6-6.6c-3.6,0-6.6,2.9-6.6,6.6c0,2.9,1.9,5.4,4.6,6.2v2.6c0,3,2.5,5.5,5.5,5.5H118.7z M24,64c0-1.7,1.4-3.1,3.1-3.1
	c1.7,0,3.1,1.4,3.1,3.1c0,1.7-1.4,3.1-3.1,3.1C25.4,67.1,24,65.7,24,64z M119,64c0-1.7,1.4-3.1,3.1-3.1c1.7,0,3.1,1.4,3.1,3.1
	c0,1.7-1.4,3.1-3.1,3.1C120.4,67.1,119,65.7,119,64z"/>
</svg>
